%FSLAX45Y45*%
G04 Gerber Fmt 4.5, Leading zero omitted, Abs format (unit mm)*
G04 Created by KiCad (PCBNEW 4.0.7) date 01/22/18 00:42:28*
%MOMM*%
%LPD*%
G01*
G04 APERTURE LIST*
%ADD10C,0.127000*%
%ADD11C,0.100000*%
%ADD12C,0.200000*%
%ADD13C,0.300000*%
G04 APERTURE END LIST*
D10*
D11*
X5207000Y-9398000D02*
X5207000Y-6350000D01*
X11707000Y-5176000D02*
G75*
G03X11407000Y-4876000I-300000J0D01*
G01*
X5507000Y-4876000D02*
X11407000Y-4876000D01*
X5507000Y-4876000D02*
G75*
G03X5207000Y-5176000I0J-300000D01*
G01*
X11407000Y-10476000D02*
G75*
G03X11707000Y-10176000I0J300000D01*
G01*
X5207000Y-10176000D02*
G75*
G03X5507000Y-10476000I300000J0D01*
G01*
X5507000Y-4826000D02*
G75*
G03X5207000Y-5126000I0J-300000D01*
G01*
X11707000Y-5126000D02*
G75*
G03X11407000Y-4826000I-300000J0D01*
G01*
X5207000Y-8626000D02*
X5207000Y-10176000D01*
X5207000Y-5126000D02*
X5207000Y-6726000D01*
X5507000Y-10476000D02*
X11407000Y-10476000D01*
X11707000Y-5126000D02*
X11707000Y-10176000D01*
X5507000Y-4826000D02*
X11407000Y-4826000D01*
D12*
X6193000Y-8626000D02*
X6253000Y-8686000D01*
X6253000Y-8626000D02*
X6193000Y-8686000D01*
X6193000Y-9876000D02*
X6253000Y-9936000D01*
X6253000Y-9876000D02*
X6193000Y-9936000D01*
X6693000Y-8626000D02*
X6753000Y-8686000D01*
X6753000Y-8626000D02*
X6693000Y-8686000D01*
X6693000Y-9876000D02*
X6753000Y-9936000D01*
X6753000Y-9876000D02*
X6693000Y-9936000D01*
X7463000Y-8626000D02*
X7523000Y-8686000D01*
X7523000Y-8626000D02*
X7463000Y-8686000D01*
X7463000Y-9876000D02*
X7523000Y-9936000D01*
X7523000Y-9876000D02*
X7463000Y-9936000D01*
X7844000Y-7590000D02*
X7904000Y-7650000D01*
X7904000Y-7590000D02*
X7844000Y-7650000D01*
X7844000Y-7844000D02*
X7904000Y-7904000D01*
X7904000Y-7844000D02*
X7844000Y-7904000D01*
X7963000Y-8626000D02*
X8023000Y-8686000D01*
X8023000Y-8626000D02*
X7963000Y-8686000D01*
X7963000Y-9876000D02*
X8023000Y-9936000D01*
X8023000Y-9876000D02*
X7963000Y-9936000D01*
X8733000Y-8626000D02*
X8793000Y-8686000D01*
X8793000Y-8626000D02*
X8733000Y-8686000D01*
X8733000Y-9876000D02*
X8793000Y-9936000D01*
X8793000Y-9876000D02*
X8733000Y-9936000D01*
X9114000Y-6193000D02*
X9174000Y-6253000D01*
X9174000Y-6193000D02*
X9114000Y-6253000D01*
X9114000Y-6447000D02*
X9174000Y-6507000D01*
X9174000Y-6447000D02*
X9114000Y-6507000D01*
X9114000Y-7590000D02*
X9174000Y-7650000D01*
X9174000Y-7590000D02*
X9114000Y-7650000D01*
X9114000Y-7844000D02*
X9174000Y-7904000D01*
X9174000Y-7844000D02*
X9114000Y-7904000D01*
X9233000Y-8626000D02*
X9293000Y-8686000D01*
X9293000Y-8626000D02*
X9233000Y-8686000D01*
X9233000Y-9876000D02*
X9293000Y-9936000D01*
X9293000Y-9876000D02*
X9233000Y-9936000D01*
X10130000Y-8626000D02*
X10190000Y-8686000D01*
X10190000Y-8626000D02*
X10130000Y-8686000D01*
X10130000Y-9876000D02*
X10190000Y-9936000D01*
X10190000Y-9876000D02*
X10130000Y-9936000D01*
X10384000Y-6193000D02*
X10444000Y-6253000D01*
X10444000Y-6193000D02*
X10384000Y-6253000D01*
X10384000Y-6447000D02*
X10444000Y-6507000D01*
X10444000Y-6447000D02*
X10384000Y-6507000D01*
X10384000Y-7590000D02*
X10444000Y-7650000D01*
X10444000Y-7590000D02*
X10384000Y-7650000D01*
X10384000Y-7844000D02*
X10444000Y-7904000D01*
X10444000Y-7844000D02*
X10384000Y-7904000D01*
X10630000Y-8626000D02*
X10690000Y-8686000D01*
X10690000Y-8626000D02*
X10630000Y-8686000D01*
X10630000Y-9876000D02*
X10690000Y-9936000D01*
X10690000Y-9876000D02*
X10630000Y-9936000D01*
X6089000Y-5099000D02*
G75*
G03X6089000Y-5099000I-45000J0D01*
G01*
X6089000Y-5353000D02*
G75*
G03X6089000Y-5353000I-45000J0D01*
G01*
X6343000Y-5099000D02*
G75*
G03X6343000Y-5099000I-45000J0D01*
G01*
X6343000Y-5353000D02*
G75*
G03X6343000Y-5353000I-45000J0D01*
G01*
X6597000Y-5099000D02*
G75*
G03X6597000Y-5099000I-45000J0D01*
G01*
X6597000Y-5353000D02*
G75*
G03X6597000Y-5353000I-45000J0D01*
G01*
X6851000Y-5099000D02*
G75*
G03X6851000Y-5099000I-45000J0D01*
G01*
X6851000Y-5353000D02*
G75*
G03X6851000Y-5353000I-45000J0D01*
G01*
X7105000Y-5099000D02*
G75*
G03X7105000Y-5099000I-45000J0D01*
G01*
X7105000Y-5353000D02*
G75*
G03X7105000Y-5353000I-45000J0D01*
G01*
X7359000Y-5099000D02*
G75*
G03X7359000Y-5099000I-45000J0D01*
G01*
X7359000Y-5353000D02*
G75*
G03X7359000Y-5353000I-45000J0D01*
G01*
X7613000Y-5099000D02*
G75*
G03X7613000Y-5099000I-45000J0D01*
G01*
X7613000Y-5353000D02*
G75*
G03X7613000Y-5353000I-45000J0D01*
G01*
X7867000Y-5099000D02*
G75*
G03X7867000Y-5099000I-45000J0D01*
G01*
X7867000Y-5353000D02*
G75*
G03X7867000Y-5353000I-45000J0D01*
G01*
X8121000Y-5099000D02*
G75*
G03X8121000Y-5099000I-45000J0D01*
G01*
X8121000Y-5353000D02*
G75*
G03X8121000Y-5353000I-45000J0D01*
G01*
X8375000Y-5099000D02*
G75*
G03X8375000Y-5099000I-45000J0D01*
G01*
X8375000Y-5353000D02*
G75*
G03X8375000Y-5353000I-45000J0D01*
G01*
X8629000Y-5099000D02*
G75*
G03X8629000Y-5099000I-45000J0D01*
G01*
X8629000Y-5353000D02*
G75*
G03X8629000Y-5353000I-45000J0D01*
G01*
X8883000Y-5099000D02*
G75*
G03X8883000Y-5099000I-45000J0D01*
G01*
X8883000Y-5353000D02*
G75*
G03X8883000Y-5353000I-45000J0D01*
G01*
X9137000Y-5099000D02*
G75*
G03X9137000Y-5099000I-45000J0D01*
G01*
X9137000Y-5353000D02*
G75*
G03X9137000Y-5353000I-45000J0D01*
G01*
X9391000Y-5099000D02*
G75*
G03X9391000Y-5099000I-45000J0D01*
G01*
X9391000Y-5353000D02*
G75*
G03X9391000Y-5353000I-45000J0D01*
G01*
X9645000Y-5099000D02*
G75*
G03X9645000Y-5099000I-45000J0D01*
G01*
X9645000Y-5353000D02*
G75*
G03X9645000Y-5353000I-45000J0D01*
G01*
X9899000Y-5099000D02*
G75*
G03X9899000Y-5099000I-45000J0D01*
G01*
X9899000Y-5353000D02*
G75*
G03X9899000Y-5353000I-45000J0D01*
G01*
X10153000Y-5099000D02*
G75*
G03X10153000Y-5099000I-45000J0D01*
G01*
X10153000Y-5353000D02*
G75*
G03X10153000Y-5353000I-45000J0D01*
G01*
X10407000Y-5099000D02*
G75*
G03X10407000Y-5099000I-45000J0D01*
G01*
X10407000Y-5353000D02*
G75*
G03X10407000Y-5353000I-45000J0D01*
G01*
X10661000Y-5099000D02*
G75*
G03X10661000Y-5099000I-45000J0D01*
G01*
X10661000Y-5353000D02*
G75*
G03X10661000Y-5353000I-45000J0D01*
G01*
X10915000Y-5099000D02*
G75*
G03X10915000Y-5099000I-45000J0D01*
G01*
X10915000Y-5353000D02*
G75*
G03X10915000Y-5353000I-45000J0D01*
G01*
D13*
X5473429Y-10946714D02*
X5473429Y-10646714D01*
X5544857Y-10646714D01*
X5587714Y-10661000D01*
X5616286Y-10689572D01*
X5630571Y-10718143D01*
X5644857Y-10775286D01*
X5644857Y-10818143D01*
X5630571Y-10875286D01*
X5616286Y-10903857D01*
X5587714Y-10932429D01*
X5544857Y-10946714D01*
X5473429Y-10946714D01*
X5773428Y-10946714D02*
X5773428Y-10746714D01*
X5773428Y-10803857D02*
X5787714Y-10775286D01*
X5802000Y-10761000D01*
X5830571Y-10746714D01*
X5859143Y-10746714D01*
X5959143Y-10946714D02*
X5959143Y-10746714D01*
X5959143Y-10646714D02*
X5944857Y-10661000D01*
X5959143Y-10675286D01*
X5973428Y-10661000D01*
X5959143Y-10646714D01*
X5959143Y-10675286D01*
X6144857Y-10946714D02*
X6116286Y-10932429D01*
X6102000Y-10903857D01*
X6102000Y-10646714D01*
X6302000Y-10946714D02*
X6273428Y-10932429D01*
X6259143Y-10903857D01*
X6259143Y-10646714D01*
X6644857Y-10946714D02*
X6644857Y-10646714D01*
X6744857Y-10861000D01*
X6844857Y-10646714D01*
X6844857Y-10946714D01*
X7116286Y-10946714D02*
X7116286Y-10789572D01*
X7102000Y-10761000D01*
X7073428Y-10746714D01*
X7016286Y-10746714D01*
X6987714Y-10761000D01*
X7116286Y-10932429D02*
X7087714Y-10946714D01*
X7016286Y-10946714D01*
X6987714Y-10932429D01*
X6973428Y-10903857D01*
X6973428Y-10875286D01*
X6987714Y-10846714D01*
X7016286Y-10832429D01*
X7087714Y-10832429D01*
X7116286Y-10818143D01*
X7259143Y-10746714D02*
X7259143Y-11046714D01*
X7259143Y-10761000D02*
X7287714Y-10746714D01*
X7344857Y-10746714D01*
X7373428Y-10761000D01*
X7387714Y-10775286D01*
X7402000Y-10803857D01*
X7402000Y-10889572D01*
X7387714Y-10918143D01*
X7373428Y-10932429D01*
X7344857Y-10946714D01*
X7287714Y-10946714D01*
X7259143Y-10932429D01*
X7530571Y-10918143D02*
X7544857Y-10932429D01*
X7530571Y-10946714D01*
X7516286Y-10932429D01*
X7530571Y-10918143D01*
X7530571Y-10946714D01*
X7530571Y-10761000D02*
X7544857Y-10775286D01*
X7530571Y-10789572D01*
X7516286Y-10775286D01*
X7530571Y-10761000D01*
X7530571Y-10789572D01*
X5142000Y-11411000D02*
X5202000Y-11471000D01*
X5202000Y-11411000D02*
X5142000Y-11471000D01*
X5530571Y-11276714D02*
X5559143Y-11276714D01*
X5587714Y-11291000D01*
X5602000Y-11305286D01*
X5616286Y-11333857D01*
X5630571Y-11391000D01*
X5630571Y-11462429D01*
X5616286Y-11519571D01*
X5602000Y-11548143D01*
X5587714Y-11562429D01*
X5559143Y-11576714D01*
X5530571Y-11576714D01*
X5502000Y-11562429D01*
X5487714Y-11548143D01*
X5473429Y-11519571D01*
X5459143Y-11462429D01*
X5459143Y-11391000D01*
X5473429Y-11333857D01*
X5487714Y-11305286D01*
X5502000Y-11291000D01*
X5530571Y-11276714D01*
X5759143Y-11548143D02*
X5773428Y-11562429D01*
X5759143Y-11576714D01*
X5744857Y-11562429D01*
X5759143Y-11548143D01*
X5759143Y-11576714D01*
X6030571Y-11276714D02*
X5973428Y-11276714D01*
X5944857Y-11291000D01*
X5930571Y-11305286D01*
X5902000Y-11348143D01*
X5887714Y-11405286D01*
X5887714Y-11519571D01*
X5902000Y-11548143D01*
X5916286Y-11562429D01*
X5944857Y-11576714D01*
X6002000Y-11576714D01*
X6030571Y-11562429D01*
X6044857Y-11548143D01*
X6059143Y-11519571D01*
X6059143Y-11448143D01*
X6044857Y-11419571D01*
X6030571Y-11405286D01*
X6002000Y-11391000D01*
X5944857Y-11391000D01*
X5916286Y-11405286D01*
X5902000Y-11419571D01*
X5887714Y-11448143D01*
X6244857Y-11276714D02*
X6273428Y-11276714D01*
X6302000Y-11291000D01*
X6316286Y-11305286D01*
X6330571Y-11333857D01*
X6344857Y-11391000D01*
X6344857Y-11462429D01*
X6330571Y-11519571D01*
X6316286Y-11548143D01*
X6302000Y-11562429D01*
X6273428Y-11576714D01*
X6244857Y-11576714D01*
X6216286Y-11562429D01*
X6202000Y-11548143D01*
X6187714Y-11519571D01*
X6173428Y-11462429D01*
X6173428Y-11391000D01*
X6187714Y-11333857D01*
X6202000Y-11305286D01*
X6216286Y-11291000D01*
X6244857Y-11276714D01*
X6473428Y-11576714D02*
X6473428Y-11376714D01*
X6473428Y-11405286D02*
X6487714Y-11391000D01*
X6516286Y-11376714D01*
X6559143Y-11376714D01*
X6587714Y-11391000D01*
X6602000Y-11419571D01*
X6602000Y-11576714D01*
X6602000Y-11419571D02*
X6616286Y-11391000D01*
X6644857Y-11376714D01*
X6687714Y-11376714D01*
X6716286Y-11391000D01*
X6730571Y-11419571D01*
X6730571Y-11576714D01*
X6873428Y-11576714D02*
X6873428Y-11376714D01*
X6873428Y-11405286D02*
X6887714Y-11391000D01*
X6916286Y-11376714D01*
X6959143Y-11376714D01*
X6987714Y-11391000D01*
X7002000Y-11419571D01*
X7002000Y-11576714D01*
X7002000Y-11419571D02*
X7016286Y-11391000D01*
X7044857Y-11376714D01*
X7087714Y-11376714D01*
X7116286Y-11391000D01*
X7130571Y-11419571D01*
X7130571Y-11576714D01*
X7716286Y-11262429D02*
X7459143Y-11648143D01*
X8102000Y-11276714D02*
X8130571Y-11276714D01*
X8159143Y-11291000D01*
X8173428Y-11305286D01*
X8187714Y-11333857D01*
X8202000Y-11391000D01*
X8202000Y-11462429D01*
X8187714Y-11519571D01*
X8173428Y-11548143D01*
X8159143Y-11562429D01*
X8130571Y-11576714D01*
X8102000Y-11576714D01*
X8073428Y-11562429D01*
X8059143Y-11548143D01*
X8044857Y-11519571D01*
X8030571Y-11462429D01*
X8030571Y-11391000D01*
X8044857Y-11333857D01*
X8059143Y-11305286D01*
X8073428Y-11291000D01*
X8102000Y-11276714D01*
X8330571Y-11548143D02*
X8344857Y-11562429D01*
X8330571Y-11576714D01*
X8316286Y-11562429D01*
X8330571Y-11548143D01*
X8330571Y-11576714D01*
X8530571Y-11276714D02*
X8559143Y-11276714D01*
X8587714Y-11291000D01*
X8602000Y-11305286D01*
X8616286Y-11333857D01*
X8630571Y-11391000D01*
X8630571Y-11462429D01*
X8616286Y-11519571D01*
X8602000Y-11548143D01*
X8587714Y-11562429D01*
X8559143Y-11576714D01*
X8530571Y-11576714D01*
X8502000Y-11562429D01*
X8487714Y-11548143D01*
X8473428Y-11519571D01*
X8459143Y-11462429D01*
X8459143Y-11391000D01*
X8473428Y-11333857D01*
X8487714Y-11305286D01*
X8502000Y-11291000D01*
X8530571Y-11276714D01*
X8744857Y-11305286D02*
X8759143Y-11291000D01*
X8787714Y-11276714D01*
X8859143Y-11276714D01*
X8887714Y-11291000D01*
X8902000Y-11305286D01*
X8916286Y-11333857D01*
X8916286Y-11362429D01*
X8902000Y-11405286D01*
X8730571Y-11576714D01*
X8916286Y-11576714D01*
X9173428Y-11376714D02*
X9173428Y-11576714D01*
X9102000Y-11262429D02*
X9030571Y-11476714D01*
X9216286Y-11476714D01*
X9316286Y-11276714D02*
X9316286Y-11333857D01*
X9430571Y-11276714D02*
X9430571Y-11333857D01*
X9873428Y-11691000D02*
X9859143Y-11676714D01*
X9830571Y-11633857D01*
X9816286Y-11605286D01*
X9802000Y-11562429D01*
X9787714Y-11491000D01*
X9787714Y-11433857D01*
X9802000Y-11362429D01*
X9816286Y-11319571D01*
X9830571Y-11291000D01*
X9859143Y-11248143D01*
X9873428Y-11233857D01*
X9973428Y-11305286D02*
X9987714Y-11291000D01*
X10016286Y-11276714D01*
X10087714Y-11276714D01*
X10116286Y-11291000D01*
X10130571Y-11305286D01*
X10144857Y-11333857D01*
X10144857Y-11362429D01*
X10130571Y-11405286D01*
X9959143Y-11576714D01*
X10144857Y-11576714D01*
X10402000Y-11276714D02*
X10344857Y-11276714D01*
X10316286Y-11291000D01*
X10302000Y-11305286D01*
X10273428Y-11348143D01*
X10259143Y-11405286D01*
X10259143Y-11519571D01*
X10273428Y-11548143D01*
X10287714Y-11562429D01*
X10316286Y-11576714D01*
X10373428Y-11576714D01*
X10402000Y-11562429D01*
X10416286Y-11548143D01*
X10430571Y-11519571D01*
X10430571Y-11448143D01*
X10416286Y-11419571D01*
X10402000Y-11405286D01*
X10373428Y-11391000D01*
X10316286Y-11391000D01*
X10287714Y-11405286D01*
X10273428Y-11419571D01*
X10259143Y-11448143D01*
X10787714Y-11576714D02*
X10787714Y-11276714D01*
X10916286Y-11576714D02*
X10916286Y-11419571D01*
X10902000Y-11391000D01*
X10873428Y-11376714D01*
X10830571Y-11376714D01*
X10802000Y-11391000D01*
X10787714Y-11405286D01*
X11102000Y-11576714D02*
X11073428Y-11562429D01*
X11059143Y-11548143D01*
X11044857Y-11519571D01*
X11044857Y-11433857D01*
X11059143Y-11405286D01*
X11073428Y-11391000D01*
X11102000Y-11376714D01*
X11144857Y-11376714D01*
X11173428Y-11391000D01*
X11187714Y-11405286D01*
X11202000Y-11433857D01*
X11202000Y-11519571D01*
X11187714Y-11548143D01*
X11173428Y-11562429D01*
X11144857Y-11576714D01*
X11102000Y-11576714D01*
X11373428Y-11576714D02*
X11344857Y-11562429D01*
X11330571Y-11533857D01*
X11330571Y-11276714D01*
X11602000Y-11562429D02*
X11573428Y-11576714D01*
X11516286Y-11576714D01*
X11487714Y-11562429D01*
X11473428Y-11533857D01*
X11473428Y-11419571D01*
X11487714Y-11391000D01*
X11516286Y-11376714D01*
X11573428Y-11376714D01*
X11602000Y-11391000D01*
X11616286Y-11419571D01*
X11616286Y-11448143D01*
X11473428Y-11476714D01*
X11730571Y-11562429D02*
X11759143Y-11576714D01*
X11816286Y-11576714D01*
X11844857Y-11562429D01*
X11859143Y-11533857D01*
X11859143Y-11519571D01*
X11844857Y-11491000D01*
X11816286Y-11476714D01*
X11773428Y-11476714D01*
X11744857Y-11462429D01*
X11730571Y-11433857D01*
X11730571Y-11419571D01*
X11744857Y-11391000D01*
X11773428Y-11376714D01*
X11816286Y-11376714D01*
X11844857Y-11391000D01*
X11959143Y-11691000D02*
X11973428Y-11676714D01*
X12002000Y-11633857D01*
X12016286Y-11605286D01*
X12030571Y-11562429D01*
X12044857Y-11491000D01*
X12044857Y-11433857D01*
X12030571Y-11362429D01*
X12016286Y-11319571D01*
X12002000Y-11291000D01*
X11973428Y-11248143D01*
X11959143Y-11233857D01*
X5202000Y-11837000D02*
G75*
G03X5202000Y-11837000I-45000J0D01*
G01*
X5530571Y-11672714D02*
X5559143Y-11672714D01*
X5587714Y-11687000D01*
X5602000Y-11701286D01*
X5616286Y-11729857D01*
X5630571Y-11787000D01*
X5630571Y-11858429D01*
X5616286Y-11915571D01*
X5602000Y-11944143D01*
X5587714Y-11958429D01*
X5559143Y-11972714D01*
X5530571Y-11972714D01*
X5502000Y-11958429D01*
X5487714Y-11944143D01*
X5473429Y-11915571D01*
X5459143Y-11858429D01*
X5459143Y-11787000D01*
X5473429Y-11729857D01*
X5487714Y-11701286D01*
X5502000Y-11687000D01*
X5530571Y-11672714D01*
X5759143Y-11944143D02*
X5773428Y-11958429D01*
X5759143Y-11972714D01*
X5744857Y-11958429D01*
X5759143Y-11944143D01*
X5759143Y-11972714D01*
X5916286Y-11972714D02*
X5973428Y-11972714D01*
X6002000Y-11958429D01*
X6016286Y-11944143D01*
X6044857Y-11901286D01*
X6059143Y-11844143D01*
X6059143Y-11729857D01*
X6044857Y-11701286D01*
X6030571Y-11687000D01*
X6002000Y-11672714D01*
X5944857Y-11672714D01*
X5916286Y-11687000D01*
X5902000Y-11701286D01*
X5887714Y-11729857D01*
X5887714Y-11801286D01*
X5902000Y-11829857D01*
X5916286Y-11844143D01*
X5944857Y-11858429D01*
X6002000Y-11858429D01*
X6030571Y-11844143D01*
X6044857Y-11829857D01*
X6059143Y-11801286D01*
X6244857Y-11672714D02*
X6273428Y-11672714D01*
X6302000Y-11687000D01*
X6316286Y-11701286D01*
X6330571Y-11729857D01*
X6344857Y-11787000D01*
X6344857Y-11858429D01*
X6330571Y-11915571D01*
X6316286Y-11944143D01*
X6302000Y-11958429D01*
X6273428Y-11972714D01*
X6244857Y-11972714D01*
X6216286Y-11958429D01*
X6202000Y-11944143D01*
X6187714Y-11915571D01*
X6173428Y-11858429D01*
X6173428Y-11787000D01*
X6187714Y-11729857D01*
X6202000Y-11701286D01*
X6216286Y-11687000D01*
X6244857Y-11672714D01*
X6473428Y-11972714D02*
X6473428Y-11772714D01*
X6473428Y-11801286D02*
X6487714Y-11787000D01*
X6516286Y-11772714D01*
X6559143Y-11772714D01*
X6587714Y-11787000D01*
X6602000Y-11815571D01*
X6602000Y-11972714D01*
X6602000Y-11815571D02*
X6616286Y-11787000D01*
X6644857Y-11772714D01*
X6687714Y-11772714D01*
X6716286Y-11787000D01*
X6730571Y-11815571D01*
X6730571Y-11972714D01*
X6873428Y-11972714D02*
X6873428Y-11772714D01*
X6873428Y-11801286D02*
X6887714Y-11787000D01*
X6916286Y-11772714D01*
X6959143Y-11772714D01*
X6987714Y-11787000D01*
X7002000Y-11815571D01*
X7002000Y-11972714D01*
X7002000Y-11815571D02*
X7016286Y-11787000D01*
X7044857Y-11772714D01*
X7087714Y-11772714D01*
X7116286Y-11787000D01*
X7130571Y-11815571D01*
X7130571Y-11972714D01*
X7716286Y-11658429D02*
X7459143Y-12044143D01*
X8102000Y-11672714D02*
X8130571Y-11672714D01*
X8159143Y-11687000D01*
X8173428Y-11701286D01*
X8187714Y-11729857D01*
X8202000Y-11787000D01*
X8202000Y-11858429D01*
X8187714Y-11915571D01*
X8173428Y-11944143D01*
X8159143Y-11958429D01*
X8130571Y-11972714D01*
X8102000Y-11972714D01*
X8073428Y-11958429D01*
X8059143Y-11944143D01*
X8044857Y-11915571D01*
X8030571Y-11858429D01*
X8030571Y-11787000D01*
X8044857Y-11729857D01*
X8059143Y-11701286D01*
X8073428Y-11687000D01*
X8102000Y-11672714D01*
X8330571Y-11944143D02*
X8344857Y-11958429D01*
X8330571Y-11972714D01*
X8316286Y-11958429D01*
X8330571Y-11944143D01*
X8330571Y-11972714D01*
X8530571Y-11672714D02*
X8559143Y-11672714D01*
X8587714Y-11687000D01*
X8602000Y-11701286D01*
X8616286Y-11729857D01*
X8630571Y-11787000D01*
X8630571Y-11858429D01*
X8616286Y-11915571D01*
X8602000Y-11944143D01*
X8587714Y-11958429D01*
X8559143Y-11972714D01*
X8530571Y-11972714D01*
X8502000Y-11958429D01*
X8487714Y-11944143D01*
X8473428Y-11915571D01*
X8459143Y-11858429D01*
X8459143Y-11787000D01*
X8473428Y-11729857D01*
X8487714Y-11701286D01*
X8502000Y-11687000D01*
X8530571Y-11672714D01*
X8730571Y-11672714D02*
X8916286Y-11672714D01*
X8816286Y-11787000D01*
X8859143Y-11787000D01*
X8887714Y-11801286D01*
X8902000Y-11815571D01*
X8916286Y-11844143D01*
X8916286Y-11915571D01*
X8902000Y-11944143D01*
X8887714Y-11958429D01*
X8859143Y-11972714D01*
X8773428Y-11972714D01*
X8744857Y-11958429D01*
X8730571Y-11944143D01*
X9187714Y-11672714D02*
X9044857Y-11672714D01*
X9030571Y-11815571D01*
X9044857Y-11801286D01*
X9073428Y-11787000D01*
X9144857Y-11787000D01*
X9173428Y-11801286D01*
X9187714Y-11815571D01*
X9202000Y-11844143D01*
X9202000Y-11915571D01*
X9187714Y-11944143D01*
X9173428Y-11958429D01*
X9144857Y-11972714D01*
X9073428Y-11972714D01*
X9044857Y-11958429D01*
X9030571Y-11944143D01*
X9316286Y-11672714D02*
X9316286Y-11729857D01*
X9430571Y-11672714D02*
X9430571Y-11729857D01*
X9873428Y-12087000D02*
X9859143Y-12072714D01*
X9830571Y-12029857D01*
X9816286Y-12001286D01*
X9802000Y-11958429D01*
X9787714Y-11887000D01*
X9787714Y-11829857D01*
X9802000Y-11758429D01*
X9816286Y-11715571D01*
X9830571Y-11687000D01*
X9859143Y-11644143D01*
X9873428Y-11629857D01*
X10116286Y-11772714D02*
X10116286Y-11972714D01*
X10044857Y-11658429D02*
X9973428Y-11872714D01*
X10159143Y-11872714D01*
X10330571Y-11672714D02*
X10359143Y-11672714D01*
X10387714Y-11687000D01*
X10402000Y-11701286D01*
X10416286Y-11729857D01*
X10430571Y-11787000D01*
X10430571Y-11858429D01*
X10416286Y-11915571D01*
X10402000Y-11944143D01*
X10387714Y-11958429D01*
X10359143Y-11972714D01*
X10330571Y-11972714D01*
X10302000Y-11958429D01*
X10287714Y-11944143D01*
X10273428Y-11915571D01*
X10259143Y-11858429D01*
X10259143Y-11787000D01*
X10273428Y-11729857D01*
X10287714Y-11701286D01*
X10302000Y-11687000D01*
X10330571Y-11672714D01*
X10787714Y-11972714D02*
X10787714Y-11672714D01*
X10916286Y-11972714D02*
X10916286Y-11815571D01*
X10902000Y-11787000D01*
X10873428Y-11772714D01*
X10830571Y-11772714D01*
X10802000Y-11787000D01*
X10787714Y-11801286D01*
X11102000Y-11972714D02*
X11073428Y-11958429D01*
X11059143Y-11944143D01*
X11044857Y-11915571D01*
X11044857Y-11829857D01*
X11059143Y-11801286D01*
X11073428Y-11787000D01*
X11102000Y-11772714D01*
X11144857Y-11772714D01*
X11173428Y-11787000D01*
X11187714Y-11801286D01*
X11202000Y-11829857D01*
X11202000Y-11915571D01*
X11187714Y-11944143D01*
X11173428Y-11958429D01*
X11144857Y-11972714D01*
X11102000Y-11972714D01*
X11373428Y-11972714D02*
X11344857Y-11958429D01*
X11330571Y-11929857D01*
X11330571Y-11672714D01*
X11602000Y-11958429D02*
X11573428Y-11972714D01*
X11516286Y-11972714D01*
X11487714Y-11958429D01*
X11473428Y-11929857D01*
X11473428Y-11815571D01*
X11487714Y-11787000D01*
X11516286Y-11772714D01*
X11573428Y-11772714D01*
X11602000Y-11787000D01*
X11616286Y-11815571D01*
X11616286Y-11844143D01*
X11473428Y-11872714D01*
X11730571Y-11958429D02*
X11759143Y-11972714D01*
X11816286Y-11972714D01*
X11844857Y-11958429D01*
X11859143Y-11929857D01*
X11859143Y-11915571D01*
X11844857Y-11887000D01*
X11816286Y-11872714D01*
X11773428Y-11872714D01*
X11744857Y-11858429D01*
X11730571Y-11829857D01*
X11730571Y-11815571D01*
X11744857Y-11787000D01*
X11773428Y-11772714D01*
X11816286Y-11772714D01*
X11844857Y-11787000D01*
X11959143Y-12087000D02*
X11973428Y-12072714D01*
X12002000Y-12029857D01*
X12016286Y-12001286D01*
X12030571Y-11958429D01*
X12044857Y-11887000D01*
X12044857Y-11829857D01*
X12030571Y-11758429D01*
X12016286Y-11715571D01*
X12002000Y-11687000D01*
X11973428Y-11644143D01*
X11959143Y-11629857D01*
M02*
