G04 #@! TF.FileFunction,Copper,L2,Bot,Signal*
%FSLAX46Y46*%
G04 Gerber Fmt 4.6, Leading zero omitted, Abs format (unit mm)*
G04 Created by KiCad (PCBNEW 4.0.7) date 01/22/18 00:42:11*
%MOMM*%
%LPD*%
G01*
G04 APERTURE LIST*
%ADD10C,0.100000*%
%ADD11O,2.000000X2.000000*%
%ADD12R,1.800000X1.800000*%
%ADD13R,2.400000X2.500000*%
%ADD14O,3.000000X3.000000*%
%ADD15C,1.000000*%
G04 APERTURE END LIST*
D10*
D11*
X60440000Y-53530000D03*
X60440000Y-50990000D03*
X62980000Y-53530000D03*
X62980000Y-50990000D03*
X65520000Y-53530000D03*
X65520000Y-50990000D03*
X68060000Y-53530000D03*
X68060000Y-50990000D03*
X70600000Y-53530000D03*
X70600000Y-50990000D03*
X73140000Y-53530000D03*
X73140000Y-50990000D03*
X75680000Y-53530000D03*
X75680000Y-50990000D03*
X78220000Y-53530000D03*
X78220000Y-50990000D03*
X80760000Y-53530000D03*
X80760000Y-50990000D03*
X83300000Y-53530000D03*
X83300000Y-50990000D03*
X85840000Y-53530000D03*
X85840000Y-50990000D03*
X88380000Y-53530000D03*
X88380000Y-50990000D03*
X90920000Y-53530000D03*
X90920000Y-50990000D03*
X93460000Y-53530000D03*
X93460000Y-50990000D03*
X96000000Y-53530000D03*
X96000000Y-50990000D03*
X98540000Y-53530000D03*
X98540000Y-50990000D03*
X101080000Y-53530000D03*
X101080000Y-50990000D03*
X103620000Y-53530000D03*
X103620000Y-50990000D03*
X106160000Y-53530000D03*
X106160000Y-50990000D03*
X108700000Y-53530000D03*
X108700000Y-50990000D03*
D12*
X104140000Y-64770000D03*
X104140000Y-62230000D03*
X91440000Y-64770000D03*
X91440000Y-62230000D03*
X104140000Y-78740000D03*
X104140000Y-76200000D03*
X91440000Y-78740000D03*
X91440000Y-76200000D03*
X78740000Y-78740000D03*
X78740000Y-76200000D03*
D13*
X100990000Y-92710000D03*
X107290000Y-92710000D03*
X87020000Y-92710000D03*
X93320000Y-92710000D03*
X74320000Y-92710000D03*
X80620000Y-92710000D03*
X61620000Y-92710000D03*
X67920000Y-92710000D03*
D14*
X101600000Y-86560000D03*
X106600000Y-86560000D03*
X101600000Y-99060000D03*
X106600000Y-99060000D03*
X87630000Y-86560000D03*
X92630000Y-86560000D03*
X87630000Y-99060000D03*
X92630000Y-99060000D03*
X74930000Y-86560000D03*
X79930000Y-86560000D03*
X74930000Y-99060000D03*
X79930000Y-99060000D03*
X62230000Y-86560000D03*
X67230000Y-86560000D03*
X62230000Y-99060000D03*
X67230000Y-99060000D03*
D15*
X71120000Y-101600000D02*
X69850000Y-102870000D01*
X60440000Y-57670000D02*
X60440000Y-53530000D01*
X55880000Y-62230000D02*
X60440000Y-57670000D01*
X55880000Y-93980000D02*
X55880000Y-62230000D01*
X57150000Y-95250000D02*
X55880000Y-93980000D01*
X59690000Y-97790000D02*
X57150000Y-95250000D01*
X59690000Y-101600000D02*
X59690000Y-97790000D01*
X60960000Y-102870000D02*
X59690000Y-101600000D01*
X69850000Y-102870000D02*
X60960000Y-102870000D01*
X107290000Y-92710000D02*
X107950000Y-92710000D01*
X107950000Y-92710000D02*
X109220000Y-93980000D01*
X109220000Y-93980000D02*
X109220000Y-101600000D01*
X109220000Y-101600000D02*
X107950000Y-102870000D01*
X107950000Y-102870000D02*
X106680000Y-102870000D01*
X96520000Y-101600000D02*
X97790000Y-102870000D01*
X97790000Y-102870000D02*
X106680000Y-102870000D01*
X95250000Y-102870000D02*
X85090000Y-102870000D01*
X95250000Y-92710000D02*
X96520000Y-93980000D01*
X96520000Y-93980000D02*
X96520000Y-101600000D01*
X96520000Y-101600000D02*
X95250000Y-102870000D01*
X93320000Y-92710000D02*
X95250000Y-92710000D01*
X85090000Y-102870000D02*
X83820000Y-101600000D01*
X80620000Y-92710000D02*
X82550000Y-92710000D01*
X69850000Y-92710000D02*
X71120000Y-93980000D01*
X71120000Y-93980000D02*
X71120000Y-101600000D01*
X71120000Y-101600000D02*
X72390000Y-102870000D01*
X72390000Y-102870000D02*
X81280000Y-102870000D01*
X69850000Y-92710000D02*
X67920000Y-92710000D01*
X82550000Y-102870000D02*
X81280000Y-102870000D01*
X83820000Y-101600000D02*
X82550000Y-102870000D01*
X83820000Y-93980000D02*
X83820000Y-101600000D01*
X82550000Y-92710000D02*
X83820000Y-93980000D01*
X100990000Y-92710000D02*
X100990000Y-98450000D01*
X100990000Y-98450000D02*
X101600000Y-99060000D01*
X113030000Y-78740000D02*
X113030000Y-83820000D01*
X106160000Y-55360000D02*
X113030000Y-62230000D01*
X113030000Y-62230000D02*
X113030000Y-78740000D01*
X106160000Y-53530000D02*
X106160000Y-55360000D01*
X100990000Y-90780000D02*
X100990000Y-92710000D01*
X101600000Y-90170000D02*
X100990000Y-90780000D01*
X106680000Y-90170000D02*
X101600000Y-90170000D01*
X113030000Y-83820000D02*
X106680000Y-90170000D01*
X100990000Y-92710000D02*
X100330000Y-92710000D01*
X62230000Y-86560000D02*
X62230000Y-78740000D01*
X98540000Y-67830000D02*
X98540000Y-53530000D01*
X97790000Y-68580000D02*
X98540000Y-67830000D01*
X72390000Y-68580000D02*
X97790000Y-68580000D01*
X62230000Y-78740000D02*
X72390000Y-68580000D01*
X61620000Y-96520000D02*
X61620000Y-98450000D01*
X61620000Y-98450000D02*
X62230000Y-99060000D01*
X61620000Y-92710000D02*
X60960000Y-92710000D01*
X61620000Y-92710000D02*
X61620000Y-96520000D01*
X61620000Y-98450000D02*
X62230000Y-99060000D01*
X74320000Y-92710000D02*
X73660000Y-92710000D01*
X73660000Y-92710000D02*
X71120000Y-90170000D01*
X101080000Y-71640000D02*
X101080000Y-53530000D01*
X100330000Y-72390000D02*
X101080000Y-71640000D01*
X74930000Y-72390000D02*
X100330000Y-72390000D01*
X71120000Y-76200000D02*
X74930000Y-72390000D01*
X71120000Y-90170000D02*
X71120000Y-76200000D01*
X74320000Y-92710000D02*
X74320000Y-98450000D01*
X74320000Y-98450000D02*
X74930000Y-99060000D01*
X103620000Y-53530000D02*
X103620000Y-56630000D01*
X83820000Y-89510000D02*
X87020000Y-92710000D01*
X83820000Y-85090000D02*
X83820000Y-89510000D01*
X86360000Y-82550000D02*
X83820000Y-85090000D01*
X106680000Y-82550000D02*
X86360000Y-82550000D01*
X110490000Y-78740000D02*
X106680000Y-82550000D01*
X110490000Y-63500000D02*
X110490000Y-78740000D01*
X103620000Y-56630000D02*
X110490000Y-63500000D01*
X87020000Y-92710000D02*
X86360000Y-92710000D01*
X87020000Y-92710000D02*
X87020000Y-98450000D01*
X87020000Y-98450000D02*
X87630000Y-99060000D01*
X87020000Y-98450000D02*
X87630000Y-99060000D01*
M02*
