M48
;DRILL file {KiCad 4.0.7} date 01/22/18 00:42:25
;FORMAT={-:-/ absolute / metric / decimal}
FMAT,2
METRIC,TZ
T1C0.600
T2C0.900
%
G90
G05
M71
T1
X62.23Y-86.56
X62.23Y-99.06
X67.23Y-86.56
X67.23Y-99.06
X74.93Y-86.56
X74.93Y-99.06
X78.74Y-76.2
X78.74Y-78.74
X79.93Y-86.56
X79.93Y-99.06
X87.63Y-86.56
X87.63Y-99.06
X91.44Y-62.23
X91.44Y-64.77
X91.44Y-76.2
X91.44Y-78.74
X92.63Y-86.56
X92.63Y-99.06
X101.6Y-86.56
X101.6Y-99.06
X104.14Y-62.23
X104.14Y-64.77
X104.14Y-76.2
X104.14Y-78.74
X106.6Y-86.56
X106.6Y-99.06
T2
X60.44Y-50.99
X60.44Y-53.53
X62.98Y-50.99
X62.98Y-53.53
X65.52Y-50.99
X65.52Y-53.53
X68.06Y-50.99
X68.06Y-53.53
X70.6Y-50.99
X70.6Y-53.53
X73.14Y-50.99
X73.14Y-53.53
X75.68Y-50.99
X75.68Y-53.53
X78.22Y-50.99
X78.22Y-53.53
X80.76Y-50.99
X80.76Y-53.53
X83.3Y-50.99
X83.3Y-53.53
X85.84Y-50.99
X85.84Y-53.53
X88.38Y-50.99
X88.38Y-53.53
X90.92Y-50.99
X90.92Y-53.53
X93.46Y-50.99
X93.46Y-53.53
X96.Y-50.99
X96.Y-53.53
X98.54Y-50.99
X98.54Y-53.53
X101.08Y-50.99
X101.08Y-53.53
X103.62Y-50.99
X103.62Y-53.53
X106.16Y-50.99
X106.16Y-53.53
X108.7Y-50.99
X108.7Y-53.53
T0
M30
