G04 #@! TF.FileFunction,Copper,L1,Top,Signal*
%FSLAX46Y46*%
G04 Gerber Fmt 4.6, Leading zero omitted, Abs format (unit mm)*
G04 Created by KiCad (PCBNEW 4.0.7) date 01/22/18 00:42:11*
%MOMM*%
%LPD*%
G01*
G04 APERTURE LIST*
%ADD10C,0.100000*%
%ADD11O,2.000000X2.000000*%
%ADD12R,1.800000X1.800000*%
%ADD13R,2.500000X2.400000*%
%ADD14O,3.000000X3.000000*%
%ADD15C,1.000000*%
G04 APERTURE END LIST*
D10*
D11*
X60440000Y-53530000D03*
X60440000Y-50990000D03*
X62980000Y-53530000D03*
X62980000Y-50990000D03*
X65520000Y-53530000D03*
X65520000Y-50990000D03*
X68060000Y-53530000D03*
X68060000Y-50990000D03*
X70600000Y-53530000D03*
X70600000Y-50990000D03*
X73140000Y-53530000D03*
X73140000Y-50990000D03*
X75680000Y-53530000D03*
X75680000Y-50990000D03*
X78220000Y-53530000D03*
X78220000Y-50990000D03*
X80760000Y-53530000D03*
X80760000Y-50990000D03*
X83300000Y-53530000D03*
X83300000Y-50990000D03*
X85840000Y-53530000D03*
X85840000Y-50990000D03*
X88380000Y-53530000D03*
X88380000Y-50990000D03*
X90920000Y-53530000D03*
X90920000Y-50990000D03*
X93460000Y-53530000D03*
X93460000Y-50990000D03*
X96000000Y-53530000D03*
X96000000Y-50990000D03*
X98540000Y-53530000D03*
X98540000Y-50990000D03*
X101080000Y-53530000D03*
X101080000Y-50990000D03*
X103620000Y-53530000D03*
X103620000Y-50990000D03*
X106160000Y-53530000D03*
X106160000Y-50990000D03*
X108700000Y-53530000D03*
X108700000Y-50990000D03*
D12*
X104140000Y-64770000D03*
X104140000Y-62230000D03*
X91440000Y-64770000D03*
X91440000Y-62230000D03*
X104140000Y-78740000D03*
X104140000Y-76200000D03*
X91440000Y-78740000D03*
X91440000Y-76200000D03*
X78740000Y-78740000D03*
X78740000Y-76200000D03*
D13*
X83820000Y-65380000D03*
X83820000Y-59080000D03*
X109220000Y-59080000D03*
X109220000Y-65380000D03*
X96520000Y-59080000D03*
X96520000Y-65380000D03*
X109220000Y-81890000D03*
X109220000Y-75590000D03*
X96520000Y-81890000D03*
X96520000Y-75590000D03*
X83820000Y-81890000D03*
X83820000Y-75590000D03*
D14*
X101600000Y-86560000D03*
X106600000Y-86560000D03*
X101600000Y-99060000D03*
X106600000Y-99060000D03*
X87630000Y-86560000D03*
X92630000Y-86560000D03*
X87630000Y-99060000D03*
X92630000Y-99060000D03*
X74930000Y-86560000D03*
X79930000Y-86560000D03*
X74930000Y-99060000D03*
X79930000Y-99060000D03*
X62230000Y-86560000D03*
X67230000Y-86560000D03*
X62230000Y-99060000D03*
X67230000Y-99060000D03*
D15*
X104140000Y-64770000D02*
X108610000Y-64770000D01*
X108610000Y-64770000D02*
X109220000Y-65380000D01*
X78220000Y-53530000D02*
X78220000Y-66790000D01*
X101600000Y-62230000D02*
X100330000Y-63500000D01*
X100330000Y-63500000D02*
X100330000Y-67310000D01*
X100330000Y-67310000D02*
X99060000Y-68580000D01*
X99060000Y-68580000D02*
X87630000Y-68580000D01*
X101600000Y-62230000D02*
X104140000Y-62230000D01*
X80010000Y-68580000D02*
X87630000Y-68580000D01*
X78220000Y-66790000D02*
X80010000Y-68580000D01*
X91440000Y-64770000D02*
X95910000Y-64770000D01*
X95910000Y-64770000D02*
X96520000Y-65380000D01*
X91440000Y-62230000D02*
X91440000Y-59690000D01*
X96000000Y-55130000D02*
X96000000Y-53530000D01*
X91440000Y-59690000D02*
X96000000Y-55130000D01*
X104140000Y-78740000D02*
X106070000Y-78740000D01*
X106070000Y-78740000D02*
X109220000Y-75590000D01*
X75680000Y-53530000D02*
X75680000Y-68060000D01*
X98425000Y-70485000D02*
X104140000Y-76200000D01*
X78105000Y-70485000D02*
X98425000Y-70485000D01*
X75680000Y-68060000D02*
X78105000Y-70485000D01*
X91440000Y-78740000D02*
X93370000Y-78740000D01*
X93370000Y-78740000D02*
X96520000Y-75590000D01*
X87630000Y-72390000D02*
X91440000Y-76200000D01*
X74930000Y-72390000D02*
X87630000Y-72390000D01*
X73140000Y-70600000D02*
X74930000Y-72390000D01*
X73140000Y-53530000D02*
X73140000Y-70600000D01*
X78740000Y-78740000D02*
X80670000Y-78740000D01*
X80670000Y-78740000D02*
X83820000Y-75590000D01*
X68060000Y-53530000D02*
X68060000Y-69330000D01*
X74930000Y-76200000D02*
X78740000Y-76200000D01*
X68060000Y-69330000D02*
X74930000Y-76200000D01*
X80760000Y-53530000D02*
X80760000Y-64250000D01*
X81890000Y-65380000D02*
X83820000Y-65380000D01*
X80760000Y-64250000D02*
X81890000Y-65380000D01*
X109220000Y-59080000D02*
X109220000Y-54050000D01*
X109220000Y-54050000D02*
X108700000Y-53530000D01*
X79930000Y-86560000D02*
X79930000Y-85780000D01*
X79930000Y-85780000D02*
X83820000Y-81890000D01*
X92710000Y-83820000D02*
X92710000Y-86480000D01*
X92710000Y-86480000D02*
X92630000Y-86560000D01*
X106600000Y-86560000D02*
X106600000Y-99060000D01*
X109220000Y-81890000D02*
X111150000Y-81890000D01*
X111150000Y-59080000D02*
X109220000Y-59080000D01*
X113030000Y-60960000D02*
X111150000Y-59080000D01*
X113030000Y-80010000D02*
X113030000Y-60960000D01*
X111150000Y-81890000D02*
X113030000Y-80010000D01*
X96520000Y-81890000D02*
X95910000Y-81890000D01*
X95910000Y-81890000D02*
X93980000Y-83820000D01*
X85750000Y-83820000D02*
X83820000Y-81890000D01*
X93980000Y-83820000D02*
X92710000Y-83820000D01*
X92710000Y-83820000D02*
X85750000Y-83820000D01*
X106600000Y-83820000D02*
X98450000Y-83820000D01*
X98450000Y-83820000D02*
X96520000Y-81890000D01*
X106600000Y-86560000D02*
X106600000Y-83820000D01*
X106600000Y-83820000D02*
X106600000Y-83900000D01*
X106600000Y-83900000D02*
X108610000Y-81890000D01*
X108610000Y-81890000D02*
X109220000Y-81890000D01*
X96520000Y-59080000D02*
X97130000Y-59080000D01*
X97130000Y-59080000D02*
X99060000Y-57150000D01*
X107290000Y-57150000D02*
X109220000Y-59080000D01*
X99060000Y-57150000D02*
X107290000Y-57150000D01*
X92710000Y-101600000D02*
X93980000Y-102870000D01*
X106680000Y-101600000D02*
X106680000Y-99140000D01*
X105410000Y-102870000D02*
X106680000Y-101600000D01*
X93980000Y-102870000D02*
X105410000Y-102870000D01*
X106680000Y-99140000D02*
X106600000Y-99060000D01*
X80010000Y-101600000D02*
X81280000Y-102870000D01*
X92710000Y-101600000D02*
X92710000Y-99140000D01*
X91440000Y-102870000D02*
X92710000Y-101600000D01*
X81280000Y-102870000D02*
X91440000Y-102870000D01*
X92710000Y-99140000D02*
X92630000Y-99060000D01*
X67230000Y-99060000D02*
X67230000Y-101520000D01*
X80010000Y-101600000D02*
X80010000Y-99140000D01*
X78740000Y-102870000D02*
X80010000Y-101600000D01*
X68580000Y-102870000D02*
X78740000Y-102870000D01*
X67230000Y-101520000D02*
X68580000Y-102870000D01*
X80010000Y-99140000D02*
X79930000Y-99060000D01*
X83300000Y-53530000D02*
X83300000Y-58560000D01*
X83300000Y-58560000D02*
X83820000Y-59080000D01*
M02*
