  0
SECTION
  2
HEADER
  9
$ANGBASE
  50
0.0
  9
$ANGDIR
  70
  1
  9
$MEASUREMENT
  70
0
  0
ENDSEC
  0
SECTION
  2
TABLES
  0
TABLE
  2
LTYPE
  70
1
  0
LTYPE
  2
CONTINUOUS
  70
0
  3
Solid line
  72
65
  73
0
  40
0.0
  0
ENDTAB
  0
TABLE
  2
STYLE
  70
4
  0
STYLE
  2
KICAD
  70
0
  40
0
  41
1
  42
1
  50
0
  71
0
  3
isocp.shx
  0
STYLE
  2
KICADB
  70
0
  40
0
  41
1
  42
1
  50
0
  71
0
  3
isocp.shx
  0
STYLE
  2
KICADI
  70
0
  40
0
  41
1
  42
1
  50
15
  71
0
  3
isocp.shx
  0
STYLE
  2
KICADBI
  70
0
  40
0
  41
1
  42
1
  50
15
  71
0
  3
isocp.shx
  0
ENDTAB
  0
TABLE
  2
LAYER
  70
30
  0
LAYER
  2
BLACK
  70
0
  62
7
  6
CONTINUOUS
  0
LAYER
  2
GRAY1
  70
0
  62
251
  6
CONTINUOUS
  0
LAYER
  2
GRAY2
  70
0
  62
8
  6
CONTINUOUS
  0
LAYER
  2
GRAY3
  70
0
  62
9
  6
CONTINUOUS
  0
LAYER
  2
WHITE
  70
0
  62
7
  6
CONTINUOUS
  0
LAYER
  2
LYELLOW
  70
0
  62
51
  6
CONTINUOUS
  0
LAYER
  2
BLUE1
  70
0
  62
178
  6
CONTINUOUS
  0
LAYER
  2
GREEN1
  70
0
  62
98
  6
CONTINUOUS
  0
LAYER
  2
CYAN1
  70
0
  62
138
  6
CONTINUOUS
  0
LAYER
  2
RED1
  70
0
  62
18
  6
CONTINUOUS
  0
LAYER
  2
MAGENTA1
  70
0
  62
228
  6
CONTINUOUS
  0
LAYER
  2
BROWN1
  70
0
  62
58
  6
CONTINUOUS
  0
LAYER
  2
BLUE2
  70
0
  62
5
  6
CONTINUOUS
  0
LAYER
  2
GREEN2
  70
0
  62
3
  6
CONTINUOUS
  0
LAYER
  2
CYAN2
  70
0
  62
4
  6
CONTINUOUS
  0
LAYER
  2
RED2
  70
0
  62
1
  6
CONTINUOUS
  0
LAYER
  2
MAGENTA2
  70
0
  62
6
  6
CONTINUOUS
  0
LAYER
  2
BROWN2
  70
0
  62
54
  6
CONTINUOUS
  0
LAYER
  2
BLUE3
  70
0
  62
171
  6
CONTINUOUS
  0
LAYER
  2
GREEN3
  70
0
  62
91
  6
CONTINUOUS
  0
LAYER
  2
CYAN3
  70
0
  62
131
  6
CONTINUOUS
  0
LAYER
  2
RED3
  70
0
  62
11
  6
CONTINUOUS
  0
LAYER
  2
MAGENTA3
  70
0
  62
221
  6
CONTINUOUS
  0
LAYER
  2
YELLOW3
  70
0
  62
2
  6
CONTINUOUS
  0
LAYER
  2
BLUE4
  70
0
  62
5
  6
CONTINUOUS
  0
LAYER
  2
GREEN4
  70
0
  62
3
  6
CONTINUOUS
  0
LAYER
  2
CYAN4
  70
0
  62
4
  6
CONTINUOUS
  0
LAYER
  2
RED4
  70
0
  62
1
  6
CONTINUOUS
  0
LAYER
  2
MAGENTA4
  70
0
  62
6
  6
CONTINUOUS
  0
LAYER
  2
YELLOW4
  70
0
  62
2
  6
CONTINUOUS
  0
ENDTAB
  0
ENDSEC
  0
SECTION
  2
ENTITIES
0
LINE
8
Black
10
132.086
20
-29.1361
11
132.093
21
-29.1361
0
LINE
8
Black
10
132.093
20
-29.1361
11
132.099
21
-29.1384
0
LINE
8
Black
10
132.099
20
-29.1384
11
132.106
21
-29.1395
0
LINE
8
Black
10
132.106
20
-29.1395
11
132.111
21
-29.1428
0
LINE
8
Black
10
132.111
20
-29.1428
11
132.118
21
-29.145
0
LINE
8
Black
10
132.118
20
-29.145
11
132.123
21
-29.1493
0
LINE
8
Black
10
132.123
20
-29.1493
11
132.128
21
-29.1525
0
LINE
8
Black
10
132.128
20
-29.1525
11
132.132
21
-29.1576
0
LINE
8
Black
10
132.132
20
-29.1576
11
132.137
21
-29.1618
0
LINE
8
Black
10
132.137
20
-29.1618
11
132.141
21
-29.1675
0
LINE
8
Black
10
132.141
20
-29.1675
11
132.145
21
-29.1725
0
LINE
8
Black
10
132.145
20
-29.1725
11
132.147
21
-29.1787
0
LINE
8
Black
10
132.147
20
-29.1787
11
132.15
21
-29.1843
0
LINE
8
Black
10
132.15
20
-29.1843
11
132.152
21
-29.1908
0
LINE
8
Black
10
132.152
20
-29.1908
11
132.154
21
-29.197
0
LINE
8
Black
10
132.154
20
-29.197
11
132.154
21
-29.2035
0
LINE
8
Black
10
132.154
20
-29.2035
11
132.155
21
-29.21
0
LINE
8
Black
10
132.155
20
-29.21
11
132.155
21
-101.6
0
LINE
8
Black
10
132.155
20
-101.6
11
132.154
21
-101.606
0
LINE
8
Black
10
132.154
20
-101.606
11
132.154
21
-101.613
0
LINE
8
Black
10
132.154
20
-101.613
11
132.152
21
-101.619
0
LINE
8
Black
10
132.152
20
-101.619
11
132.15
21
-101.626
0
LINE
8
Black
10
132.15
20
-101.626
11
132.147
21
-101.631
0
LINE
8
Black
10
132.147
20
-101.631
11
132.145
21
-101.637
0
LINE
8
Black
10
132.145
20
-101.637
11
132.141
21
-101.643
0
LINE
8
Black
10
132.141
20
-101.643
11
132.137
21
-101.648
0
LINE
8
Black
10
132.137
20
-101.648
11
132.132
21
-101.652
0
LINE
8
Black
10
132.132
20
-101.652
11
132.128
21
-101.657
0
LINE
8
Black
10
132.128
20
-101.657
11
132.123
21
-101.661
0
LINE
8
Black
10
132.123
20
-101.661
11
132.118
21
-101.665
0
LINE
8
Black
10
132.118
20
-101.665
11
132.111
21
-101.667
0
LINE
8
Black
10
132.111
20
-101.667
11
132.106
21
-101.67
0
LINE
8
Black
10
132.106
20
-101.67
11
132.099
21
-101.672
0
LINE
8
Black
10
132.099
20
-101.672
11
132.093
21
-101.674
0
LINE
8
Black
10
132.093
20
-101.674
11
132.086
21
-101.674
0
LINE
8
Black
10
132.086
20
-101.674
11
132.08
21
-101.675
0
LINE
8
Black
10
132.08
20
-101.675
11
27.94
21
-101.675
0
LINE
8
Black
10
27.94
20
-101.675
11
27.9335
21
-101.674
0
LINE
8
Black
10
27.9335
20
-101.674
11
27.927
21
-101.674
0
LINE
8
Black
10
27.927
20
-101.674
11
27.9208
21
-101.672
0
LINE
8
Black
10
27.9208
20
-101.672
11
27.9143
21
-101.67
0
LINE
8
Black
10
27.9143
20
-101.67
11
27.9087
21
-101.667
0
LINE
8
Black
10
27.9087
20
-101.667
11
27.9025
21
-101.665
0
LINE
8
Black
10
27.9025
20
-101.665
11
27.8975
21
-101.661
0
LINE
8
Black
10
27.8975
20
-101.661
11
27.8918
21
-101.657
0
LINE
8
Black
10
27.8918
20
-101.657
11
27.8876
21
-101.652
0
LINE
8
Black
10
27.8876
20
-101.652
11
27.8825
21
-101.648
0
LINE
8
Black
10
27.8825
20
-101.648
11
27.8793
21
-101.643
0
LINE
8
Black
10
27.8793
20
-101.643
11
27.875
21
-101.637
0
LINE
8
Black
10
27.875
20
-101.637
11
27.8728
21
-101.631
0
LINE
8
Black
10
27.8728
20
-101.631
11
27.8695
21
-101.626
0
LINE
8
Black
10
27.8695
20
-101.626
11
27.8684
21
-101.619
0
LINE
8
Black
10
27.8684
20
-101.619
11
27.8661
21
-101.613
0
LINE
8
Black
10
27.8661
20
-101.613
11
27.8661
21
-101.606
0
LINE
8
Black
10
27.8661
20
-101.606
11
27.865
21
-101.6
0
LINE
8
Black
10
27.865
20
-101.6
11
27.865
21
-29.21
0
LINE
8
Black
10
27.865
20
-29.21
11
27.8661
21
-29.2035
0
LINE
8
Black
10
27.8661
20
-29.2035
11
27.8661
21
-29.197
0
LINE
8
Black
10
27.8661
20
-29.197
11
27.8684
21
-29.1908
0
LINE
8
Black
10
27.8684
20
-29.1908
11
27.8695
21
-29.1843
0
LINE
8
Black
10
27.8695
20
-29.1843
11
27.8728
21
-29.1787
0
LINE
8
Black
10
27.8728
20
-29.1787
11
27.875
21
-29.1725
0
LINE
8
Black
10
27.875
20
-29.1725
11
27.8793
21
-29.1675
0
LINE
8
Black
10
27.8793
20
-29.1675
11
27.8825
21
-29.1618
0
LINE
8
Black
10
27.8825
20
-29.1618
11
27.8876
21
-29.1576
0
LINE
8
Black
10
27.8876
20
-29.1576
11
27.8918
21
-29.1525
0
LINE
8
Black
10
27.8918
20
-29.1525
11
27.8975
21
-29.1493
0
LINE
8
Black
10
27.8975
20
-29.1493
11
27.9025
21
-29.145
0
LINE
8
Black
10
27.9025
20
-29.145
11
27.9087
21
-29.1428
0
LINE
8
Black
10
27.9087
20
-29.1428
11
27.9143
21
-29.1395
0
LINE
8
Black
10
27.9143
20
-29.1395
11
27.9208
21
-29.1384
0
LINE
8
Black
10
27.9208
20
-29.1384
11
27.927
21
-29.1361
0
LINE
8
Black
10
27.927
20
-29.1361
11
27.9335
21
-29.1361
0
LINE
8
Black
10
27.9335
20
-29.1361
11
27.94
21
-29.135
0
LINE
8
Black
10
27.94
20
-29.135
11
132.08
21
-29.135
0
LINE
8
Black
10
132.08
20
-29.135
11
132.086
21
-29.1361
0
LINE
8
Black
10
28.015
20
-29.285
11
28.015
21
-101.525
0
LINE
8
Black
10
28.015
20
-101.525
11
132.005
21
-101.525
0
LINE
8
Black
10
132.005
20
-101.525
11
132.005
21
-29.285
0
LINE
8
Black
10
132.005
20
-29.285
11
28.015
21
-29.285
0
CIRCLE
8
Black
10
41.91
20
-80.21
40
0.25
0
CIRCLE
8
Black
10
46.91
20
-80.21
40
0.25
0
CIRCLE
8
Black
10
41.91
20
-92.71
40
0.25
0
CIRCLE
8
Black
10
46.91
20
-92.71
40
0.25
0
CIRCLE
8
Black
10
104.14
20
-44.45
40
0.25
0
CIRCLE
8
Black
10
101.6
20
-44.45
40
0.25
0
CIRCLE
8
Black
10
99.06
20
-44.45
40
0.25
0
CIRCLE
8
Black
10
96.52
20
-44.45
40
0.25
0
CIRCLE
8
Black
10
93.98
20
-44.45
40
0.25
0
CIRCLE
8
Black
10
91.44
20
-44.45
40
0.25
0
CIRCLE
8
Black
10
88.9
20
-44.45
40
0.25
0
CIRCLE
8
Black
10
86.36
20
-44.45
40
0.25
0
CIRCLE
8
Black
10
83.82
20
-44.45
40
0.25
0
CIRCLE
8
Black
10
81.28
20
-44.45
40
0.25
0
CIRCLE
8
Black
10
78.74
20
-44.45
40
0.25
0
CIRCLE
8
Black
10
76.2
20
-44.45
40
0.25
0
CIRCLE
8
Black
10
73.66
20
-44.45
40
0.25
0
CIRCLE
8
Black
10
71.12
20
-44.45
40
0.25
0
CIRCLE
8
Black
10
68.58
20
-44.45
40
0.25
0
CIRCLE
8
Black
10
66.04
20
-44.45
40
0.25
0
CIRCLE
8
Black
10
63.5
20
-44.45
40
0.25
0
CIRCLE
8
Black
10
60.96
20
-44.45
40
0.25
0
CIRCLE
8
Black
10
58.42
20
-44.45
40
0.25
0
CIRCLE
8
Black
10
55.88
20
-44.45
40
0.25
0
CIRCLE
8
Black
10
113.03
20
-64.77
40
0.25
0
CIRCLE
8
Black
10
115.57
20
-64.77
40
0.25
0
CIRCLE
8
Black
10
46.99
20
-64.77
40
0.25
0
CIRCLE
8
Black
10
44.45
20
-64.77
40
0.25
0
CIRCLE
8
Black
10
91.44
20
-64.77
40
0.25
0
CIRCLE
8
Black
10
88.9
20
-64.77
40
0.25
0
CIRCLE
8
Black
10
78.74
20
-64.77
40
0.25
0
CIRCLE
8
Black
10
81.28
20
-64.77
40
0.25
0
CIRCLE
8
Black
10
68.58
20
-64.77
40
0.25
0
CIRCLE
8
Black
10
71.12
20
-64.77
40
0.25
0
CIRCLE
8
Black
10
107.95
20
-82.55
40
0.25
0
CIRCLE
8
Black
10
107.95
20
-92.71
40
0.25
0
CIRCLE
8
Black
10
83.82
20
-82.55
40
0.25
0
CIRCLE
8
Black
10
83.82
20
-92.71
40
0.25
0
CIRCLE
8
Black
10
59.69
20
-82.55
40
0.25
0
CIRCLE
8
Black
10
59.69
20
-92.71
40
0.25
0
CIRCLE
8
Black
10
35.56
20
-82.55
40
0.25
0
CIRCLE
8
Black
10
35.56
20
-92.71
40
0.25
0
CIRCLE
8
Black
10
116.84
20
-58.42
40
0.25
0
CIRCLE
8
Black
10
106.68
20
-58.42
40
0.25
0
CIRCLE
8
Black
10
43.18
20
-58.42
40
0.25
0
CIRCLE
8
Black
10
53.34
20
-58.42
40
0.25
0
CIRCLE
8
Black
10
88.9
20
-58.42
40
0.25
0
CIRCLE
8
Black
10
99.06
20
-58.42
40
0.25
0
CIRCLE
8
Black
10
85.09
20
-58.42
40
0.25
0
CIRCLE
8
Black
10
74.93
20
-58.42
40
0.25
0
CIRCLE
8
Black
10
71.12
20
-58.42
40
0.25
0
CIRCLE
8
Black
10
60.96
20
-58.42
40
0.25
0
CIRCLE
8
Black
10
114.3
20
-80.21
40
0.25
0
CIRCLE
8
Black
10
119.3
20
-80.21
40
0.25
0
CIRCLE
8
Black
10
114.3
20
-92.71
40
0.25
0
CIRCLE
8
Black
10
119.3
20
-92.71
40
0.25
0
CIRCLE
8
Black
10
90.17
20
-80.21
40
0.25
0
CIRCLE
8
Black
10
95.17
20
-80.21
40
0.25
0
CIRCLE
8
Black
10
90.17
20
-92.71
40
0.25
0
CIRCLE
8
Black
10
95.17
20
-92.71
40
0.25
0
CIRCLE
8
Black
10
66.04
20
-80.21
40
0.25
0
CIRCLE
8
Black
10
71.04
20
-80.21
40
0.25
0
CIRCLE
8
Black
10
66.04
20
-92.71
40
0.25
0
CIRCLE
8
Black
10
71.04
20
-92.71
40
0.25
0
LINE
8
Black
10
123.19
20
-32.395
11
123.217
21
-32.3998
0
LINE
8
Black
10
123.217
20
-32.3998
11
123.244
21
-32.3974
0
LINE
8
Black
10
123.244
20
-32.3974
11
123.323
21
-32.4185
0
LINE
8
Black
10
123.323
20
-32.4185
11
123.404
21
-32.4327
0
LINE
8
Black
10
123.404
20
-32.4327
11
123.428
21
-32.4464
0
LINE
8
Black
10
123.428
20
-32.4464
11
123.454
21
-32.4536
0
LINE
8
Black
10
123.454
20
-32.4536
11
123.521
21
-32.5004
0
LINE
8
Black
10
123.521
20
-32.5004
11
123.592
21
-32.5412
0
LINE
8
Black
10
123.592
20
-32.5412
11
123.609
21
-32.5623
0
LINE
8
Black
10
123.609
20
-32.5623
11
123.632
21
-32.5781
0
LINE
8
Black
10
123.632
20
-32.5781
11
128.712
21
-37.6581
0
LINE
8
Black
10
128.712
20
-37.6581
11
128.728
21
-37.6806
0
LINE
8
Black
10
128.728
20
-37.6806
11
128.749
21
-37.6983
0
LINE
8
Black
10
128.749
20
-37.6983
11
128.79
21
-37.769
0
LINE
8
Black
10
128.79
20
-37.769
11
128.836
21
-37.8359
0
LINE
8
Black
10
128.836
20
-37.8359
11
128.844
21
-37.8624
0
LINE
8
Black
10
128.844
20
-37.8624
11
128.857
21
-37.8862
0
LINE
8
Black
10
128.857
20
-37.8862
11
128.871
21
-37.9666
0
LINE
8
Black
10
128.871
20
-37.9666
11
128.893
21
-38.0455
0
LINE
8
Black
10
128.893
20
-38.0455
11
128.89
21
-38.0729
0
LINE
8
Black
10
128.89
20
-38.0729
11
128.895
21
-38.1
0
LINE
8
Black
10
128.895
20
-38.1
11
128.895
21
-92.71
0
LINE
8
Black
10
128.895
20
-92.71
11
128.89
21
-92.7371
0
LINE
8
Black
10
128.89
20
-92.7371
11
128.893
21
-92.7645
0
LINE
8
Black
10
128.893
20
-92.7645
11
128.871
21
-92.8433
0
LINE
8
Black
10
128.871
20
-92.8433
11
128.857
21
-92.9238
0
LINE
8
Black
10
128.857
20
-92.9238
11
128.844
21
-92.9476
0
LINE
8
Black
10
128.844
20
-92.9476
11
128.836
21
-92.9741
0
LINE
8
Black
10
128.836
20
-92.9741
11
128.79
21
-93.041
0
LINE
8
Black
10
128.79
20
-93.041
11
128.749
21
-93.1117
0
LINE
8
Black
10
128.749
20
-93.1117
11
128.728
21
-93.1294
0
LINE
8
Black
10
128.728
20
-93.1294
11
128.712
21
-93.1519
0
LINE
8
Black
10
128.712
20
-93.1519
11
126.172
21
-95.6919
0
LINE
8
Black
10
126.172
20
-95.6919
11
126.172
21
-95.6919
0
LINE
8
Black
10
126.172
20
-95.6919
11
123.632
21
-98.2319
0
LINE
8
Black
10
123.632
20
-98.2319
11
123.609
21
-98.2477
0
LINE
8
Black
10
123.609
20
-98.2477
11
123.592
21
-98.2688
0
LINE
8
Black
10
123.592
20
-98.2688
11
123.521
21
-98.3096
0
LINE
8
Black
10
123.521
20
-98.3096
11
123.454
21
-98.3564
0
LINE
8
Black
10
123.454
20
-98.3564
11
123.428
21
-98.3636
0
LINE
8
Black
10
123.428
20
-98.3636
11
123.404
21
-98.3773
0
LINE
8
Black
10
123.404
20
-98.3773
11
123.323
21
-98.3915
0
LINE
8
Black
10
123.323
20
-98.3915
11
123.244
21
-98.4126
0
LINE
8
Black
10
123.244
20
-98.4126
11
123.217
21
-98.4102
0
LINE
8
Black
10
123.217
20
-98.4102
11
123.19
21
-98.415
0
LINE
8
Black
10
123.19
20
-98.415
11
110.49
21
-98.415
0
LINE
8
Black
10
110.49
20
-98.415
11
105.41
21
-98.415
0
LINE
8
Black
10
105.41
20
-98.415
11
104.14
21
-98.415
0
LINE
8
Black
10
104.14
20
-98.415
11
87.63
21
-98.415
0
LINE
8
Black
10
87.63
20
-98.415
11
86.36
21
-98.415
0
LINE
8
Black
10
86.36
20
-98.415
11
81.28
21
-98.415
0
LINE
8
Black
10
81.28
20
-98.415
11
80.01
21
-98.415
0
LINE
8
Black
10
80.01
20
-98.415
11
62.23
21
-98.415
0
LINE
8
Black
10
62.23
20
-98.415
11
57.15
21
-98.415
0
LINE
8
Black
10
57.15
20
-98.415
11
38.1
21
-98.415
0
LINE
8
Black
10
38.1
20
-98.415
11
38.0729
21
-98.4102
0
LINE
8
Black
10
38.0729
20
-98.4102
11
38.0455
21
-98.4126
0
LINE
8
Black
10
38.0455
20
-98.4126
11
37.9667
21
-98.3915
0
LINE
8
Black
10
37.9667
20
-98.3915
11
37.8862
21
-98.3773
0
LINE
8
Black
10
37.8862
20
-98.3773
11
37.8624
21
-98.3636
0
LINE
8
Black
10
37.8624
20
-98.3636
11
37.8359
21
-98.3564
0
LINE
8
Black
10
37.8359
20
-98.3564
11
37.769
21
-98.3096
0
LINE
8
Black
10
37.769
20
-98.3096
11
37.6983
21
-98.2688
0
LINE
8
Black
10
37.6983
20
-98.2688
11
37.6806
21
-98.2477
0
LINE
8
Black
10
37.6806
20
-98.2477
11
37.6581
21
-98.2319
0
LINE
8
Black
10
37.6581
20
-98.2319
11
35.1181
21
-95.6919
0
LINE
8
Black
10
35.1181
20
-95.6919
11
35.1023
21
-95.6694
0
LINE
8
Black
10
35.1023
20
-95.6694
11
35.0812
21
-95.6517
0
LINE
8
Black
10
35.0812
20
-95.6517
11
35.0404
21
-95.581
0
LINE
8
Black
10
35.0404
20
-95.581
11
34.9936
21
-95.5141
0
LINE
8
Black
10
34.9936
20
-95.5141
11
34.9864
21
-95.4876
0
LINE
8
Black
10
34.9864
20
-95.4876
11
34.9727
21
-95.4638
0
LINE
8
Black
10
34.9727
20
-95.4638
11
34.9585
21
-95.3834
0
LINE
8
Black
10
34.9585
20
-95.3834
11
34.9374
21
-95.3045
0
LINE
8
Black
10
34.9374
20
-95.3045
11
34.9398
21
-95.2771
0
LINE
8
Black
10
34.9398
20
-95.2771
11
34.935
21
-95.25
0
LINE
8
Black
10
34.935
20
-95.25
11
34.935
21
-93.776
0
LINE
8
Black
10
34.935
20
-93.776
11
34.7534
21
-93.6712
0
LINE
8
Black
10
34.7534
20
-93.6712
11
34.4733
21
-93.3374
0
LINE
8
Black
10
34.4733
20
-93.3374
11
34.3243
21
-92.9279
0
LINE
8
Black
10
34.3243
20
-92.9279
11
34.3243
21
-92.4921
0
LINE
8
Black
10
34.3243
20
-92.4921
11
34.4733
21
-92.0826
0
LINE
8
Black
10
34.4733
20
-92.0826
11
34.7534
21
-91.7488
0
LINE
8
Black
10
34.7534
20
-91.7488
11
35.1308
21
-91.5309
0
LINE
8
Black
10
35.1308
20
-91.5309
11
35.56
21
-91.4552
0
LINE
8
Black
10
35.56
20
-91.4552
11
35.9892
21
-91.5309
0
LINE
8
Black
10
35.9892
20
-91.5309
11
36.3666
21
-91.7488
0
LINE
8
Black
10
36.3666
20
-91.7488
11
36.6467
21
-92.0826
0
LINE
8
Black
10
36.6467
20
-92.0826
11
36.7957
21
-92.4921
0
LINE
8
Black
10
36.7957
20
-92.4921
11
36.7957
21
-92.9279
0
LINE
8
Black
10
36.7957
20
-92.9279
11
36.6467
21
-93.3374
0
LINE
8
Black
10
36.6467
20
-93.3374
11
36.3666
21
-93.6712
0
LINE
8
Black
10
36.3666
20
-93.6712
11
36.185
21
-93.776
0
LINE
8
Black
10
36.185
20
-93.776
11
36.185
21
-94.9911
0
LINE
8
Black
10
36.185
20
-94.9911
11
38.3589
21
-97.165
0
LINE
8
Black
10
38.3589
20
-97.165
11
56.8911
21
-97.165
0
LINE
8
Black
10
56.8911
20
-97.165
11
59.065
21
-94.9911
0
LINE
8
Black
10
59.065
20
-94.9911
11
59.065
21
-93.776
0
LINE
8
Black
10
59.065
20
-93.776
11
58.8834
21
-93.6712
0
LINE
8
Black
10
58.8834
20
-93.6712
11
58.6033
21
-93.3374
0
LINE
8
Black
10
58.6033
20
-93.3374
11
58.4543
21
-92.9279
0
LINE
8
Black
10
58.4543
20
-92.9279
11
58.4543
21
-92.4921
0
LINE
8
Black
10
58.4543
20
-92.4921
11
58.6033
21
-92.0826
0
LINE
8
Black
10
58.6033
20
-92.0826
11
58.8834
21
-91.7488
0
LINE
8
Black
10
58.8834
20
-91.7488
11
59.2608
21
-91.5309
0
LINE
8
Black
10
59.2608
20
-91.5309
11
59.69
21
-91.4552
0
LINE
8
Black
10
59.69
20
-91.4552
11
60.1192
21
-91.5309
0
LINE
8
Black
10
60.1192
20
-91.5309
11
60.4966
21
-91.7488
0
LINE
8
Black
10
60.4966
20
-91.7488
11
60.7767
21
-92.0826
0
LINE
8
Black
10
60.7767
20
-92.0826
11
60.9257
21
-92.4921
0
LINE
8
Black
10
60.9257
20
-92.4921
11
60.9257
21
-92.9279
0
LINE
8
Black
10
60.9257
20
-92.9279
11
60.7767
21
-93.3374
0
LINE
8
Black
10
60.7767
20
-93.3374
11
60.4966
21
-93.6712
0
LINE
8
Black
10
60.4966
20
-93.6712
11
60.315
21
-93.776
0
LINE
8
Black
10
60.315
20
-93.776
11
60.315
21
-94.9911
0
LINE
8
Black
10
60.315
20
-94.9911
11
62.4889
21
-97.165
0
LINE
8
Black
10
62.4889
20
-97.165
11
80.01
21
-97.165
0
LINE
8
Black
10
80.01
20
-97.165
11
81.0211
21
-97.165
0
LINE
8
Black
10
81.0211
20
-97.165
11
83.195
21
-94.9911
0
LINE
8
Black
10
83.195
20
-94.9911
11
83.195
21
-93.776
0
LINE
8
Black
10
83.195
20
-93.776
11
83.0134
21
-93.6712
0
LINE
8
Black
10
83.0134
20
-93.6712
11
82.7333
21
-93.3374
0
LINE
8
Black
10
82.7333
20
-93.3374
11
82.5843
21
-92.9279
0
LINE
8
Black
10
82.5843
20
-92.9279
11
82.5843
21
-92.4921
0
LINE
8
Black
10
82.5843
20
-92.4921
11
82.7333
21
-92.0826
0
LINE
8
Black
10
82.7333
20
-92.0826
11
83.0134
21
-91.7488
0
LINE
8
Black
10
83.0134
20
-91.7488
11
83.3908
21
-91.5309
0
LINE
8
Black
10
83.3908
20
-91.5309
11
83.82
21
-91.4552
0
LINE
8
Black
10
83.82
20
-91.4552
11
84.2492
21
-91.5309
0
LINE
8
Black
10
84.2492
20
-91.5309
11
84.6266
21
-91.7488
0
LINE
8
Black
10
84.6266
20
-91.7488
11
84.9067
21
-92.0826
0
LINE
8
Black
10
84.9067
20
-92.0826
11
85.0557
21
-92.4921
0
LINE
8
Black
10
85.0557
20
-92.4921
11
85.0557
21
-92.9279
0
LINE
8
Black
10
85.0557
20
-92.9279
11
84.9067
21
-93.3374
0
LINE
8
Black
10
84.9067
20
-93.3374
11
84.6266
21
-93.6712
0
LINE
8
Black
10
84.6266
20
-93.6712
11
84.445
21
-93.776
0
LINE
8
Black
10
84.445
20
-93.776
11
84.445
21
-94.9911
0
LINE
8
Black
10
84.445
20
-94.9911
11
86.6189
21
-97.165
0
LINE
8
Black
10
86.6189
20
-97.165
11
87.63
21
-97.165
0
LINE
8
Black
10
87.63
20
-97.165
11
104.14
21
-97.165
0
LINE
8
Black
10
104.14
20
-97.165
11
105.151
21
-97.165
0
LINE
8
Black
10
105.151
20
-97.165
11
107.325
21
-94.9911
0
LINE
8
Black
10
107.325
20
-94.9911
11
107.325
21
-93.776
0
LINE
8
Black
10
107.325
20
-93.776
11
107.143
21
-93.6712
0
LINE
8
Black
10
107.143
20
-93.6712
11
106.863
21
-93.3374
0
LINE
8
Black
10
106.863
20
-93.3374
11
106.714
21
-92.9279
0
LINE
8
Black
10
106.714
20
-92.9279
11
106.714
21
-92.4921
0
LINE
8
Black
10
106.714
20
-92.4921
11
106.863
21
-92.0826
0
LINE
8
Black
10
106.863
20
-92.0826
11
107.143
21
-91.7488
0
LINE
8
Black
10
107.143
20
-91.7488
11
107.521
21
-91.5309
0
LINE
8
Black
10
107.521
20
-91.5309
11
107.95
21
-91.4552
0
LINE
8
Black
10
107.95
20
-91.4552
11
108.379
21
-91.5309
0
LINE
8
Black
10
108.379
20
-91.5309
11
108.757
21
-91.7488
0
LINE
8
Black
10
108.757
20
-91.7488
11
109.037
21
-92.0826
0
LINE
8
Black
10
109.037
20
-92.0826
11
109.186
21
-92.4921
0
LINE
8
Black
10
109.186
20
-92.4921
11
109.186
21
-92.9279
0
LINE
8
Black
10
109.186
20
-92.9279
11
109.037
21
-93.3374
0
LINE
8
Black
10
109.037
20
-93.3374
11
108.757
21
-93.6712
0
LINE
8
Black
10
108.757
20
-93.6712
11
108.575
21
-93.776
0
LINE
8
Black
10
108.575
20
-93.776
11
108.575
21
-94.9911
0
LINE
8
Black
10
108.575
20
-94.9911
11
110.749
21
-97.165
0
LINE
8
Black
10
110.749
20
-97.165
11
122.931
21
-97.165
0
LINE
8
Black
10
122.931
20
-97.165
11
125.288
21
-94.8081
0
LINE
8
Black
10
125.288
20
-94.8081
11
125.288
21
-94.8081
0
LINE
8
Black
10
125.288
20
-94.8081
11
127.645
21
-92.4511
0
LINE
8
Black
10
127.645
20
-92.4511
11
127.645
21
-38.3589
0
LINE
8
Black
10
127.645
20
-38.3589
11
122.931
21
-33.645
0
LINE
8
Black
10
122.931
20
-33.645
11
105.669
21
-33.645
0
LINE
8
Black
10
105.669
20
-33.645
11
104.765
21
-34.5489
0
LINE
8
Black
10
104.765
20
-34.5489
11
104.765
21
-35.56
0
LINE
8
Black
10
104.765
20
-35.56
11
104.765
21
-42.7
0
LINE
8
Black
10
104.765
20
-42.7
11
104.99
21
-42.7
0
LINE
8
Black
10
104.99
20
-42.7
11
104.99
21
-46.2
0
LINE
8
Black
10
104.99
20
-46.2
11
103.29
21
-46.2
0
LINE
8
Black
10
103.29
20
-46.2
11
103.29
21
-42.7
0
LINE
8
Black
10
103.29
20
-42.7
11
103.515
21
-42.7
0
LINE
8
Black
10
103.515
20
-42.7
11
103.515
21
-35.56
0
LINE
8
Black
10
103.515
20
-35.56
11
103.515
21
-34.5489
0
LINE
8
Black
10
103.515
20
-34.5489
11
102.611
21
-33.645
0
LINE
8
Black
10
102.611
20
-33.645
11
87.8889
21
-33.645
0
LINE
8
Black
10
87.8889
20
-33.645
11
83.175
21
-38.3589
0
LINE
8
Black
10
83.175
20
-38.3589
11
83.175
21
-41.6511
0
LINE
8
Black
10
83.175
20
-41.6511
11
83.6269
21
-42.1031
0
LINE
8
Black
10
83.6269
20
-42.1031
11
83.6269
21
-42.1031
0
LINE
8
Black
10
83.6269
20
-42.1031
11
84.2239
21
-42.7
0
LINE
8
Black
10
84.2239
20
-42.7
11
84.67
21
-42.7
0
LINE
8
Black
10
84.67
20
-42.7
11
84.67
21
-46.2
0
LINE
8
Black
10
84.67
20
-46.2
11
82.97
21
-46.2
0
LINE
8
Black
10
82.97
20
-46.2
11
82.97
21
-43.2139
0
LINE
8
Black
10
82.97
20
-43.2139
11
82.9261
21
-43.17
0
LINE
8
Black
10
82.9261
20
-43.17
11
82.1739
21
-43.17
0
LINE
8
Black
10
82.1739
20
-43.17
11
82.13
21
-43.2139
0
LINE
8
Black
10
82.13
20
-43.2139
11
82.13
21
-46.2
0
LINE
8
Black
10
82.13
20
-46.2
11
80.43
21
-46.2
0
LINE
8
Black
10
80.43
20
-46.2
11
80.43
21
-42.7
0
LINE
8
Black
10
80.43
20
-42.7
11
80.8761
21
-42.7
0
LINE
8
Black
10
80.8761
20
-42.7
11
81.4731
21
-42.1031
0
LINE
8
Black
10
81.4731
20
-42.1031
11
81.4731
21
-42.1031
0
LINE
8
Black
10
81.4731
20
-42.1031
11
81.925
21
-41.6511
0
LINE
8
Black
10
81.925
20
-41.6511
11
81.925
21
-38.1
0
LINE
8
Black
10
81.925
20
-38.1
11
81.9298
21
-38.0729
0
LINE
8
Black
10
81.9298
20
-38.0729
11
81.9274
21
-38.0455
0
LINE
8
Black
10
81.9274
20
-38.0455
11
81.9485
21
-37.9666
0
LINE
8
Black
10
81.9485
20
-37.9666
11
81.9627
21
-37.8862
0
LINE
8
Black
10
81.9627
20
-37.8862
11
81.9764
21
-37.8624
0
LINE
8
Black
10
81.9764
20
-37.8624
11
81.9836
21
-37.8359
0
LINE
8
Black
10
81.9836
20
-37.8359
11
82.0304
21
-37.769
0
LINE
8
Black
10
82.0304
20
-37.769
11
82.0712
21
-37.6983
0
LINE
8
Black
10
82.0712
20
-37.6983
11
82.0923
21
-37.6806
0
LINE
8
Black
10
82.0923
20
-37.6806
11
82.1081
21
-37.6581
0
LINE
8
Black
10
82.1081
20
-37.6581
11
87.1881
21
-32.5781
0
LINE
8
Black
10
87.1881
20
-32.5781
11
87.2106
21
-32.5623
0
LINE
8
Black
10
87.2106
20
-32.5623
11
87.2283
21
-32.5412
0
LINE
8
Black
10
87.2283
20
-32.5412
11
87.299
21
-32.5004
0
LINE
8
Black
10
87.299
20
-32.5004
11
87.3659
21
-32.4536
0
LINE
8
Black
10
87.3659
20
-32.4536
11
87.3924
21
-32.4464
0
LINE
8
Black
10
87.3924
20
-32.4464
11
87.4162
21
-32.4327
0
LINE
8
Black
10
87.4162
20
-32.4327
11
87.4966
21
-32.4185
0
LINE
8
Black
10
87.4966
20
-32.4185
11
87.5755
21
-32.3974
0
LINE
8
Black
10
87.5755
20
-32.3974
11
87.6029
21
-32.3998
0
LINE
8
Black
10
87.6029
20
-32.3998
11
87.63
21
-32.395
0
LINE
8
Black
10
87.63
20
-32.395
11
102.87
21
-32.395
0
LINE
8
Black
10
102.87
20
-32.395
11
104.14
21
-32.395
0
LINE
8
Black
10
104.14
20
-32.395
11
105.41
21
-32.395
0
LINE
8
Black
10
105.41
20
-32.395
11
123.19
21
-32.395
0
LINE
8
Black
10
106.919
20
-97.165
11
108.981
21
-97.165
0
LINE
8
Black
10
108.981
20
-97.165
11
107.95
21
-96.1339
0
LINE
8
Black
10
107.95
20
-96.1339
11
106.919
21
-97.165
0
LINE
8
Black
10
82.7889
20
-97.165
11
84.8511
21
-97.165
0
LINE
8
Black
10
84.8511
20
-97.165
11
83.82
21
-96.1339
0
LINE
8
Black
10
83.82
20
-96.1339
11
82.7889
21
-97.165
0
LINE
8
Black
10
58.6589
20
-97.165
11
60.7211
21
-97.165
0
LINE
8
Black
10
60.7211
20
-97.165
11
59.69
21
-96.1339
0
LINE
8
Black
10
59.69
20
-96.1339
11
58.6589
21
-97.165
0
LINE
8
Black
10
72.29
20
-94.46
11
69.79
21
-94.46
0
LINE
8
Black
10
69.79
20
-94.46
11
69.79
21
-90.96
0
LINE
8
Black
10
69.79
20
-90.96
11
72.29
21
-90.96
0
LINE
8
Black
10
72.29
20
-90.96
11
72.29
21
-94.46
0
LINE
8
Black
10
48.16
20
-94.46
11
45.66
21
-94.46
0
LINE
8
Black
10
45.66
20
-94.46
11
45.66
21
-90.96
0
LINE
8
Black
10
45.66
20
-90.96
11
48.16
21
-90.96
0
LINE
8
Black
10
48.16
20
-90.96
11
48.16
21
-94.46
0
LINE
8
Black
10
67.29
20
-94.46
11
64.79
21
-94.46
0
LINE
8
Black
10
64.79
20
-94.46
11
64.79
21
-90.96
0
LINE
8
Black
10
64.79
20
-90.96
11
67.29
21
-90.96
0
LINE
8
Black
10
67.29
20
-90.96
11
67.29
21
-94.46
0
LINE
8
Black
10
115.55
20
-94.46
11
113.05
21
-94.46
0
LINE
8
Black
10
113.05
20
-94.46
11
113.05
21
-90.96
0
LINE
8
Black
10
113.05
20
-90.96
11
115.55
21
-90.96
0
LINE
8
Black
10
115.55
20
-90.96
11
115.55
21
-94.46
0
LINE
8
Black
10
120.55
20
-94.46
11
118.05
21
-94.46
0
LINE
8
Black
10
118.05
20
-94.46
11
118.05
21
-90.96
0
LINE
8
Black
10
118.05
20
-90.96
11
120.55
21
-90.96
0
LINE
8
Black
10
120.55
20
-90.96
11
120.55
21
-94.46
0
LINE
8
Black
10
43.16
20
-94.46
11
40.66
21
-94.46
0
LINE
8
Black
10
40.66
20
-94.46
11
40.66
21
-90.96
0
LINE
8
Black
10
40.66
20
-90.96
11
43.16
21
-90.96
0
LINE
8
Black
10
43.16
20
-90.96
11
43.16
21
-94.46
0
LINE
8
Black
10
96.42
20
-94.46
11
93.92
21
-94.46
0
LINE
8
Black
10
93.92
20
-94.46
11
93.92
21
-90.96
0
LINE
8
Black
10
93.92
20
-90.96
11
96.42
21
-90.96
0
LINE
8
Black
10
96.42
20
-90.96
11
96.42
21
-94.46
0
LINE
8
Black
10
91.42
20
-94.46
11
88.92
21
-94.46
0
LINE
8
Black
10
88.92
20
-94.46
11
88.92
21
-90.96
0
LINE
8
Black
10
88.92
20
-90.96
11
91.42
21
-90.96
0
LINE
8
Black
10
91.42
20
-90.96
11
91.42
21
-94.46
0
LINE
8
Black
10
60.9871
20
-32.3998
11
61.0145
21
-32.3974
0
LINE
8
Black
10
61.0145
20
-32.3974
11
61.0934
21
-32.4185
0
LINE
8
Black
10
61.0934
20
-32.4185
11
61.1738
21
-32.4327
0
LINE
8
Black
10
61.1738
20
-32.4327
11
61.1976
21
-32.4464
0
LINE
8
Black
10
61.1976
20
-32.4464
11
61.2241
21
-32.4536
0
LINE
8
Black
10
61.2241
20
-32.4536
11
61.291
21
-32.5004
0
LINE
8
Black
10
61.291
20
-32.5004
11
61.3617
21
-32.5412
0
LINE
8
Black
10
61.3617
20
-32.5412
11
61.3794
21
-32.5623
0
LINE
8
Black
10
61.3794
20
-32.5623
11
61.4019
21
-32.5781
0
LINE
8
Black
10
61.4019
20
-32.5781
11
66.4819
21
-37.6581
0
LINE
8
Black
10
66.4819
20
-37.6581
11
66.4977
21
-37.6806
0
LINE
8
Black
10
66.4977
20
-37.6806
11
66.5188
21
-37.6983
0
LINE
8
Black
10
66.5188
20
-37.6983
11
66.5596
21
-37.769
0
LINE
8
Black
10
66.5596
20
-37.769
11
66.6064
21
-37.8359
0
LINE
8
Black
10
66.6064
20
-37.8359
11
66.6136
21
-37.8624
0
LINE
8
Black
10
66.6136
20
-37.8624
11
66.6273
21
-37.8862
0
LINE
8
Black
10
66.6273
20
-37.8862
11
66.6415
21
-37.9666
0
LINE
8
Black
10
66.6415
20
-37.9666
11
66.6626
21
-38.0455
0
LINE
8
Black
10
66.6626
20
-38.0455
11
66.6602
21
-38.0729
0
LINE
8
Black
10
66.6602
20
-38.0729
11
66.665
21
-38.1
0
LINE
8
Black
10
66.665
20
-38.1
11
66.665
21
-42.7
0
LINE
8
Black
10
66.665
20
-42.7
11
66.89
21
-42.7
0
LINE
8
Black
10
66.89
20
-42.7
11
66.89
21
-46.2
0
LINE
8
Black
10
66.89
20
-46.2
11
65.19
21
-46.2
0
LINE
8
Black
10
65.19
20
-46.2
11
65.19
21
-42.7
0
LINE
8
Black
10
65.19
20
-42.7
11
65.415
21
-42.7
0
LINE
8
Black
10
65.415
20
-42.7
11
65.415
21
-38.3589
0
LINE
8
Black
10
65.415
20
-38.3589
11
60.7011
21
-33.645
0
LINE
8
Black
10
60.7011
20
-33.645
11
37.0889
21
-33.645
0
LINE
8
Black
10
37.0889
20
-33.645
11
32.375
21
-38.3589
0
LINE
8
Black
10
32.375
20
-38.3589
11
32.375
21
-87.3711
0
LINE
8
Black
10
32.375
20
-87.3711
11
33.2789
21
-88.275
0
LINE
8
Black
10
33.2789
20
-88.275
11
124.201
21
-88.275
0
LINE
8
Black
10
124.201
20
-88.275
11
125.105
21
-87.3711
0
LINE
8
Black
10
125.105
20
-87.3711
11
125.105
21
-77.7289
0
LINE
8
Black
10
125.105
20
-77.7289
11
124.201
21
-76.825
0
LINE
8
Black
10
124.201
20
-76.825
11
115.829
21
-76.825
0
LINE
8
Black
10
115.829
20
-76.825
11
114.925
21
-77.7289
0
LINE
8
Black
10
114.925
20
-77.7289
11
114.925
21
-78.46
0
LINE
8
Black
10
114.925
20
-78.46
11
115.55
21
-78.46
0
LINE
8
Black
10
115.55
20
-78.46
11
115.55
21
-81.96
0
LINE
8
Black
10
115.55
20
-81.96
11
113.05
21
-81.96
0
LINE
8
Black
10
113.05
20
-81.96
11
113.05
21
-78.46
0
LINE
8
Black
10
113.05
20
-78.46
11
113.675
21
-78.46
0
LINE
8
Black
10
113.675
20
-78.46
11
113.675
21
-78.095
0
LINE
8
Black
10
113.675
20
-78.095
11
109.479
21
-78.095
0
LINE
8
Black
10
109.479
20
-78.095
11
108.575
21
-78.9989
0
LINE
8
Black
10
108.575
20
-78.9989
11
108.575
21
-81.484
0
LINE
8
Black
10
108.575
20
-81.484
11
108.757
21
-81.5888
0
LINE
8
Black
10
108.757
20
-81.5888
11
109.037
21
-81.9226
0
LINE
8
Black
10
109.037
20
-81.9226
11
109.186
21
-82.3321
0
LINE
8
Black
10
109.186
20
-82.3321
11
109.186
21
-82.7679
0
LINE
8
Black
10
109.186
20
-82.7679
11
109.037
21
-83.1774
0
LINE
8
Black
10
109.037
20
-83.1774
11
108.757
21
-83.5112
0
LINE
8
Black
10
108.757
20
-83.5112
11
108.379
21
-83.7291
0
LINE
8
Black
10
108.379
20
-83.7291
11
107.95
21
-83.8048
0
LINE
8
Black
10
107.95
20
-83.8048
11
107.521
21
-83.7291
0
LINE
8
Black
10
107.521
20
-83.7291
11
107.143
21
-83.5112
0
LINE
8
Black
10
107.143
20
-83.5112
11
106.863
21
-83.1774
0
LINE
8
Black
10
106.863
20
-83.1774
11
106.714
21
-82.7679
0
LINE
8
Black
10
106.714
20
-82.7679
11
106.714
21
-82.3321
0
LINE
8
Black
10
106.714
20
-82.3321
11
106.863
21
-81.9226
0
LINE
8
Black
10
106.863
20
-81.9226
11
107.143
21
-81.5888
0
LINE
8
Black
10
107.143
20
-81.5888
11
107.325
21
-81.484
0
LINE
8
Black
10
107.325
20
-81.484
11
107.325
21
-78.74
0
LINE
8
Black
10
107.325
20
-78.74
11
107.33
21
-78.7129
0
LINE
8
Black
10
107.33
20
-78.7129
11
107.327
21
-78.6855
0
LINE
8
Black
10
107.327
20
-78.6855
11
107.349
21
-78.6066
0
LINE
8
Black
10
107.349
20
-78.6066
11
107.363
21
-78.5262
0
LINE
8
Black
10
107.363
20
-78.5262
11
107.376
21
-78.5024
0
LINE
8
Black
10
107.376
20
-78.5024
11
107.384
21
-78.4759
0
LINE
8
Black
10
107.384
20
-78.4759
11
107.43
21
-78.409
0
LINE
8
Black
10
107.43
20
-78.409
11
107.471
21
-78.3383
0
LINE
8
Black
10
107.471
20
-78.3383
11
107.492
21
-78.3206
0
LINE
8
Black
10
107.492
20
-78.3206
11
107.508
21
-78.2981
0
LINE
8
Black
10
107.508
20
-78.2981
11
108.778
21
-77.0281
0
LINE
8
Black
10
108.778
20
-77.0281
11
108.801
21
-77.0123
0
LINE
8
Black
10
108.801
20
-77.0123
11
108.818
21
-76.9912
0
LINE
8
Black
10
108.818
20
-76.9912
11
108.889
21
-76.9504
0
LINE
8
Black
10
108.889
20
-76.9504
11
108.956
21
-76.9036
0
LINE
8
Black
10
108.956
20
-76.9036
11
108.982
21
-76.8964
0
LINE
8
Black
10
108.982
20
-76.8964
11
109.006
21
-76.8827
0
LINE
8
Black
10
109.006
20
-76.8827
11
109.087
21
-76.8685
0
LINE
8
Black
10
109.087
20
-76.8685
11
109.166
21
-76.8474
0
LINE
8
Black
10
109.166
20
-76.8474
11
109.193
21
-76.8498
0
LINE
8
Black
10
109.193
20
-76.8498
11
109.22
21
-76.845
0
LINE
8
Black
10
109.22
20
-76.845
11
114.041
21
-76.845
0
LINE
8
Black
10
114.041
20
-76.845
11
115.128
21
-75.7581
0
LINE
8
Black
10
115.128
20
-75.7581
11
115.151
21
-75.7423
0
LINE
8
Black
10
115.151
20
-75.7423
11
115.168
21
-75.7212
0
LINE
8
Black
10
115.168
20
-75.7212
11
115.239
21
-75.6804
0
LINE
8
Black
10
115.239
20
-75.6804
11
115.306
21
-75.6336
0
LINE
8
Black
10
115.306
20
-75.6336
11
115.332
21
-75.6264
0
LINE
8
Black
10
115.332
20
-75.6264
11
115.356
21
-75.6127
0
LINE
8
Black
10
115.356
20
-75.6127
11
115.437
21
-75.5985
0
LINE
8
Black
10
115.437
20
-75.5985
11
115.516
21
-75.5774
0
LINE
8
Black
10
115.516
20
-75.5774
11
115.543
21
-75.5798
0
LINE
8
Black
10
115.543
20
-75.5798
11
115.57
21
-75.575
0
LINE
8
Black
10
115.57
20
-75.575
11
124.46
21
-75.575
0
LINE
8
Black
10
124.46
20
-75.575
11
124.487
21
-75.5798
0
LINE
8
Black
10
124.487
20
-75.5798
11
124.514
21
-75.5774
0
LINE
8
Black
10
124.514
20
-75.5774
11
124.593
21
-75.5985
0
LINE
8
Black
10
124.593
20
-75.5985
11
124.674
21
-75.6127
0
LINE
8
Black
10
124.674
20
-75.6127
11
124.698
21
-75.6264
0
LINE
8
Black
10
124.698
20
-75.6264
11
124.724
21
-75.6336
0
LINE
8
Black
10
124.724
20
-75.6336
11
124.791
21
-75.6804
0
LINE
8
Black
10
124.791
20
-75.6804
11
124.862
21
-75.7212
0
LINE
8
Black
10
124.862
20
-75.7212
11
124.879
21
-75.7423
0
LINE
8
Black
10
124.879
20
-75.7423
11
124.902
21
-75.7581
0
LINE
8
Black
10
124.902
20
-75.7581
11
126.172
21
-77.0281
0
LINE
8
Black
10
126.172
20
-77.0281
11
126.188
21
-77.0506
0
LINE
8
Black
10
126.188
20
-77.0506
11
126.209
21
-77.0683
0
LINE
8
Black
10
126.209
20
-77.0683
11
126.25
21
-77.139
0
LINE
8
Black
10
126.25
20
-77.139
11
126.296
21
-77.2059
0
LINE
8
Black
10
126.296
20
-77.2059
11
126.304
21
-77.2324
0
LINE
8
Black
10
126.304
20
-77.2324
11
126.317
21
-77.2562
0
LINE
8
Black
10
126.317
20
-77.2562
11
126.331
21
-77.3366
0
LINE
8
Black
10
126.331
20
-77.3366
11
126.353
21
-77.4155
0
LINE
8
Black
10
126.353
20
-77.4155
11
126.35
21
-77.4429
0
LINE
8
Black
10
126.35
20
-77.4429
11
126.355
21
-77.47
0
LINE
8
Black
10
126.355
20
-77.47
11
126.355
21
-87.63
0
LINE
8
Black
10
126.355
20
-87.63
11
126.35
21
-87.6571
0
LINE
8
Black
10
126.35
20
-87.6571
11
126.353
21
-87.6845
0
LINE
8
Black
10
126.353
20
-87.6845
11
126.331
21
-87.7634
0
LINE
8
Black
10
126.331
20
-87.7634
11
126.317
21
-87.8438
0
LINE
8
Black
10
126.317
20
-87.8438
11
126.304
21
-87.8676
0
LINE
8
Black
10
126.304
20
-87.8676
11
126.296
21
-87.8941
0
LINE
8
Black
10
126.296
20
-87.8941
11
126.25
21
-87.961
0
LINE
8
Black
10
126.25
20
-87.961
11
126.209
21
-88.0317
0
LINE
8
Black
10
126.209
20
-88.0317
11
126.188
21
-88.0494
0
LINE
8
Black
10
126.188
20
-88.0494
11
126.172
21
-88.0719
0
LINE
8
Black
10
126.172
20
-88.0719
11
124.902
21
-89.3419
0
LINE
8
Black
10
124.902
20
-89.3419
11
124.879
21
-89.3577
0
LINE
8
Black
10
124.879
20
-89.3577
11
124.862
21
-89.3788
0
LINE
8
Black
10
124.862
20
-89.3788
11
124.791
21
-89.4196
0
LINE
8
Black
10
124.791
20
-89.4196
11
124.724
21
-89.4664
0
LINE
8
Black
10
124.724
20
-89.4664
11
124.698
21
-89.4736
0
LINE
8
Black
10
124.698
20
-89.4736
11
124.674
21
-89.4873
0
LINE
8
Black
10
124.674
20
-89.4873
11
124.593
21
-89.5015
0
LINE
8
Black
10
124.593
20
-89.5015
11
124.514
21
-89.5226
0
LINE
8
Black
10
124.514
20
-89.5226
11
124.487
21
-89.5202
0
LINE
8
Black
10
124.487
20
-89.5202
11
124.46
21
-89.525
0
LINE
8
Black
10
124.46
20
-89.525
11
33.02
21
-89.525
0
LINE
8
Black
10
33.02
20
-89.525
11
32.9929
21
-89.5202
0
LINE
8
Black
10
32.9929
20
-89.5202
11
32.9655
21
-89.5226
0
LINE
8
Black
10
32.9655
20
-89.5226
11
32.8866
21
-89.5015
0
LINE
8
Black
10
32.8866
20
-89.5015
11
32.8062
21
-89.4873
0
LINE
8
Black
10
32.8062
20
-89.4873
11
32.7824
21
-89.4736
0
LINE
8
Black
10
32.7824
20
-89.4736
11
32.7559
21
-89.4664
0
LINE
8
Black
10
32.7559
20
-89.4664
11
32.689
21
-89.4196
0
LINE
8
Black
10
32.689
20
-89.4196
11
32.6183
21
-89.3788
0
LINE
8
Black
10
32.6183
20
-89.3788
11
32.6006
21
-89.3577
0
LINE
8
Black
10
32.6006
20
-89.3577
11
32.5781
21
-89.3419
0
LINE
8
Black
10
32.5781
20
-89.3419
11
31.3081
21
-88.0719
0
LINE
8
Black
10
31.3081
20
-88.0719
11
31.2923
21
-88.0494
0
LINE
8
Black
10
31.2923
20
-88.0494
11
31.2712
21
-88.0317
0
LINE
8
Black
10
31.2712
20
-88.0317
11
31.2304
21
-87.961
0
LINE
8
Black
10
31.2304
20
-87.961
11
31.1836
21
-87.8941
0
LINE
8
Black
10
31.1836
20
-87.8941
11
31.1764
21
-87.8676
0
LINE
8
Black
10
31.1764
20
-87.8676
11
31.1627
21
-87.8438
0
LINE
8
Black
10
31.1627
20
-87.8438
11
31.1485
21
-87.7634
0
LINE
8
Black
10
31.1485
20
-87.7634
11
31.1274
21
-87.6845
0
LINE
8
Black
10
31.1274
20
-87.6845
11
31.1298
21
-87.6571
0
LINE
8
Black
10
31.1298
20
-87.6571
11
31.125
21
-87.63
0
LINE
8
Black
10
31.125
20
-87.63
11
31.125
21
-38.1
0
LINE
8
Black
10
31.125
20
-38.1
11
31.1298
21
-38.0729
0
LINE
8
Black
10
31.1298
20
-38.0729
11
31.1274
21
-38.0455
0
LINE
8
Black
10
31.1274
20
-38.0455
11
31.1485
21
-37.9666
0
LINE
8
Black
10
31.1485
20
-37.9666
11
31.1627
21
-37.8862
0
LINE
8
Black
10
31.1627
20
-37.8862
11
31.1764
21
-37.8624
0
LINE
8
Black
10
31.1764
20
-37.8624
11
31.1836
21
-37.8359
0
LINE
8
Black
10
31.1836
20
-37.8359
11
31.2304
21
-37.769
0
LINE
8
Black
10
31.2304
20
-37.769
11
31.2712
21
-37.6983
0
LINE
8
Black
10
31.2712
20
-37.6983
11
31.2923
21
-37.6806
0
LINE
8
Black
10
31.2923
20
-37.6806
11
31.3081
21
-37.6581
0
LINE
8
Black
10
31.3081
20
-37.6581
11
36.3881
21
-32.5781
0
LINE
8
Black
10
36.3881
20
-32.5781
11
36.4106
21
-32.5623
0
LINE
8
Black
10
36.4106
20
-32.5623
11
36.4283
21
-32.5412
0
LINE
8
Black
10
36.4283
20
-32.5412
11
36.499
21
-32.5004
0
LINE
8
Black
10
36.499
20
-32.5004
11
36.5659
21
-32.4536
0
LINE
8
Black
10
36.5659
20
-32.4536
11
36.5924
21
-32.4464
0
LINE
8
Black
10
36.5924
20
-32.4464
11
36.6162
21
-32.4327
0
LINE
8
Black
10
36.6162
20
-32.4327
11
36.6966
21
-32.4185
0
LINE
8
Black
10
36.6966
20
-32.4185
11
36.7755
21
-32.3974
0
LINE
8
Black
10
36.7755
20
-32.3974
11
36.8029
21
-32.3998
0
LINE
8
Black
10
36.8029
20
-32.3998
11
36.83
21
-32.395
0
LINE
8
Black
10
36.83
20
-32.395
11
60.96
21
-32.395
0
LINE
8
Black
10
60.96
20
-32.395
11
60.9871
21
-32.3998
0
LINE
8
Black
10
67.955
20
-68.3211
11
67.955
21
-66.2593
0
LINE
8
Black
10
67.955
20
-66.2593
11
67.8906
21
-66.2052
0
LINE
8
Black
10
67.8906
20
-66.2052
11
67.7343
21
-65.9345
0
LINE
8
Black
10
67.7343
20
-65.9345
11
67.68
21
-65.6267
0
LINE
8
Black
10
67.68
20
-65.6267
11
67.68
21
-63.9133
0
LINE
8
Black
10
67.68
20
-63.9133
11
67.7343
21
-63.6055
0
LINE
8
Black
10
67.7343
20
-63.6055
11
67.8906
21
-63.3348
0
LINE
8
Black
10
67.8906
20
-63.3348
11
68.13
21
-63.1339
0
LINE
8
Black
10
68.13
20
-63.1339
11
68.4237
21
-63.027
0
LINE
8
Black
10
68.4237
20
-63.027
11
68.7363
21
-63.027
0
LINE
8
Black
10
68.7363
20
-63.027
11
69.03
21
-63.1339
0
LINE
8
Black
10
69.03
20
-63.1339
11
69.2694
21
-63.3348
0
LINE
8
Black
10
69.2694
20
-63.3348
11
69.4257
21
-63.6055
0
LINE
8
Black
10
69.4257
20
-63.6055
11
69.48
21
-63.9133
0
LINE
8
Black
10
69.48
20
-63.9133
11
69.48
21
-65.6267
0
LINE
8
Black
10
69.48
20
-65.6267
11
69.4257
21
-65.9345
0
LINE
8
Black
10
69.4257
20
-65.9345
11
69.2694
21
-66.2052
0
LINE
8
Black
10
69.2694
20
-66.2052
11
69.205
21
-66.2593
0
LINE
8
Black
10
69.205
20
-66.2593
11
69.205
21
-68.3211
0
LINE
8
Black
10
69.205
20
-68.3211
11
70.1089
21
-69.225
0
LINE
8
Black
10
70.1089
20
-69.225
11
77.2111
21
-69.225
0
LINE
8
Black
10
77.2111
20
-69.225
11
78.115
21
-68.3211
0
LINE
8
Black
10
78.115
20
-68.3211
11
78.115
21
-66.2593
0
LINE
8
Black
10
78.115
20
-66.2593
11
78.0506
21
-66.2052
0
LINE
8
Black
10
78.0506
20
-66.2052
11
77.8943
21
-65.9345
0
LINE
8
Black
10
77.8943
20
-65.9345
11
77.84
21
-65.6267
0
LINE
8
Black
10
77.84
20
-65.6267
11
77.84
21
-63.9133
0
LINE
8
Black
10
77.84
20
-63.9133
11
77.8943
21
-63.6055
0
LINE
8
Black
10
77.8943
20
-63.6055
11
78.0506
21
-63.3348
0
LINE
8
Black
10
78.0506
20
-63.3348
11
78.29
21
-63.1339
0
LINE
8
Black
10
78.29
20
-63.1339
11
78.5837
21
-63.027
0
LINE
8
Black
10
78.5837
20
-63.027
11
78.8963
21
-63.027
0
LINE
8
Black
10
78.8963
20
-63.027
11
79.19
21
-63.1339
0
LINE
8
Black
10
79.19
20
-63.1339
11
79.4294
21
-63.3348
0
LINE
8
Black
10
79.4294
20
-63.3348
11
79.5857
21
-63.6055
0
LINE
8
Black
10
79.5857
20
-63.6055
11
79.64
21
-63.9133
0
LINE
8
Black
10
79.64
20
-63.9133
11
79.64
21
-65.6267
0
LINE
8
Black
10
79.64
20
-65.6267
11
79.5857
21
-65.9345
0
LINE
8
Black
10
79.5857
20
-65.9345
11
79.4294
21
-66.2052
0
LINE
8
Black
10
79.4294
20
-66.2052
11
79.365
21
-66.2593
0
LINE
8
Black
10
79.365
20
-66.2593
11
79.365
21
-68.3211
0
LINE
8
Black
10
79.365
20
-68.3211
11
80.2689
21
-69.225
0
LINE
8
Black
10
80.2689
20
-69.225
11
89.9111
21
-69.225
0
LINE
8
Black
10
89.9111
20
-69.225
11
90.815
21
-68.3211
0
LINE
8
Black
10
90.815
20
-68.3211
11
90.815
21
-66.2593
0
LINE
8
Black
10
90.815
20
-66.2593
11
90.7506
21
-66.2052
0
LINE
8
Black
10
90.7506
20
-66.2052
11
90.5943
21
-65.9345
0
LINE
8
Black
10
90.5943
20
-65.9345
11
90.54
21
-65.6267
0
LINE
8
Black
10
90.54
20
-65.6267
11
90.54
21
-63.9133
0
LINE
8
Black
10
90.54
20
-63.9133
11
90.5943
21
-63.6055
0
LINE
8
Black
10
90.5943
20
-63.6055
11
90.7506
21
-63.3348
0
LINE
8
Black
10
90.7506
20
-63.3348
11
90.99
21
-63.1339
0
LINE
8
Black
10
90.99
20
-63.1339
11
91.2837
21
-63.027
0
LINE
8
Black
10
91.2837
20
-63.027
11
91.5963
21
-63.027
0
LINE
8
Black
10
91.5963
20
-63.027
11
91.89
21
-63.1339
0
LINE
8
Black
10
91.89
20
-63.1339
11
92.1294
21
-63.3348
0
LINE
8
Black
10
92.1294
20
-63.3348
11
92.2857
21
-63.6055
0
LINE
8
Black
10
92.2857
20
-63.6055
11
92.34
21
-63.9133
0
LINE
8
Black
10
92.34
20
-63.9133
11
92.34
21
-65.6267
0
LINE
8
Black
10
92.34
20
-65.6267
11
92.2857
21
-65.9345
0
LINE
8
Black
10
92.2857
20
-65.9345
11
92.1294
21
-66.2052
0
LINE
8
Black
10
92.1294
20
-66.2052
11
92.065
21
-66.2593
0
LINE
8
Black
10
92.065
20
-66.2593
11
92.065
21
-68.3211
0
LINE
8
Black
10
92.065
20
-68.3211
11
92.9689
21
-69.225
0
LINE
8
Black
10
92.9689
20
-69.225
11
101.341
21
-69.225
0
LINE
8
Black
10
101.341
20
-69.225
11
102.245
21
-68.3211
0
LINE
8
Black
10
102.245
20
-68.3211
11
102.245
21
-63.5
0
LINE
8
Black
10
102.245
20
-63.5
11
102.245
21
-52.3289
0
LINE
8
Black
10
102.245
20
-52.3289
11
101.341
21
-51.425
0
LINE
8
Black
10
101.341
20
-51.425
11
95.25
21
-51.425
0
LINE
8
Black
10
95.25
20
-51.425
11
95.2229
21
-51.4202
0
LINE
8
Black
10
95.2229
20
-51.4202
11
95.1955
21
-51.4226
0
LINE
8
Black
10
95.1955
20
-51.4226
11
95.1166
21
-51.4015
0
LINE
8
Black
10
95.1166
20
-51.4015
11
95.0362
21
-51.3873
0
LINE
8
Black
10
95.0362
20
-51.3873
11
95.0124
21
-51.3736
0
LINE
8
Black
10
95.0124
20
-51.3736
11
94.9859
21
-51.3664
0
LINE
8
Black
10
94.9859
20
-51.3664
11
94.919
21
-51.3196
0
LINE
8
Black
10
94.919
20
-51.3196
11
94.8483
21
-51.2788
0
LINE
8
Black
10
94.8483
20
-51.2788
11
94.8306
21
-51.2577
0
LINE
8
Black
10
94.8306
20
-51.2577
11
94.8081
21
-51.2419
0
LINE
8
Black
10
94.8081
20
-51.2419
11
93.5381
21
-49.9719
0
LINE
8
Black
10
93.5381
20
-49.9719
11
93.5223
21
-49.9494
0
LINE
8
Black
10
93.5223
20
-49.9494
11
93.5012
21
-49.9317
0
LINE
8
Black
10
93.5012
20
-49.9317
11
93.4604
21
-49.861
0
LINE
8
Black
10
93.4604
20
-49.861
11
93.4136
21
-49.7941
0
LINE
8
Black
10
93.4136
20
-49.7941
11
93.4064
21
-49.7676
0
LINE
8
Black
10
93.4064
20
-49.7676
11
93.3927
21
-49.7438
0
LINE
8
Black
10
93.3927
20
-49.7438
11
93.3785
21
-49.6634
0
LINE
8
Black
10
93.3785
20
-49.6634
11
93.3574
21
-49.5845
0
LINE
8
Black
10
93.3574
20
-49.5845
11
93.3598
21
-49.5571
0
LINE
8
Black
10
93.3598
20
-49.5571
11
93.355
21
-49.53
0
LINE
8
Black
10
93.355
20
-49.53
11
93.355
21
-46.2
0
LINE
8
Black
10
93.355
20
-46.2
11
93.13
21
-46.2
0
LINE
8
Black
10
93.13
20
-46.2
11
93.13
21
-42.7
0
LINE
8
Black
10
93.13
20
-42.7
11
94.83
21
-42.7
0
LINE
8
Black
10
94.83
20
-42.7
11
94.83
21
-46.2
0
LINE
8
Black
10
94.83
20
-46.2
11
94.605
21
-46.2
0
LINE
8
Black
10
94.605
20
-46.2
11
94.605
21
-49.2711
0
LINE
8
Black
10
94.605
20
-49.2711
11
95.5089
21
-50.175
0
LINE
8
Black
10
95.5089
20
-50.175
11
101.6
21
-50.175
0
LINE
8
Black
10
101.6
20
-50.175
11
101.627
21
-50.1798
0
LINE
8
Black
10
101.627
20
-50.1798
11
101.654
21
-50.1774
0
LINE
8
Black
10
101.654
20
-50.1774
11
101.733
21
-50.1985
0
LINE
8
Black
10
101.733
20
-50.1985
11
101.814
21
-50.2127
0
LINE
8
Black
10
101.814
20
-50.2127
11
101.838
21
-50.2264
0
LINE
8
Black
10
101.838
20
-50.2264
11
101.864
21
-50.2336
0
LINE
8
Black
10
101.864
20
-50.2336
11
101.931
21
-50.2804
0
LINE
8
Black
10
101.931
20
-50.2804
11
102.002
21
-50.3212
0
LINE
8
Black
10
102.002
20
-50.3212
11
102.019
21
-50.3423
0
LINE
8
Black
10
102.019
20
-50.3423
11
102.042
21
-50.3581
0
LINE
8
Black
10
102.042
20
-50.3581
11
103.312
21
-51.6281
0
LINE
8
Black
10
103.312
20
-51.6281
11
103.328
21
-51.6506
0
LINE
8
Black
10
103.328
20
-51.6506
11
103.349
21
-51.6683
0
LINE
8
Black
10
103.349
20
-51.6683
11
103.39
21
-51.739
0
LINE
8
Black
10
103.39
20
-51.739
11
103.436
21
-51.8059
0
LINE
8
Black
10
103.436
20
-51.8059
11
103.444
21
-51.8324
0
LINE
8
Black
10
103.444
20
-51.8324
11
103.457
21
-51.8562
0
LINE
8
Black
10
103.457
20
-51.8562
11
103.471
21
-51.9366
0
LINE
8
Black
10
103.471
20
-51.9366
11
103.493
21
-52.0155
0
LINE
8
Black
10
103.493
20
-52.0155
11
103.49
21
-52.0429
0
LINE
8
Black
10
103.49
20
-52.0429
11
103.495
21
-52.07
0
LINE
8
Black
10
103.495
20
-52.07
11
103.495
21
-63.5
0
LINE
8
Black
10
103.495
20
-63.5
11
103.495
21
-68.3211
0
LINE
8
Black
10
103.495
20
-68.3211
11
104.399
21
-69.225
0
LINE
8
Black
10
104.399
20
-69.225
11
110.49
21
-69.225
0
LINE
8
Black
10
110.49
20
-69.225
11
111.501
21
-69.225
0
LINE
8
Black
10
111.501
20
-69.225
11
112.405
21
-68.3211
0
LINE
8
Black
10
112.405
20
-68.3211
11
112.405
21
-66.2593
0
LINE
8
Black
10
112.405
20
-66.2593
11
112.341
21
-66.2052
0
LINE
8
Black
10
112.341
20
-66.2052
11
112.184
21
-65.9345
0
LINE
8
Black
10
112.184
20
-65.9345
11
112.13
21
-65.6267
0
LINE
8
Black
10
112.13
20
-65.6267
11
112.13
21
-63.9133
0
LINE
8
Black
10
112.13
20
-63.9133
11
112.184
21
-63.6055
0
LINE
8
Black
10
112.184
20
-63.6055
11
112.341
21
-63.3348
0
LINE
8
Black
10
112.341
20
-63.3348
11
112.58
21
-63.1339
0
LINE
8
Black
10
112.58
20
-63.1339
11
112.874
21
-63.027
0
LINE
8
Black
10
112.874
20
-63.027
11
113.186
21
-63.027
0
LINE
8
Black
10
113.186
20
-63.027
11
113.48
21
-63.1339
0
LINE
8
Black
10
113.48
20
-63.1339
11
113.719
21
-63.3348
0
LINE
8
Black
10
113.719
20
-63.3348
11
113.876
21
-63.6055
0
LINE
8
Black
10
113.876
20
-63.6055
11
113.93
21
-63.9133
0
LINE
8
Black
10
113.93
20
-63.9133
11
113.93
21
-65.6267
0
LINE
8
Black
10
113.93
20
-65.6267
11
113.876
21
-65.9345
0
LINE
8
Black
10
113.876
20
-65.9345
11
113.719
21
-66.2052
0
LINE
8
Black
10
113.719
20
-66.2052
11
113.655
21
-66.2593
0
LINE
8
Black
10
113.655
20
-66.2593
11
113.655
21
-68.58
0
LINE
8
Black
10
113.655
20
-68.58
11
113.65
21
-68.6071
0
LINE
8
Black
10
113.65
20
-68.6071
11
113.653
21
-68.6345
0
LINE
8
Black
10
113.653
20
-68.6345
11
113.631
21
-68.7134
0
LINE
8
Black
10
113.631
20
-68.7134
11
113.617
21
-68.7938
0
LINE
8
Black
10
113.617
20
-68.7938
11
113.604
21
-68.8176
0
LINE
8
Black
10
113.604
20
-68.8176
11
113.596
21
-68.8441
0
LINE
8
Black
10
113.596
20
-68.8441
11
113.55
21
-68.911
0
LINE
8
Black
10
113.55
20
-68.911
11
113.509
21
-68.9817
0
LINE
8
Black
10
113.509
20
-68.9817
11
113.488
21
-68.9994
0
LINE
8
Black
10
113.488
20
-68.9994
11
113.472
21
-69.0219
0
LINE
8
Black
10
113.472
20
-69.0219
11
112.202
21
-70.2919
0
LINE
8
Black
10
112.202
20
-70.2919
11
112.179
21
-70.3077
0
LINE
8
Black
10
112.179
20
-70.3077
11
112.162
21
-70.3288
0
LINE
8
Black
10
112.162
20
-70.3288
11
112.091
21
-70.3696
0
LINE
8
Black
10
112.091
20
-70.3696
11
112.024
21
-70.4164
0
LINE
8
Black
10
112.024
20
-70.4164
11
111.998
21
-70.4236
0
LINE
8
Black
10
111.998
20
-70.4236
11
111.974
21
-70.4373
0
LINE
8
Black
10
111.974
20
-70.4373
11
111.893
21
-70.4515
0
LINE
8
Black
10
111.893
20
-70.4515
11
111.814
21
-70.4726
0
LINE
8
Black
10
111.814
20
-70.4726
11
111.787
21
-70.4702
0
LINE
8
Black
10
111.787
20
-70.4702
11
111.76
21
-70.475
0
LINE
8
Black
10
111.76
20
-70.475
11
110.49
21
-70.475
0
LINE
8
Black
10
110.49
20
-70.475
11
104.399
21
-70.475
0
LINE
8
Black
10
104.399
20
-70.475
11
103.495
21
-71.3789
0
LINE
8
Black
10
103.495
20
-71.3789
11
103.495
21
-84.8311
0
LINE
8
Black
10
103.495
20
-84.8311
11
104.399
21
-85.735
0
LINE
8
Black
10
104.399
20
-85.735
11
116.581
21
-85.735
0
LINE
8
Black
10
116.581
20
-85.735
11
118.675
21
-83.6411
0
LINE
8
Black
10
118.675
20
-83.6411
11
118.675
21
-81.96
0
LINE
8
Black
10
118.675
20
-81.96
11
118.05
21
-81.96
0
LINE
8
Black
10
118.05
20
-81.96
11
118.05
21
-78.46
0
LINE
8
Black
10
118.05
20
-78.46
11
120.55
21
-78.46
0
LINE
8
Black
10
120.55
20
-78.46
11
120.55
21
-81.96
0
LINE
8
Black
10
120.55
20
-81.96
11
119.925
21
-81.96
0
LINE
8
Black
10
119.925
20
-81.96
11
119.925
21
-83.9
0
LINE
8
Black
10
119.925
20
-83.9
11
119.92
21
-83.9271
0
LINE
8
Black
10
119.92
20
-83.9271
11
119.923
21
-83.9545
0
LINE
8
Black
10
119.923
20
-83.9545
11
119.901
21
-84.0333
0
LINE
8
Black
10
119.901
20
-84.0333
11
119.887
21
-84.1138
0
LINE
8
Black
10
119.887
20
-84.1138
11
119.874
21
-84.1376
0
LINE
8
Black
10
119.874
20
-84.1376
11
119.866
21
-84.1641
0
LINE
8
Black
10
119.866
20
-84.1641
11
119.82
21
-84.231
0
LINE
8
Black
10
119.82
20
-84.231
11
119.779
21
-84.3017
0
LINE
8
Black
10
119.779
20
-84.3017
11
119.758
21
-84.3194
0
LINE
8
Black
10
119.758
20
-84.3194
11
119.742
21
-84.3419
0
LINE
8
Black
10
119.742
20
-84.3419
11
117.282
21
-86.8019
0
LINE
8
Black
10
117.282
20
-86.8019
11
117.259
21
-86.8177
0
LINE
8
Black
10
117.259
20
-86.8177
11
117.242
21
-86.8388
0
LINE
8
Black
10
117.242
20
-86.8388
11
117.171
21
-86.8796
0
LINE
8
Black
10
117.171
20
-86.8796
11
117.104
21
-86.9264
0
LINE
8
Black
10
117.104
20
-86.9264
11
117.078
21
-86.9336
0
LINE
8
Black
10
117.078
20
-86.9336
11
117.054
21
-86.9473
0
LINE
8
Black
10
117.054
20
-86.9473
11
116.973
21
-86.9615
0
LINE
8
Black
10
116.973
20
-86.9615
11
116.894
21
-86.9826
0
LINE
8
Black
10
116.894
20
-86.9826
11
116.867
21
-86.9802
0
LINE
8
Black
10
116.867
20
-86.9802
11
116.84
21
-86.985
0
LINE
8
Black
10
116.84
20
-86.985
11
104.14
21
-86.985
0
LINE
8
Black
10
104.14
20
-86.985
11
102.87
21
-86.985
0
LINE
8
Black
10
102.87
20
-86.985
11
101.6
21
-86.985
0
LINE
8
Black
10
101.6
20
-86.985
11
99.06
21
-86.985
0
LINE
8
Black
10
99.06
20
-86.985
11
97.79
21
-86.985
0
LINE
8
Black
10
97.79
20
-86.985
11
92.71
21
-86.985
0
LINE
8
Black
10
92.71
20
-86.985
11
76.2
21
-86.985
0
LINE
8
Black
10
76.2
20
-86.985
11
73.66
21
-86.985
0
LINE
8
Black
10
73.66
20
-86.985
11
67.31
21
-86.985
0
LINE
8
Black
10
67.31
20
-86.985
11
49.53
21
-86.985
0
LINE
8
Black
10
49.53
20
-86.985
11
49.5029
21
-86.9802
0
LINE
8
Black
10
49.5029
20
-86.9802
11
49.4755
21
-86.9826
0
LINE
8
Black
10
49.4755
20
-86.9826
11
49.3967
21
-86.9615
0
LINE
8
Black
10
49.3967
20
-86.9615
11
49.3162
21
-86.9473
0
LINE
8
Black
10
49.3162
20
-86.9473
11
49.2924
21
-86.9336
0
LINE
8
Black
10
49.2924
20
-86.9336
11
49.2659
21
-86.9264
0
LINE
8
Black
10
49.2659
20
-86.9264
11
49.199
21
-86.8796
0
LINE
8
Black
10
49.199
20
-86.8796
11
49.1283
21
-86.8388
0
LINE
8
Black
10
49.1283
20
-86.8388
11
49.1106
21
-86.8177
0
LINE
8
Black
10
49.1106
20
-86.8177
11
49.0881
21
-86.8019
0
LINE
8
Black
10
49.0881
20
-86.8019
11
46.4681
21
-84.1819
0
LINE
8
Black
10
46.4681
20
-84.1819
11
46.4523
21
-84.1594
0
LINE
8
Black
10
46.4523
20
-84.1594
11
46.4312
21
-84.1417
0
LINE
8
Black
10
46.4312
20
-84.1417
11
46.3904
21
-84.071
0
LINE
8
Black
10
46.3904
20
-84.071
11
46.3436
21
-84.0041
0
LINE
8
Black
10
46.3436
20
-84.0041
11
46.3364
21
-83.9776
0
LINE
8
Black
10
46.3364
20
-83.9776
11
46.3227
21
-83.9538
0
LINE
8
Black
10
46.3227
20
-83.9538
11
46.3085
21
-83.8734
0
LINE
8
Black
10
46.3085
20
-83.8734
11
46.2874
21
-83.7945
0
LINE
8
Black
10
46.2874
20
-83.7945
11
46.2898
21
-83.7671
0
LINE
8
Black
10
46.2898
20
-83.7671
11
46.285
21
-83.74
0
LINE
8
Black
10
46.285
20
-83.74
11
46.285
21
-81.96
0
LINE
8
Black
10
46.285
20
-81.96
11
45.66
21
-81.96
0
LINE
8
Black
10
45.66
20
-81.96
11
45.66
21
-78.46
0
LINE
8
Black
10
45.66
20
-78.46
11
48.16
21
-78.46
0
LINE
8
Black
10
48.16
20
-78.46
11
48.16
21
-81.96
0
LINE
8
Black
10
48.16
20
-81.96
11
47.535
21
-81.96
0
LINE
8
Black
10
47.535
20
-81.96
11
47.535
21
-83.4811
0
LINE
8
Black
10
47.535
20
-83.4811
11
49.7889
21
-85.735
0
LINE
8
Black
10
49.7889
20
-85.735
11
67.31
21
-85.735
0
LINE
8
Black
10
67.31
20
-85.735
11
68.3211
21
-85.735
0
LINE
8
Black
10
68.3211
20
-85.735
11
70.415
21
-83.6411
0
LINE
8
Black
10
70.415
20
-83.6411
11
70.415
21
-81.96
0
LINE
8
Black
10
70.415
20
-81.96
11
69.79
21
-81.96
0
LINE
8
Black
10
69.79
20
-81.96
11
69.79
21
-78.46
0
LINE
8
Black
10
69.79
20
-78.46
11
72.29
21
-78.46
0
LINE
8
Black
10
72.29
20
-78.46
11
72.29
21
-81.96
0
LINE
8
Black
10
72.29
20
-81.96
11
71.665
21
-81.96
0
LINE
8
Black
10
71.665
20
-81.96
11
71.665
21
-83.4811
0
LINE
8
Black
10
71.665
20
-83.4811
11
73.9189
21
-85.735
0
LINE
8
Black
10
73.9189
20
-85.735
11
76.2
21
-85.735
0
LINE
8
Black
10
76.2
20
-85.735
11
92.4511
21
-85.735
0
LINE
8
Black
10
92.4511
20
-85.735
11
94.545
21
-83.6411
0
LINE
8
Black
10
94.545
20
-83.6411
11
94.545
21
-81.96
0
LINE
8
Black
10
94.545
20
-81.96
11
93.92
21
-81.96
0
LINE
8
Black
10
93.92
20
-81.96
11
93.92
21
-78.46
0
LINE
8
Black
10
93.92
20
-78.46
11
96.42
21
-78.46
0
LINE
8
Black
10
96.42
20
-78.46
11
96.42
21
-81.96
0
LINE
8
Black
10
96.42
20
-81.96
11
95.795
21
-81.96
0
LINE
8
Black
10
95.795
20
-81.96
11
95.795
21
-83.4811
0
LINE
8
Black
10
95.795
20
-83.4811
11
98.0489
21
-85.735
0
LINE
8
Black
10
98.0489
20
-85.735
11
99.06
21
-85.735
0
LINE
8
Black
10
99.06
20
-85.735
11
101.341
21
-85.735
0
LINE
8
Black
10
101.341
20
-85.735
11
102.245
21
-84.8311
0
LINE
8
Black
10
102.245
20
-84.8311
11
102.245
21
-71.3789
0
LINE
8
Black
10
102.245
20
-71.3789
11
101.341
21
-70.475
0
LINE
8
Black
10
101.341
20
-70.475
11
92.71
21
-70.475
0
LINE
8
Black
10
92.71
20
-70.475
11
90.17
21
-70.475
0
LINE
8
Black
10
90.17
20
-70.475
11
80.01
21
-70.475
0
LINE
8
Black
10
80.01
20
-70.475
11
69.85
21
-70.475
0
LINE
8
Black
10
69.85
20
-70.475
11
67.31
21
-70.475
0
LINE
8
Black
10
67.31
20
-70.475
11
64.77
21
-70.475
0
LINE
8
Black
10
64.77
20
-70.475
11
58.42
21
-70.475
0
LINE
8
Black
10
58.42
20
-70.475
11
57.15
21
-70.475
0
LINE
8
Black
10
57.15
20
-70.475
11
55.88
21
-70.475
0
LINE
8
Black
10
55.88
20
-70.475
11
48.26
21
-70.475
0
LINE
8
Black
10
48.26
20
-70.475
11
48.2329
21
-70.4702
0
LINE
8
Black
10
48.2329
20
-70.4702
11
48.2055
21
-70.4726
0
LINE
8
Black
10
48.2055
20
-70.4726
11
48.1266
21
-70.4515
0
LINE
8
Black
10
48.1266
20
-70.4515
11
48.0462
21
-70.4373
0
LINE
8
Black
10
48.0462
20
-70.4373
11
48.0224
21
-70.4236
0
LINE
8
Black
10
48.0224
20
-70.4236
11
47.9959
21
-70.4164
0
LINE
8
Black
10
47.9959
20
-70.4164
11
47.929
21
-70.3696
0
LINE
8
Black
10
47.929
20
-70.3696
11
47.8583
21
-70.3288
0
LINE
8
Black
10
47.8583
20
-70.3288
11
47.8406
21
-70.3077
0
LINE
8
Black
10
47.8406
20
-70.3077
11
47.8181
21
-70.2919
0
LINE
8
Black
10
47.8181
20
-70.2919
11
46.5481
21
-69.0219
0
LINE
8
Black
10
46.5481
20
-69.0219
11
46.5323
21
-68.9994
0
LINE
8
Black
10
46.5323
20
-68.9994
11
46.5112
21
-68.9817
0
LINE
8
Black
10
46.5112
20
-68.9817
11
46.4704
21
-68.911
0
LINE
8
Black
10
46.4704
20
-68.911
11
46.4236
21
-68.8441
0
LINE
8
Black
10
46.4236
20
-68.8441
11
46.4164
21
-68.8176
0
LINE
8
Black
10
46.4164
20
-68.8176
11
46.4027
21
-68.7938
0
LINE
8
Black
10
46.4027
20
-68.7938
11
46.3885
21
-68.7134
0
LINE
8
Black
10
46.3885
20
-68.7134
11
46.3674
21
-68.6345
0
LINE
8
Black
10
46.3674
20
-68.6345
11
46.3698
21
-68.6071
0
LINE
8
Black
10
46.3698
20
-68.6071
11
46.365
21
-68.58
0
LINE
8
Black
10
46.365
20
-68.58
11
46.365
21
-66.2593
0
LINE
8
Black
10
46.365
20
-66.2593
11
46.3006
21
-66.2052
0
LINE
8
Black
10
46.3006
20
-66.2052
11
46.1443
21
-65.9345
0
LINE
8
Black
10
46.1443
20
-65.9345
11
46.09
21
-65.6267
0
LINE
8
Black
10
46.09
20
-65.6267
11
46.09
21
-63.9133
0
LINE
8
Black
10
46.09
20
-63.9133
11
46.1443
21
-63.6055
0
LINE
8
Black
10
46.1443
20
-63.6055
11
46.3006
21
-63.3348
0
LINE
8
Black
10
46.3006
20
-63.3348
11
46.365
21
-63.2807
0
LINE
8
Black
10
46.365
20
-63.2807
11
46.365
21
-44.45
0
LINE
8
Black
10
46.365
20
-44.45
11
46.3698
21
-44.4229
0
LINE
8
Black
10
46.3698
20
-44.4229
11
46.3674
21
-44.3955
0
LINE
8
Black
10
46.3674
20
-44.3955
11
46.3885
21
-44.3166
0
LINE
8
Black
10
46.3885
20
-44.3166
11
46.4027
21
-44.2362
0
LINE
8
Black
10
46.4027
20
-44.2362
11
46.4164
21
-44.2124
0
LINE
8
Black
10
46.4164
20
-44.2124
11
46.4236
21
-44.1859
0
LINE
8
Black
10
46.4236
20
-44.1859
11
46.4704
21
-44.119
0
LINE
8
Black
10
46.4704
20
-44.119
11
46.5112
21
-44.0483
0
LINE
8
Black
10
46.5112
20
-44.0483
11
46.5323
21
-44.0306
0
LINE
8
Black
10
46.5323
20
-44.0306
11
46.5481
21
-44.0081
0
LINE
8
Black
10
46.5481
20
-44.0081
11
47.8181
21
-42.7381
0
LINE
8
Black
10
47.8181
20
-42.7381
11
47.8406
21
-42.7223
0
LINE
8
Black
10
47.8406
20
-42.7223
11
47.8583
21
-42.7012
0
LINE
8
Black
10
47.8583
20
-42.7012
11
47.929
21
-42.6604
0
LINE
8
Black
10
47.929
20
-42.6604
11
47.9959
21
-42.6136
0
LINE
8
Black
10
47.9959
20
-42.6136
11
48.0224
21
-42.6064
0
LINE
8
Black
10
48.0224
20
-42.6064
11
48.0462
21
-42.5927
0
LINE
8
Black
10
48.0462
20
-42.5927
11
48.1266
21
-42.5785
0
LINE
8
Black
10
48.1266
20
-42.5785
11
48.2055
21
-42.5574
0
LINE
8
Black
10
48.2055
20
-42.5574
11
48.2329
21
-42.5598
0
LINE
8
Black
10
48.2329
20
-42.5598
11
48.26
21
-42.555
0
LINE
8
Black
10
48.26
20
-42.555
11
54.61
21
-42.555
0
LINE
8
Black
10
54.61
20
-42.555
11
55.88
21
-42.555
0
LINE
8
Black
10
55.88
20
-42.555
11
55.9338
21
-42.5645
0
LINE
8
Black
10
55.9338
20
-42.5645
11
55.9885
21
-42.5645
0
LINE
8
Black
10
55.9885
20
-42.5645
11
56.0399
21
-42.5832
0
LINE
8
Black
10
56.0399
20
-42.5832
11
56.0938
21
-42.5927
0
LINE
8
Black
10
56.0938
20
-42.5927
11
56.1411
21
-42.62
0
LINE
8
Black
10
56.1411
20
-42.62
11
56.1925
21
-42.6387
0
LINE
8
Black
10
56.1925
20
-42.6387
11
56.2344
21
-42.6739
0
LINE
8
Black
10
56.2344
20
-42.6739
11
56.2796
21
-42.7
0
LINE
8
Black
10
56.2796
20
-42.7
11
56.73
21
-42.7
0
LINE
8
Black
10
56.73
20
-42.7
11
56.73
21
-46.2
0
LINE
8
Black
10
56.73
20
-46.2
11
55.03
21
-46.2
0
LINE
8
Black
10
55.03
20
-46.2
11
55.03
21
-44.4839
0
LINE
8
Black
10
55.03
20
-44.4839
11
54.3511
21
-43.805
0
LINE
8
Black
10
54.3511
20
-43.805
11
48.5189
21
-43.805
0
LINE
8
Black
10
48.5189
20
-43.805
11
47.615
21
-44.7089
0
LINE
8
Black
10
47.615
20
-44.7089
11
47.615
21
-63.2807
0
LINE
8
Black
10
47.615
20
-63.2807
11
47.6794
21
-63.3348
0
LINE
8
Black
10
47.6794
20
-63.3348
11
47.8357
21
-63.6055
0
LINE
8
Black
10
47.8357
20
-63.6055
11
47.89
21
-63.9133
0
LINE
8
Black
10
47.89
20
-63.9133
11
47.89
21
-65.6267
0
LINE
8
Black
10
47.89
20
-65.6267
11
47.8357
21
-65.9345
0
LINE
8
Black
10
47.8357
20
-65.9345
11
47.6794
21
-66.2052
0
LINE
8
Black
10
47.6794
20
-66.2052
11
47.615
21
-66.2593
0
LINE
8
Black
10
47.615
20
-66.2593
11
47.615
21
-68.3211
0
LINE
8
Black
10
47.615
20
-68.3211
11
48.5189
21
-69.225
0
LINE
8
Black
10
48.5189
20
-69.225
11
55.6211
21
-69.225
0
LINE
8
Black
10
55.6211
20
-69.225
11
56.525
21
-68.3211
0
LINE
8
Black
10
56.525
20
-68.3211
11
56.525
21
-52.07
0
LINE
8
Black
10
56.525
20
-52.07
11
56.5298
21
-52.0429
0
LINE
8
Black
10
56.5298
20
-52.0429
11
56.5274
21
-52.0155
0
LINE
8
Black
10
56.5274
20
-52.0155
11
56.5485
21
-51.9366
0
LINE
8
Black
10
56.5485
20
-51.9366
11
56.5627
21
-51.8562
0
LINE
8
Black
10
56.5627
20
-51.8562
11
56.5764
21
-51.8324
0
LINE
8
Black
10
56.5764
20
-51.8324
11
56.5836
21
-51.8059
0
LINE
8
Black
10
56.5836
20
-51.8059
11
56.6304
21
-51.739
0
LINE
8
Black
10
56.6304
20
-51.739
11
56.6712
21
-51.6683
0
LINE
8
Black
10
56.6712
20
-51.6683
11
56.6923
21
-51.6506
0
LINE
8
Black
10
56.6923
20
-51.6506
11
56.7081
21
-51.6281
0
LINE
8
Black
10
56.7081
20
-51.6281
11
57.9781
21
-50.3581
0
LINE
8
Black
10
57.9781
20
-50.3581
11
58.0006
21
-50.3423
0
LINE
8
Black
10
58.0006
20
-50.3423
11
58.0183
21
-50.3212
0
LINE
8
Black
10
58.0183
20
-50.3212
11
58.089
21
-50.2804
0
LINE
8
Black
10
58.089
20
-50.2804
11
58.1559
21
-50.2336
0
LINE
8
Black
10
58.1559
20
-50.2336
11
58.1824
21
-50.2264
0
LINE
8
Black
10
58.1824
20
-50.2264
11
58.2062
21
-50.2127
0
LINE
8
Black
10
58.2062
20
-50.2127
11
58.2866
21
-50.1985
0
LINE
8
Black
10
58.2866
20
-50.1985
11
58.3655
21
-50.1774
0
LINE
8
Black
10
58.3655
20
-50.1774
11
58.3929
21
-50.1798
0
LINE
8
Black
10
58.3929
20
-50.1798
11
58.42
21
-50.175
0
LINE
8
Black
10
58.42
20
-50.175
11
69.5911
21
-50.175
0
LINE
8
Black
10
69.5911
20
-50.175
11
73.035
21
-46.7311
0
LINE
8
Black
10
73.035
20
-46.7311
11
73.035
21
-46.2
0
LINE
8
Black
10
73.035
20
-46.2
11
72.81
21
-46.2
0
LINE
8
Black
10
72.81
20
-46.2
11
72.81
21
-42.7
0
LINE
8
Black
10
72.81
20
-42.7
11
74.51
21
-42.7
0
LINE
8
Black
10
74.51
20
-42.7
11
74.51
21
-46.2
0
LINE
8
Black
10
74.51
20
-46.2
11
74.285
21
-46.2
0
LINE
8
Black
10
74.285
20
-46.2
11
74.285
21
-46.99
0
LINE
8
Black
10
74.285
20
-46.99
11
74.2802
21
-47.0171
0
LINE
8
Black
10
74.2802
20
-47.0171
11
74.2826
21
-47.0445
0
LINE
8
Black
10
74.2826
20
-47.0445
11
74.2615
21
-47.1233
0
LINE
8
Black
10
74.2615
20
-47.1233
11
74.2473
21
-47.2038
0
LINE
8
Black
10
74.2473
20
-47.2038
11
74.2336
21
-47.2276
0
LINE
8
Black
10
74.2336
20
-47.2276
11
74.2264
21
-47.2541
0
LINE
8
Black
10
74.2264
20
-47.2541
11
74.1796
21
-47.321
0
LINE
8
Black
10
74.1796
20
-47.321
11
74.1388
21
-47.3917
0
LINE
8
Black
10
74.1388
20
-47.3917
11
74.1177
21
-47.4094
0
LINE
8
Black
10
74.1177
20
-47.4094
11
74.1019
21
-47.4319
0
LINE
8
Black
10
74.1019
20
-47.4319
11
70.2919
21
-51.2419
0
LINE
8
Black
10
70.2919
20
-51.2419
11
70.2694
21
-51.2577
0
LINE
8
Black
10
70.2694
20
-51.2577
11
70.2517
21
-51.2788
0
LINE
8
Black
10
70.2517
20
-51.2788
11
70.181
21
-51.3196
0
LINE
8
Black
10
70.181
20
-51.3196
11
70.1141
21
-51.3664
0
LINE
8
Black
10
70.1141
20
-51.3664
11
70.0876
21
-51.3736
0
LINE
8
Black
10
70.0876
20
-51.3736
11
70.0638
21
-51.3873
0
LINE
8
Black
10
70.0638
20
-51.3873
11
69.9834
21
-51.4015
0
LINE
8
Black
10
69.9834
20
-51.4015
11
69.9045
21
-51.4226
0
LINE
8
Black
10
69.9045
20
-51.4226
11
69.8771
21
-51.4202
0
LINE
8
Black
10
69.8771
20
-51.4202
11
69.85
21
-51.425
0
LINE
8
Black
10
69.85
20
-51.425
11
58.6789
21
-51.425
0
LINE
8
Black
10
58.6789
20
-51.425
11
57.775
21
-52.3289
0
LINE
8
Black
10
57.775
20
-52.3289
11
57.775
21
-68.3211
0
LINE
8
Black
10
57.775
20
-68.3211
11
58.6789
21
-69.225
0
LINE
8
Black
10
58.6789
20
-69.225
11
64.77
21
-69.225
0
LINE
8
Black
10
64.77
20
-69.225
11
67.0511
21
-69.225
0
LINE
8
Black
10
67.0511
20
-69.225
11
67.955
21
-68.3211
0
LINE
8
Black
10
94.2189
20
-85.735
11
96.2811
21
-85.735
0
LINE
8
Black
10
96.2811
20
-85.735
11
95.25
21
-84.7039
0
LINE
8
Black
10
95.25
20
-84.7039
11
94.2189
21
-85.735
0
LINE
8
Black
10
70.0889
20
-85.735
11
72.1511
21
-85.735
0
LINE
8
Black
10
72.1511
20
-85.735
11
71.12
21
-84.7039
0
LINE
8
Black
10
71.12
20
-84.7039
11
70.0889
21
-85.735
0
LINE
8
Black
10
57.1771
20
-40.0198
11
57.2045
21
-40.0174
0
LINE
8
Black
10
57.2045
20
-40.0174
11
57.2834
21
-40.0385
0
LINE
8
Black
10
57.2834
20
-40.0385
11
57.3638
21
-40.0527
0
LINE
8
Black
10
57.3638
20
-40.0527
11
57.3876
21
-40.0664
0
LINE
8
Black
10
57.3876
20
-40.0664
11
57.4141
21
-40.0736
0
LINE
8
Black
10
57.4141
20
-40.0736
11
57.481
21
-40.1204
0
LINE
8
Black
10
57.481
20
-40.1204
11
57.5517
21
-40.1612
0
LINE
8
Black
10
57.5517
20
-40.1612
11
57.5694
21
-40.1823
0
LINE
8
Black
10
57.5694
20
-40.1823
11
57.5919
21
-40.1981
0
LINE
8
Black
10
57.5919
20
-40.1981
11
58.8619
21
-41.4681
0
LINE
8
Black
10
58.8619
20
-41.4681
11
58.8777
21
-41.4906
0
LINE
8
Black
10
58.8777
20
-41.4906
11
58.8988
21
-41.5083
0
LINE
8
Black
10
58.8988
20
-41.5083
11
58.9396
21
-41.579
0
LINE
8
Black
10
58.9396
20
-41.579
11
58.9864
21
-41.6459
0
LINE
8
Black
10
58.9864
20
-41.6459
11
58.9936
21
-41.6724
0
LINE
8
Black
10
58.9936
20
-41.6724
11
59.0073
21
-41.6962
0
LINE
8
Black
10
59.0073
20
-41.6962
11
59.0215
21
-41.7766
0
LINE
8
Black
10
59.0215
20
-41.7766
11
59.0426
21
-41.8555
0
LINE
8
Black
10
59.0426
20
-41.8555
11
59.0402
21
-41.8829
0
LINE
8
Black
10
59.0402
20
-41.8829
11
59.045
21
-41.91
0
LINE
8
Black
10
59.045
20
-41.91
11
59.045
21
-42.7
0
LINE
8
Black
10
59.045
20
-42.7
11
59.27
21
-42.7
0
LINE
8
Black
10
59.27
20
-42.7
11
59.27
21
-46.2
0
LINE
8
Black
10
59.27
20
-46.2
11
57.57
21
-46.2
0
LINE
8
Black
10
57.57
20
-46.2
11
57.57
21
-42.7
0
LINE
8
Black
10
57.57
20
-42.7
11
57.795
21
-42.7
0
LINE
8
Black
10
57.795
20
-42.7
11
57.795
21
-42.1689
0
LINE
8
Black
10
57.795
20
-42.1689
11
56.8911
21
-41.265
0
LINE
8
Black
10
56.8911
20
-41.265
11
40.8989
21
-41.265
0
LINE
8
Black
10
40.8989
20
-41.265
11
39.995
21
-42.1689
0
LINE
8
Black
10
39.995
20
-42.1689
11
39.995
21
-70.8611
0
LINE
8
Black
10
39.995
20
-70.8611
11
40.8989
21
-71.765
0
LINE
8
Black
10
40.8989
20
-71.765
11
80.01
21
-71.765
0
LINE
8
Black
10
80.01
20
-71.765
11
80.0371
21
-71.7698
0
LINE
8
Black
10
80.0371
20
-71.7698
11
80.0645
21
-71.7674
0
LINE
8
Black
10
80.0645
20
-71.7674
11
80.1434
21
-71.7885
0
LINE
8
Black
10
80.1434
20
-71.7885
11
80.2238
21
-71.8027
0
LINE
8
Black
10
80.2238
20
-71.8027
11
80.2476
21
-71.8164
0
LINE
8
Black
10
80.2476
20
-71.8164
11
80.2741
21
-71.8236
0
LINE
8
Black
10
80.2741
20
-71.8236
11
80.341
21
-71.8704
0
LINE
8
Black
10
80.341
20
-71.8704
11
80.4117
21
-71.9112
0
LINE
8
Black
10
80.4117
20
-71.9112
11
80.4294
21
-71.9323
0
LINE
8
Black
10
80.4294
20
-71.9323
11
80.4519
21
-71.9481
0
LINE
8
Black
10
80.4519
20
-71.9481
11
84.2619
21
-75.7581
0
LINE
8
Black
10
84.2619
20
-75.7581
11
85.3489
21
-76.845
0
LINE
8
Black
10
85.3489
20
-76.845
11
90.17
21
-76.845
0
LINE
8
Black
10
90.17
20
-76.845
11
90.2238
21
-76.8545
0
LINE
8
Black
10
90.2238
20
-76.8545
11
90.2785
21
-76.8545
0
LINE
8
Black
10
90.2785
20
-76.8545
11
90.3299
21
-76.8732
0
LINE
8
Black
10
90.3299
20
-76.8732
11
90.3838
21
-76.8827
0
LINE
8
Black
10
90.3838
20
-76.8827
11
90.4311
21
-76.91
0
LINE
8
Black
10
90.4311
20
-76.91
11
90.4825
21
-76.9287
0
LINE
8
Black
10
90.4825
20
-76.9287
11
90.5244
21
-76.9639
0
LINE
8
Black
10
90.5244
20
-76.9639
11
90.5717
21
-76.9912
0
LINE
8
Black
10
90.5717
20
-76.9912
11
90.6069
21
-77.0331
0
LINE
8
Black
10
90.6069
20
-77.0331
11
90.6488
21
-77.0683
0
LINE
8
Black
10
90.6488
20
-77.0683
11
90.6761
21
-77.1156
0
LINE
8
Black
10
90.6761
20
-77.1156
11
90.7113
21
-77.1575
0
LINE
8
Black
10
90.7113
20
-77.1575
11
90.73
21
-77.2089
0
LINE
8
Black
10
90.73
20
-77.2089
11
90.7573
21
-77.2562
0
LINE
8
Black
10
90.7573
20
-77.2562
11
90.7668
21
-77.3101
0
LINE
8
Black
10
90.7668
20
-77.3101
11
90.7855
21
-77.3615
0
LINE
8
Black
10
90.7855
20
-77.3615
11
90.7855
21
-77.4162
0
LINE
8
Black
10
90.7855
20
-77.4162
11
90.795
21
-77.47
0
LINE
8
Black
10
90.795
20
-77.47
11
90.795
21
-78.46
0
LINE
8
Black
10
90.795
20
-78.46
11
91.42
21
-78.46
0
LINE
8
Black
10
91.42
20
-78.46
11
91.42
21
-81.96
0
LINE
8
Black
10
91.42
20
-81.96
11
88.92
21
-81.96
0
LINE
8
Black
10
88.92
20
-81.96
11
88.92
21
-78.46
0
LINE
8
Black
10
88.92
20
-78.46
11
89.545
21
-78.46
0
LINE
8
Black
10
89.545
20
-78.46
11
89.545
21
-78.095
0
LINE
8
Black
10
89.545
20
-78.095
11
85.3489
21
-78.095
0
LINE
8
Black
10
85.3489
20
-78.095
11
84.445
21
-78.9989
0
LINE
8
Black
10
84.445
20
-78.9989
11
84.445
21
-81.484
0
LINE
8
Black
10
84.445
20
-81.484
11
84.6266
21
-81.5888
0
LINE
8
Black
10
84.6266
20
-81.5888
11
84.9067
21
-81.9226
0
LINE
8
Black
10
84.9067
20
-81.9226
11
85.0557
21
-82.3321
0
LINE
8
Black
10
85.0557
20
-82.3321
11
85.0557
21
-82.7679
0
LINE
8
Black
10
85.0557
20
-82.7679
11
84.9067
21
-83.1774
0
LINE
8
Black
10
84.9067
20
-83.1774
11
84.6266
21
-83.5112
0
LINE
8
Black
10
84.6266
20
-83.5112
11
84.2492
21
-83.7291
0
LINE
8
Black
10
84.2492
20
-83.7291
11
83.82
21
-83.8048
0
LINE
8
Black
10
83.82
20
-83.8048
11
83.3908
21
-83.7291
0
LINE
8
Black
10
83.3908
20
-83.7291
11
83.0134
21
-83.5112
0
LINE
8
Black
10
83.0134
20
-83.5112
11
82.7333
21
-83.1774
0
LINE
8
Black
10
82.7333
20
-83.1774
11
82.5843
21
-82.7679
0
LINE
8
Black
10
82.5843
20
-82.7679
11
82.5843
21
-82.3321
0
LINE
8
Black
10
82.5843
20
-82.3321
11
82.7333
21
-81.9226
0
LINE
8
Black
10
82.7333
20
-81.9226
11
83.0134
21
-81.5888
0
LINE
8
Black
10
83.0134
20
-81.5888
11
83.195
21
-81.484
0
LINE
8
Black
10
83.195
20
-81.484
11
83.195
21
-78.74
0
LINE
8
Black
10
83.195
20
-78.74
11
83.195
21
-76.4589
0
LINE
8
Black
10
83.195
20
-76.4589
11
79.7511
21
-73.015
0
LINE
8
Black
10
79.7511
20
-73.015
11
40.64
21
-73.015
0
LINE
8
Black
10
40.64
20
-73.015
11
40.6129
21
-73.0102
0
LINE
8
Black
10
40.6129
20
-73.0102
11
40.5855
21
-73.0126
0
LINE
8
Black
10
40.5855
20
-73.0126
11
40.5066
21
-72.9915
0
LINE
8
Black
10
40.5066
20
-72.9915
11
40.4262
21
-72.9773
0
LINE
8
Black
10
40.4262
20
-72.9773
11
40.4024
21
-72.9636
0
LINE
8
Black
10
40.4024
20
-72.9636
11
40.3759
21
-72.9564
0
LINE
8
Black
10
40.3759
20
-72.9564
11
40.309
21
-72.9096
0
LINE
8
Black
10
40.309
20
-72.9096
11
40.2383
21
-72.8688
0
LINE
8
Black
10
40.2383
20
-72.8688
11
40.2206
21
-72.8477
0
LINE
8
Black
10
40.2206
20
-72.8477
11
40.1981
21
-72.8319
0
LINE
8
Black
10
40.1981
20
-72.8319
11
38.9281
21
-71.5619
0
LINE
8
Black
10
38.9281
20
-71.5619
11
38.9123
21
-71.5394
0
LINE
8
Black
10
38.9123
20
-71.5394
11
38.8912
21
-71.5217
0
LINE
8
Black
10
38.8912
20
-71.5217
11
38.8504
21
-71.451
0
LINE
8
Black
10
38.8504
20
-71.451
11
38.8036
21
-71.3841
0
LINE
8
Black
10
38.8036
20
-71.3841
11
38.7964
21
-71.3576
0
LINE
8
Black
10
38.7964
20
-71.3576
11
38.7827
21
-71.3338
0
LINE
8
Black
10
38.7827
20
-71.3338
11
38.7685
21
-71.2534
0
LINE
8
Black
10
38.7685
20
-71.2534
11
38.7474
21
-71.1745
0
LINE
8
Black
10
38.7474
20
-71.1745
11
38.7498
21
-71.1471
0
LINE
8
Black
10
38.7498
20
-71.1471
11
38.745
21
-71.12
0
LINE
8
Black
10
38.745
20
-71.12
11
38.745
21
-41.91
0
LINE
8
Black
10
38.745
20
-41.91
11
38.7498
21
-41.8829
0
LINE
8
Black
10
38.7498
20
-41.8829
11
38.7474
21
-41.8555
0
LINE
8
Black
10
38.7474
20
-41.8555
11
38.7685
21
-41.7766
0
LINE
8
Black
10
38.7685
20
-41.7766
11
38.7827
21
-41.6962
0
LINE
8
Black
10
38.7827
20
-41.6962
11
38.7964
21
-41.6724
0
LINE
8
Black
10
38.7964
20
-41.6724
11
38.8036
21
-41.6459
0
LINE
8
Black
10
38.8036
20
-41.6459
11
38.8504
21
-41.579
0
LINE
8
Black
10
38.8504
20
-41.579
11
38.8912
21
-41.5083
0
LINE
8
Black
10
38.8912
20
-41.5083
11
38.9123
21
-41.4906
0
LINE
8
Black
10
38.9123
20
-41.4906
11
38.9281
21
-41.4681
0
LINE
8
Black
10
38.9281
20
-41.4681
11
40.1981
21
-40.1981
0
LINE
8
Black
10
40.1981
20
-40.1981
11
40.2206
21
-40.1823
0
LINE
8
Black
10
40.2206
20
-40.1823
11
40.2383
21
-40.1612
0
LINE
8
Black
10
40.2383
20
-40.1612
11
40.309
21
-40.1204
0
LINE
8
Black
10
40.309
20
-40.1204
11
40.3759
21
-40.0736
0
LINE
8
Black
10
40.3759
20
-40.0736
11
40.4024
21
-40.0664
0
LINE
8
Black
10
40.4024
20
-40.0664
11
40.4262
21
-40.0527
0
LINE
8
Black
10
40.4262
20
-40.0527
11
40.5066
21
-40.0385
0
LINE
8
Black
10
40.5066
20
-40.0385
11
40.5855
21
-40.0174
0
LINE
8
Black
10
40.5855
20
-40.0174
11
40.6129
21
-40.0198
0
LINE
8
Black
10
40.6129
20
-40.0198
11
40.64
21
-40.015
0
LINE
8
Black
10
40.64
20
-40.015
11
57.15
21
-40.015
0
LINE
8
Black
10
57.15
20
-40.015
11
57.1771
21
-40.0198
0
LINE
8
Black
10
58.4471
20
-37.4798
11
58.4745
21
-37.4774
0
LINE
8
Black
10
58.4745
20
-37.4774
11
58.5534
21
-37.4985
0
LINE
8
Black
10
58.5534
20
-37.4985
11
58.6338
21
-37.5127
0
LINE
8
Black
10
58.6338
20
-37.5127
11
58.6576
21
-37.5264
0
LINE
8
Black
10
58.6576
20
-37.5264
11
58.6841
21
-37.5336
0
LINE
8
Black
10
58.6841
20
-37.5336
11
58.751
21
-37.5804
0
LINE
8
Black
10
58.751
20
-37.5804
11
58.8217
21
-37.6212
0
LINE
8
Black
10
58.8217
20
-37.6212
11
58.8394
21
-37.6423
0
LINE
8
Black
10
58.8394
20
-37.6423
11
58.8619
21
-37.6581
0
LINE
8
Black
10
58.8619
20
-37.6581
11
61.4019
21
-40.1981
0
LINE
8
Black
10
61.4019
20
-40.1981
11
61.4177
21
-40.2206
0
LINE
8
Black
10
61.4177
20
-40.2206
11
61.4388
21
-40.2383
0
LINE
8
Black
10
61.4388
20
-40.2383
11
61.4796
21
-40.309
0
LINE
8
Black
10
61.4796
20
-40.309
11
61.5264
21
-40.3759
0
LINE
8
Black
10
61.5264
20
-40.3759
11
61.5336
21
-40.4024
0
LINE
8
Black
10
61.5336
20
-40.4024
11
61.5473
21
-40.4262
0
LINE
8
Black
10
61.5473
20
-40.4262
11
61.5615
21
-40.5067
0
LINE
8
Black
10
61.5615
20
-40.5067
11
61.5826
21
-40.5855
0
LINE
8
Black
10
61.5826
20
-40.5855
11
61.5802
21
-40.6129
0
LINE
8
Black
10
61.5802
20
-40.6129
11
61.585
21
-40.64
0
LINE
8
Black
10
61.585
20
-40.64
11
61.585
21
-42.7
0
LINE
8
Black
10
61.585
20
-42.7
11
61.81
21
-42.7
0
LINE
8
Black
10
61.81
20
-42.7
11
61.81
21
-46.2
0
LINE
8
Black
10
61.81
20
-46.2
11
60.11
21
-46.2
0
LINE
8
Black
10
60.11
20
-46.2
11
60.11
21
-42.7
0
LINE
8
Black
10
60.11
20
-42.7
11
60.335
21
-42.7
0
LINE
8
Black
10
60.335
20
-42.7
11
60.335
21
-40.8989
0
LINE
8
Black
10
60.335
20
-40.8989
11
58.1611
21
-38.725
0
LINE
8
Black
10
58.1611
20
-38.725
11
39.6289
21
-38.725
0
LINE
8
Black
10
39.6289
20
-38.725
11
37.455
21
-40.8989
0
LINE
8
Black
10
37.455
20
-40.8989
11
37.455
21
-72.1311
0
LINE
8
Black
10
37.455
20
-72.1311
11
39.6289
21
-74.305
0
LINE
8
Black
10
39.6289
20
-74.305
11
58.42
21
-74.305
0
LINE
8
Black
10
58.42
20
-74.305
11
58.4471
21
-74.3098
0
LINE
8
Black
10
58.4471
20
-74.3098
11
58.4745
21
-74.3074
0
LINE
8
Black
10
58.4745
20
-74.3074
11
58.5534
21
-74.3285
0
LINE
8
Black
10
58.5534
20
-74.3285
11
58.6338
21
-74.3427
0
LINE
8
Black
10
58.6338
20
-74.3427
11
58.6576
21
-74.3564
0
LINE
8
Black
10
58.6576
20
-74.3564
11
58.6841
21
-74.3636
0
LINE
8
Black
10
58.6841
20
-74.3636
11
58.751
21
-74.4104
0
LINE
8
Black
10
58.751
20
-74.4104
11
58.8217
21
-74.4512
0
LINE
8
Black
10
58.8217
20
-74.4512
11
58.8394
21
-74.4723
0
LINE
8
Black
10
58.8394
20
-74.4723
11
58.8619
21
-74.4881
0
LINE
8
Black
10
58.8619
20
-74.4881
11
60.1319
21
-75.7581
0
LINE
8
Black
10
60.1319
20
-75.7581
11
61.2189
21
-76.845
0
LINE
8
Black
10
61.2189
20
-76.845
11
66.04
21
-76.845
0
LINE
8
Black
10
66.04
20
-76.845
11
66.0938
21
-76.8545
0
LINE
8
Black
10
66.0938
20
-76.8545
11
66.1485
21
-76.8545
0
LINE
8
Black
10
66.1485
20
-76.8545
11
66.1999
21
-76.8732
0
LINE
8
Black
10
66.1999
20
-76.8732
11
66.2538
21
-76.8827
0
LINE
8
Black
10
66.2538
20
-76.8827
11
66.3011
21
-76.91
0
LINE
8
Black
10
66.3011
20
-76.91
11
66.3525
21
-76.9287
0
LINE
8
Black
10
66.3525
20
-76.9287
11
66.3944
21
-76.9639
0
LINE
8
Black
10
66.3944
20
-76.9639
11
66.4417
21
-76.9912
0
LINE
8
Black
10
66.4417
20
-76.9912
11
66.4769
21
-77.0331
0
LINE
8
Black
10
66.4769
20
-77.0331
11
66.5188
21
-77.0683
0
LINE
8
Black
10
66.5188
20
-77.0683
11
66.5461
21
-77.1156
0
LINE
8
Black
10
66.5461
20
-77.1156
11
66.5813
21
-77.1575
0
LINE
8
Black
10
66.5813
20
-77.1575
11
66.6
21
-77.2089
0
LINE
8
Black
10
66.6
20
-77.2089
11
66.6273
21
-77.2562
0
LINE
8
Black
10
66.6273
20
-77.2562
11
66.6368
21
-77.3101
0
LINE
8
Black
10
66.6368
20
-77.3101
11
66.6555
21
-77.3615
0
LINE
8
Black
10
66.6555
20
-77.3615
11
66.6555
21
-77.4162
0
LINE
8
Black
10
66.6555
20
-77.4162
11
66.665
21
-77.47
0
LINE
8
Black
10
66.665
20
-77.47
11
66.665
21
-78.46
0
LINE
8
Black
10
66.665
20
-78.46
11
67.29
21
-78.46
0
LINE
8
Black
10
67.29
20
-78.46
11
67.29
21
-81.96
0
LINE
8
Black
10
67.29
20
-81.96
11
64.79
21
-81.96
0
LINE
8
Black
10
64.79
20
-81.96
11
64.79
21
-78.46
0
LINE
8
Black
10
64.79
20
-78.46
11
65.415
21
-78.46
0
LINE
8
Black
10
65.415
20
-78.46
11
65.415
21
-78.095
0
LINE
8
Black
10
65.415
20
-78.095
11
61.2189
21
-78.095
0
LINE
8
Black
10
61.2189
20
-78.095
11
60.315
21
-78.9989
0
LINE
8
Black
10
60.315
20
-78.9989
11
60.315
21
-80.01
0
LINE
8
Black
10
60.315
20
-80.01
11
60.315
21
-81.484
0
LINE
8
Black
10
60.315
20
-81.484
11
60.4966
21
-81.5888
0
LINE
8
Black
10
60.4966
20
-81.5888
11
60.7767
21
-81.9226
0
LINE
8
Black
10
60.7767
20
-81.9226
11
60.9257
21
-82.3321
0
LINE
8
Black
10
60.9257
20
-82.3321
11
60.9257
21
-82.7679
0
LINE
8
Black
10
60.9257
20
-82.7679
11
60.7767
21
-83.1774
0
LINE
8
Black
10
60.7767
20
-83.1774
11
60.4966
21
-83.5112
0
LINE
8
Black
10
60.4966
20
-83.5112
11
60.1192
21
-83.7291
0
LINE
8
Black
10
60.1192
20
-83.7291
11
59.69
21
-83.8048
0
LINE
8
Black
10
59.69
20
-83.8048
11
59.2608
21
-83.7291
0
LINE
8
Black
10
59.2608
20
-83.7291
11
58.8834
21
-83.5112
0
LINE
8
Black
10
58.8834
20
-83.5112
11
58.6033
21
-83.1774
0
LINE
8
Black
10
58.6033
20
-83.1774
11
58.4543
21
-82.7679
0
LINE
8
Black
10
58.4543
20
-82.7679
11
58.4543
21
-82.3321
0
LINE
8
Black
10
58.4543
20
-82.3321
11
58.6033
21
-81.9226
0
LINE
8
Black
10
58.6033
20
-81.9226
11
58.8834
21
-81.5888
0
LINE
8
Black
10
58.8834
20
-81.5888
11
59.065
21
-81.484
0
LINE
8
Black
10
59.065
20
-81.484
11
59.065
21
-80.01
0
LINE
8
Black
10
59.065
20
-80.01
11
59.065
21
-78.74
0
LINE
8
Black
10
59.065
20
-78.74
11
59.065
21
-76.4589
0
LINE
8
Black
10
59.065
20
-76.4589
11
58.1611
21
-75.555
0
LINE
8
Black
10
58.1611
20
-75.555
11
39.37
21
-75.555
0
LINE
8
Black
10
39.37
20
-75.555
11
39.3429
21
-75.5502
0
LINE
8
Black
10
39.3429
20
-75.5502
11
39.3155
21
-75.5526
0
LINE
8
Black
10
39.3155
20
-75.5526
11
39.2367
21
-75.5315
0
LINE
8
Black
10
39.2367
20
-75.5315
11
39.1562
21
-75.5173
0
LINE
8
Black
10
39.1562
20
-75.5173
11
39.1324
21
-75.5036
0
LINE
8
Black
10
39.1324
20
-75.5036
11
39.1059
21
-75.4964
0
LINE
8
Black
10
39.1059
20
-75.4964
11
39.039
21
-75.4496
0
LINE
8
Black
10
39.039
20
-75.4496
11
38.9683
21
-75.4088
0
LINE
8
Black
10
38.9683
20
-75.4088
11
38.9506
21
-75.3877
0
LINE
8
Black
10
38.9506
20
-75.3877
11
38.9281
21
-75.3719
0
LINE
8
Black
10
38.9281
20
-75.3719
11
36.3881
21
-72.8319
0
LINE
8
Black
10
36.3881
20
-72.8319
11
36.3723
21
-72.8094
0
LINE
8
Black
10
36.3723
20
-72.8094
11
36.3512
21
-72.7917
0
LINE
8
Black
10
36.3512
20
-72.7917
11
36.3104
21
-72.721
0
LINE
8
Black
10
36.3104
20
-72.721
11
36.2636
21
-72.6541
0
LINE
8
Black
10
36.2636
20
-72.6541
11
36.2564
21
-72.6276
0
LINE
8
Black
10
36.2564
20
-72.6276
11
36.2427
21
-72.6038
0
LINE
8
Black
10
36.2427
20
-72.6038
11
36.2285
21
-72.5234
0
LINE
8
Black
10
36.2285
20
-72.5234
11
36.2074
21
-72.4445
0
LINE
8
Black
10
36.2074
20
-72.4445
11
36.2098
21
-72.4171
0
LINE
8
Black
10
36.2098
20
-72.4171
11
36.205
21
-72.39
0
LINE
8
Black
10
36.205
20
-72.39
11
36.205
21
-40.64
0
LINE
8
Black
10
36.205
20
-40.64
11
36.2098
21
-40.6129
0
LINE
8
Black
10
36.2098
20
-40.6129
11
36.2074
21
-40.5855
0
LINE
8
Black
10
36.2074
20
-40.5855
11
36.2285
21
-40.5066
0
LINE
8
Black
10
36.2285
20
-40.5066
11
36.2427
21
-40.4262
0
LINE
8
Black
10
36.2427
20
-40.4262
11
36.2564
21
-40.4024
0
LINE
8
Black
10
36.2564
20
-40.4024
11
36.2636
21
-40.3759
0
LINE
8
Black
10
36.2636
20
-40.3759
11
36.3104
21
-40.309
0
LINE
8
Black
10
36.3104
20
-40.309
11
36.3512
21
-40.2383
0
LINE
8
Black
10
36.3512
20
-40.2383
11
36.3723
21
-40.2206
0
LINE
8
Black
10
36.3723
20
-40.2206
11
36.3881
21
-40.1981
0
LINE
8
Black
10
36.3881
20
-40.1981
11
38.9281
21
-37.6581
0
LINE
8
Black
10
38.9281
20
-37.6581
11
38.9506
21
-37.6423
0
LINE
8
Black
10
38.9506
20
-37.6423
11
38.9683
21
-37.6212
0
LINE
8
Black
10
38.9683
20
-37.6212
11
39.039
21
-37.5804
0
LINE
8
Black
10
39.039
20
-37.5804
11
39.1059
21
-37.5336
0
LINE
8
Black
10
39.1059
20
-37.5336
11
39.1324
21
-37.5264
0
LINE
8
Black
10
39.1324
20
-37.5264
11
39.1562
21
-37.5127
0
LINE
8
Black
10
39.1562
20
-37.5127
11
39.2367
21
-37.4985
0
LINE
8
Black
10
39.2367
20
-37.4985
11
39.3155
21
-37.4774
0
LINE
8
Black
10
39.3155
20
-37.4774
11
39.3429
21
-37.4798
0
LINE
8
Black
10
39.3429
20
-37.4798
11
39.37
21
-37.475
0
LINE
8
Black
10
39.37
20
-37.475
11
58.42
21
-37.475
0
LINE
8
Black
10
58.42
20
-37.475
11
58.4471
21
-37.4798
0
LINE
8
Black
10
59.7171
20
-34.9398
11
59.7445
21
-34.9374
0
LINE
8
Black
10
59.7445
20
-34.9374
11
59.8234
21
-34.9585
0
LINE
8
Black
10
59.8234
20
-34.9585
11
59.9038
21
-34.9727
0
LINE
8
Black
10
59.9038
20
-34.9727
11
59.9276
21
-34.9864
0
LINE
8
Black
10
59.9276
20
-34.9864
11
59.9541
21
-34.9936
0
LINE
8
Black
10
59.9541
20
-34.9936
11
60.021
21
-35.0404
0
LINE
8
Black
10
60.021
20
-35.0404
11
60.0917
21
-35.0812
0
LINE
8
Black
10
60.0917
20
-35.0812
11
60.1094
21
-35.1023
0
LINE
8
Black
10
60.1094
20
-35.1023
11
60.1319
21
-35.1181
0
LINE
8
Black
10
60.1319
20
-35.1181
11
63.9419
21
-38.9281
0
LINE
8
Black
10
63.9419
20
-38.9281
11
63.9577
21
-38.9506
0
LINE
8
Black
10
63.9577
20
-38.9506
11
63.9788
21
-38.9683
0
LINE
8
Black
10
63.9788
20
-38.9683
11
64.0196
21
-39.039
0
LINE
8
Black
10
64.0196
20
-39.039
11
64.0664
21
-39.1059
0
LINE
8
Black
10
64.0664
20
-39.1059
11
64.0736
21
-39.1324
0
LINE
8
Black
10
64.0736
20
-39.1324
11
64.0873
21
-39.1562
0
LINE
8
Black
10
64.0873
20
-39.1562
11
64.1015
21
-39.2367
0
LINE
8
Black
10
64.1015
20
-39.2367
11
64.1226
21
-39.3155
0
LINE
8
Black
10
64.1226
20
-39.3155
11
64.1202
21
-39.3429
0
LINE
8
Black
10
64.1202
20
-39.3429
11
64.125
21
-39.37
0
LINE
8
Black
10
64.125
20
-39.37
11
64.125
21
-42.7
0
LINE
8
Black
10
64.125
20
-42.7
11
64.35
21
-42.7
0
LINE
8
Black
10
64.35
20
-42.7
11
64.35
21
-46.2
0
LINE
8
Black
10
64.35
20
-46.2
11
62.65
21
-46.2
0
LINE
8
Black
10
62.65
20
-46.2
11
62.65
21
-42.7
0
LINE
8
Black
10
62.65
20
-42.7
11
62.875
21
-42.7
0
LINE
8
Black
10
62.875
20
-42.7
11
62.875
21
-39.6289
0
LINE
8
Black
10
62.875
20
-39.6289
11
59.4311
21
-36.185
0
LINE
8
Black
10
59.4311
20
-36.185
11
38.3589
21
-36.185
0
LINE
8
Black
10
38.3589
20
-36.185
11
34.915
21
-39.6289
0
LINE
8
Black
10
34.915
20
-39.6289
11
34.915
21
-74.6711
0
LINE
8
Black
10
34.915
20
-74.6711
11
36.0019
21
-75.7581
0
LINE
8
Black
10
36.0019
20
-75.7581
11
37.0889
21
-76.845
0
LINE
8
Black
10
37.0889
20
-76.845
11
41.91
21
-76.845
0
LINE
8
Black
10
41.91
20
-76.845
11
41.9638
21
-76.8545
0
LINE
8
Black
10
41.9638
20
-76.8545
11
42.0185
21
-76.8545
0
LINE
8
Black
10
42.0185
20
-76.8545
11
42.0699
21
-76.8732
0
LINE
8
Black
10
42.0699
20
-76.8732
11
42.1238
21
-76.8827
0
LINE
8
Black
10
42.1238
20
-76.8827
11
42.1711
21
-76.91
0
LINE
8
Black
10
42.1711
20
-76.91
11
42.2225
21
-76.9287
0
LINE
8
Black
10
42.2225
20
-76.9287
11
42.2644
21
-76.9639
0
LINE
8
Black
10
42.2644
20
-76.9639
11
42.3117
21
-76.9912
0
LINE
8
Black
10
42.3117
20
-76.9912
11
42.3469
21
-77.0331
0
LINE
8
Black
10
42.3469
20
-77.0331
11
42.3888
21
-77.0683
0
LINE
8
Black
10
42.3888
20
-77.0683
11
42.4161
21
-77.1156
0
LINE
8
Black
10
42.4161
20
-77.1156
11
42.4513
21
-77.1575
0
LINE
8
Black
10
42.4513
20
-77.1575
11
42.47
21
-77.2089
0
LINE
8
Black
10
42.47
20
-77.2089
11
42.4973
21
-77.2562
0
LINE
8
Black
10
42.4973
20
-77.2562
11
42.5068
21
-77.3101
0
LINE
8
Black
10
42.5068
20
-77.3101
11
42.5255
21
-77.3615
0
LINE
8
Black
10
42.5255
20
-77.3615
11
42.5255
21
-77.4162
0
LINE
8
Black
10
42.5255
20
-77.4162
11
42.535
21
-77.47
0
LINE
8
Black
10
42.535
20
-77.47
11
42.535
21
-78.46
0
LINE
8
Black
10
42.535
20
-78.46
11
43.16
21
-78.46
0
LINE
8
Black
10
43.16
20
-78.46
11
43.16
21
-81.96
0
LINE
8
Black
10
43.16
20
-81.96
11
40.66
21
-81.96
0
LINE
8
Black
10
40.66
20
-81.96
11
40.66
21
-78.46
0
LINE
8
Black
10
40.66
20
-78.46
11
41.285
21
-78.46
0
LINE
8
Black
10
41.285
20
-78.46
11
41.285
21
-78.095
0
LINE
8
Black
10
41.285
20
-78.095
11
37.0889
21
-78.095
0
LINE
8
Black
10
37.0889
20
-78.095
11
36.185
21
-78.9989
0
LINE
8
Black
10
36.185
20
-78.9989
11
36.185
21
-81.484
0
LINE
8
Black
10
36.185
20
-81.484
11
36.3666
21
-81.5888
0
LINE
8
Black
10
36.3666
20
-81.5888
11
36.6467
21
-81.9226
0
LINE
8
Black
10
36.6467
20
-81.9226
11
36.7957
21
-82.3321
0
LINE
8
Black
10
36.7957
20
-82.3321
11
36.7957
21
-82.7679
0
LINE
8
Black
10
36.7957
20
-82.7679
11
36.6467
21
-83.1774
0
LINE
8
Black
10
36.6467
20
-83.1774
11
36.3666
21
-83.5112
0
LINE
8
Black
10
36.3666
20
-83.5112
11
35.9892
21
-83.7291
0
LINE
8
Black
10
35.9892
20
-83.7291
11
35.56
21
-83.8048
0
LINE
8
Black
10
35.56
20
-83.8048
11
35.1308
21
-83.7291
0
LINE
8
Black
10
35.1308
20
-83.7291
11
34.7534
21
-83.5112
0
LINE
8
Black
10
34.7534
20
-83.5112
11
34.4733
21
-83.1774
0
LINE
8
Black
10
34.4733
20
-83.1774
11
34.3243
21
-82.7679
0
LINE
8
Black
10
34.3243
20
-82.7679
11
34.3243
21
-82.3321
0
LINE
8
Black
10
34.3243
20
-82.3321
11
34.4733
21
-81.9226
0
LINE
8
Black
10
34.4733
20
-81.9226
11
34.7534
21
-81.5888
0
LINE
8
Black
10
34.7534
20
-81.5888
11
34.935
21
-81.484
0
LINE
8
Black
10
34.935
20
-81.484
11
34.935
21
-78.74
0
LINE
8
Black
10
34.935
20
-78.74
11
34.935
21
-76.4589
0
LINE
8
Black
10
34.935
20
-76.4589
11
33.8481
21
-75.3719
0
LINE
8
Black
10
33.8481
20
-75.3719
11
33.8323
21
-75.3494
0
LINE
8
Black
10
33.8323
20
-75.3494
11
33.8112
21
-75.3317
0
LINE
8
Black
10
33.8112
20
-75.3317
11
33.7704
21
-75.261
0
LINE
8
Black
10
33.7704
20
-75.261
11
33.7236
21
-75.1941
0
LINE
8
Black
10
33.7236
20
-75.1941
11
33.7164
21
-75.1676
0
LINE
8
Black
10
33.7164
20
-75.1676
11
33.7027
21
-75.1438
0
LINE
8
Black
10
33.7027
20
-75.1438
11
33.6885
21
-75.0634
0
LINE
8
Black
10
33.6885
20
-75.0634
11
33.6674
21
-74.9845
0
LINE
8
Black
10
33.6674
20
-74.9845
11
33.6698
21
-74.9571
0
LINE
8
Black
10
33.6698
20
-74.9571
11
33.665
21
-74.93
0
LINE
8
Black
10
33.665
20
-74.93
11
33.665
21
-39.37
0
LINE
8
Black
10
33.665
20
-39.37
11
33.6698
21
-39.3429
0
LINE
8
Black
10
33.6698
20
-39.3429
11
33.6674
21
-39.3155
0
LINE
8
Black
10
33.6674
20
-39.3155
11
33.6885
21
-39.2366
0
LINE
8
Black
10
33.6885
20
-39.2366
11
33.7027
21
-39.1562
0
LINE
8
Black
10
33.7027
20
-39.1562
11
33.7164
21
-39.1324
0
LINE
8
Black
10
33.7164
20
-39.1324
11
33.7236
21
-39.1059
0
LINE
8
Black
10
33.7236
20
-39.1059
11
33.7704
21
-39.039
0
LINE
8
Black
10
33.7704
20
-39.039
11
33.8112
21
-38.9683
0
LINE
8
Black
10
33.8112
20
-38.9683
11
33.8323
21
-38.9506
0
LINE
8
Black
10
33.8323
20
-38.9506
11
33.8481
21
-38.9281
0
LINE
8
Black
10
33.8481
20
-38.9281
11
37.6581
21
-35.1181
0
LINE
8
Black
10
37.6581
20
-35.1181
11
37.6806
21
-35.1023
0
LINE
8
Black
10
37.6806
20
-35.1023
11
37.6983
21
-35.0812
0
LINE
8
Black
10
37.6983
20
-35.0812
11
37.769
21
-35.0404
0
LINE
8
Black
10
37.769
20
-35.0404
11
37.8359
21
-34.9936
0
LINE
8
Black
10
37.8359
20
-34.9936
11
37.8624
21
-34.9864
0
LINE
8
Black
10
37.8624
20
-34.9864
11
37.8862
21
-34.9727
0
LINE
8
Black
10
37.8862
20
-34.9727
11
37.9667
21
-34.9585
0
LINE
8
Black
10
37.9667
20
-34.9585
11
38.0455
21
-34.9374
0
LINE
8
Black
10
38.0455
20
-34.9374
11
38.0729
21
-34.9398
0
LINE
8
Black
10
38.0729
20
-34.9398
11
38.1
21
-34.935
0
LINE
8
Black
10
38.1
20
-34.935
11
59.69
21
-34.935
0
LINE
8
Black
10
59.69
20
-34.935
11
59.7171
21
-34.9398
0
LINE
8
Black
10
89.3292
20
-57.2409
11
89.7066
21
-57.4588
0
LINE
8
Black
10
89.7066
20
-57.4588
11
89.9867
21
-57.7926
0
LINE
8
Black
10
89.9867
20
-57.7926
11
90.1357
21
-58.2021
0
LINE
8
Black
10
90.1357
20
-58.2021
11
90.1357
21
-58.6379
0
LINE
8
Black
10
90.1357
20
-58.6379
11
89.9867
21
-59.0474
0
LINE
8
Black
10
89.9867
20
-59.0474
11
89.7066
21
-59.3812
0
LINE
8
Black
10
89.7066
20
-59.3812
11
89.525
21
-59.486
0
LINE
8
Black
10
89.525
20
-59.486
11
89.525
21
-63.2807
0
LINE
8
Black
10
89.525
20
-63.2807
11
89.5894
21
-63.3348
0
LINE
8
Black
10
89.5894
20
-63.3348
11
89.7457
21
-63.6055
0
LINE
8
Black
10
89.7457
20
-63.6055
11
89.8
21
-63.9133
0
LINE
8
Black
10
89.8
20
-63.9133
11
89.8
21
-65.6267
0
LINE
8
Black
10
89.8
20
-65.6267
11
89.7457
21
-65.9345
0
LINE
8
Black
10
89.7457
20
-65.9345
11
89.5894
21
-66.2052
0
LINE
8
Black
10
89.5894
20
-66.2052
11
89.35
21
-66.4061
0
LINE
8
Black
10
89.35
20
-66.4061
11
89.0563
21
-66.513
0
LINE
8
Black
10
89.0563
20
-66.513
11
88.7437
21
-66.513
0
LINE
8
Black
10
88.7437
20
-66.513
11
88.45
21
-66.4061
0
LINE
8
Black
10
88.45
20
-66.4061
11
88.2106
21
-66.2052
0
LINE
8
Black
10
88.2106
20
-66.2052
11
88.0543
21
-65.9345
0
LINE
8
Black
10
88.0543
20
-65.9345
11
88
21
-65.6267
0
LINE
8
Black
10
88
20
-65.6267
11
88
21
-63.9133
0
LINE
8
Black
10
88
20
-63.9133
11
88.0543
21
-63.6055
0
LINE
8
Black
10
88.0543
20
-63.6055
11
88.2106
21
-63.3348
0
LINE
8
Black
10
88.2106
20
-63.3348
11
88.275
21
-63.2807
0
LINE
8
Black
10
88.275
20
-63.2807
11
88.275
21
-59.486
0
LINE
8
Black
10
88.275
20
-59.486
11
88.0934
21
-59.3812
0
LINE
8
Black
10
88.0934
20
-59.3812
11
87.8133
21
-59.0474
0
LINE
8
Black
10
87.8133
20
-59.0474
11
87.6643
21
-58.6379
0
LINE
8
Black
10
87.6643
20
-58.6379
11
87.6643
21
-58.2021
0
LINE
8
Black
10
87.6643
20
-58.2021
11
87.8133
21
-57.7926
0
LINE
8
Black
10
87.8133
20
-57.7926
11
88.0934
21
-57.4588
0
LINE
8
Black
10
88.0934
20
-57.4588
11
88.4708
21
-57.2409
0
LINE
8
Black
10
88.4708
20
-57.2409
11
88.9
21
-57.1652
0
LINE
8
Black
10
88.9
20
-57.1652
11
89.3292
21
-57.2409
0
LINE
8
Black
10
71.5492
20
-57.2409
11
71.9266
21
-57.4588
0
LINE
8
Black
10
71.9266
20
-57.4588
11
72.2067
21
-57.7926
0
LINE
8
Black
10
72.2067
20
-57.7926
11
72.3557
21
-58.2021
0
LINE
8
Black
10
72.3557
20
-58.2021
11
72.3557
21
-58.6379
0
LINE
8
Black
10
72.3557
20
-58.6379
11
72.2067
21
-59.0474
0
LINE
8
Black
10
72.2067
20
-59.0474
11
71.9266
21
-59.3812
0
LINE
8
Black
10
71.9266
20
-59.3812
11
71.745
21
-59.486
0
LINE
8
Black
10
71.745
20
-59.486
11
71.745
21
-63.2807
0
LINE
8
Black
10
71.745
20
-63.2807
11
71.8094
21
-63.3348
0
LINE
8
Black
10
71.8094
20
-63.3348
11
71.9657
21
-63.6055
0
LINE
8
Black
10
71.9657
20
-63.6055
11
72.02
21
-63.9133
0
LINE
8
Black
10
72.02
20
-63.9133
11
72.02
21
-65.6267
0
LINE
8
Black
10
72.02
20
-65.6267
11
71.9657
21
-65.9345
0
LINE
8
Black
10
71.9657
20
-65.9345
11
71.8094
21
-66.2052
0
LINE
8
Black
10
71.8094
20
-66.2052
11
71.57
21
-66.4061
0
LINE
8
Black
10
71.57
20
-66.4061
11
71.2763
21
-66.513
0
LINE
8
Black
10
71.2763
20
-66.513
11
70.9637
21
-66.513
0
LINE
8
Black
10
70.9637
20
-66.513
11
70.67
21
-66.4061
0
LINE
8
Black
10
70.67
20
-66.4061
11
70.4306
21
-66.2052
0
LINE
8
Black
10
70.4306
20
-66.2052
11
70.2743
21
-65.9345
0
LINE
8
Black
10
70.2743
20
-65.9345
11
70.22
21
-65.6267
0
LINE
8
Black
10
70.22
20
-65.6267
11
70.22
21
-63.9133
0
LINE
8
Black
10
70.22
20
-63.9133
11
70.2743
21
-63.6055
0
LINE
8
Black
10
70.2743
20
-63.6055
11
70.4306
21
-63.3348
0
LINE
8
Black
10
70.4306
20
-63.3348
11
70.495
21
-63.2807
0
LINE
8
Black
10
70.495
20
-63.2807
11
70.495
21
-59.486
0
LINE
8
Black
10
70.495
20
-59.486
11
70.3134
21
-59.3812
0
LINE
8
Black
10
70.3134
20
-59.3812
11
70.0333
21
-59.0474
0
LINE
8
Black
10
70.0333
20
-59.0474
11
69.8843
21
-58.6379
0
LINE
8
Black
10
69.8843
20
-58.6379
11
69.8843
21
-58.2021
0
LINE
8
Black
10
69.8843
20
-58.2021
11
70.0333
21
-57.7926
0
LINE
8
Black
10
70.0333
20
-57.7926
11
70.3134
21
-57.4588
0
LINE
8
Black
10
70.3134
20
-57.4588
11
70.6908
21
-57.2409
0
LINE
8
Black
10
70.6908
20
-57.2409
11
71.12
21
-57.1652
0
LINE
8
Black
10
71.12
20
-57.1652
11
71.5492
21
-57.2409
0
LINE
8
Black
10
85.5192
20
-57.2409
11
85.8966
21
-57.4588
0
LINE
8
Black
10
85.8966
20
-57.4588
11
86.1767
21
-57.7926
0
LINE
8
Black
10
86.1767
20
-57.7926
11
86.3257
21
-58.2021
0
LINE
8
Black
10
86.3257
20
-58.2021
11
86.3257
21
-58.6379
0
LINE
8
Black
10
86.3257
20
-58.6379
11
86.1767
21
-59.0474
0
LINE
8
Black
10
86.1767
20
-59.0474
11
85.8966
21
-59.3812
0
LINE
8
Black
10
85.8966
20
-59.3812
11
85.5192
21
-59.5991
0
LINE
8
Black
10
85.5192
20
-59.5991
11
85.09
21
-59.6748
0
LINE
8
Black
10
85.09
20
-59.6748
11
84.6608
21
-59.5991
0
LINE
8
Black
10
84.6608
20
-59.5991
11
84.2834
21
-59.3812
0
LINE
8
Black
10
84.2834
20
-59.3812
11
84.0367
21
-59.0872
0
LINE
8
Black
10
84.0367
20
-59.0872
11
81.905
21
-61.2189
0
LINE
8
Black
10
81.905
20
-61.2189
11
81.905
21
-63.2807
0
LINE
8
Black
10
81.905
20
-63.2807
11
81.9694
21
-63.3348
0
LINE
8
Black
10
81.9694
20
-63.3348
11
82.1257
21
-63.6055
0
LINE
8
Black
10
82.1257
20
-63.6055
11
82.18
21
-63.9133
0
LINE
8
Black
10
82.18
20
-63.9133
11
82.18
21
-65.6267
0
LINE
8
Black
10
82.18
20
-65.6267
11
82.1257
21
-65.9345
0
LINE
8
Black
10
82.1257
20
-65.9345
11
81.9694
21
-66.2052
0
LINE
8
Black
10
81.9694
20
-66.2052
11
81.73
21
-66.4061
0
LINE
8
Black
10
81.73
20
-66.4061
11
81.4363
21
-66.513
0
LINE
8
Black
10
81.4363
20
-66.513
11
81.1237
21
-66.513
0
LINE
8
Black
10
81.1237
20
-66.513
11
80.83
21
-66.4061
0
LINE
8
Black
10
80.83
20
-66.4061
11
80.5906
21
-66.2052
0
LINE
8
Black
10
80.5906
20
-66.2052
11
80.4343
21
-65.9345
0
LINE
8
Black
10
80.4343
20
-65.9345
11
80.38
21
-65.6267
0
LINE
8
Black
10
80.38
20
-65.6267
11
80.38
21
-63.9133
0
LINE
8
Black
10
80.38
20
-63.9133
11
80.4343
21
-63.6055
0
LINE
8
Black
10
80.4343
20
-63.6055
11
80.5906
21
-63.3348
0
LINE
8
Black
10
80.5906
20
-63.3348
11
80.655
21
-63.2807
0
LINE
8
Black
10
80.655
20
-63.2807
11
80.655
21
-60.96
0
LINE
8
Black
10
80.655
20
-60.96
11
80.6598
21
-60.9329
0
LINE
8
Black
10
80.6598
20
-60.9329
11
80.6574
21
-60.9055
0
LINE
8
Black
10
80.6574
20
-60.9055
11
80.6785
21
-60.8266
0
LINE
8
Black
10
80.6785
20
-60.8266
11
80.6927
21
-60.7462
0
LINE
8
Black
10
80.6927
20
-60.7462
11
80.7064
21
-60.7224
0
LINE
8
Black
10
80.7064
20
-60.7224
11
80.7136
21
-60.6959
0
LINE
8
Black
10
80.7136
20
-60.6959
11
80.7604
21
-60.629
0
LINE
8
Black
10
80.7604
20
-60.629
11
80.8012
21
-60.5583
0
LINE
8
Black
10
80.8012
20
-60.5583
11
80.8223
21
-60.5406
0
LINE
8
Black
10
80.8223
20
-60.5406
11
80.8381
21
-60.5181
0
LINE
8
Black
10
80.8381
20
-60.5181
11
83.3781
21
-57.9781
0
LINE
8
Black
10
83.3781
20
-57.9781
11
83.4006
21
-57.9623
0
LINE
8
Black
10
83.4006
20
-57.9623
11
83.4183
21
-57.9412
0
LINE
8
Black
10
83.4183
20
-57.9412
11
83.489
21
-57.9004
0
LINE
8
Black
10
83.489
20
-57.9004
11
83.5559
21
-57.8536
0
LINE
8
Black
10
83.5559
20
-57.8536
11
83.5824
21
-57.8464
0
LINE
8
Black
10
83.5824
20
-57.8464
11
83.6062
21
-57.8327
0
LINE
8
Black
10
83.6062
20
-57.8327
11
83.6867
21
-57.8185
0
LINE
8
Black
10
83.6867
20
-57.8185
11
83.7655
21
-57.7974
0
LINE
8
Black
10
83.7655
20
-57.7974
11
83.7929
21
-57.7998
0
LINE
8
Black
10
83.7929
20
-57.7998
11
83.82
21
-57.795
0
LINE
8
Black
10
83.82
20
-57.795
11
84.0025
21
-57.795
0
LINE
8
Black
10
84.0025
20
-57.795
11
84.0033
21
-57.7926
0
LINE
8
Black
10
84.0033
20
-57.7926
11
84.2834
21
-57.4588
0
LINE
8
Black
10
84.2834
20
-57.4588
11
84.6608
21
-57.2409
0
LINE
8
Black
10
84.6608
20
-57.2409
11
85.09
21
-57.1652
0
LINE
8
Black
10
85.09
20
-57.1652
11
85.5192
21
-57.2409
0
LINE
8
Black
10
117.269
20
-57.2409
11
117.647
21
-57.4588
0
LINE
8
Black
10
117.647
20
-57.4588
11
117.927
21
-57.7926
0
LINE
8
Black
10
117.927
20
-57.7926
11
118.076
21
-58.2021
0
LINE
8
Black
10
118.076
20
-58.2021
11
118.076
21
-58.6379
0
LINE
8
Black
10
118.076
20
-58.6379
11
117.927
21
-59.0474
0
LINE
8
Black
10
117.927
20
-59.0474
11
117.647
21
-59.3812
0
LINE
8
Black
10
117.647
20
-59.3812
11
117.465
21
-59.486
0
LINE
8
Black
10
117.465
20
-59.486
11
117.465
21
-63.5
0
LINE
8
Black
10
117.465
20
-63.5
11
117.46
21
-63.5271
0
LINE
8
Black
10
117.46
20
-63.5271
11
117.463
21
-63.5545
0
LINE
8
Black
10
117.463
20
-63.5545
11
117.441
21
-63.6334
0
LINE
8
Black
10
117.441
20
-63.6334
11
117.427
21
-63.7138
0
LINE
8
Black
10
117.427
20
-63.7138
11
117.414
21
-63.7376
0
LINE
8
Black
10
117.414
20
-63.7376
11
117.406
21
-63.7641
0
LINE
8
Black
10
117.406
20
-63.7641
11
117.36
21
-63.831
0
LINE
8
Black
10
117.36
20
-63.831
11
117.319
21
-63.9017
0
LINE
8
Black
10
117.319
20
-63.9017
11
117.298
21
-63.9194
0
LINE
8
Black
10
117.298
20
-63.9194
11
117.282
21
-63.9419
0
LINE
8
Black
10
117.282
20
-63.9419
11
116.47
21
-64.7539
0
LINE
8
Black
10
116.47
20
-64.7539
11
116.47
21
-65.6267
0
LINE
8
Black
10
116.47
20
-65.6267
11
116.416
21
-65.9345
0
LINE
8
Black
10
116.416
20
-65.9345
11
116.259
21
-66.2052
0
LINE
8
Black
10
116.259
20
-66.2052
11
116.02
21
-66.4061
0
LINE
8
Black
10
116.02
20
-66.4061
11
115.726
21
-66.513
0
LINE
8
Black
10
115.726
20
-66.513
11
115.414
21
-66.513
0
LINE
8
Black
10
115.414
20
-66.513
11
115.12
21
-66.4061
0
LINE
8
Black
10
115.12
20
-66.4061
11
114.881
21
-66.2052
0
LINE
8
Black
10
114.881
20
-66.2052
11
114.724
21
-65.9345
0
LINE
8
Black
10
114.724
20
-65.9345
11
114.67
21
-65.6267
0
LINE
8
Black
10
114.67
20
-65.6267
11
114.67
21
-63.9133
0
LINE
8
Black
10
114.67
20
-63.9133
11
114.724
21
-63.6055
0
LINE
8
Black
10
114.724
20
-63.6055
11
114.881
21
-63.3348
0
LINE
8
Black
10
114.881
20
-63.3348
11
115.12
21
-63.1339
0
LINE
8
Black
10
115.12
20
-63.1339
11
115.414
21
-63.027
0
LINE
8
Black
10
115.414
20
-63.027
11
115.726
21
-63.027
0
LINE
8
Black
10
115.726
20
-63.027
11
116.02
21
-63.1339
0
LINE
8
Black
10
116.02
20
-63.1339
11
116.184
21
-63.2718
0
LINE
8
Black
10
116.184
20
-63.2718
11
116.215
21
-63.2411
0
LINE
8
Black
10
116.215
20
-63.2411
11
116.215
21
-59.486
0
LINE
8
Black
10
116.215
20
-59.486
11
116.033
21
-59.3812
0
LINE
8
Black
10
116.033
20
-59.3812
11
115.753
21
-59.0474
0
LINE
8
Black
10
115.753
20
-59.0474
11
115.604
21
-58.6379
0
LINE
8
Black
10
115.604
20
-58.6379
11
115.604
21
-58.2021
0
LINE
8
Black
10
115.604
20
-58.2021
11
115.753
21
-57.7926
0
LINE
8
Black
10
115.753
20
-57.7926
11
116.033
21
-57.4588
0
LINE
8
Black
10
116.033
20
-57.4588
11
116.411
21
-57.2409
0
LINE
8
Black
10
116.411
20
-57.2409
11
116.84
21
-57.1652
0
LINE
8
Black
10
116.84
20
-57.1652
11
117.269
21
-57.2409
0
LINE
8
Black
10
43.6092
20
-57.2409
11
43.9866
21
-57.4588
0
LINE
8
Black
10
43.9866
20
-57.4588
11
44.2667
21
-57.7926
0
LINE
8
Black
10
44.2667
20
-57.7926
11
44.4157
21
-58.2021
0
LINE
8
Black
10
44.4157
20
-58.2021
11
44.4157
21
-58.6379
0
LINE
8
Black
10
44.4157
20
-58.6379
11
44.2667
21
-59.0474
0
LINE
8
Black
10
44.2667
20
-59.0474
11
43.9866
21
-59.3812
0
LINE
8
Black
10
43.9866
20
-59.3812
11
43.805
21
-59.486
0
LINE
8
Black
10
43.805
20
-59.486
11
43.805
21
-63.2411
0
LINE
8
Black
10
43.805
20
-63.2411
11
43.8357
21
-63.2718
0
LINE
8
Black
10
43.8357
20
-63.2718
11
44
21
-63.1339
0
LINE
8
Black
10
44
20
-63.1339
11
44.2937
21
-63.027
0
LINE
8
Black
10
44.2937
20
-63.027
11
44.6063
21
-63.027
0
LINE
8
Black
10
44.6063
20
-63.027
11
44.9
21
-63.1339
0
LINE
8
Black
10
44.9
20
-63.1339
11
45.1394
21
-63.3348
0
LINE
8
Black
10
45.1394
20
-63.3348
11
45.2957
21
-63.6055
0
LINE
8
Black
10
45.2957
20
-63.6055
11
45.35
21
-63.9133
0
LINE
8
Black
10
45.35
20
-63.9133
11
45.35
21
-65.6267
0
LINE
8
Black
10
45.35
20
-65.6267
11
45.2957
21
-65.9345
0
LINE
8
Black
10
45.2957
20
-65.9345
11
45.1394
21
-66.2052
0
LINE
8
Black
10
45.1394
20
-66.2052
11
44.9
21
-66.4061
0
LINE
8
Black
10
44.9
20
-66.4061
11
44.6063
21
-66.513
0
LINE
8
Black
10
44.6063
20
-66.513
11
44.2937
21
-66.513
0
LINE
8
Black
10
44.2937
20
-66.513
11
44
21
-66.4061
0
LINE
8
Black
10
44
20
-66.4061
11
43.7606
21
-66.2052
0
LINE
8
Black
10
43.7606
20
-66.2052
11
43.6043
21
-65.9345
0
LINE
8
Black
10
43.6043
20
-65.9345
11
43.55
21
-65.6267
0
LINE
8
Black
10
43.55
20
-65.6267
11
43.55
21
-64.7539
0
LINE
8
Black
10
43.55
20
-64.7539
11
42.7381
21
-63.9419
0
LINE
8
Black
10
42.7381
20
-63.9419
11
42.7223
21
-63.9194
0
LINE
8
Black
10
42.7223
20
-63.9194
11
42.7012
21
-63.9017
0
LINE
8
Black
10
42.7012
20
-63.9017
11
42.6604
21
-63.831
0
LINE
8
Black
10
42.6604
20
-63.831
11
42.6136
21
-63.7641
0
LINE
8
Black
10
42.6136
20
-63.7641
11
42.6064
21
-63.7376
0
LINE
8
Black
10
42.6064
20
-63.7376
11
42.5927
21
-63.7138
0
LINE
8
Black
10
42.5927
20
-63.7138
11
42.5785
21
-63.6334
0
LINE
8
Black
10
42.5785
20
-63.6334
11
42.5574
21
-63.5545
0
LINE
8
Black
10
42.5574
20
-63.5545
11
42.5598
21
-63.5271
0
LINE
8
Black
10
42.5598
20
-63.5271
11
42.555
21
-63.5
0
LINE
8
Black
10
42.555
20
-63.5
11
42.555
21
-59.486
0
LINE
8
Black
10
42.555
20
-59.486
11
42.3734
21
-59.3812
0
LINE
8
Black
10
42.3734
20
-59.3812
11
42.0933
21
-59.0474
0
LINE
8
Black
10
42.0933
20
-59.0474
11
41.9443
21
-58.6379
0
LINE
8
Black
10
41.9443
20
-58.6379
11
41.9443
21
-58.2021
0
LINE
8
Black
10
41.9443
20
-58.2021
11
42.0933
21
-57.7926
0
LINE
8
Black
10
42.0933
20
-57.7926
11
42.3734
21
-57.4588
0
LINE
8
Black
10
42.3734
20
-57.4588
11
42.7508
21
-57.2409
0
LINE
8
Black
10
42.7508
20
-57.2409
11
43.18
21
-57.1652
0
LINE
8
Black
10
43.18
20
-57.1652
11
43.6092
21
-57.2409
0
LINE
8
Black
10
87.21
20
-46.2
11
86.985
21
-46.2
0
LINE
8
Black
10
86.985
20
-46.2
11
86.985
21
-49.53
0
LINE
8
Black
10
86.985
20
-49.53
11
86.9802
21
-49.5571
0
LINE
8
Black
10
86.9802
20
-49.5571
11
86.9826
21
-49.5845
0
LINE
8
Black
10
86.9826
20
-49.5845
11
86.9615
21
-49.6634
0
LINE
8
Black
10
86.9615
20
-49.6634
11
86.9473
21
-49.7438
0
LINE
8
Black
10
86.9473
20
-49.7438
11
86.9336
21
-49.7676
0
LINE
8
Black
10
86.9336
20
-49.7676
11
86.9264
21
-49.7941
0
LINE
8
Black
10
86.9264
20
-49.7941
11
86.8796
21
-49.861
0
LINE
8
Black
10
86.8796
20
-49.861
11
86.8388
21
-49.9317
0
LINE
8
Black
10
86.8388
20
-49.9317
11
86.8177
21
-49.9494
0
LINE
8
Black
10
86.8177
20
-49.9494
11
86.8019
21
-49.9719
0
LINE
8
Black
10
86.8019
20
-49.9719
11
85.5319
21
-51.2419
0
LINE
8
Black
10
85.5319
20
-51.2419
11
85.5094
21
-51.2577
0
LINE
8
Black
10
85.5094
20
-51.2577
11
85.4917
21
-51.2788
0
LINE
8
Black
10
85.4917
20
-51.2788
11
85.421
21
-51.3196
0
LINE
8
Black
10
85.421
20
-51.3196
11
85.3541
21
-51.3664
0
LINE
8
Black
10
85.3541
20
-51.3664
11
85.3276
21
-51.3736
0
LINE
8
Black
10
85.3276
20
-51.3736
11
85.3038
21
-51.3873
0
LINE
8
Black
10
85.3038
20
-51.3873
11
85.2234
21
-51.4015
0
LINE
8
Black
10
85.2234
20
-51.4015
11
85.1445
21
-51.4226
0
LINE
8
Black
10
85.1445
20
-51.4226
11
85.1171
21
-51.4202
0
LINE
8
Black
10
85.1171
20
-51.4202
11
85.09
21
-51.425
0
LINE
8
Black
10
85.09
20
-51.425
11
75.1889
21
-51.425
0
LINE
8
Black
10
75.1889
20
-51.425
11
72.8319
21
-53.7819
0
LINE
8
Black
10
72.8319
20
-53.7819
11
72.8094
21
-53.7977
0
LINE
8
Black
10
72.8094
20
-53.7977
11
72.7917
21
-53.8188
0
LINE
8
Black
10
72.7917
20
-53.8188
11
72.721
21
-53.8596
0
LINE
8
Black
10
72.721
20
-53.8596
11
72.6541
21
-53.9064
0
LINE
8
Black
10
72.6541
20
-53.9064
11
72.6276
21
-53.9136
0
LINE
8
Black
10
72.6276
20
-53.9136
11
72.6038
21
-53.9273
0
LINE
8
Black
10
72.6038
20
-53.9273
11
72.5234
21
-53.9415
0
LINE
8
Black
10
72.5234
20
-53.9415
11
72.4445
21
-53.9626
0
LINE
8
Black
10
72.4445
20
-53.9626
11
72.4171
21
-53.9602
0
LINE
8
Black
10
72.4171
20
-53.9602
11
72.39
21
-53.965
0
LINE
8
Black
10
72.39
20
-53.965
11
62.4889
21
-53.965
0
LINE
8
Black
10
62.4889
20
-53.965
11
61.585
21
-54.8689
0
LINE
8
Black
10
61.585
20
-54.8689
11
61.585
21
-57.354
0
LINE
8
Black
10
61.585
20
-57.354
11
61.7666
21
-57.4588
0
LINE
8
Black
10
61.7666
20
-57.4588
11
62.0467
21
-57.7926
0
LINE
8
Black
10
62.0467
20
-57.7926
11
62.1957
21
-58.2021
0
LINE
8
Black
10
62.1957
20
-58.2021
11
62.1957
21
-58.6379
0
LINE
8
Black
10
62.1957
20
-58.6379
11
62.0467
21
-59.0474
0
LINE
8
Black
10
62.0467
20
-59.0474
11
61.7666
21
-59.3812
0
LINE
8
Black
10
61.7666
20
-59.3812
11
61.3892
21
-59.5991
0
LINE
8
Black
10
61.3892
20
-59.5991
11
60.96
21
-59.6748
0
LINE
8
Black
10
60.96
20
-59.6748
11
60.5308
21
-59.5991
0
LINE
8
Black
10
60.5308
20
-59.5991
11
60.1534
21
-59.3812
0
LINE
8
Black
10
60.1534
20
-59.3812
11
59.8733
21
-59.0474
0
LINE
8
Black
10
59.8733
20
-59.0474
11
59.7243
21
-58.6379
0
LINE
8
Black
10
59.7243
20
-58.6379
11
59.7243
21
-58.2021
0
LINE
8
Black
10
59.7243
20
-58.2021
11
59.8733
21
-57.7926
0
LINE
8
Black
10
59.8733
20
-57.7926
11
60.1534
21
-57.4588
0
LINE
8
Black
10
60.1534
20
-57.4588
11
60.335
21
-57.354
0
LINE
8
Black
10
60.335
20
-57.354
11
60.335
21
-54.61
0
LINE
8
Black
10
60.335
20
-54.61
11
60.3398
21
-54.5829
0
LINE
8
Black
10
60.3398
20
-54.5829
11
60.3374
21
-54.5555
0
LINE
8
Black
10
60.3374
20
-54.5555
11
60.3585
21
-54.4766
0
LINE
8
Black
10
60.3585
20
-54.4766
11
60.3727
21
-54.3962
0
LINE
8
Black
10
60.3727
20
-54.3962
11
60.3864
21
-54.3724
0
LINE
8
Black
10
60.3864
20
-54.3724
11
60.3936
21
-54.3459
0
LINE
8
Black
10
60.3936
20
-54.3459
11
60.4404
21
-54.279
0
LINE
8
Black
10
60.4404
20
-54.279
11
60.4812
21
-54.2083
0
LINE
8
Black
10
60.4812
20
-54.2083
11
60.5023
21
-54.1906
0
LINE
8
Black
10
60.5023
20
-54.1906
11
60.5181
21
-54.1681
0
LINE
8
Black
10
60.5181
20
-54.1681
11
61.7881
21
-52.8981
0
LINE
8
Black
10
61.7881
20
-52.8981
11
61.8106
21
-52.8823
0
LINE
8
Black
10
61.8106
20
-52.8823
11
61.8283
21
-52.8612
0
LINE
8
Black
10
61.8283
20
-52.8612
11
61.899
21
-52.8204
0
LINE
8
Black
10
61.899
20
-52.8204
11
61.9659
21
-52.7736
0
LINE
8
Black
10
61.9659
20
-52.7736
11
61.9924
21
-52.7664
0
LINE
8
Black
10
61.9924
20
-52.7664
11
62.0162
21
-52.7527
0
LINE
8
Black
10
62.0162
20
-52.7527
11
62.0966
21
-52.7385
0
LINE
8
Black
10
62.0966
20
-52.7385
11
62.1755
21
-52.7174
0
LINE
8
Black
10
62.1755
20
-52.7174
11
62.2029
21
-52.7198
0
LINE
8
Black
10
62.2029
20
-52.7198
11
62.23
21
-52.715
0
LINE
8
Black
10
62.23
20
-52.715
11
72.1311
21
-52.715
0
LINE
8
Black
10
72.1311
20
-52.715
11
74.4881
21
-50.3581
0
LINE
8
Black
10
74.4881
20
-50.3581
11
74.5106
21
-50.3423
0
LINE
8
Black
10
74.5106
20
-50.3423
11
74.5283
21
-50.3212
0
LINE
8
Black
10
74.5283
20
-50.3212
11
74.599
21
-50.2804
0
LINE
8
Black
10
74.599
20
-50.2804
11
74.6659
21
-50.2336
0
LINE
8
Black
10
74.6659
20
-50.2336
11
74.6924
21
-50.2264
0
LINE
8
Black
10
74.6924
20
-50.2264
11
74.7162
21
-50.2127
0
LINE
8
Black
10
74.7162
20
-50.2127
11
74.7967
21
-50.1985
0
LINE
8
Black
10
74.7967
20
-50.1985
11
74.8755
21
-50.1774
0
LINE
8
Black
10
74.8755
20
-50.1774
11
74.9029
21
-50.1798
0
LINE
8
Black
10
74.9029
20
-50.1798
11
74.93
21
-50.175
0
LINE
8
Black
10
74.93
20
-50.175
11
84.8311
21
-50.175
0
LINE
8
Black
10
84.8311
20
-50.175
11
85.735
21
-49.2711
0
LINE
8
Black
10
85.735
20
-49.2711
11
85.735
21
-46.2
0
LINE
8
Black
10
85.735
20
-46.2
11
85.51
21
-46.2
0
LINE
8
Black
10
85.51
20
-46.2
11
85.51
21
-42.7
0
LINE
8
Black
10
85.51
20
-42.7
11
87.21
21
-42.7
0
LINE
8
Black
10
87.21
20
-42.7
11
87.21
21
-46.2
0
LINE
8
Black
10
69.43
20
-46.2
11
69.205
21
-46.2
0
LINE
8
Black
10
69.205
20
-46.2
11
69.205
21
-46.99
0
LINE
8
Black
10
69.205
20
-46.99
11
69.2002
21
-47.0171
0
LINE
8
Black
10
69.2002
20
-47.0171
11
69.2026
21
-47.0445
0
LINE
8
Black
10
69.2026
20
-47.0445
11
69.1815
21
-47.1234
0
LINE
8
Black
10
69.1815
20
-47.1234
11
69.1673
21
-47.2038
0
LINE
8
Black
10
69.1673
20
-47.2038
11
69.1536
21
-47.2276
0
LINE
8
Black
10
69.1536
20
-47.2276
11
69.1464
21
-47.2541
0
LINE
8
Black
10
69.1464
20
-47.2541
11
69.0996
21
-47.321
0
LINE
8
Black
10
69.0996
20
-47.321
11
69.0588
21
-47.3917
0
LINE
8
Black
10
69.0588
20
-47.3917
11
69.0377
21
-47.4094
0
LINE
8
Black
10
69.0377
20
-47.4094
11
69.0219
21
-47.4319
0
LINE
8
Black
10
69.0219
20
-47.4319
11
67.7519
21
-48.7019
0
LINE
8
Black
10
67.7519
20
-48.7019
11
67.7294
21
-48.7177
0
LINE
8
Black
10
67.7294
20
-48.7177
11
67.7117
21
-48.7388
0
LINE
8
Black
10
67.7117
20
-48.7388
11
67.641
21
-48.7796
0
LINE
8
Black
10
67.641
20
-48.7796
11
67.5741
21
-48.8264
0
LINE
8
Black
10
67.5741
20
-48.8264
11
67.5476
21
-48.8336
0
LINE
8
Black
10
67.5476
20
-48.8336
11
67.5238
21
-48.8473
0
LINE
8
Black
10
67.5238
20
-48.8473
11
67.4434
21
-48.8615
0
LINE
8
Black
10
67.4434
20
-48.8615
11
67.3645
21
-48.8826
0
LINE
8
Black
10
67.3645
20
-48.8826
11
67.3371
21
-48.8802
0
LINE
8
Black
10
67.3371
20
-48.8802
11
67.31
21
-48.885
0
LINE
8
Black
10
67.31
20
-48.885
11
54.8689
21
-48.885
0
LINE
8
Black
10
54.8689
20
-48.885
11
53.965
21
-49.7889
0
LINE
8
Black
10
53.965
20
-49.7889
11
53.965
21
-57.354
0
LINE
8
Black
10
53.965
20
-57.354
11
54.1466
21
-57.4588
0
LINE
8
Black
10
54.1466
20
-57.4588
11
54.4267
21
-57.7926
0
LINE
8
Black
10
54.4267
20
-57.7926
11
54.5757
21
-58.2021
0
LINE
8
Black
10
54.5757
20
-58.2021
11
54.5757
21
-58.6379
0
LINE
8
Black
10
54.5757
20
-58.6379
11
54.4267
21
-59.0474
0
LINE
8
Black
10
54.4267
20
-59.0474
11
54.1466
21
-59.3812
0
LINE
8
Black
10
54.1466
20
-59.3812
11
53.7692
21
-59.5991
0
LINE
8
Black
10
53.7692
20
-59.5991
11
53.34
21
-59.6748
0
LINE
8
Black
10
53.34
20
-59.6748
11
52.9108
21
-59.5991
0
LINE
8
Black
10
52.9108
20
-59.5991
11
52.5334
21
-59.3812
0
LINE
8
Black
10
52.5334
20
-59.3812
11
52.2533
21
-59.0474
0
LINE
8
Black
10
52.2533
20
-59.0474
11
52.1043
21
-58.6379
0
LINE
8
Black
10
52.1043
20
-58.6379
11
52.1043
21
-58.2021
0
LINE
8
Black
10
52.1043
20
-58.2021
11
52.2533
21
-57.7926
0
LINE
8
Black
10
52.2533
20
-57.7926
11
52.5334
21
-57.4588
0
LINE
8
Black
10
52.5334
20
-57.4588
11
52.715
21
-57.354
0
LINE
8
Black
10
52.715
20
-57.354
11
52.715
21
-49.53
0
LINE
8
Black
10
52.715
20
-49.53
11
52.7198
21
-49.5029
0
LINE
8
Black
10
52.7198
20
-49.5029
11
52.7174
21
-49.4755
0
LINE
8
Black
10
52.7174
20
-49.4755
11
52.7385
21
-49.3966
0
LINE
8
Black
10
52.7385
20
-49.3966
11
52.7527
21
-49.3162
0
LINE
8
Black
10
52.7527
20
-49.3162
11
52.7664
21
-49.2924
0
LINE
8
Black
10
52.7664
20
-49.2924
11
52.7736
21
-49.2659
0
LINE
8
Black
10
52.7736
20
-49.2659
11
52.8204
21
-49.199
0
LINE
8
Black
10
52.8204
20
-49.199
11
52.8612
21
-49.1283
0
LINE
8
Black
10
52.8612
20
-49.1283
11
52.8823
21
-49.1106
0
LINE
8
Black
10
52.8823
20
-49.1106
11
52.8981
21
-49.0881
0
LINE
8
Black
10
52.8981
20
-49.0881
11
54.1681
21
-47.8181
0
LINE
8
Black
10
54.1681
20
-47.8181
11
54.1906
21
-47.8023
0
LINE
8
Black
10
54.1906
20
-47.8023
11
54.2083
21
-47.7812
0
LINE
8
Black
10
54.2083
20
-47.7812
11
54.279
21
-47.7404
0
LINE
8
Black
10
54.279
20
-47.7404
11
54.3459
21
-47.6936
0
LINE
8
Black
10
54.3459
20
-47.6936
11
54.3724
21
-47.6864
0
LINE
8
Black
10
54.3724
20
-47.6864
11
54.3962
21
-47.6727
0
LINE
8
Black
10
54.3962
20
-47.6727
11
54.4766
21
-47.6585
0
LINE
8
Black
10
54.4766
20
-47.6585
11
54.5555
21
-47.6374
0
LINE
8
Black
10
54.5555
20
-47.6374
11
54.5829
21
-47.6398
0
LINE
8
Black
10
54.5829
20
-47.6398
11
54.61
21
-47.635
0
LINE
8
Black
10
54.61
20
-47.635
11
67.0511
21
-47.635
0
LINE
8
Black
10
67.0511
20
-47.635
11
67.955
21
-46.7311
0
LINE
8
Black
10
67.955
20
-46.7311
11
67.955
21
-46.2
0
LINE
8
Black
10
67.955
20
-46.2
11
67.73
21
-46.2
0
LINE
8
Black
10
67.73
20
-46.2
11
67.73
21
-42.7
0
LINE
8
Black
10
67.73
20
-42.7
11
69.43
21
-42.7
0
LINE
8
Black
10
69.43
20
-42.7
11
69.43
21
-46.2
0
LINE
8
Black
10
89.75
20
-46.2
11
89.525
21
-46.2
0
LINE
8
Black
10
89.525
20
-46.2
11
89.525
21
-52.07
0
LINE
8
Black
10
89.525
20
-52.07
11
89.5202
21
-52.0971
0
LINE
8
Black
10
89.5202
20
-52.0971
11
89.5226
21
-52.1245
0
LINE
8
Black
10
89.5226
20
-52.1245
11
89.5015
21
-52.2034
0
LINE
8
Black
10
89.5015
20
-52.2034
11
89.4873
21
-52.2838
0
LINE
8
Black
10
89.4873
20
-52.2838
11
89.4736
21
-52.3076
0
LINE
8
Black
10
89.4736
20
-52.3076
11
89.4664
21
-52.3341
0
LINE
8
Black
10
89.4664
20
-52.3341
11
89.4196
21
-52.401
0
LINE
8
Black
10
89.4196
20
-52.401
11
89.3788
21
-52.4717
0
LINE
8
Black
10
89.3788
20
-52.4717
11
89.3577
21
-52.4894
0
LINE
8
Black
10
89.3577
20
-52.4894
11
89.3419
21
-52.5119
0
LINE
8
Black
10
89.3419
20
-52.5119
11
88.0719
21
-53.7819
0
LINE
8
Black
10
88.0719
20
-53.7819
11
88.0494
21
-53.7977
0
LINE
8
Black
10
88.0494
20
-53.7977
11
88.0317
21
-53.8188
0
LINE
8
Black
10
88.0317
20
-53.8188
11
87.961
21
-53.8596
0
LINE
8
Black
10
87.961
20
-53.8596
11
87.8941
21
-53.9064
0
LINE
8
Black
10
87.8941
20
-53.9064
11
87.8676
21
-53.9136
0
LINE
8
Black
10
87.8676
20
-53.9136
11
87.8438
21
-53.9273
0
LINE
8
Black
10
87.8438
20
-53.9273
11
87.7634
21
-53.9415
0
LINE
8
Black
10
87.7634
20
-53.9415
11
87.6845
21
-53.9626
0
LINE
8
Black
10
87.6845
20
-53.9626
11
87.6571
21
-53.9602
0
LINE
8
Black
10
87.6571
20
-53.9602
11
87.63
21
-53.965
0
LINE
8
Black
10
87.63
20
-53.965
11
76.4589
21
-53.965
0
LINE
8
Black
10
76.4589
20
-53.965
11
75.555
21
-54.8689
0
LINE
8
Black
10
75.555
20
-54.8689
11
75.555
21
-57.354
0
LINE
8
Black
10
75.555
20
-57.354
11
75.7366
21
-57.4588
0
LINE
8
Black
10
75.7366
20
-57.4588
11
76.0167
21
-57.7926
0
LINE
8
Black
10
76.0167
20
-57.7926
11
76.1657
21
-58.2021
0
LINE
8
Black
10
76.1657
20
-58.2021
11
76.1657
21
-58.6379
0
LINE
8
Black
10
76.1657
20
-58.6379
11
76.0167
21
-59.0474
0
LINE
8
Black
10
76.0167
20
-59.0474
11
75.7366
21
-59.3812
0
LINE
8
Black
10
75.7366
20
-59.3812
11
75.3592
21
-59.5991
0
LINE
8
Black
10
75.3592
20
-59.5991
11
74.93
21
-59.6748
0
LINE
8
Black
10
74.93
20
-59.6748
11
74.5008
21
-59.5991
0
LINE
8
Black
10
74.5008
20
-59.5991
11
74.1234
21
-59.3812
0
LINE
8
Black
10
74.1234
20
-59.3812
11
73.8433
21
-59.0474
0
LINE
8
Black
10
73.8433
20
-59.0474
11
73.6943
21
-58.6379
0
LINE
8
Black
10
73.6943
20
-58.6379
11
73.6943
21
-58.2021
0
LINE
8
Black
10
73.6943
20
-58.2021
11
73.8433
21
-57.7926
0
LINE
8
Black
10
73.8433
20
-57.7926
11
74.1234
21
-57.4588
0
LINE
8
Black
10
74.1234
20
-57.4588
11
74.305
21
-57.354
0
LINE
8
Black
10
74.305
20
-57.354
11
74.305
21
-54.61
0
LINE
8
Black
10
74.305
20
-54.61
11
74.3098
21
-54.5829
0
LINE
8
Black
10
74.3098
20
-54.5829
11
74.3074
21
-54.5555
0
LINE
8
Black
10
74.3074
20
-54.5555
11
74.3285
21
-54.4766
0
LINE
8
Black
10
74.3285
20
-54.4766
11
74.3427
21
-54.3962
0
LINE
8
Black
10
74.3427
20
-54.3962
11
74.3564
21
-54.3724
0
LINE
8
Black
10
74.3564
20
-54.3724
11
74.3636
21
-54.3459
0
LINE
8
Black
10
74.3636
20
-54.3459
11
74.4104
21
-54.279
0
LINE
8
Black
10
74.4104
20
-54.279
11
74.4512
21
-54.2083
0
LINE
8
Black
10
74.4512
20
-54.2083
11
74.4723
21
-54.1906
0
LINE
8
Black
10
74.4723
20
-54.1906
11
74.4881
21
-54.1681
0
LINE
8
Black
10
74.4881
20
-54.1681
11
75.7581
21
-52.8981
0
LINE
8
Black
10
75.7581
20
-52.8981
11
75.7806
21
-52.8823
0
LINE
8
Black
10
75.7806
20
-52.8823
11
75.7983
21
-52.8612
0
LINE
8
Black
10
75.7983
20
-52.8612
11
75.869
21
-52.8204
0
LINE
8
Black
10
75.869
20
-52.8204
11
75.9359
21
-52.7736
0
LINE
8
Black
10
75.9359
20
-52.7736
11
75.9624
21
-52.7664
0
LINE
8
Black
10
75.9624
20
-52.7664
11
75.9862
21
-52.7527
0
LINE
8
Black
10
75.9862
20
-52.7527
11
76.0666
21
-52.7385
0
LINE
8
Black
10
76.0666
20
-52.7385
11
76.1455
21
-52.7174
0
LINE
8
Black
10
76.1455
20
-52.7174
11
76.1729
21
-52.7198
0
LINE
8
Black
10
76.1729
20
-52.7198
11
76.2
21
-52.715
0
LINE
8
Black
10
76.2
20
-52.715
11
87.3711
21
-52.715
0
LINE
8
Black
10
87.3711
20
-52.715
11
88.275
21
-51.8111
0
LINE
8
Black
10
88.275
20
-51.8111
11
88.275
21
-46.2
0
LINE
8
Black
10
88.275
20
-46.2
11
88.05
21
-46.2
0
LINE
8
Black
10
88.05
20
-46.2
11
88.05
21
-42.7
0
LINE
8
Black
10
88.05
20
-42.7
11
89.75
21
-42.7
0
LINE
8
Black
10
89.75
20
-42.7
11
89.75
21
-46.2
0
LINE
8
Black
10
92.29
20
-46.2
11
92.065
21
-46.2
0
LINE
8
Black
10
92.065
20
-46.2
11
92.065
21
-51.8111
0
LINE
8
Black
10
92.065
20
-51.8111
11
92.9689
21
-52.715
0
LINE
8
Black
10
92.9689
20
-52.715
11
97.79
21
-52.715
0
LINE
8
Black
10
97.79
20
-52.715
11
97.8171
21
-52.7198
0
LINE
8
Black
10
97.8171
20
-52.7198
11
97.8445
21
-52.7174
0
LINE
8
Black
10
97.8445
20
-52.7174
11
97.9234
21
-52.7385
0
LINE
8
Black
10
97.9234
20
-52.7385
11
98.0038
21
-52.7527
0
LINE
8
Black
10
98.0038
20
-52.7527
11
98.0276
21
-52.7664
0
LINE
8
Black
10
98.0276
20
-52.7664
11
98.0541
21
-52.7736
0
LINE
8
Black
10
98.0541
20
-52.7736
11
98.121
21
-52.8204
0
LINE
8
Black
10
98.121
20
-52.8204
11
98.1917
21
-52.8612
0
LINE
8
Black
10
98.1917
20
-52.8612
11
98.2094
21
-52.8823
0
LINE
8
Black
10
98.2094
20
-52.8823
11
98.2319
21
-52.8981
0
LINE
8
Black
10
98.2319
20
-52.8981
11
99.5019
21
-54.1681
0
LINE
8
Black
10
99.5019
20
-54.1681
11
99.5177
21
-54.1906
0
LINE
8
Black
10
99.5177
20
-54.1906
11
99.5388
21
-54.2083
0
LINE
8
Black
10
99.5388
20
-54.2083
11
99.5796
21
-54.279
0
LINE
8
Black
10
99.5796
20
-54.279
11
99.6264
21
-54.3459
0
LINE
8
Black
10
99.6264
20
-54.3459
11
99.6336
21
-54.3724
0
LINE
8
Black
10
99.6336
20
-54.3724
11
99.6473
21
-54.3962
0
LINE
8
Black
10
99.6473
20
-54.3962
11
99.6615
21
-54.4766
0
LINE
8
Black
10
99.6615
20
-54.4766
11
99.6826
21
-54.5555
0
LINE
8
Black
10
99.6826
20
-54.5555
11
99.6802
21
-54.5829
0
LINE
8
Black
10
99.6802
20
-54.5829
11
99.685
21
-54.61
0
LINE
8
Black
10
99.685
20
-54.61
11
99.685
21
-57.354
0
LINE
8
Black
10
99.685
20
-57.354
11
99.8666
21
-57.4588
0
LINE
8
Black
10
99.8666
20
-57.4588
11
100.147
21
-57.7926
0
LINE
8
Black
10
100.147
20
-57.7926
11
100.296
21
-58.2021
0
LINE
8
Black
10
100.296
20
-58.2021
11
100.296
21
-58.6379
0
LINE
8
Black
10
100.296
20
-58.6379
11
100.147
21
-59.0474
0
LINE
8
Black
10
100.147
20
-59.0474
11
99.8666
21
-59.3812
0
LINE
8
Black
10
99.8666
20
-59.3812
11
99.4892
21
-59.5991
0
LINE
8
Black
10
99.4892
20
-59.5991
11
99.06
21
-59.6748
0
LINE
8
Black
10
99.06
20
-59.6748
11
98.6308
21
-59.5991
0
LINE
8
Black
10
98.6308
20
-59.5991
11
98.2534
21
-59.3812
0
LINE
8
Black
10
98.2534
20
-59.3812
11
97.9733
21
-59.0474
0
LINE
8
Black
10
97.9733
20
-59.0474
11
97.8243
21
-58.6379
0
LINE
8
Black
10
97.8243
20
-58.6379
11
97.8243
21
-58.2021
0
LINE
8
Black
10
97.8243
20
-58.2021
11
97.9733
21
-57.7926
0
LINE
8
Black
10
97.9733
20
-57.7926
11
98.2534
21
-57.4588
0
LINE
8
Black
10
98.2534
20
-57.4588
11
98.435
21
-57.354
0
LINE
8
Black
10
98.435
20
-57.354
11
98.435
21
-54.8689
0
LINE
8
Black
10
98.435
20
-54.8689
11
97.5311
21
-53.965
0
LINE
8
Black
10
97.5311
20
-53.965
11
92.71
21
-53.965
0
LINE
8
Black
10
92.71
20
-53.965
11
92.6829
21
-53.9602
0
LINE
8
Black
10
92.6829
20
-53.9602
11
92.6555
21
-53.9626
0
LINE
8
Black
10
92.6555
20
-53.9626
11
92.5766
21
-53.9415
0
LINE
8
Black
10
92.5766
20
-53.9415
11
92.4962
21
-53.9273
0
LINE
8
Black
10
92.4962
20
-53.9273
11
92.4724
21
-53.9136
0
LINE
8
Black
10
92.4724
20
-53.9136
11
92.4459
21
-53.9064
0
LINE
8
Black
10
92.4459
20
-53.9064
11
92.379
21
-53.8596
0
LINE
8
Black
10
92.379
20
-53.8596
11
92.3083
21
-53.8188
0
LINE
8
Black
10
92.3083
20
-53.8188
11
92.2906
21
-53.7977
0
LINE
8
Black
10
92.2906
20
-53.7977
11
92.2681
21
-53.7819
0
LINE
8
Black
10
92.2681
20
-53.7819
11
90.9981
21
-52.5119
0
LINE
8
Black
10
90.9981
20
-52.5119
11
90.9823
21
-52.4894
0
LINE
8
Black
10
90.9823
20
-52.4894
11
90.9612
21
-52.4717
0
LINE
8
Black
10
90.9612
20
-52.4717
11
90.9204
21
-52.401
0
LINE
8
Black
10
90.9204
20
-52.401
11
90.8736
21
-52.3341
0
LINE
8
Black
10
90.8736
20
-52.3341
11
90.8664
21
-52.3076
0
LINE
8
Black
10
90.8664
20
-52.3076
11
90.8527
21
-52.2838
0
LINE
8
Black
10
90.8527
20
-52.2838
11
90.8385
21
-52.2034
0
LINE
8
Black
10
90.8385
20
-52.2034
11
90.8174
21
-52.1245
0
LINE
8
Black
10
90.8174
20
-52.1245
11
90.8198
21
-52.0971
0
LINE
8
Black
10
90.8198
20
-52.0971
11
90.815
21
-52.07
0
LINE
8
Black
10
90.815
20
-52.07
11
90.815
21
-46.2
0
LINE
8
Black
10
90.815
20
-46.2
11
90.59
21
-46.2
0
LINE
8
Black
10
90.59
20
-46.2
11
90.59
21
-42.7
0
LINE
8
Black
10
90.59
20
-42.7
11
92.29
21
-42.7
0
LINE
8
Black
10
92.29
20
-42.7
11
92.29
21
-46.2
0
LINE
8
Black
10
97.37
20
-46.2
11
97.145
21
-46.2
0
LINE
8
Black
10
97.145
20
-46.2
11
97.145
21
-46.7311
0
LINE
8
Black
10
97.145
20
-46.7311
11
98.0489
21
-47.635
0
LINE
8
Black
10
98.0489
20
-47.635
11
105.41
21
-47.635
0
LINE
8
Black
10
105.41
20
-47.635
11
105.437
21
-47.6398
0
LINE
8
Black
10
105.437
20
-47.6398
11
105.464
21
-47.6374
0
LINE
8
Black
10
105.464
20
-47.6374
11
105.543
21
-47.6585
0
LINE
8
Black
10
105.543
20
-47.6585
11
105.624
21
-47.6727
0
LINE
8
Black
10
105.624
20
-47.6727
11
105.648
21
-47.6864
0
LINE
8
Black
10
105.648
20
-47.6864
11
105.674
21
-47.6936
0
LINE
8
Black
10
105.674
20
-47.6936
11
105.741
21
-47.7404
0
LINE
8
Black
10
105.741
20
-47.7404
11
105.812
21
-47.7812
0
LINE
8
Black
10
105.812
20
-47.7812
11
105.829
21
-47.8023
0
LINE
8
Black
10
105.829
20
-47.8023
11
105.852
21
-47.8181
0
LINE
8
Black
10
105.852
20
-47.8181
11
107.122
21
-49.0881
0
LINE
8
Black
10
107.122
20
-49.0881
11
107.138
21
-49.1106
0
LINE
8
Black
10
107.138
20
-49.1106
11
107.159
21
-49.1283
0
LINE
8
Black
10
107.159
20
-49.1283
11
107.2
21
-49.199
0
LINE
8
Black
10
107.2
20
-49.199
11
107.246
21
-49.2659
0
LINE
8
Black
10
107.246
20
-49.2659
11
107.254
21
-49.2924
0
LINE
8
Black
10
107.254
20
-49.2924
11
107.267
21
-49.3162
0
LINE
8
Black
10
107.267
20
-49.3162
11
107.281
21
-49.3966
0
LINE
8
Black
10
107.281
20
-49.3966
11
107.303
21
-49.4755
0
LINE
8
Black
10
107.303
20
-49.4755
11
107.3
21
-49.5029
0
LINE
8
Black
10
107.3
20
-49.5029
11
107.305
21
-49.53
0
LINE
8
Black
10
107.305
20
-49.53
11
107.305
21
-57.354
0
LINE
8
Black
10
107.305
20
-57.354
11
107.487
21
-57.4588
0
LINE
8
Black
10
107.487
20
-57.4588
11
107.767
21
-57.7926
0
LINE
8
Black
10
107.767
20
-57.7926
11
107.916
21
-58.2021
0
LINE
8
Black
10
107.916
20
-58.2021
11
107.916
21
-58.6379
0
LINE
8
Black
10
107.916
20
-58.6379
11
107.767
21
-59.0474
0
LINE
8
Black
10
107.767
20
-59.0474
11
107.487
21
-59.3812
0
LINE
8
Black
10
107.487
20
-59.3812
11
107.109
21
-59.5991
0
LINE
8
Black
10
107.109
20
-59.5991
11
106.68
21
-59.6748
0
LINE
8
Black
10
106.68
20
-59.6748
11
106.251
21
-59.5991
0
LINE
8
Black
10
106.251
20
-59.5991
11
105.873
21
-59.3812
0
LINE
8
Black
10
105.873
20
-59.3812
11
105.593
21
-59.0474
0
LINE
8
Black
10
105.593
20
-59.0474
11
105.444
21
-58.6379
0
LINE
8
Black
10
105.444
20
-58.6379
11
105.444
21
-58.2021
0
LINE
8
Black
10
105.444
20
-58.2021
11
105.593
21
-57.7926
0
LINE
8
Black
10
105.593
20
-57.7926
11
105.873
21
-57.4588
0
LINE
8
Black
10
105.873
20
-57.4588
11
106.055
21
-57.354
0
LINE
8
Black
10
106.055
20
-57.354
11
106.055
21
-49.7889
0
LINE
8
Black
10
106.055
20
-49.7889
11
105.151
21
-48.885
0
LINE
8
Black
10
105.151
20
-48.885
11
97.79
21
-48.885
0
LINE
8
Black
10
97.79
20
-48.885
11
97.7629
21
-48.8802
0
LINE
8
Black
10
97.7629
20
-48.8802
11
97.7355
21
-48.8826
0
LINE
8
Black
10
97.7355
20
-48.8826
11
97.6566
21
-48.8615
0
LINE
8
Black
10
97.6566
20
-48.8615
11
97.5762
21
-48.8473
0
LINE
8
Black
10
97.5762
20
-48.8473
11
97.5524
21
-48.8336
0
LINE
8
Black
10
97.5524
20
-48.8336
11
97.5259
21
-48.8264
0
LINE
8
Black
10
97.5259
20
-48.8264
11
97.459
21
-48.7796
0
LINE
8
Black
10
97.459
20
-48.7796
11
97.3883
21
-48.7388
0
LINE
8
Black
10
97.3883
20
-48.7388
11
97.3706
21
-48.7177
0
LINE
8
Black
10
97.3706
20
-48.7177
11
97.3481
21
-48.7019
0
LINE
8
Black
10
97.3481
20
-48.7019
11
96.0781
21
-47.4319
0
LINE
8
Black
10
96.0781
20
-47.4319
11
96.0623
21
-47.4094
0
LINE
8
Black
10
96.0623
20
-47.4094
11
96.0412
21
-47.3917
0
LINE
8
Black
10
96.0412
20
-47.3917
11
96.0004
21
-47.321
0
LINE
8
Black
10
96.0004
20
-47.321
11
95.9536
21
-47.2541
0
LINE
8
Black
10
95.9536
20
-47.2541
11
95.9464
21
-47.2276
0
LINE
8
Black
10
95.9464
20
-47.2276
11
95.9327
21
-47.2038
0
LINE
8
Black
10
95.9327
20
-47.2038
11
95.9185
21
-47.1234
0
LINE
8
Black
10
95.9185
20
-47.1234
11
95.8974
21
-47.0445
0
LINE
8
Black
10
95.8974
20
-47.0445
11
95.8998
21
-47.0171
0
LINE
8
Black
10
95.8998
20
-47.0171
11
95.895
21
-46.99
0
LINE
8
Black
10
95.895
20
-46.99
11
95.895
21
-46.2
0
LINE
8
Black
10
95.895
20
-46.2
11
95.67
21
-46.2
0
LINE
8
Black
10
95.67
20
-46.2
11
95.67
21
-42.7
0
LINE
8
Black
10
95.67
20
-42.7
11
97.37
21
-42.7
0
LINE
8
Black
10
97.37
20
-42.7
11
97.37
21
-46.2
0
LINE
8
Black
10
79.59
20
-46.2
11
77.89
21
-46.2
0
LINE
8
Black
10
77.89
20
-46.2
11
77.89
21
-42.7
0
LINE
8
Black
10
77.89
20
-42.7
11
79.59
21
-42.7
0
LINE
8
Black
10
79.59
20
-42.7
11
79.59
21
-46.2
0
LINE
8
Black
10
71.97
20
-46.2
11
70.27
21
-46.2
0
LINE
8
Black
10
70.27
20
-46.2
11
70.27
21
-42.7
0
LINE
8
Black
10
70.27
20
-42.7
11
71.97
21
-42.7
0
LINE
8
Black
10
71.97
20
-42.7
11
71.97
21
-46.2
0
LINE
8
Black
10
77.05
20
-46.2
11
75.35
21
-46.2
0
LINE
8
Black
10
75.35
20
-46.2
11
75.35
21
-42.7
0
LINE
8
Black
10
75.35
20
-42.7
11
77.05
21
-42.7
0
LINE
8
Black
10
77.05
20
-42.7
11
77.05
21
-46.2
0
LINE
8
Black
10
99.91
20
-46.2
11
98.21
21
-46.2
0
LINE
8
Black
10
98.21
20
-46.2
11
98.21
21
-42.7
0
LINE
8
Black
10
98.21
20
-42.7
11
99.91
21
-42.7
0
LINE
8
Black
10
99.91
20
-42.7
11
99.91
21
-46.2
0
LINE
8
Black
10
102.45
20
-46.2
11
100.75
21
-46.2
0
LINE
8
Black
10
100.75
20
-46.2
11
100.75
21
-42.7
0
LINE
8
Black
10
100.75
20
-42.7
11
102.45
21
-42.7
0
LINE
8
Black
10
102.45
20
-42.7
11
102.45
21
-46.2
0
CIRCLE
8
Black
10
41.91
20
-80.21
40
0.25
0
CIRCLE
8
Black
10
46.91
20
-80.21
40
0.25
0
CIRCLE
8
Black
10
41.91
20
-92.71
40
0.25
0
CIRCLE
8
Black
10
46.91
20
-92.71
40
0.25
0
CIRCLE
8
Black
10
104.14
20
-44.45
40
0.25
0
CIRCLE
8
Black
10
101.6
20
-44.45
40
0.25
0
CIRCLE
8
Black
10
99.06
20
-44.45
40
0.25
0
CIRCLE
8
Black
10
96.52
20
-44.45
40
0.25
0
CIRCLE
8
Black
10
93.98
20
-44.45
40
0.25
0
CIRCLE
8
Black
10
91.44
20
-44.45
40
0.25
0
CIRCLE
8
Black
10
88.9
20
-44.45
40
0.25
0
CIRCLE
8
Black
10
86.36
20
-44.45
40
0.25
0
CIRCLE
8
Black
10
83.82
20
-44.45
40
0.25
0
CIRCLE
8
Black
10
81.28
20
-44.45
40
0.25
0
CIRCLE
8
Black
10
78.74
20
-44.45
40
0.25
0
CIRCLE
8
Black
10
76.2
20
-44.45
40
0.25
0
CIRCLE
8
Black
10
73.66
20
-44.45
40
0.25
0
CIRCLE
8
Black
10
71.12
20
-44.45
40
0.25
0
CIRCLE
8
Black
10
68.58
20
-44.45
40
0.25
0
CIRCLE
8
Black
10
66.04
20
-44.45
40
0.25
0
CIRCLE
8
Black
10
63.5
20
-44.45
40
0.25
0
CIRCLE
8
Black
10
60.96
20
-44.45
40
0.25
0
CIRCLE
8
Black
10
58.42
20
-44.45
40
0.25
0
CIRCLE
8
Black
10
55.88
20
-44.45
40
0.25
0
CIRCLE
8
Black
10
113.03
20
-64.77
40
0.25
0
CIRCLE
8
Black
10
115.57
20
-64.77
40
0.25
0
CIRCLE
8
Black
10
46.99
20
-64.77
40
0.25
0
CIRCLE
8
Black
10
44.45
20
-64.77
40
0.25
0
CIRCLE
8
Black
10
91.44
20
-64.77
40
0.25
0
CIRCLE
8
Black
10
88.9
20
-64.77
40
0.25
0
CIRCLE
8
Black
10
78.74
20
-64.77
40
0.25
0
CIRCLE
8
Black
10
81.28
20
-64.77
40
0.25
0
CIRCLE
8
Black
10
68.58
20
-64.77
40
0.25
0
CIRCLE
8
Black
10
71.12
20
-64.77
40
0.25
0
CIRCLE
8
Black
10
107.95
20
-82.55
40
0.25
0
CIRCLE
8
Black
10
107.95
20
-92.71
40
0.25
0
CIRCLE
8
Black
10
83.82
20
-82.55
40
0.25
0
CIRCLE
8
Black
10
83.82
20
-92.71
40
0.25
0
CIRCLE
8
Black
10
59.69
20
-82.55
40
0.25
0
CIRCLE
8
Black
10
59.69
20
-92.71
40
0.25
0
CIRCLE
8
Black
10
35.56
20
-82.55
40
0.25
0
CIRCLE
8
Black
10
35.56
20
-92.71
40
0.25
0
CIRCLE
8
Black
10
116.84
20
-58.42
40
0.25
0
CIRCLE
8
Black
10
106.68
20
-58.42
40
0.25
0
CIRCLE
8
Black
10
43.18
20
-58.42
40
0.25
0
CIRCLE
8
Black
10
53.34
20
-58.42
40
0.25
0
CIRCLE
8
Black
10
88.9
20
-58.42
40
0.25
0
CIRCLE
8
Black
10
99.06
20
-58.42
40
0.25
0
CIRCLE
8
Black
10
85.09
20
-58.42
40
0.25
0
CIRCLE
8
Black
10
74.93
20
-58.42
40
0.25
0
CIRCLE
8
Black
10
71.12
20
-58.42
40
0.25
0
CIRCLE
8
Black
10
60.96
20
-58.42
40
0.25
0
CIRCLE
8
Black
10
114.3
20
-80.21
40
0.25
0
CIRCLE
8
Black
10
119.3
20
-80.21
40
0.25
0
CIRCLE
8
Black
10
114.3
20
-92.71
40
0.25
0
CIRCLE
8
Black
10
119.3
20
-92.71
40
0.25
0
CIRCLE
8
Black
10
90.17
20
-80.21
40
0.25
0
CIRCLE
8
Black
10
95.17
20
-80.21
40
0.25
0
CIRCLE
8
Black
10
90.17
20
-92.71
40
0.25
0
CIRCLE
8
Black
10
95.17
20
-92.71
40
0.25
0
CIRCLE
8
Black
10
66.04
20
-80.21
40
0.25
0
CIRCLE
8
Black
10
71.04
20
-80.21
40
0.25
0
CIRCLE
8
Black
10
66.04
20
-92.71
40
0.25
0
CIRCLE
8
Black
10
71.04
20
-92.71
40
0.25
  0
ENDSEC
  0
EOF
