<?xml version="1.0" standalone="no"?>
 <!DOCTYPE svg PUBLIC "-//W3C//DTD SVG 1.1//EN" 
 "http://www.w3.org/Graphics/SVG/1.1/DTD/svg11.dtd"> 
<svg xmlns="http://www.w3.org/2000/svg" version="1.1" 
    width="10.4267cm" height="7.2517cm" viewBox="0 0 41050 28550 ">
<title>SVG Picture created as control_board-F.Cu.svg date 2018/01/21 20:31:13 </title>
  <desc>Picture generated by PCBNEW </desc>
<g style="fill:#000000; fill-opacity:1;stroke:#000000; stroke-opacity:1;
stroke-linecap:round; stroke-linejoin:round; "
 transform="translate(0 0) scale(1 1)">
</g>
<g style="fill:#000000; fill-opacity:0.0; 
stroke:#000000; stroke-width:-0.000393701; stroke-opacity:1; 
stroke-linecap:round; stroke-linejoin:round;">
</g>
<g style="fill:#000000; fill-opacity:0.0; 
stroke:#000000; stroke-width:59.0551; stroke-opacity:1; 
stroke-linecap:round; stroke-linejoin:round;">
<path d="M29 29
L41029 29
" />
<path d="M29 28529
L29 29
" />
<path d="M41029 28529
L29 28529
" />
<path d="M41029 29
L41029 28529
" />
</g>
<g style="fill:#000000; fill-opacity:0.0; 
stroke:#000000; stroke-width:0; stroke-opacity:1; 
stroke-linecap:round; stroke-linejoin:round;">
</g>
<g style="fill:#000000; fill-opacity:1.0; 
stroke:#000000; stroke-width:0; stroke-opacity:1; 
stroke-linecap:round; stroke-linejoin:round;">
<polyline style="fill-rule:evenodd;"
points="6021,20797
5037,20797
5037,19419
6021,19419
6021,20797
" /> 
<polyline style="fill-rule:evenodd;"
points="7990,20797
7005,20797
7005,19419
7990,19419
7990,20797
" /> 
<polyline style="fill-rule:evenodd;"
points="6021,25718
5037,25718
5037,24340
6021,24340
6021,25718
" /> 
<polyline style="fill-rule:evenodd;"
points="7990,25718
7005,25718
7005,24340
7990,24340
7990,25718
" /> 
<polyline style="fill-rule:evenodd;"
points="29694,5340
30364,5340
30364,6718
29694,6718
29694,5340
" /> 
<polyline style="fill-rule:evenodd;"
points="28694,5340
29364,5340
29364,6718
28694,6718
28694,5340
" /> 
<polyline style="fill-rule:evenodd;"
points="27694,5340
28364,5340
28364,6718
27694,6718
27694,5340
" /> 
<polyline style="fill-rule:evenodd;"
points="26694,5340
27364,5340
27364,6718
26694,6718
26694,5340
" /> 
<polyline style="fill-rule:evenodd;"
points="25694,5340
26364,5340
26364,6718
25694,6718
25694,5340
" /> 
<polyline style="fill-rule:evenodd;"
points="24694,5340
25364,5340
25364,6718
24694,6718
24694,5340
" /> 
<polyline style="fill-rule:evenodd;"
points="23694,5340
24364,5340
24364,6718
23694,6718
23694,5340
" /> 
<polyline style="fill-rule:evenodd;"
points="22694,5340
23364,5340
23364,6718
22694,6718
22694,5340
" /> 
<polyline style="fill-rule:evenodd;"
points="21694,5340
22364,5340
22364,6718
21694,6718
21694,5340
" /> 
<polyline style="fill-rule:evenodd;"
points="20694,5340
21364,5340
21364,6718
20694,6718
20694,5340
" /> 
<polyline style="fill-rule:evenodd;"
points="19694,5340
20364,5340
20364,6718
19694,6718
19694,5340
" /> 
<polyline style="fill-rule:evenodd;"
points="18694,5340
19364,5340
19364,6718
18694,6718
18694,5340
" /> 
<polyline style="fill-rule:evenodd;"
points="17694,5340
18364,5340
18364,6718
17694,6718
17694,5340
" /> 
<polyline style="fill-rule:evenodd;"
points="16694,5340
17364,5340
17364,6718
16694,6718
16694,5340
" /> 
<polyline style="fill-rule:evenodd;"
points="15694,5340
16364,5340
16364,6718
15694,6718
15694,5340
" /> 
<polyline style="fill-rule:evenodd;"
points="14694,5340
15364,5340
15364,6718
14694,6718
14694,5340
" /> 
<polyline style="fill-rule:evenodd;"
points="13694,5340
14364,5340
14364,6718
13694,6718
13694,5340
" /> 
<polyline style="fill-rule:evenodd;"
points="12694,5340
13364,5340
13364,6718
12694,6718
12694,5340
" /> 
<polyline style="fill-rule:evenodd;"
points="11694,5340
12364,5340
12364,6718
11694,6718
11694,5340
" /> 
<polyline style="fill-rule:evenodd;"
points="10694,5340
11364,5340
11364,6718
10694,6718
10694,5340
" /> 
</g>
<g style="fill:#000000; fill-opacity:1.0; 
stroke:#000000; stroke-width:708.661; stroke-opacity:1; 
stroke-linecap:round; stroke-linejoin:round;">
</g>
<g style="fill:#000000; fill-opacity:0.0; 
stroke:#000000; stroke-width:708.661; stroke-opacity:1; 
stroke-linecap:round; stroke-linejoin:round;">
<path d="M33529 13694
L33529 14364
" />
<path d="M34529 13694
L34529 14364
" />
<path d="M7529 14364
L7529 13694
" />
<path d="M6529 14364
L6529 13694
" />
<path d="M25029 14364
L25029 13694
" />
<path d="M24029 14364
L24029 13694
" />
<path d="M20029 13694
L20029 14364
" />
<path d="M21029 13694
L21029 14364
" />
<path d="M16029 13694
L16029 14364
" />
<path d="M17029 13694
L17029 14364
" />
</g>
<g style="fill:#000000; fill-opacity:1.0; 
stroke:#000000; stroke-width:0; stroke-opacity:1; 
stroke-linecap:round; stroke-linejoin:round;">
<circle cx="31529.5" cy="21029.5" r="492.126" /> 
</g>
<g style="fill:#000000; fill-opacity:1.0; 
stroke:#000000; stroke-width:19.685; stroke-opacity:1; 
stroke-linecap:round; stroke-linejoin:round;">
</g>
<g style="fill:#000000; fill-opacity:1.0; 
stroke:#000000; stroke-width:0; stroke-opacity:1; 
stroke-linecap:round; stroke-linejoin:round;">
<circle cx="31529.5" cy="25029.5" r="492.126" /> 
</g>
<g style="fill:#000000; fill-opacity:1.0; 
stroke:#000000; stroke-width:19.685; stroke-opacity:1; 
stroke-linecap:round; stroke-linejoin:round;">
</g>
<g style="fill:#000000; fill-opacity:1.0; 
stroke:#000000; stroke-width:0; stroke-opacity:1; 
stroke-linecap:round; stroke-linejoin:round;">
<circle cx="22029.5" cy="21029.5" r="492.126" /> 
</g>
<g style="fill:#000000; fill-opacity:1.0; 
stroke:#000000; stroke-width:19.685; stroke-opacity:1; 
stroke-linecap:round; stroke-linejoin:round;">
</g>
<g style="fill:#000000; fill-opacity:1.0; 
stroke:#000000; stroke-width:0; stroke-opacity:1; 
stroke-linecap:round; stroke-linejoin:round;">
<circle cx="22029.5" cy="25029.5" r="492.126" /> 
</g>
<g style="fill:#000000; fill-opacity:1.0; 
stroke:#000000; stroke-width:19.685; stroke-opacity:1; 
stroke-linecap:round; stroke-linejoin:round;">
</g>
<g style="fill:#000000; fill-opacity:1.0; 
stroke:#000000; stroke-width:0; stroke-opacity:1; 
stroke-linecap:round; stroke-linejoin:round;">
<circle cx="12529.5" cy="21029.5" r="492.126" /> 
</g>
<g style="fill:#000000; fill-opacity:1.0; 
stroke:#000000; stroke-width:19.685; stroke-opacity:1; 
stroke-linecap:round; stroke-linejoin:round;">
</g>
<g style="fill:#000000; fill-opacity:1.0; 
stroke:#000000; stroke-width:0; stroke-opacity:1; 
stroke-linecap:round; stroke-linejoin:round;">
<circle cx="12529.5" cy="25029.5" r="492.126" /> 
</g>
<g style="fill:#000000; fill-opacity:1.0; 
stroke:#000000; stroke-width:19.685; stroke-opacity:1; 
stroke-linecap:round; stroke-linejoin:round;">
</g>
<g style="fill:#000000; fill-opacity:1.0; 
stroke:#000000; stroke-width:0; stroke-opacity:1; 
stroke-linecap:round; stroke-linejoin:round;">
<circle cx="3029.53" cy="21029.5" r="492.126" /> 
</g>
<g style="fill:#000000; fill-opacity:1.0; 
stroke:#000000; stroke-width:19.685; stroke-opacity:1; 
stroke-linecap:round; stroke-linejoin:round;">
</g>
<g style="fill:#000000; fill-opacity:1.0; 
stroke:#000000; stroke-width:0; stroke-opacity:1; 
stroke-linecap:round; stroke-linejoin:round;">
<circle cx="3029.53" cy="25029.5" r="492.126" /> 
</g>
<g style="fill:#000000; fill-opacity:1.0; 
stroke:#000000; stroke-width:19.685; stroke-opacity:1; 
stroke-linecap:round; stroke-linejoin:round;">
</g>
<g style="fill:#000000; fill-opacity:1.0; 
stroke:#000000; stroke-width:0; stroke-opacity:1; 
stroke-linecap:round; stroke-linejoin:round;">
<circle cx="35029.5" cy="11529.5" r="492.126" /> 
</g>
<g style="fill:#000000; fill-opacity:1.0; 
stroke:#000000; stroke-width:19.685; stroke-opacity:1; 
stroke-linecap:round; stroke-linejoin:round;">
</g>
<g style="fill:#000000; fill-opacity:1.0; 
stroke:#000000; stroke-width:0; stroke-opacity:1; 
stroke-linecap:round; stroke-linejoin:round;">
<circle cx="31029.5" cy="11529.5" r="492.126" /> 
</g>
<g style="fill:#000000; fill-opacity:1.0; 
stroke:#000000; stroke-width:19.685; stroke-opacity:1; 
stroke-linecap:round; stroke-linejoin:round;">
</g>
<g style="fill:#000000; fill-opacity:1.0; 
stroke:#000000; stroke-width:0; stroke-opacity:1; 
stroke-linecap:round; stroke-linejoin:round;">
<circle cx="6029.53" cy="11529.5" r="492.126" /> 
</g>
<g style="fill:#000000; fill-opacity:1.0; 
stroke:#000000; stroke-width:19.685; stroke-opacity:1; 
stroke-linecap:round; stroke-linejoin:round;">
</g>
<g style="fill:#000000; fill-opacity:1.0; 
stroke:#000000; stroke-width:0; stroke-opacity:1; 
stroke-linecap:round; stroke-linejoin:round;">
<circle cx="10029.5" cy="11529.5" r="492.126" /> 
</g>
<g style="fill:#000000; fill-opacity:1.0; 
stroke:#000000; stroke-width:19.685; stroke-opacity:1; 
stroke-linecap:round; stroke-linejoin:round;">
</g>
<g style="fill:#000000; fill-opacity:1.0; 
stroke:#000000; stroke-width:0; stroke-opacity:1; 
stroke-linecap:round; stroke-linejoin:round;">
<circle cx="24029.5" cy="11529.5" r="492.126" /> 
</g>
<g style="fill:#000000; fill-opacity:1.0; 
stroke:#000000; stroke-width:19.685; stroke-opacity:1; 
stroke-linecap:round; stroke-linejoin:round;">
</g>
<g style="fill:#000000; fill-opacity:1.0; 
stroke:#000000; stroke-width:0; stroke-opacity:1; 
stroke-linecap:round; stroke-linejoin:round;">
<circle cx="28029.5" cy="11529.5" r="492.126" /> 
</g>
<g style="fill:#000000; fill-opacity:1.0; 
stroke:#000000; stroke-width:19.685; stroke-opacity:1; 
stroke-linecap:round; stroke-linejoin:round;">
</g>
<g style="fill:#000000; fill-opacity:1.0; 
stroke:#000000; stroke-width:0; stroke-opacity:1; 
stroke-linecap:round; stroke-linejoin:round;">
<circle cx="22529.5" cy="11529.5" r="492.126" /> 
</g>
<g style="fill:#000000; fill-opacity:1.0; 
stroke:#000000; stroke-width:19.685; stroke-opacity:1; 
stroke-linecap:round; stroke-linejoin:round;">
</g>
<g style="fill:#000000; fill-opacity:1.0; 
stroke:#000000; stroke-width:0; stroke-opacity:1; 
stroke-linecap:round; stroke-linejoin:round;">
<circle cx="18529.5" cy="11529.5" r="492.126" /> 
</g>
<g style="fill:#000000; fill-opacity:1.0; 
stroke:#000000; stroke-width:19.685; stroke-opacity:1; 
stroke-linecap:round; stroke-linejoin:round;">
</g>
<g style="fill:#000000; fill-opacity:1.0; 
stroke:#000000; stroke-width:0; stroke-opacity:1; 
stroke-linecap:round; stroke-linejoin:round;">
<circle cx="17029.5" cy="11529.5" r="492.126" /> 
</g>
<g style="fill:#000000; fill-opacity:1.0; 
stroke:#000000; stroke-width:19.685; stroke-opacity:1; 
stroke-linecap:round; stroke-linejoin:round;">
</g>
<g style="fill:#000000; fill-opacity:1.0; 
stroke:#000000; stroke-width:0; stroke-opacity:1; 
stroke-linecap:round; stroke-linejoin:round;">
<circle cx="13029.5" cy="11529.5" r="492.126" /> 
</g>
<g style="fill:#000000; fill-opacity:1.0; 
stroke:#000000; stroke-width:19.685; stroke-opacity:1; 
stroke-linecap:round; stroke-linejoin:round;">
</g>
<g style="fill:#000000; fill-opacity:1.0; 
stroke:#000000; stroke-width:0; stroke-opacity:1; 
stroke-linecap:round; stroke-linejoin:round;">
<polyline style="fill-rule:evenodd;"
points="34521,20797
33537,20797
33537,19419
34521,19419
34521,20797
" /> 
<polyline style="fill-rule:evenodd;"
points="36490,20797
35505,20797
35505,19419
36490,19419
36490,20797
" /> 
<polyline style="fill-rule:evenodd;"
points="34521,25718
33537,25718
33537,24340
34521,24340
34521,25718
" /> 
<polyline style="fill-rule:evenodd;"
points="36490,25718
35505,25718
35505,24340
36490,24340
36490,25718
" /> 
<polyline style="fill-rule:evenodd;"
points="25021,20797
24037,20797
24037,19419
25021,19419
25021,20797
" /> 
<polyline style="fill-rule:evenodd;"
points="26990,20797
26005,20797
26005,19419
26990,19419
26990,20797
" /> 
<polyline style="fill-rule:evenodd;"
points="25021,25718
24037,25718
24037,24340
25021,24340
25021,25718
" /> 
<polyline style="fill-rule:evenodd;"
points="26990,25718
26005,25718
26005,24340
26990,24340
26990,25718
" /> 
<polyline style="fill-rule:evenodd;"
points="15521,20797
14537,20797
14537,19419
15521,19419
15521,20797
" /> 
<polyline style="fill-rule:evenodd;"
points="17490,20797
16505,20797
16505,19419
17490,19419
17490,20797
" /> 
<polyline style="fill-rule:evenodd;"
points="15521,25718
14537,25718
14537,24340
15521,24340
15521,25718
" /> 
<polyline style="fill-rule:evenodd;"
points="17490,25718
16505,25718
16505,24340
17490,24340
17490,25718
" /> 
</g>
<g style="fill:#000000; fill-opacity:1.0; 
stroke:#000000; stroke-width:492.126; stroke-opacity:1; 
stroke-linecap:round; stroke-linejoin:round;">
</g>
<g style="fill:#000000; fill-opacity:0.0; 
stroke:#000000; stroke-width:492.126; stroke-opacity:1; 
stroke-linecap:round; stroke-linejoin:round;">
<path d="M33029 16029
L33529 15529
" />
<path d="M10529 5529
L11029 5529
" />
<path d="M11029 5529
L11029 6029
" />
<path d="M11529 15529
L12029 16029
" />
<path d="M11029 16029
L11529 15529
" />
<path d="M15529 22529
L19029 22529
" />
<path d="M25529 22529
L28029 22529
" />
<path d="M29529 22029
L30029 22529
" />
<path d="M29029 22529
L29529 22029
" />
<path d="M30029 16029
L29529 15529
" />
<path d="M29529 16529
L30029 16029
" />
<path d="M29029 16029
L29529 16529
" />
<path d="M29529 15529
L29029 16029
" />
<path d="M11029 6029
L10529 5529
" />
<path d="M7529 6029
L7529 14029
" />
<path d="M8029 5529
L7529 6029
" />
<path d="M10529 5529
L8029 5529
" />
<path d="M18029 6029
L18029 7029
" />
<path d="M18029 7029
L16529 8529
" />
<path d="M16529 8529
L12029 8529
" />
<path d="M12029 8529
L11529 9029
" />
<path d="M11529 9029
L11529 15529
" />
<path d="M11529 15529
L11529 16029
" />
<path d="M29529 22529
L29529 22029
" />
<path d="M29529 22029
L29529 16529
" />
<path d="M29529 16529
L29529 16029
" />
<path d="M14529 16029
L29029 16029
" />
<path d="M29029 16029
L29529 16029
" />
<path d="M26498 21529
L26529 21529
" />
<path d="M27529 22529
L28029 22529
" />
<path d="M26529 21529
L27529 22529
" />
<path d="M28029 22529
L29029 22529
" />
<path d="M29029 22529
L29529 22529
" />
<path d="M29529 22529
L30029 22529
" />
<path d="M30029 22529
L35029 22529
" />
<path d="M35029 22529
L35998 21561
" />
<path d="M35998 21561
L35998 20108
" />
<path d="M16998 21529
L17029 21529
" />
<path d="M17029 21529
L18029 22529
" />
<path d="M18029 22529
L19029 22529
" />
<path d="M26498 21561
L26498 21529
" />
<path d="M26498 21529
L26498 20108
" />
<path d="M25529 22529
L26498 21561
" />
<path d="M19029 22529
L25529 22529
" />
<path d="M7498 20108
L7498 21498
" />
<path d="M16998 21561
L16998 21529
" />
<path d="M16998 21529
L16998 20108
" />
<path d="M16029 22529
L16998 21561
" />
<path d="M8529 22529
L15529 22529
" />
<path d="M15529 22529
L16029 22529
" />
<path d="M7498 21498
L8529 22529
" />
<path d="M26029 6029
L26029 8029
" />
<path d="M26029 8029
L26529 8529
" />
<path d="M26529 8529
L29029 8529
" />
<path d="M29029 8529
L29529 9029
" />
<path d="M29529 9029
L29529 13529
" />
<path d="M29529 13529
L29529 15529
" />
<path d="M29529 15529
L29529 16029
" />
<path d="M25029 15529
L25529 16029
" />
<path d="M25529 16029
L29529 16029
" />
<path d="M33529 15529
L33529 14029
" />
<path d="M30029 16029
L32529 16029
" />
<path d="M32529 16029
L33029 16029
" />
<path d="M29529 16029
L30029 16029
" />
<path d="M20029 15529
L20529 16029
" />
<path d="M25029 15529
L25029 14029
" />
<path d="M24529 16029
L25029 15529
" />
<path d="M20529 16029
L24529 16029
" />
<path d="M20029 15529
L20029 14029
" />
<path d="M19529 16029
L20029 15529
" />
<path d="M16529 16029
L19529 16029
" />
<path d="M16029 15529
L16529 16029
" />
<path d="M7529 14029
L7529 15529
" />
<path d="M16029 15529
L16029 14029
" />
<path d="M15529 16029
L16029 15529
" />
<path d="M8029 16029
L11029 16029
" />
<path d="M11029 16029
L11529 16029
" />
<path d="M11529 16029
L12029 16029
" />
<path d="M12029 16029
L14529 16029
" />
<path d="M14529 16029
L15529 16029
" />
<path d="M7529 15529
L8029 16029
" />
<path d="M3029 19529
L3029 18529
" />
<path d="M3029 18529
L2529 18029
" />
<path d="M2529 18029
L2529 4029
" />
<path d="M2529 4029
L4029 2529
" />
<path d="M4029 2529
L12529 2529
" />
<path d="M12529 2529
L14029 4029
" />
<path d="M14029 4029
L14029 6029
" />
<path d="M3529 19029
L3029 18529
" />
<path d="M3029 21029
L3029 19529
" />
<path d="M5529 19029
L5529 20108
" />
<path d="M3529 19029
L5529 19029
" />
<path d="M3029 19529
L3529 19029
" />
<path d="M28029 11529
L28029 10029
" />
<path d="M25029 9029
L25029 6029
" />
<path d="M25529 9529
L25029 9029
" />
<path d="M27529 9529
L25529 9529
" />
<path d="M28029 10029
L27529 9529
" />
<path d="M18529 11529
L18529 10029
" />
<path d="M24029 9029
L24029 6029
" />
<path d="M23529 9529
L24029 9029
" />
<path d="M19029 9529
L23529 9529
" />
<path d="M18529 10029
L19029 9529
" />
<path d="M13029 11529
L13029 10029
" />
<path d="M23029 8029
L23029 6029
" />
<path d="M22529 8529
L23029 8029
" />
<path d="M18529 8529
L22529 8529
" />
<path d="M17529 9529
L18529 8529
" />
<path d="M13529 9529
L17529 9529
" />
<path d="M13029 10029
L13529 9529
" />
<path d="M16029 7029
L16029 6029
" />
<path d="M10029 8029
L10529 7529
" />
<path d="M10529 7529
L15529 7529
" />
<path d="M15529 7529
L16029 7029
" />
<path d="M16029 7029
L16029 6529
" />
<path d="M10029 8029
L10029 11529
" />
<path d="M12529 19529
L12529 18529
" />
<path d="M12029 18029
L4529 18029
" />
<path d="M4529 18029
L3529 17029
" />
<path d="M3529 17029
L3529 4529
" />
<path d="M3529 4529
L4529 3529
" />
<path d="M4529 3529
L12029 3529
" />
<path d="M12029 3529
L13029 4529
" />
<path d="M13029 4529
L13029 6029
" />
<path d="M12529 18529
L12029 18029
" />
<path d="M13029 19029
L12529 18529
" />
<path d="M12529 21029
L12529 20029
" />
<path d="M12529 20029
L12529 19529
" />
<path d="M15029 19029
L15029 20108
" />
<path d="M13029 19029
L15029 19029
" />
<path d="M12529 19529
L13029 19029
" />
<path d="M22029 19529
L22029 18529
" />
<path d="M12029 5029
L12029 6029
" />
<path d="M22029 18529
L20529 17029
" />
<path d="M20529 17029
L5029 17029
" />
<path d="M5029 17029
L4529 16529
" />
<path d="M4529 16529
L4529 5029
" />
<path d="M4529 5029
L5029 4529
" />
<path d="M5029 4529
L11529 4529
" />
<path d="M11529 4529
L12029 5029
" />
<path d="M22529 19029
L22029 18529
" />
<path d="M22029 21029
L22029 19529
" />
<path d="M24529 19029
L24529 20108
" />
<path d="M22529 19029
L24529 19029
" />
<path d="M22029 19529
L22529 19029
" />
<path d="M34529 14029
L35029 13529
" />
<path d="M35029 13529
L35029 11529
" />
<path d="M6029 11529
L6029 13529
" />
<path d="M6029 13529
L6529 14029
" />
<path d="M24029 14029
L24029 11529
" />
<path d="M21029 14029
L21029 12529
" />
<path d="M22029 11529
L22529 11529
" />
<path d="M21029 12529
L22029 11529
" />
<path d="M17029 11529
L17029 14029
" />
<path d="M27029 6029
L27029 7029
" />
<path d="M31029 8029
L31029 11529
" />
<path d="M30529 7529
L31029 8029
" />
<path d="M27529 7529
L30529 7529
" />
<path d="M27029 7029
L27529 7529
" />
<path d="M15029 6029
L15029 3529
" />
<path d="M34529 18529
L38029 18529
" />
<path d="M38029 18529
L38529 19029
" />
<path d="M38529 19029
L38529 23029
" />
<path d="M38529 23029
L38029 23529
" />
<path d="M38029 23529
L2029 23529
" />
<path d="M2029 23529
L1529 23029
" />
<path d="M1529 23029
L1529 3529
" />
<path d="M1529 3529
L3529 1529
" />
<path d="M3529 1529
L13029 1529
" />
<path d="M13029 1529
L15029 3529
" />
<path d="M34529 18529
L34029 19029
" />
<path d="M31529 21029
L31529 19529
" />
<path d="M34029 19029
L34029 20108
" />
<path d="M32029 19029
L34029 19029
" />
<path d="M31529 19529
L32029 19029
" />
<path d="M21779 5279
L21279 5279
" />
<path d="M21029 5529
L21279 5279
" />
<path d="M21279 5279
L21529 5029
" />
<path d="M21529 5029
L21779 5279
" />
<path d="M21779 5279
L22029 5529
" />
<path d="M22029 5529
L22029 6029
" />
<path d="M21029 6029
L21029 5529
" />
<path d="M21529 5029
L21529 3529
" />
<path d="M21529 3529
L23529 1529
" />
<path d="M23529 1529
L29529 1529
" />
<path d="M12529 26029
L13529 27029
" />
<path d="M12529 26029
L11529 27029
" />
<path d="M20529 27029
L23529 27029
" />
<path d="M32529 27029
L30029 27029
" />
<path d="M11529 27029
L13529 27029
" />
<path d="M13529 27029
L20529 27029
" />
<path d="M30529 1529
L30029 1529
" />
<path d="M30029 1529
L29529 1529
" />
<path d="M30029 2029
L29529 1529
" />
<path d="M30029 2029
L30029 2529
" />
<path d="M30529 1529
L30029 2029
" />
<path d="M30029 2529
L30029 6029
" />
<path d="M37529 1529
L30529 1529
" />
<path d="M37529 27029
L38529 26029
" />
<path d="M32529 27029
L37529 27029
" />
<path d="M31529 26029
L32529 27029
" />
<path d="M38529 26029
L39529 25029
" />
<path d="M39529 25029
L39529 3529
" />
<path d="M39529 3529
L37529 1529
" />
<path d="M22029 26029
L22029 25029
" />
<path d="M31529 26029
L31529 25029
" />
<path d="M30529 27029
L31529 26029
" />
<path d="M30029 27029
L30529 27029
" />
<path d="M23029 27029
L23529 27029
" />
<path d="M22029 26029
L23029 27029
" />
<path d="M23529 27029
L30029 27029
" />
<path d="M12529 26029
L12529 25029
" />
<path d="M21029 27029
L22029 26029
" />
<path d="M20529 27029
L21029 27029
" />
<path d="M12529 26029
L12529 25029
" />
<path d="M4029 27029
L11529 27029
" />
<path d="M3029 25029
L3029 26029
" />
<path d="M3029 26029
L4029 27029
" />
</g>
<g style="fill:#FFFFFF; fill-opacity:0.0; 
stroke:#FFFFFF; stroke-width:492.126; stroke-opacity:1; 
stroke-linecap:round; stroke-linejoin:round;">
</g>
<g style="fill:#FFFFFF; fill-opacity:1.0; 
stroke:#FFFFFF; stroke-width:0; stroke-opacity:1; 
stroke-linecap:round; stroke-linejoin:round;">
<circle cx="5529.53" cy="20108.3" r="98.4252" /> 
</g>
<g style="fill:#FFFFFF; fill-opacity:1.0; 
stroke:#FFFFFF; stroke-width:19.685; stroke-opacity:1; 
stroke-linecap:round; stroke-linejoin:round;">
</g>
<g style="fill:#FFFFFF; fill-opacity:1.0; 
stroke:#FFFFFF; stroke-width:0; stroke-opacity:1; 
stroke-linecap:round; stroke-linejoin:round;">
<circle cx="7498.03" cy="20108.3" r="98.4252" /> 
</g>
<g style="fill:#FFFFFF; fill-opacity:1.0; 
stroke:#FFFFFF; stroke-width:19.685; stroke-opacity:1; 
stroke-linecap:round; stroke-linejoin:round;">
</g>
<g style="fill:#FFFFFF; fill-opacity:1.0; 
stroke:#FFFFFF; stroke-width:0; stroke-opacity:1; 
stroke-linecap:round; stroke-linejoin:round;">
<circle cx="5529.53" cy="25029.5" r="98.4252" /> 
</g>
<g style="fill:#FFFFFF; fill-opacity:1.0; 
stroke:#FFFFFF; stroke-width:19.685; stroke-opacity:1; 
stroke-linecap:round; stroke-linejoin:round;">
</g>
<g style="fill:#FFFFFF; fill-opacity:1.0; 
stroke:#FFFFFF; stroke-width:0; stroke-opacity:1; 
stroke-linecap:round; stroke-linejoin:round;">
<circle cx="7498.03" cy="25029.5" r="98.4252" /> 
</g>
<g style="fill:#FFFFFF; fill-opacity:1.0; 
stroke:#FFFFFF; stroke-width:19.685; stroke-opacity:1; 
stroke-linecap:round; stroke-linejoin:round;">
</g>
<g style="fill:#FFFFFF; fill-opacity:1.0; 
stroke:#FFFFFF; stroke-width:0; stroke-opacity:1; 
stroke-linecap:round; stroke-linejoin:round;">
<circle cx="30029.5" cy="6029.53" r="98.4252" /> 
</g>
<g style="fill:#FFFFFF; fill-opacity:1.0; 
stroke:#FFFFFF; stroke-width:19.685; stroke-opacity:1; 
stroke-linecap:round; stroke-linejoin:round;">
</g>
<g style="fill:#FFFFFF; fill-opacity:1.0; 
stroke:#FFFFFF; stroke-width:0; stroke-opacity:1; 
stroke-linecap:round; stroke-linejoin:round;">
<circle cx="29029.5" cy="6029.53" r="98.4252" /> 
</g>
<g style="fill:#FFFFFF; fill-opacity:1.0; 
stroke:#FFFFFF; stroke-width:19.685; stroke-opacity:1; 
stroke-linecap:round; stroke-linejoin:round;">
</g>
<g style="fill:#FFFFFF; fill-opacity:1.0; 
stroke:#FFFFFF; stroke-width:0; stroke-opacity:1; 
stroke-linecap:round; stroke-linejoin:round;">
<circle cx="28029.5" cy="6029.53" r="98.4252" /> 
</g>
<g style="fill:#FFFFFF; fill-opacity:1.0; 
stroke:#FFFFFF; stroke-width:19.685; stroke-opacity:1; 
stroke-linecap:round; stroke-linejoin:round;">
</g>
<g style="fill:#FFFFFF; fill-opacity:1.0; 
stroke:#FFFFFF; stroke-width:0; stroke-opacity:1; 
stroke-linecap:round; stroke-linejoin:round;">
<circle cx="27029.5" cy="6029.53" r="98.4252" /> 
</g>
<g style="fill:#FFFFFF; fill-opacity:1.0; 
stroke:#FFFFFF; stroke-width:19.685; stroke-opacity:1; 
stroke-linecap:round; stroke-linejoin:round;">
</g>
<g style="fill:#FFFFFF; fill-opacity:1.0; 
stroke:#FFFFFF; stroke-width:0; stroke-opacity:1; 
stroke-linecap:round; stroke-linejoin:round;">
<circle cx="26029.5" cy="6029.53" r="98.4252" /> 
</g>
<g style="fill:#FFFFFF; fill-opacity:1.0; 
stroke:#FFFFFF; stroke-width:19.685; stroke-opacity:1; 
stroke-linecap:round; stroke-linejoin:round;">
</g>
<g style="fill:#FFFFFF; fill-opacity:1.0; 
stroke:#FFFFFF; stroke-width:0; stroke-opacity:1; 
stroke-linecap:round; stroke-linejoin:round;">
<circle cx="25029.5" cy="6029.53" r="98.4252" /> 
</g>
<g style="fill:#FFFFFF; fill-opacity:1.0; 
stroke:#FFFFFF; stroke-width:19.685; stroke-opacity:1; 
stroke-linecap:round; stroke-linejoin:round;">
</g>
<g style="fill:#FFFFFF; fill-opacity:1.0; 
stroke:#FFFFFF; stroke-width:0; stroke-opacity:1; 
stroke-linecap:round; stroke-linejoin:round;">
<circle cx="24029.5" cy="6029.53" r="98.4252" /> 
</g>
<g style="fill:#FFFFFF; fill-opacity:1.0; 
stroke:#FFFFFF; stroke-width:19.685; stroke-opacity:1; 
stroke-linecap:round; stroke-linejoin:round;">
</g>
<g style="fill:#FFFFFF; fill-opacity:1.0; 
stroke:#FFFFFF; stroke-width:0; stroke-opacity:1; 
stroke-linecap:round; stroke-linejoin:round;">
<circle cx="23029.5" cy="6029.53" r="98.4252" /> 
</g>
<g style="fill:#FFFFFF; fill-opacity:1.0; 
stroke:#FFFFFF; stroke-width:19.685; stroke-opacity:1; 
stroke-linecap:round; stroke-linejoin:round;">
</g>
<g style="fill:#FFFFFF; fill-opacity:1.0; 
stroke:#FFFFFF; stroke-width:0; stroke-opacity:1; 
stroke-linecap:round; stroke-linejoin:round;">
<circle cx="22029.5" cy="6029.53" r="98.4252" /> 
</g>
<g style="fill:#FFFFFF; fill-opacity:1.0; 
stroke:#FFFFFF; stroke-width:19.685; stroke-opacity:1; 
stroke-linecap:round; stroke-linejoin:round;">
</g>
<g style="fill:#FFFFFF; fill-opacity:1.0; 
stroke:#FFFFFF; stroke-width:0; stroke-opacity:1; 
stroke-linecap:round; stroke-linejoin:round;">
<circle cx="21029.5" cy="6029.53" r="98.4252" /> 
</g>
<g style="fill:#FFFFFF; fill-opacity:1.0; 
stroke:#FFFFFF; stroke-width:19.685; stroke-opacity:1; 
stroke-linecap:round; stroke-linejoin:round;">
</g>
<g style="fill:#FFFFFF; fill-opacity:1.0; 
stroke:#FFFFFF; stroke-width:0; stroke-opacity:1; 
stroke-linecap:round; stroke-linejoin:round;">
<circle cx="20029.5" cy="6029.53" r="98.4252" /> 
</g>
<g style="fill:#FFFFFF; fill-opacity:1.0; 
stroke:#FFFFFF; stroke-width:19.685; stroke-opacity:1; 
stroke-linecap:round; stroke-linejoin:round;">
</g>
<g style="fill:#FFFFFF; fill-opacity:1.0; 
stroke:#FFFFFF; stroke-width:0; stroke-opacity:1; 
stroke-linecap:round; stroke-linejoin:round;">
<circle cx="19029.5" cy="6029.53" r="98.4252" /> 
</g>
<g style="fill:#FFFFFF; fill-opacity:1.0; 
stroke:#FFFFFF; stroke-width:19.685; stroke-opacity:1; 
stroke-linecap:round; stroke-linejoin:round;">
</g>
<g style="fill:#FFFFFF; fill-opacity:1.0; 
stroke:#FFFFFF; stroke-width:0; stroke-opacity:1; 
stroke-linecap:round; stroke-linejoin:round;">
<circle cx="18029.5" cy="6029.53" r="98.4252" /> 
</g>
<g style="fill:#FFFFFF; fill-opacity:1.0; 
stroke:#FFFFFF; stroke-width:19.685; stroke-opacity:1; 
stroke-linecap:round; stroke-linejoin:round;">
</g>
<g style="fill:#FFFFFF; fill-opacity:1.0; 
stroke:#FFFFFF; stroke-width:0; stroke-opacity:1; 
stroke-linecap:round; stroke-linejoin:round;">
<circle cx="17029.5" cy="6029.53" r="98.4252" /> 
</g>
<g style="fill:#FFFFFF; fill-opacity:1.0; 
stroke:#FFFFFF; stroke-width:19.685; stroke-opacity:1; 
stroke-linecap:round; stroke-linejoin:round;">
</g>
<g style="fill:#FFFFFF; fill-opacity:1.0; 
stroke:#FFFFFF; stroke-width:0; stroke-opacity:1; 
stroke-linecap:round; stroke-linejoin:round;">
<circle cx="16029.5" cy="6029.53" r="98.4252" /> 
</g>
<g style="fill:#FFFFFF; fill-opacity:1.0; 
stroke:#FFFFFF; stroke-width:19.685; stroke-opacity:1; 
stroke-linecap:round; stroke-linejoin:round;">
</g>
<g style="fill:#FFFFFF; fill-opacity:1.0; 
stroke:#FFFFFF; stroke-width:0; stroke-opacity:1; 
stroke-linecap:round; stroke-linejoin:round;">
<circle cx="15029.5" cy="6029.53" r="98.4252" /> 
</g>
<g style="fill:#FFFFFF; fill-opacity:1.0; 
stroke:#FFFFFF; stroke-width:19.685; stroke-opacity:1; 
stroke-linecap:round; stroke-linejoin:round;">
</g>
<g style="fill:#FFFFFF; fill-opacity:1.0; 
stroke:#FFFFFF; stroke-width:0; stroke-opacity:1; 
stroke-linecap:round; stroke-linejoin:round;">
<circle cx="14029.5" cy="6029.53" r="98.4252" /> 
</g>
<g style="fill:#FFFFFF; fill-opacity:1.0; 
stroke:#FFFFFF; stroke-width:19.685; stroke-opacity:1; 
stroke-linecap:round; stroke-linejoin:round;">
</g>
<g style="fill:#FFFFFF; fill-opacity:1.0; 
stroke:#FFFFFF; stroke-width:0; stroke-opacity:1; 
stroke-linecap:round; stroke-linejoin:round;">
<circle cx="13029.5" cy="6029.53" r="98.4252" /> 
</g>
<g style="fill:#FFFFFF; fill-opacity:1.0; 
stroke:#FFFFFF; stroke-width:19.685; stroke-opacity:1; 
stroke-linecap:round; stroke-linejoin:round;">
</g>
<g style="fill:#FFFFFF; fill-opacity:1.0; 
stroke:#FFFFFF; stroke-width:0; stroke-opacity:1; 
stroke-linecap:round; stroke-linejoin:round;">
<circle cx="12029.5" cy="6029.53" r="98.4252" /> 
</g>
<g style="fill:#FFFFFF; fill-opacity:1.0; 
stroke:#FFFFFF; stroke-width:19.685; stroke-opacity:1; 
stroke-linecap:round; stroke-linejoin:round;">
</g>
<g style="fill:#FFFFFF; fill-opacity:1.0; 
stroke:#FFFFFF; stroke-width:0; stroke-opacity:1; 
stroke-linecap:round; stroke-linejoin:round;">
<circle cx="11029.5" cy="6029.53" r="98.4252" /> 
</g>
<g style="fill:#FFFFFF; fill-opacity:1.0; 
stroke:#FFFFFF; stroke-width:19.685; stroke-opacity:1; 
stroke-linecap:round; stroke-linejoin:round;">
</g>
<g style="fill:#FFFFFF; fill-opacity:1.0; 
stroke:#FFFFFF; stroke-width:0; stroke-opacity:1; 
stroke-linecap:round; stroke-linejoin:round;">
<circle cx="33529.5" cy="14029.5" r="98.4252" /> 
</g>
<g style="fill:#FFFFFF; fill-opacity:1.0; 
stroke:#FFFFFF; stroke-width:19.685; stroke-opacity:1; 
stroke-linecap:round; stroke-linejoin:round;">
</g>
<g style="fill:#FFFFFF; fill-opacity:1.0; 
stroke:#FFFFFF; stroke-width:0; stroke-opacity:1; 
stroke-linecap:round; stroke-linejoin:round;">
<circle cx="34529.5" cy="14029.5" r="98.4252" /> 
</g>
<g style="fill:#FFFFFF; fill-opacity:1.0; 
stroke:#FFFFFF; stroke-width:19.685; stroke-opacity:1; 
stroke-linecap:round; stroke-linejoin:round;">
</g>
<g style="fill:#FFFFFF; fill-opacity:1.0; 
stroke:#FFFFFF; stroke-width:0; stroke-opacity:1; 
stroke-linecap:round; stroke-linejoin:round;">
<circle cx="7529.53" cy="14029.5" r="98.4252" /> 
</g>
<g style="fill:#FFFFFF; fill-opacity:1.0; 
stroke:#FFFFFF; stroke-width:19.685; stroke-opacity:1; 
stroke-linecap:round; stroke-linejoin:round;">
</g>
<g style="fill:#FFFFFF; fill-opacity:1.0; 
stroke:#FFFFFF; stroke-width:0; stroke-opacity:1; 
stroke-linecap:round; stroke-linejoin:round;">
<circle cx="6529.53" cy="14029.5" r="98.4252" /> 
</g>
<g style="fill:#FFFFFF; fill-opacity:1.0; 
stroke:#FFFFFF; stroke-width:19.685; stroke-opacity:1; 
stroke-linecap:round; stroke-linejoin:round;">
</g>
<g style="fill:#FFFFFF; fill-opacity:1.0; 
stroke:#FFFFFF; stroke-width:0; stroke-opacity:1; 
stroke-linecap:round; stroke-linejoin:round;">
<circle cx="25029.5" cy="14029.5" r="98.4252" /> 
</g>
<g style="fill:#FFFFFF; fill-opacity:1.0; 
stroke:#FFFFFF; stroke-width:19.685; stroke-opacity:1; 
stroke-linecap:round; stroke-linejoin:round;">
</g>
<g style="fill:#FFFFFF; fill-opacity:1.0; 
stroke:#FFFFFF; stroke-width:0; stroke-opacity:1; 
stroke-linecap:round; stroke-linejoin:round;">
<circle cx="24029.5" cy="14029.5" r="98.4252" /> 
</g>
<g style="fill:#FFFFFF; fill-opacity:1.0; 
stroke:#FFFFFF; stroke-width:19.685; stroke-opacity:1; 
stroke-linecap:round; stroke-linejoin:round;">
</g>
<g style="fill:#FFFFFF; fill-opacity:1.0; 
stroke:#FFFFFF; stroke-width:0; stroke-opacity:1; 
stroke-linecap:round; stroke-linejoin:round;">
<circle cx="20029.5" cy="14029.5" r="98.4252" /> 
</g>
<g style="fill:#FFFFFF; fill-opacity:1.0; 
stroke:#FFFFFF; stroke-width:19.685; stroke-opacity:1; 
stroke-linecap:round; stroke-linejoin:round;">
</g>
<g style="fill:#FFFFFF; fill-opacity:1.0; 
stroke:#FFFFFF; stroke-width:0; stroke-opacity:1; 
stroke-linecap:round; stroke-linejoin:round;">
<circle cx="21029.5" cy="14029.5" r="98.4252" /> 
</g>
<g style="fill:#FFFFFF; fill-opacity:1.0; 
stroke:#FFFFFF; stroke-width:19.685; stroke-opacity:1; 
stroke-linecap:round; stroke-linejoin:round;">
</g>
<g style="fill:#FFFFFF; fill-opacity:1.0; 
stroke:#FFFFFF; stroke-width:0; stroke-opacity:1; 
stroke-linecap:round; stroke-linejoin:round;">
<circle cx="16029.5" cy="14029.5" r="98.4252" /> 
</g>
<g style="fill:#FFFFFF; fill-opacity:1.0; 
stroke:#FFFFFF; stroke-width:19.685; stroke-opacity:1; 
stroke-linecap:round; stroke-linejoin:round;">
</g>
<g style="fill:#FFFFFF; fill-opacity:1.0; 
stroke:#FFFFFF; stroke-width:0; stroke-opacity:1; 
stroke-linecap:round; stroke-linejoin:round;">
<circle cx="17029.5" cy="14029.5" r="98.4252" /> 
</g>
<g style="fill:#FFFFFF; fill-opacity:1.0; 
stroke:#FFFFFF; stroke-width:19.685; stroke-opacity:1; 
stroke-linecap:round; stroke-linejoin:round;">
</g>
<g style="fill:#FFFFFF; fill-opacity:1.0; 
stroke:#FFFFFF; stroke-width:0; stroke-opacity:1; 
stroke-linecap:round; stroke-linejoin:round;">
<circle cx="31529.5" cy="21029.5" r="98.4252" /> 
</g>
<g style="fill:#FFFFFF; fill-opacity:1.0; 
stroke:#FFFFFF; stroke-width:19.685; stroke-opacity:1; 
stroke-linecap:round; stroke-linejoin:round;">
</g>
<g style="fill:#FFFFFF; fill-opacity:1.0; 
stroke:#FFFFFF; stroke-width:0; stroke-opacity:1; 
stroke-linecap:round; stroke-linejoin:round;">
<circle cx="31529.5" cy="25029.5" r="98.4252" /> 
</g>
<g style="fill:#FFFFFF; fill-opacity:1.0; 
stroke:#FFFFFF; stroke-width:19.685; stroke-opacity:1; 
stroke-linecap:round; stroke-linejoin:round;">
</g>
<g style="fill:#FFFFFF; fill-opacity:1.0; 
stroke:#FFFFFF; stroke-width:0; stroke-opacity:1; 
stroke-linecap:round; stroke-linejoin:round;">
<circle cx="22029.5" cy="21029.5" r="98.4252" /> 
</g>
<g style="fill:#FFFFFF; fill-opacity:1.0; 
stroke:#FFFFFF; stroke-width:19.685; stroke-opacity:1; 
stroke-linecap:round; stroke-linejoin:round;">
</g>
<g style="fill:#FFFFFF; fill-opacity:1.0; 
stroke:#FFFFFF; stroke-width:0; stroke-opacity:1; 
stroke-linecap:round; stroke-linejoin:round;">
<circle cx="22029.5" cy="25029.5" r="98.4252" /> 
</g>
<g style="fill:#FFFFFF; fill-opacity:1.0; 
stroke:#FFFFFF; stroke-width:19.685; stroke-opacity:1; 
stroke-linecap:round; stroke-linejoin:round;">
</g>
<g style="fill:#FFFFFF; fill-opacity:1.0; 
stroke:#FFFFFF; stroke-width:0; stroke-opacity:1; 
stroke-linecap:round; stroke-linejoin:round;">
<circle cx="12529.5" cy="21029.5" r="98.4252" /> 
</g>
<g style="fill:#FFFFFF; fill-opacity:1.0; 
stroke:#FFFFFF; stroke-width:19.685; stroke-opacity:1; 
stroke-linecap:round; stroke-linejoin:round;">
</g>
<g style="fill:#FFFFFF; fill-opacity:1.0; 
stroke:#FFFFFF; stroke-width:0; stroke-opacity:1; 
stroke-linecap:round; stroke-linejoin:round;">
<circle cx="12529.5" cy="25029.5" r="98.4252" /> 
</g>
<g style="fill:#FFFFFF; fill-opacity:1.0; 
stroke:#FFFFFF; stroke-width:19.685; stroke-opacity:1; 
stroke-linecap:round; stroke-linejoin:round;">
</g>
<g style="fill:#FFFFFF; fill-opacity:1.0; 
stroke:#FFFFFF; stroke-width:0; stroke-opacity:1; 
stroke-linecap:round; stroke-linejoin:round;">
<circle cx="3029.53" cy="21029.5" r="98.4252" /> 
</g>
<g style="fill:#FFFFFF; fill-opacity:1.0; 
stroke:#FFFFFF; stroke-width:19.685; stroke-opacity:1; 
stroke-linecap:round; stroke-linejoin:round;">
</g>
<g style="fill:#FFFFFF; fill-opacity:1.0; 
stroke:#FFFFFF; stroke-width:0; stroke-opacity:1; 
stroke-linecap:round; stroke-linejoin:round;">
<circle cx="3029.53" cy="25029.5" r="98.4252" /> 
</g>
<g style="fill:#FFFFFF; fill-opacity:1.0; 
stroke:#FFFFFF; stroke-width:19.685; stroke-opacity:1; 
stroke-linecap:round; stroke-linejoin:round;">
</g>
<g style="fill:#FFFFFF; fill-opacity:1.0; 
stroke:#FFFFFF; stroke-width:0; stroke-opacity:1; 
stroke-linecap:round; stroke-linejoin:round;">
<circle cx="35029.5" cy="11529.5" r="98.4252" /> 
</g>
<g style="fill:#FFFFFF; fill-opacity:1.0; 
stroke:#FFFFFF; stroke-width:19.685; stroke-opacity:1; 
stroke-linecap:round; stroke-linejoin:round;">
</g>
<g style="fill:#FFFFFF; fill-opacity:1.0; 
stroke:#FFFFFF; stroke-width:0; stroke-opacity:1; 
stroke-linecap:round; stroke-linejoin:round;">
<circle cx="31029.5" cy="11529.5" r="98.4252" /> 
</g>
<g style="fill:#FFFFFF; fill-opacity:1.0; 
stroke:#FFFFFF; stroke-width:19.685; stroke-opacity:1; 
stroke-linecap:round; stroke-linejoin:round;">
</g>
<g style="fill:#FFFFFF; fill-opacity:1.0; 
stroke:#FFFFFF; stroke-width:0; stroke-opacity:1; 
stroke-linecap:round; stroke-linejoin:round;">
<circle cx="6029.53" cy="11529.5" r="98.4252" /> 
</g>
<g style="fill:#FFFFFF; fill-opacity:1.0; 
stroke:#FFFFFF; stroke-width:19.685; stroke-opacity:1; 
stroke-linecap:round; stroke-linejoin:round;">
</g>
<g style="fill:#FFFFFF; fill-opacity:1.0; 
stroke:#FFFFFF; stroke-width:0; stroke-opacity:1; 
stroke-linecap:round; stroke-linejoin:round;">
<circle cx="10029.5" cy="11529.5" r="98.4252" /> 
</g>
<g style="fill:#FFFFFF; fill-opacity:1.0; 
stroke:#FFFFFF; stroke-width:19.685; stroke-opacity:1; 
stroke-linecap:round; stroke-linejoin:round;">
</g>
<g style="fill:#FFFFFF; fill-opacity:1.0; 
stroke:#FFFFFF; stroke-width:0; stroke-opacity:1; 
stroke-linecap:round; stroke-linejoin:round;">
<circle cx="24029.5" cy="11529.5" r="98.4252" /> 
</g>
<g style="fill:#FFFFFF; fill-opacity:1.0; 
stroke:#FFFFFF; stroke-width:19.685; stroke-opacity:1; 
stroke-linecap:round; stroke-linejoin:round;">
</g>
<g style="fill:#FFFFFF; fill-opacity:1.0; 
stroke:#FFFFFF; stroke-width:0; stroke-opacity:1; 
stroke-linecap:round; stroke-linejoin:round;">
<circle cx="28029.5" cy="11529.5" r="98.4252" /> 
</g>
<g style="fill:#FFFFFF; fill-opacity:1.0; 
stroke:#FFFFFF; stroke-width:19.685; stroke-opacity:1; 
stroke-linecap:round; stroke-linejoin:round;">
</g>
<g style="fill:#FFFFFF; fill-opacity:1.0; 
stroke:#FFFFFF; stroke-width:0; stroke-opacity:1; 
stroke-linecap:round; stroke-linejoin:round;">
<circle cx="22529.5" cy="11529.5" r="98.4252" /> 
</g>
<g style="fill:#FFFFFF; fill-opacity:1.0; 
stroke:#FFFFFF; stroke-width:19.685; stroke-opacity:1; 
stroke-linecap:round; stroke-linejoin:round;">
</g>
<g style="fill:#FFFFFF; fill-opacity:1.0; 
stroke:#FFFFFF; stroke-width:0; stroke-opacity:1; 
stroke-linecap:round; stroke-linejoin:round;">
<circle cx="18529.5" cy="11529.5" r="98.4252" /> 
</g>
<g style="fill:#FFFFFF; fill-opacity:1.0; 
stroke:#FFFFFF; stroke-width:19.685; stroke-opacity:1; 
stroke-linecap:round; stroke-linejoin:round;">
</g>
<g style="fill:#FFFFFF; fill-opacity:1.0; 
stroke:#FFFFFF; stroke-width:0; stroke-opacity:1; 
stroke-linecap:round; stroke-linejoin:round;">
<circle cx="17029.5" cy="11529.5" r="98.4252" /> 
</g>
<g style="fill:#FFFFFF; fill-opacity:1.0; 
stroke:#FFFFFF; stroke-width:19.685; stroke-opacity:1; 
stroke-linecap:round; stroke-linejoin:round;">
</g>
<g style="fill:#FFFFFF; fill-opacity:1.0; 
stroke:#FFFFFF; stroke-width:0; stroke-opacity:1; 
stroke-linecap:round; stroke-linejoin:round;">
<circle cx="13029.5" cy="11529.5" r="98.4252" /> 
</g>
<g style="fill:#FFFFFF; fill-opacity:1.0; 
stroke:#FFFFFF; stroke-width:19.685; stroke-opacity:1; 
stroke-linecap:round; stroke-linejoin:round;">
</g>
<g style="fill:#FFFFFF; fill-opacity:1.0; 
stroke:#FFFFFF; stroke-width:0; stroke-opacity:1; 
stroke-linecap:round; stroke-linejoin:round;">
<circle cx="34029.5" cy="20108.3" r="98.4252" /> 
</g>
<g style="fill:#FFFFFF; fill-opacity:1.0; 
stroke:#FFFFFF; stroke-width:19.685; stroke-opacity:1; 
stroke-linecap:round; stroke-linejoin:round;">
</g>
<g style="fill:#FFFFFF; fill-opacity:1.0; 
stroke:#FFFFFF; stroke-width:0; stroke-opacity:1; 
stroke-linecap:round; stroke-linejoin:round;">
<circle cx="35998" cy="20108.3" r="98.4252" /> 
</g>
<g style="fill:#FFFFFF; fill-opacity:1.0; 
stroke:#FFFFFF; stroke-width:19.685; stroke-opacity:1; 
stroke-linecap:round; stroke-linejoin:round;">
</g>
<g style="fill:#FFFFFF; fill-opacity:1.0; 
stroke:#FFFFFF; stroke-width:0; stroke-opacity:1; 
stroke-linecap:round; stroke-linejoin:round;">
<circle cx="34029.5" cy="25029.5" r="98.4252" /> 
</g>
<g style="fill:#FFFFFF; fill-opacity:1.0; 
stroke:#FFFFFF; stroke-width:19.685; stroke-opacity:1; 
stroke-linecap:round; stroke-linejoin:round;">
</g>
<g style="fill:#FFFFFF; fill-opacity:1.0; 
stroke:#FFFFFF; stroke-width:0; stroke-opacity:1; 
stroke-linecap:round; stroke-linejoin:round;">
<circle cx="35998" cy="25029.5" r="98.4252" /> 
</g>
<g style="fill:#FFFFFF; fill-opacity:1.0; 
stroke:#FFFFFF; stroke-width:19.685; stroke-opacity:1; 
stroke-linecap:round; stroke-linejoin:round;">
</g>
<g style="fill:#FFFFFF; fill-opacity:1.0; 
stroke:#FFFFFF; stroke-width:0; stroke-opacity:1; 
stroke-linecap:round; stroke-linejoin:round;">
<circle cx="24529.5" cy="20108.3" r="98.4252" /> 
</g>
<g style="fill:#FFFFFF; fill-opacity:1.0; 
stroke:#FFFFFF; stroke-width:19.685; stroke-opacity:1; 
stroke-linecap:round; stroke-linejoin:round;">
</g>
<g style="fill:#FFFFFF; fill-opacity:1.0; 
stroke:#FFFFFF; stroke-width:0; stroke-opacity:1; 
stroke-linecap:round; stroke-linejoin:round;">
<circle cx="26498" cy="20108.3" r="98.4252" /> 
</g>
<g style="fill:#FFFFFF; fill-opacity:1.0; 
stroke:#FFFFFF; stroke-width:19.685; stroke-opacity:1; 
stroke-linecap:round; stroke-linejoin:round;">
</g>
<g style="fill:#FFFFFF; fill-opacity:1.0; 
stroke:#FFFFFF; stroke-width:0; stroke-opacity:1; 
stroke-linecap:round; stroke-linejoin:round;">
<circle cx="24529.5" cy="25029.5" r="98.4252" /> 
</g>
<g style="fill:#FFFFFF; fill-opacity:1.0; 
stroke:#FFFFFF; stroke-width:19.685; stroke-opacity:1; 
stroke-linecap:round; stroke-linejoin:round;">
</g>
<g style="fill:#FFFFFF; fill-opacity:1.0; 
stroke:#FFFFFF; stroke-width:0; stroke-opacity:1; 
stroke-linecap:round; stroke-linejoin:round;">
<circle cx="26498" cy="25029.5" r="98.4252" /> 
</g>
<g style="fill:#FFFFFF; fill-opacity:1.0; 
stroke:#FFFFFF; stroke-width:19.685; stroke-opacity:1; 
stroke-linecap:round; stroke-linejoin:round;">
</g>
<g style="fill:#FFFFFF; fill-opacity:1.0; 
stroke:#FFFFFF; stroke-width:0; stroke-opacity:1; 
stroke-linecap:round; stroke-linejoin:round;">
<circle cx="15029.5" cy="20108.3" r="98.4252" /> 
</g>
<g style="fill:#FFFFFF; fill-opacity:1.0; 
stroke:#FFFFFF; stroke-width:19.685; stroke-opacity:1; 
stroke-linecap:round; stroke-linejoin:round;">
</g>
<g style="fill:#FFFFFF; fill-opacity:1.0; 
stroke:#FFFFFF; stroke-width:0; stroke-opacity:1; 
stroke-linecap:round; stroke-linejoin:round;">
<circle cx="16998" cy="20108.3" r="98.4252" /> 
</g>
<g style="fill:#FFFFFF; fill-opacity:1.0; 
stroke:#FFFFFF; stroke-width:19.685; stroke-opacity:1; 
stroke-linecap:round; stroke-linejoin:round;">
</g>
<g style="fill:#FFFFFF; fill-opacity:1.0; 
stroke:#FFFFFF; stroke-width:0; stroke-opacity:1; 
stroke-linecap:round; stroke-linejoin:round;">
<circle cx="15029.5" cy="25029.5" r="98.4252" /> 
</g>
<g style="fill:#FFFFFF; fill-opacity:1.0; 
stroke:#FFFFFF; stroke-width:19.685; stroke-opacity:1; 
stroke-linecap:round; stroke-linejoin:round;">
</g>
<g style="fill:#FFFFFF; fill-opacity:1.0; 
stroke:#FFFFFF; stroke-width:0; stroke-opacity:1; 
stroke-linecap:round; stroke-linejoin:round;">
<circle cx="16998" cy="25029.5" r="98.4252" /> 
</g>
<g style="fill:#FFFFFF; fill-opacity:1.0; 
stroke:#FFFFFF; stroke-width:19.685; stroke-opacity:1; 
stroke-linecap:round; stroke-linejoin:round;">
</g>
<g style="fill:#000000; fill-opacity:1.0; 
stroke:#000000; stroke-width:19.685; stroke-opacity:1; 
stroke-linecap:round; stroke-linejoin:round;">
</g> 
</svg>
