%TF.GenerationSoftware,KiCad,Pcbnew,4.0.7*%
%TF.CreationDate,2018-01-22T14:26:12+01:00*%
%TF.ProjectId,RPi_Hat,5250695F4861742E6B696361645F7063,rev?*%
%TF.FileFunction,Legend,Top*%
%FSLAX46Y46*%
G04 Gerber Fmt 4.6, Leading zero omitted, Abs format (unit mm)*
G04 Created by KiCad (PCBNEW 4.0.7) date 01/22/18 14:26:12*
%MOMM*%
%LPD*%
G01*
G04 APERTURE LIST*
%ADD10C,0.050000*%
%ADD11C,0.100000*%
%ADD12C,0.150000*%
%ADD13C,0.120000*%
G04 APERTURE END LIST*
D10*
D11*
X55070000Y-48260000D02*
X114070000Y-48260000D01*
X117070000Y-51260000D02*
G75*
G03X114070000Y-48260000I-3000000J0D01*
G01*
X55070000Y-48260000D02*
G75*
G03X52070000Y-51260000I0J-3000000D01*
G01*
X117070000Y-51260000D02*
X117070000Y-101760000D01*
X52070000Y-93980000D02*
X52070000Y-63500000D01*
X114070000Y-104760000D02*
G75*
G03X117070000Y-101760000I0J3000000D01*
G01*
X52070000Y-101760000D02*
G75*
G03X55070000Y-104760000I3000000J0D01*
G01*
X52070000Y-86260000D02*
X52070000Y-101760000D01*
X52070000Y-51260000D02*
X52070000Y-67260000D01*
X55070000Y-104760000D02*
X114070000Y-104760000D01*
D12*
X109970000Y-49720000D02*
X59170000Y-49720000D01*
X61710000Y-54800000D02*
X109970000Y-54800000D01*
X109970000Y-49720000D02*
X109970000Y-54800000D01*
X59170000Y-49720000D02*
X59170000Y-52260000D01*
X58890000Y-53530000D02*
X58890000Y-55080000D01*
X59170000Y-52260000D02*
X61710000Y-52260000D01*
X61710000Y-52260000D02*
X61710000Y-54800000D01*
X58890000Y-55080000D02*
X60440000Y-55080000D01*
D13*
X104140462Y-60510000D02*
G75*
G03X102595170Y-66060000I-462J-2990000D01*
G01*
X104139538Y-60510000D02*
G75*
G02X105684830Y-66060000I462J-2990000D01*
G01*
X106640000Y-63500000D02*
G75*
G03X106640000Y-63500000I-2500000J0D01*
G01*
X102595000Y-66060000D02*
X105685000Y-66060000D01*
X91440462Y-60510000D02*
G75*
G03X89895170Y-66060000I-462J-2990000D01*
G01*
X91439538Y-60510000D02*
G75*
G02X92984830Y-66060000I462J-2990000D01*
G01*
X93940000Y-63500000D02*
G75*
G03X93940000Y-63500000I-2500000J0D01*
G01*
X89895000Y-66060000D02*
X92985000Y-66060000D01*
X104140462Y-74480000D02*
G75*
G03X102595170Y-80030000I-462J-2990000D01*
G01*
X104139538Y-74480000D02*
G75*
G02X105684830Y-80030000I462J-2990000D01*
G01*
X106640000Y-77470000D02*
G75*
G03X106640000Y-77470000I-2500000J0D01*
G01*
X102595000Y-80030000D02*
X105685000Y-80030000D01*
X91440462Y-74480000D02*
G75*
G03X89895170Y-80030000I-462J-2990000D01*
G01*
X91439538Y-74480000D02*
G75*
G02X92984830Y-80030000I462J-2990000D01*
G01*
X93940000Y-77470000D02*
G75*
G03X93940000Y-77470000I-2500000J0D01*
G01*
X89895000Y-80030000D02*
X92985000Y-80030000D01*
X78740462Y-74480000D02*
G75*
G03X77195170Y-80030000I-462J-2990000D01*
G01*
X78739538Y-74480000D02*
G75*
G02X80284830Y-80030000I462J-2990000D01*
G01*
X81240000Y-77470000D02*
G75*
G03X81240000Y-77470000I-2500000J0D01*
G01*
X77195000Y-80030000D02*
X80285000Y-80030000D01*
X107740000Y-64180000D02*
X107740000Y-60280000D01*
X110700000Y-60280000D02*
X110700000Y-64180000D01*
X95040000Y-64180000D02*
X95040000Y-60280000D01*
X98000000Y-60280000D02*
X98000000Y-64180000D01*
X110700000Y-76790000D02*
X110700000Y-80690000D01*
X107740000Y-80690000D02*
X107740000Y-76790000D01*
X98000000Y-76790000D02*
X98000000Y-80690000D01*
X95040000Y-80690000D02*
X95040000Y-76790000D01*
X85300000Y-76790000D02*
X85300000Y-80690000D01*
X82340000Y-80690000D02*
X82340000Y-76790000D01*
X97950000Y-98960000D02*
X97950000Y-86660000D01*
X102530000Y-86660000D02*
X105670000Y-86660000D01*
X110250000Y-86660000D02*
X110250000Y-98960000D01*
X100670000Y-98960000D02*
X97950000Y-98960000D01*
X108719050Y-92710000D02*
G75*
G03X108719050Y-92710000I-4579050J0D01*
G01*
X110250000Y-98960000D02*
X107530000Y-98960000D01*
X105670000Y-98960000D02*
X102530000Y-98960000D01*
X107530000Y-86660000D02*
X110250000Y-86660000D01*
X97950000Y-86660000D02*
X100670000Y-86660000D01*
X83980000Y-98960000D02*
X83980000Y-86660000D01*
X88560000Y-86660000D02*
X91700000Y-86660000D01*
X96280000Y-86660000D02*
X96280000Y-98960000D01*
X86700000Y-98960000D02*
X83980000Y-98960000D01*
X94749050Y-92710000D02*
G75*
G03X94749050Y-92710000I-4579050J0D01*
G01*
X96280000Y-98960000D02*
X93560000Y-98960000D01*
X91700000Y-98960000D02*
X88560000Y-98960000D01*
X93560000Y-86660000D02*
X96280000Y-86660000D01*
X83980000Y-86660000D02*
X86700000Y-86660000D01*
X71280000Y-98960000D02*
X71280000Y-86660000D01*
X75860000Y-86660000D02*
X79000000Y-86660000D01*
X83580000Y-86660000D02*
X83580000Y-98960000D01*
X74000000Y-98960000D02*
X71280000Y-98960000D01*
X82049050Y-92710000D02*
G75*
G03X82049050Y-92710000I-4579050J0D01*
G01*
X83580000Y-98960000D02*
X80860000Y-98960000D01*
X79000000Y-98960000D02*
X75860000Y-98960000D01*
X80860000Y-86660000D02*
X83580000Y-86660000D01*
X71280000Y-86660000D02*
X74000000Y-86660000D01*
X58580000Y-98960000D02*
X58580000Y-86660000D01*
X63160000Y-86660000D02*
X66300000Y-86660000D01*
X70880000Y-86660000D02*
X70880000Y-98960000D01*
X61300000Y-98960000D02*
X58580000Y-98960000D01*
X69349050Y-92710000D02*
G75*
G03X69349050Y-92710000I-4579050J0D01*
G01*
X70880000Y-98960000D02*
X68160000Y-98960000D01*
X66300000Y-98960000D02*
X63160000Y-98960000D01*
X68160000Y-86660000D02*
X70880000Y-86660000D01*
X58580000Y-86660000D02*
X61300000Y-86660000D01*
D10*
X60440000Y-54505000D02*
X60440000Y-54505000D01*
X60440000Y-52555000D02*
X60440000Y-52555000D01*
X60440000Y-54505000D02*
G75*
G03X60440000Y-52555000I0J975000D01*
G01*
X60440000Y-52555000D02*
G75*
G03X60440000Y-54505000I0J-975000D01*
G01*
X60440000Y-51965000D02*
X60440000Y-51965000D01*
X60440000Y-50015000D02*
X60440000Y-50015000D01*
X60440000Y-51965000D02*
G75*
G03X60440000Y-50015000I0J975000D01*
G01*
X60440000Y-50015000D02*
G75*
G03X60440000Y-51965000I0J-975000D01*
G01*
X62980000Y-54505000D02*
X62980000Y-54505000D01*
X62980000Y-52555000D02*
X62980000Y-52555000D01*
X62980000Y-54505000D02*
G75*
G03X62980000Y-52555000I0J975000D01*
G01*
X62980000Y-52555000D02*
G75*
G03X62980000Y-54505000I0J-975000D01*
G01*
X62980000Y-51965000D02*
X62980000Y-51965000D01*
X62980000Y-50015000D02*
X62980000Y-50015000D01*
X62980000Y-51965000D02*
G75*
G03X62980000Y-50015000I0J975000D01*
G01*
X62980000Y-50015000D02*
G75*
G03X62980000Y-51965000I0J-975000D01*
G01*
X65520000Y-54505000D02*
X65520000Y-54505000D01*
X65520000Y-52555000D02*
X65520000Y-52555000D01*
X65520000Y-54505000D02*
G75*
G03X65520000Y-52555000I0J975000D01*
G01*
X65520000Y-52555000D02*
G75*
G03X65520000Y-54505000I0J-975000D01*
G01*
X65520000Y-51965000D02*
X65520000Y-51965000D01*
X65520000Y-50015000D02*
X65520000Y-50015000D01*
X65520000Y-51965000D02*
G75*
G03X65520000Y-50015000I0J975000D01*
G01*
X65520000Y-50015000D02*
G75*
G03X65520000Y-51965000I0J-975000D01*
G01*
X68060000Y-54505000D02*
X68060000Y-54505000D01*
X68060000Y-52555000D02*
X68060000Y-52555000D01*
X68060000Y-54505000D02*
G75*
G03X68060000Y-52555000I0J975000D01*
G01*
X68060000Y-52555000D02*
G75*
G03X68060000Y-54505000I0J-975000D01*
G01*
X68060000Y-51965000D02*
X68060000Y-51965000D01*
X68060000Y-50015000D02*
X68060000Y-50015000D01*
X68060000Y-51965000D02*
G75*
G03X68060000Y-50015000I0J975000D01*
G01*
X68060000Y-50015000D02*
G75*
G03X68060000Y-51965000I0J-975000D01*
G01*
X70600000Y-54505000D02*
X70600000Y-54505000D01*
X70600000Y-52555000D02*
X70600000Y-52555000D01*
X70600000Y-54505000D02*
G75*
G03X70600000Y-52555000I0J975000D01*
G01*
X70600000Y-52555000D02*
G75*
G03X70600000Y-54505000I0J-975000D01*
G01*
X70600000Y-51965000D02*
X70600000Y-51965000D01*
X70600000Y-50015000D02*
X70600000Y-50015000D01*
X70600000Y-51965000D02*
G75*
G03X70600000Y-50015000I0J975000D01*
G01*
X70600000Y-50015000D02*
G75*
G03X70600000Y-51965000I0J-975000D01*
G01*
X73140000Y-54505000D02*
X73140000Y-54505000D01*
X73140000Y-52555000D02*
X73140000Y-52555000D01*
X73140000Y-54505000D02*
G75*
G03X73140000Y-52555000I0J975000D01*
G01*
X73140000Y-52555000D02*
G75*
G03X73140000Y-54505000I0J-975000D01*
G01*
X73140000Y-51965000D02*
X73140000Y-51965000D01*
X73140000Y-50015000D02*
X73140000Y-50015000D01*
X73140000Y-51965000D02*
G75*
G03X73140000Y-50015000I0J975000D01*
G01*
X73140000Y-50015000D02*
G75*
G03X73140000Y-51965000I0J-975000D01*
G01*
X75680000Y-54505000D02*
X75680000Y-54505000D01*
X75680000Y-52555000D02*
X75680000Y-52555000D01*
X75680000Y-54505000D02*
G75*
G03X75680000Y-52555000I0J975000D01*
G01*
X75680000Y-52555000D02*
G75*
G03X75680000Y-54505000I0J-975000D01*
G01*
X75680000Y-51965000D02*
X75680000Y-51965000D01*
X75680000Y-50015000D02*
X75680000Y-50015000D01*
X75680000Y-51965000D02*
G75*
G03X75680000Y-50015000I0J975000D01*
G01*
X75680000Y-50015000D02*
G75*
G03X75680000Y-51965000I0J-975000D01*
G01*
X78220000Y-54505000D02*
X78220000Y-54505000D01*
X78220000Y-52555000D02*
X78220000Y-52555000D01*
X78220000Y-54505000D02*
G75*
G03X78220000Y-52555000I0J975000D01*
G01*
X78220000Y-52555000D02*
G75*
G03X78220000Y-54505000I0J-975000D01*
G01*
X78220000Y-51965000D02*
X78220000Y-51965000D01*
X78220000Y-50015000D02*
X78220000Y-50015000D01*
X78220000Y-51965000D02*
G75*
G03X78220000Y-50015000I0J975000D01*
G01*
X78220000Y-50015000D02*
G75*
G03X78220000Y-51965000I0J-975000D01*
G01*
X80760000Y-54505000D02*
X80760000Y-54505000D01*
X80760000Y-52555000D02*
X80760000Y-52555000D01*
X80760000Y-54505000D02*
G75*
G03X80760000Y-52555000I0J975000D01*
G01*
X80760000Y-52555000D02*
G75*
G03X80760000Y-54505000I0J-975000D01*
G01*
X80760000Y-51965000D02*
X80760000Y-51965000D01*
X80760000Y-50015000D02*
X80760000Y-50015000D01*
X80760000Y-51965000D02*
G75*
G03X80760000Y-50015000I0J975000D01*
G01*
X80760000Y-50015000D02*
G75*
G03X80760000Y-51965000I0J-975000D01*
G01*
X83300000Y-54505000D02*
X83300000Y-54505000D01*
X83300000Y-52555000D02*
X83300000Y-52555000D01*
X83300000Y-54505000D02*
G75*
G03X83300000Y-52555000I0J975000D01*
G01*
X83300000Y-52555000D02*
G75*
G03X83300000Y-54505000I0J-975000D01*
G01*
X83300000Y-51965000D02*
X83300000Y-51965000D01*
X83300000Y-50015000D02*
X83300000Y-50015000D01*
X83300000Y-51965000D02*
G75*
G03X83300000Y-50015000I0J975000D01*
G01*
X83300000Y-50015000D02*
G75*
G03X83300000Y-51965000I0J-975000D01*
G01*
X85840000Y-54505000D02*
X85840000Y-54505000D01*
X85840000Y-52555000D02*
X85840000Y-52555000D01*
X85840000Y-54505000D02*
G75*
G03X85840000Y-52555000I0J975000D01*
G01*
X85840000Y-52555000D02*
G75*
G03X85840000Y-54505000I0J-975000D01*
G01*
X85840000Y-51965000D02*
X85840000Y-51965000D01*
X85840000Y-50015000D02*
X85840000Y-50015000D01*
X85840000Y-51965000D02*
G75*
G03X85840000Y-50015000I0J975000D01*
G01*
X85840000Y-50015000D02*
G75*
G03X85840000Y-51965000I0J-975000D01*
G01*
X88380000Y-54505000D02*
X88380000Y-54505000D01*
X88380000Y-52555000D02*
X88380000Y-52555000D01*
X88380000Y-54505000D02*
G75*
G03X88380000Y-52555000I0J975000D01*
G01*
X88380000Y-52555000D02*
G75*
G03X88380000Y-54505000I0J-975000D01*
G01*
X88380000Y-51965000D02*
X88380000Y-51965000D01*
X88380000Y-50015000D02*
X88380000Y-50015000D01*
X88380000Y-51965000D02*
G75*
G03X88380000Y-50015000I0J975000D01*
G01*
X88380000Y-50015000D02*
G75*
G03X88380000Y-51965000I0J-975000D01*
G01*
X90920000Y-54505000D02*
X90920000Y-54505000D01*
X90920000Y-52555000D02*
X90920000Y-52555000D01*
X90920000Y-54505000D02*
G75*
G03X90920000Y-52555000I0J975000D01*
G01*
X90920000Y-52555000D02*
G75*
G03X90920000Y-54505000I0J-975000D01*
G01*
X90920000Y-51965000D02*
X90920000Y-51965000D01*
X90920000Y-50015000D02*
X90920000Y-50015000D01*
X90920000Y-51965000D02*
G75*
G03X90920000Y-50015000I0J975000D01*
G01*
X90920000Y-50015000D02*
G75*
G03X90920000Y-51965000I0J-975000D01*
G01*
X93460000Y-54505000D02*
X93460000Y-54505000D01*
X93460000Y-52555000D02*
X93460000Y-52555000D01*
X93460000Y-54505000D02*
G75*
G03X93460000Y-52555000I0J975000D01*
G01*
X93460000Y-52555000D02*
G75*
G03X93460000Y-54505000I0J-975000D01*
G01*
X93460000Y-51965000D02*
X93460000Y-51965000D01*
X93460000Y-50015000D02*
X93460000Y-50015000D01*
X93460000Y-51965000D02*
G75*
G03X93460000Y-50015000I0J975000D01*
G01*
X93460000Y-50015000D02*
G75*
G03X93460000Y-51965000I0J-975000D01*
G01*
X96000000Y-54505000D02*
X96000000Y-54505000D01*
X96000000Y-52555000D02*
X96000000Y-52555000D01*
X96000000Y-54505000D02*
G75*
G03X96000000Y-52555000I0J975000D01*
G01*
X96000000Y-52555000D02*
G75*
G03X96000000Y-54505000I0J-975000D01*
G01*
X96000000Y-51965000D02*
X96000000Y-51965000D01*
X96000000Y-50015000D02*
X96000000Y-50015000D01*
X96000000Y-51965000D02*
G75*
G03X96000000Y-50015000I0J975000D01*
G01*
X96000000Y-50015000D02*
G75*
G03X96000000Y-51965000I0J-975000D01*
G01*
X98540000Y-54505000D02*
X98540000Y-54505000D01*
X98540000Y-52555000D02*
X98540000Y-52555000D01*
X98540000Y-54505000D02*
G75*
G03X98540000Y-52555000I0J975000D01*
G01*
X98540000Y-52555000D02*
G75*
G03X98540000Y-54505000I0J-975000D01*
G01*
X98540000Y-51965000D02*
X98540000Y-51965000D01*
X98540000Y-50015000D02*
X98540000Y-50015000D01*
X98540000Y-51965000D02*
G75*
G03X98540000Y-50015000I0J975000D01*
G01*
X98540000Y-50015000D02*
G75*
G03X98540000Y-51965000I0J-975000D01*
G01*
X101080000Y-54505000D02*
X101080000Y-54505000D01*
X101080000Y-52555000D02*
X101080000Y-52555000D01*
X101080000Y-54505000D02*
G75*
G03X101080000Y-52555000I0J975000D01*
G01*
X101080000Y-52555000D02*
G75*
G03X101080000Y-54505000I0J-975000D01*
G01*
X101080000Y-51965000D02*
X101080000Y-51965000D01*
X101080000Y-50015000D02*
X101080000Y-50015000D01*
X101080000Y-51965000D02*
G75*
G03X101080000Y-50015000I0J975000D01*
G01*
X101080000Y-50015000D02*
G75*
G03X101080000Y-51965000I0J-975000D01*
G01*
X103620000Y-54505000D02*
X103620000Y-54505000D01*
X103620000Y-52555000D02*
X103620000Y-52555000D01*
X103620000Y-54505000D02*
G75*
G03X103620000Y-52555000I0J975000D01*
G01*
X103620000Y-52555000D02*
G75*
G03X103620000Y-54505000I0J-975000D01*
G01*
X103620000Y-51965000D02*
X103620000Y-51965000D01*
X103620000Y-50015000D02*
X103620000Y-50015000D01*
X103620000Y-51965000D02*
G75*
G03X103620000Y-50015000I0J975000D01*
G01*
X103620000Y-50015000D02*
G75*
G03X103620000Y-51965000I0J-975000D01*
G01*
X106160000Y-54505000D02*
X106160000Y-54505000D01*
X106160000Y-52555000D02*
X106160000Y-52555000D01*
X106160000Y-54505000D02*
G75*
G03X106160000Y-52555000I0J975000D01*
G01*
X106160000Y-52555000D02*
G75*
G03X106160000Y-54505000I0J-975000D01*
G01*
X106160000Y-51965000D02*
X106160000Y-51965000D01*
X106160000Y-50015000D02*
X106160000Y-50015000D01*
X106160000Y-51965000D02*
G75*
G03X106160000Y-50015000I0J975000D01*
G01*
X106160000Y-50015000D02*
G75*
G03X106160000Y-51965000I0J-975000D01*
G01*
X108700000Y-54505000D02*
X108700000Y-54505000D01*
X108700000Y-52555000D02*
X108700000Y-52555000D01*
X108700000Y-54505000D02*
G75*
G03X108700000Y-52555000I0J975000D01*
G01*
X108700000Y-52555000D02*
G75*
G03X108700000Y-54505000I0J-975000D01*
G01*
X108700000Y-51965000D02*
X108700000Y-51965000D01*
X108700000Y-50015000D02*
X108700000Y-50015000D01*
X108700000Y-51965000D02*
G75*
G03X108700000Y-50015000I0J975000D01*
G01*
X108700000Y-50015000D02*
G75*
G03X108700000Y-51965000I0J-975000D01*
G01*
M02*
