%TF.GenerationSoftware,KiCad,Pcbnew,4.0.7*%
%TF.CreationDate,2018-01-22T14:26:12+01:00*%
%TF.ProjectId,RPi_Hat,5250695F4861742E6B696361645F7063,rev?*%
%TF.FileFunction,Other,User*%
%FSLAX46Y46*%
G04 Gerber Fmt 4.6, Leading zero omitted, Abs format (unit mm)*
G04 Created by KiCad (PCBNEW 4.0.7) date 01/22/18 14:26:12*
%MOMM*%
%LPD*%
G01*
G04 APERTURE LIST*
%ADD10C,0.050000*%
%ADD11C,0.100000*%
G04 APERTURE END LIST*
D10*
D11*
X55070000Y-48260000D02*
X114070000Y-48260000D01*
X117070000Y-51260000D02*
G75*
G03X114070000Y-48260000I-3000000J0D01*
G01*
X55070000Y-48260000D02*
G75*
G03X52070000Y-51260000I0J-3000000D01*
G01*
X117070000Y-51260000D02*
X117070000Y-101760000D01*
X52070000Y-93980000D02*
X52070000Y-63500000D01*
X114070000Y-104760000D02*
G75*
G03X117070000Y-101760000I0J3000000D01*
G01*
X52070000Y-101760000D02*
G75*
G03X55070000Y-104760000I3000000J0D01*
G01*
X52070000Y-86260000D02*
X52070000Y-101760000D01*
X52070000Y-51260000D02*
X52070000Y-67260000D01*
X55070000Y-104760000D02*
X114070000Y-104760000D01*
D10*
X116520000Y-52260000D02*
G75*
G03X116520000Y-52260000I-2950000J0D01*
G01*
X116520000Y-101260000D02*
G75*
G03X116520000Y-101260000I-2950000J0D01*
G01*
X58520000Y-101260000D02*
G75*
G03X58520000Y-101260000I-2950000J0D01*
G01*
X58520000Y-52260000D02*
G75*
G03X58520000Y-52260000I-2950000J0D01*
G01*
X58690000Y-55280000D02*
X110490000Y-55280000D01*
X58690000Y-49230000D02*
X110490000Y-49230000D01*
X58690000Y-55280000D02*
X58690000Y-49230000D01*
X110490000Y-55280000D02*
X110490000Y-49230000D01*
X100890000Y-66720000D02*
X107390000Y-66720000D01*
X107390000Y-66720000D02*
X107390000Y-60270000D01*
X107390000Y-60270000D02*
X100890000Y-60270000D01*
X100890000Y-60270000D02*
X100890000Y-66720000D01*
X88190000Y-66720000D02*
X94690000Y-66720000D01*
X94690000Y-66720000D02*
X94690000Y-60270000D01*
X94690000Y-60270000D02*
X88190000Y-60270000D01*
X88190000Y-60270000D02*
X88190000Y-66720000D01*
X100890000Y-80690000D02*
X107390000Y-80690000D01*
X107390000Y-80690000D02*
X107390000Y-74240000D01*
X107390000Y-74240000D02*
X100890000Y-74240000D01*
X100890000Y-74240000D02*
X100890000Y-80690000D01*
X88190000Y-80690000D02*
X94690000Y-80690000D01*
X94690000Y-80690000D02*
X94690000Y-74240000D01*
X94690000Y-74240000D02*
X88190000Y-74240000D01*
X88190000Y-74240000D02*
X88190000Y-80690000D01*
X75490000Y-80690000D02*
X81990000Y-80690000D01*
X81990000Y-80690000D02*
X81990000Y-74240000D01*
X81990000Y-74240000D02*
X75490000Y-74240000D01*
X75490000Y-74240000D02*
X75490000Y-80690000D01*
X110720000Y-57630000D02*
X110720000Y-66830000D01*
X110720000Y-57630000D02*
X107720000Y-57630000D01*
X107720000Y-66830000D02*
X110720000Y-66830000D01*
X107720000Y-66830000D02*
X107720000Y-57630000D01*
X98020000Y-57630000D02*
X98020000Y-66830000D01*
X98020000Y-57630000D02*
X95020000Y-57630000D01*
X95020000Y-66830000D02*
X98020000Y-66830000D01*
X95020000Y-66830000D02*
X95020000Y-57630000D01*
X107720000Y-83340000D02*
X107720000Y-74140000D01*
X107720000Y-83340000D02*
X110720000Y-83340000D01*
X110720000Y-74140000D02*
X107720000Y-74140000D01*
X110720000Y-74140000D02*
X110720000Y-83340000D01*
X95020000Y-83340000D02*
X95020000Y-74140000D01*
X95020000Y-83340000D02*
X98020000Y-83340000D01*
X98020000Y-74140000D02*
X95020000Y-74140000D01*
X98020000Y-74140000D02*
X98020000Y-83340000D01*
X82320000Y-83340000D02*
X82320000Y-74140000D01*
X82320000Y-83340000D02*
X85320000Y-83340000D01*
X85320000Y-74140000D02*
X82320000Y-74140000D01*
X85320000Y-74140000D02*
X85320000Y-83340000D01*
X97850000Y-100830000D02*
X97850000Y-84810000D01*
X97850000Y-100830000D02*
X110350000Y-100830000D01*
X110350000Y-84810000D02*
X97850000Y-84810000D01*
X110350000Y-84810000D02*
X110350000Y-100830000D01*
X83880000Y-100830000D02*
X83880000Y-84810000D01*
X83880000Y-100830000D02*
X96380000Y-100830000D01*
X96380000Y-84810000D02*
X83880000Y-84810000D01*
X96380000Y-84810000D02*
X96380000Y-100830000D01*
X71180000Y-100830000D02*
X71180000Y-84810000D01*
X71180000Y-100830000D02*
X83680000Y-100830000D01*
X83680000Y-84810000D02*
X71180000Y-84810000D01*
X83680000Y-84810000D02*
X83680000Y-100830000D01*
X58480000Y-100830000D02*
X58480000Y-84810000D01*
X58480000Y-100830000D02*
X70980000Y-100830000D01*
X70980000Y-84810000D02*
X58480000Y-84810000D01*
X70980000Y-84810000D02*
X70980000Y-100830000D01*
M02*
