%FSLAX45Y45*%
G04 Gerber Fmt 4.5, Leading zero omitted, Abs format (unit mm)*
G04 Created by KiCad (PCBNEW 4.0.7) date 01/22/18 14:26:14*
%MOMM*%
%LPD*%
G01*
G04 APERTURE LIST*
%ADD10C,0.127000*%
%ADD11C,0.100000*%
%ADD12C,0.200000*%
%ADD13C,0.300000*%
G04 APERTURE END LIST*
D10*
D11*
X5507000Y-4826000D02*
X11407000Y-4826000D01*
X11707000Y-5126000D02*
G75*
G03X11407000Y-4826000I-300000J0D01*
G01*
X5507000Y-4826000D02*
G75*
G03X5207000Y-5126000I0J-300000D01*
G01*
X11707000Y-5126000D02*
X11707000Y-10176000D01*
X5207000Y-9398000D02*
X5207000Y-6350000D01*
X11407000Y-10476000D02*
G75*
G03X11707000Y-10176000I0J300000D01*
G01*
X5207000Y-10176000D02*
G75*
G03X5507000Y-10476000I300000J0D01*
G01*
X5207000Y-8626000D02*
X5207000Y-10176000D01*
X5207000Y-5126000D02*
X5207000Y-6726000D01*
X5507000Y-10476000D02*
X11407000Y-10476000D01*
D12*
X7844000Y-7590000D02*
X7904000Y-7650000D01*
X7904000Y-7590000D02*
X7844000Y-7650000D01*
X7844000Y-7844000D02*
X7904000Y-7904000D01*
X7904000Y-7844000D02*
X7844000Y-7904000D01*
X9114000Y-6193000D02*
X9174000Y-6253000D01*
X9174000Y-6193000D02*
X9114000Y-6253000D01*
X9114000Y-6447000D02*
X9174000Y-6507000D01*
X9174000Y-6447000D02*
X9114000Y-6507000D01*
X9114000Y-7590000D02*
X9174000Y-7650000D01*
X9174000Y-7590000D02*
X9114000Y-7650000D01*
X9114000Y-7844000D02*
X9174000Y-7904000D01*
X9174000Y-7844000D02*
X9114000Y-7904000D01*
X10384000Y-6193000D02*
X10444000Y-6253000D01*
X10444000Y-6193000D02*
X10384000Y-6253000D01*
X10384000Y-6447000D02*
X10444000Y-6507000D01*
X10444000Y-6447000D02*
X10384000Y-6507000D01*
X10384000Y-7590000D02*
X10444000Y-7650000D01*
X10444000Y-7590000D02*
X10384000Y-7650000D01*
X10384000Y-7844000D02*
X10444000Y-7904000D01*
X10444000Y-7844000D02*
X10384000Y-7904000D01*
X6089000Y-5099000D02*
G75*
G03X6089000Y-5099000I-45000J0D01*
G01*
X6089000Y-5353000D02*
G75*
G03X6089000Y-5353000I-45000J0D01*
G01*
X6268000Y-8656000D02*
G75*
G03X6268000Y-8656000I-45000J0D01*
G01*
X6208000Y-8691000D02*
X6238000Y-8691000D01*
X6208000Y-8621000D02*
X6238000Y-8621000D01*
X6238000Y-8691000D02*
G75*
G03X6238000Y-8621000I0J35000D01*
G01*
X6208000Y-8621000D02*
G75*
G03X6208000Y-8691000I0J-35000D01*
G01*
X6268000Y-9906000D02*
G75*
G03X6268000Y-9906000I-45000J0D01*
G01*
X6208000Y-9941000D02*
X6238000Y-9941000D01*
X6208000Y-9871000D02*
X6238000Y-9871000D01*
X6238000Y-9941000D02*
G75*
G03X6238000Y-9871000I0J35000D01*
G01*
X6208000Y-9871000D02*
G75*
G03X6208000Y-9941000I0J-35000D01*
G01*
X6343000Y-5099000D02*
G75*
G03X6343000Y-5099000I-45000J0D01*
G01*
X6343000Y-5353000D02*
G75*
G03X6343000Y-5353000I-45000J0D01*
G01*
X6597000Y-5099000D02*
G75*
G03X6597000Y-5099000I-45000J0D01*
G01*
X6597000Y-5353000D02*
G75*
G03X6597000Y-5353000I-45000J0D01*
G01*
X6768000Y-8656000D02*
G75*
G03X6768000Y-8656000I-45000J0D01*
G01*
X6708000Y-8691000D02*
X6738000Y-8691000D01*
X6708000Y-8621000D02*
X6738000Y-8621000D01*
X6738000Y-8691000D02*
G75*
G03X6738000Y-8621000I0J35000D01*
G01*
X6708000Y-8621000D02*
G75*
G03X6708000Y-8691000I0J-35000D01*
G01*
X6768000Y-9906000D02*
G75*
G03X6768000Y-9906000I-45000J0D01*
G01*
X6708000Y-9941000D02*
X6738000Y-9941000D01*
X6708000Y-9871000D02*
X6738000Y-9871000D01*
X6738000Y-9941000D02*
G75*
G03X6738000Y-9871000I0J35000D01*
G01*
X6708000Y-9871000D02*
G75*
G03X6708000Y-9941000I0J-35000D01*
G01*
X6851000Y-5099000D02*
G75*
G03X6851000Y-5099000I-45000J0D01*
G01*
X6851000Y-5353000D02*
G75*
G03X6851000Y-5353000I-45000J0D01*
G01*
X7105000Y-5099000D02*
G75*
G03X7105000Y-5099000I-45000J0D01*
G01*
X7105000Y-5353000D02*
G75*
G03X7105000Y-5353000I-45000J0D01*
G01*
X7359000Y-5099000D02*
G75*
G03X7359000Y-5099000I-45000J0D01*
G01*
X7359000Y-5353000D02*
G75*
G03X7359000Y-5353000I-45000J0D01*
G01*
X7538000Y-8656000D02*
G75*
G03X7538000Y-8656000I-45000J0D01*
G01*
X7478000Y-8691000D02*
X7508000Y-8691000D01*
X7478000Y-8621000D02*
X7508000Y-8621000D01*
X7508000Y-8691000D02*
G75*
G03X7508000Y-8621000I0J35000D01*
G01*
X7478000Y-8621000D02*
G75*
G03X7478000Y-8691000I0J-35000D01*
G01*
X7538000Y-9906000D02*
G75*
G03X7538000Y-9906000I-45000J0D01*
G01*
X7478000Y-9941000D02*
X7508000Y-9941000D01*
X7478000Y-9871000D02*
X7508000Y-9871000D01*
X7508000Y-9941000D02*
G75*
G03X7508000Y-9871000I0J35000D01*
G01*
X7478000Y-9871000D02*
G75*
G03X7478000Y-9941000I0J-35000D01*
G01*
X7613000Y-5099000D02*
G75*
G03X7613000Y-5099000I-45000J0D01*
G01*
X7613000Y-5353000D02*
G75*
G03X7613000Y-5353000I-45000J0D01*
G01*
X7867000Y-5099000D02*
G75*
G03X7867000Y-5099000I-45000J0D01*
G01*
X7867000Y-5353000D02*
G75*
G03X7867000Y-5353000I-45000J0D01*
G01*
X8038000Y-8656000D02*
G75*
G03X8038000Y-8656000I-45000J0D01*
G01*
X7978000Y-8691000D02*
X8008000Y-8691000D01*
X7978000Y-8621000D02*
X8008000Y-8621000D01*
X8008000Y-8691000D02*
G75*
G03X8008000Y-8621000I0J35000D01*
G01*
X7978000Y-8621000D02*
G75*
G03X7978000Y-8691000I0J-35000D01*
G01*
X8038000Y-9906000D02*
G75*
G03X8038000Y-9906000I-45000J0D01*
G01*
X7978000Y-9941000D02*
X8008000Y-9941000D01*
X7978000Y-9871000D02*
X8008000Y-9871000D01*
X8008000Y-9941000D02*
G75*
G03X8008000Y-9871000I0J35000D01*
G01*
X7978000Y-9871000D02*
G75*
G03X7978000Y-9941000I0J-35000D01*
G01*
X8121000Y-5099000D02*
G75*
G03X8121000Y-5099000I-45000J0D01*
G01*
X8121000Y-5353000D02*
G75*
G03X8121000Y-5353000I-45000J0D01*
G01*
X8375000Y-5099000D02*
G75*
G03X8375000Y-5099000I-45000J0D01*
G01*
X8375000Y-5353000D02*
G75*
G03X8375000Y-5353000I-45000J0D01*
G01*
X8629000Y-5099000D02*
G75*
G03X8629000Y-5099000I-45000J0D01*
G01*
X8629000Y-5353000D02*
G75*
G03X8629000Y-5353000I-45000J0D01*
G01*
X8808000Y-8656000D02*
G75*
G03X8808000Y-8656000I-45000J0D01*
G01*
X8748000Y-8691000D02*
X8778000Y-8691000D01*
X8748000Y-8621000D02*
X8778000Y-8621000D01*
X8778000Y-8691000D02*
G75*
G03X8778000Y-8621000I0J35000D01*
G01*
X8748000Y-8621000D02*
G75*
G03X8748000Y-8691000I0J-35000D01*
G01*
X8808000Y-9906000D02*
G75*
G03X8808000Y-9906000I-45000J0D01*
G01*
X8748000Y-9941000D02*
X8778000Y-9941000D01*
X8748000Y-9871000D02*
X8778000Y-9871000D01*
X8778000Y-9941000D02*
G75*
G03X8778000Y-9871000I0J35000D01*
G01*
X8748000Y-9871000D02*
G75*
G03X8748000Y-9941000I0J-35000D01*
G01*
X8883000Y-5099000D02*
G75*
G03X8883000Y-5099000I-45000J0D01*
G01*
X8883000Y-5353000D02*
G75*
G03X8883000Y-5353000I-45000J0D01*
G01*
X9137000Y-5099000D02*
G75*
G03X9137000Y-5099000I-45000J0D01*
G01*
X9137000Y-5353000D02*
G75*
G03X9137000Y-5353000I-45000J0D01*
G01*
X9308000Y-8656000D02*
G75*
G03X9308000Y-8656000I-45000J0D01*
G01*
X9248000Y-8691000D02*
X9278000Y-8691000D01*
X9248000Y-8621000D02*
X9278000Y-8621000D01*
X9278000Y-8691000D02*
G75*
G03X9278000Y-8621000I0J35000D01*
G01*
X9248000Y-8621000D02*
G75*
G03X9248000Y-8691000I0J-35000D01*
G01*
X9308000Y-9906000D02*
G75*
G03X9308000Y-9906000I-45000J0D01*
G01*
X9248000Y-9941000D02*
X9278000Y-9941000D01*
X9248000Y-9871000D02*
X9278000Y-9871000D01*
X9278000Y-9941000D02*
G75*
G03X9278000Y-9871000I0J35000D01*
G01*
X9248000Y-9871000D02*
G75*
G03X9248000Y-9941000I0J-35000D01*
G01*
X9391000Y-5099000D02*
G75*
G03X9391000Y-5099000I-45000J0D01*
G01*
X9391000Y-5353000D02*
G75*
G03X9391000Y-5353000I-45000J0D01*
G01*
X9645000Y-5099000D02*
G75*
G03X9645000Y-5099000I-45000J0D01*
G01*
X9645000Y-5353000D02*
G75*
G03X9645000Y-5353000I-45000J0D01*
G01*
X9899000Y-5099000D02*
G75*
G03X9899000Y-5099000I-45000J0D01*
G01*
X9899000Y-5353000D02*
G75*
G03X9899000Y-5353000I-45000J0D01*
G01*
X10153000Y-5099000D02*
G75*
G03X10153000Y-5099000I-45000J0D01*
G01*
X10153000Y-5353000D02*
G75*
G03X10153000Y-5353000I-45000J0D01*
G01*
X10205000Y-8656000D02*
G75*
G03X10205000Y-8656000I-45000J0D01*
G01*
X10145000Y-8691000D02*
X10175000Y-8691000D01*
X10145000Y-8621000D02*
X10175000Y-8621000D01*
X10175000Y-8691000D02*
G75*
G03X10175000Y-8621000I0J35000D01*
G01*
X10145000Y-8621000D02*
G75*
G03X10145000Y-8691000I0J-35000D01*
G01*
X10205000Y-9906000D02*
G75*
G03X10205000Y-9906000I-45000J0D01*
G01*
X10145000Y-9941000D02*
X10175000Y-9941000D01*
X10145000Y-9871000D02*
X10175000Y-9871000D01*
X10175000Y-9941000D02*
G75*
G03X10175000Y-9871000I0J35000D01*
G01*
X10145000Y-9871000D02*
G75*
G03X10145000Y-9941000I0J-35000D01*
G01*
X10407000Y-5099000D02*
G75*
G03X10407000Y-5099000I-45000J0D01*
G01*
X10407000Y-5353000D02*
G75*
G03X10407000Y-5353000I-45000J0D01*
G01*
X10661000Y-5099000D02*
G75*
G03X10661000Y-5099000I-45000J0D01*
G01*
X10661000Y-5353000D02*
G75*
G03X10661000Y-5353000I-45000J0D01*
G01*
X10705000Y-8656000D02*
G75*
G03X10705000Y-8656000I-45000J0D01*
G01*
X10645000Y-8691000D02*
X10675000Y-8691000D01*
X10645000Y-8621000D02*
X10675000Y-8621000D01*
X10675000Y-8691000D02*
G75*
G03X10675000Y-8621000I0J35000D01*
G01*
X10645000Y-8621000D02*
G75*
G03X10645000Y-8691000I0J-35000D01*
G01*
X10705000Y-9906000D02*
G75*
G03X10705000Y-9906000I-45000J0D01*
G01*
X10645000Y-9941000D02*
X10675000Y-9941000D01*
X10645000Y-9871000D02*
X10675000Y-9871000D01*
X10675000Y-9941000D02*
G75*
G03X10675000Y-9871000I0J35000D01*
G01*
X10645000Y-9871000D02*
G75*
G03X10645000Y-9941000I0J-35000D01*
G01*
X10915000Y-5099000D02*
G75*
G03X10915000Y-5099000I-45000J0D01*
G01*
X10915000Y-5353000D02*
G75*
G03X10915000Y-5353000I-45000J0D01*
G01*
X5557000Y-5091000D02*
X5557000Y-5361000D01*
X5422000Y-5226000D02*
X5692000Y-5226000D01*
X5557000Y-9991000D02*
X5557000Y-10261000D01*
X5422000Y-10126000D02*
X5692000Y-10126000D01*
X11357000Y-5091000D02*
X11357000Y-5361000D01*
X11222000Y-5226000D02*
X11492000Y-5226000D01*
X11357000Y-9991000D02*
X11357000Y-10261000D01*
X11222000Y-10126000D02*
X11492000Y-10126000D01*
D13*
X5473429Y-10946714D02*
X5473429Y-10646714D01*
X5544857Y-10646714D01*
X5587714Y-10661000D01*
X5616286Y-10689572D01*
X5630571Y-10718143D01*
X5644857Y-10775286D01*
X5644857Y-10818143D01*
X5630571Y-10875286D01*
X5616286Y-10903857D01*
X5587714Y-10932429D01*
X5544857Y-10946714D01*
X5473429Y-10946714D01*
X5773428Y-10946714D02*
X5773428Y-10746714D01*
X5773428Y-10803857D02*
X5787714Y-10775286D01*
X5802000Y-10761000D01*
X5830571Y-10746714D01*
X5859143Y-10746714D01*
X5959143Y-10946714D02*
X5959143Y-10746714D01*
X5959143Y-10646714D02*
X5944857Y-10661000D01*
X5959143Y-10675286D01*
X5973428Y-10661000D01*
X5959143Y-10646714D01*
X5959143Y-10675286D01*
X6144857Y-10946714D02*
X6116286Y-10932429D01*
X6102000Y-10903857D01*
X6102000Y-10646714D01*
X6302000Y-10946714D02*
X6273428Y-10932429D01*
X6259143Y-10903857D01*
X6259143Y-10646714D01*
X6644857Y-10946714D02*
X6644857Y-10646714D01*
X6744857Y-10861000D01*
X6844857Y-10646714D01*
X6844857Y-10946714D01*
X7116286Y-10946714D02*
X7116286Y-10789572D01*
X7102000Y-10761000D01*
X7073428Y-10746714D01*
X7016286Y-10746714D01*
X6987714Y-10761000D01*
X7116286Y-10932429D02*
X7087714Y-10946714D01*
X7016286Y-10946714D01*
X6987714Y-10932429D01*
X6973428Y-10903857D01*
X6973428Y-10875286D01*
X6987714Y-10846714D01*
X7016286Y-10832429D01*
X7087714Y-10832429D01*
X7116286Y-10818143D01*
X7259143Y-10746714D02*
X7259143Y-11046714D01*
X7259143Y-10761000D02*
X7287714Y-10746714D01*
X7344857Y-10746714D01*
X7373428Y-10761000D01*
X7387714Y-10775286D01*
X7402000Y-10803857D01*
X7402000Y-10889572D01*
X7387714Y-10918143D01*
X7373428Y-10932429D01*
X7344857Y-10946714D01*
X7287714Y-10946714D01*
X7259143Y-10932429D01*
X7530571Y-10918143D02*
X7544857Y-10932429D01*
X7530571Y-10946714D01*
X7516286Y-10932429D01*
X7530571Y-10918143D01*
X7530571Y-10946714D01*
X7530571Y-10761000D02*
X7544857Y-10775286D01*
X7530571Y-10789572D01*
X7516286Y-10775286D01*
X7530571Y-10761000D01*
X7530571Y-10789572D01*
X5142000Y-11411000D02*
X5202000Y-11471000D01*
X5202000Y-11411000D02*
X5142000Y-11471000D01*
X5530571Y-11276714D02*
X5559143Y-11276714D01*
X5587714Y-11291000D01*
X5602000Y-11305286D01*
X5616286Y-11333857D01*
X5630571Y-11391000D01*
X5630571Y-11462429D01*
X5616286Y-11519571D01*
X5602000Y-11548143D01*
X5587714Y-11562429D01*
X5559143Y-11576714D01*
X5530571Y-11576714D01*
X5502000Y-11562429D01*
X5487714Y-11548143D01*
X5473429Y-11519571D01*
X5459143Y-11462429D01*
X5459143Y-11391000D01*
X5473429Y-11333857D01*
X5487714Y-11305286D01*
X5502000Y-11291000D01*
X5530571Y-11276714D01*
X5759143Y-11548143D02*
X5773428Y-11562429D01*
X5759143Y-11576714D01*
X5744857Y-11562429D01*
X5759143Y-11548143D01*
X5759143Y-11576714D01*
X6030571Y-11276714D02*
X5973428Y-11276714D01*
X5944857Y-11291000D01*
X5930571Y-11305286D01*
X5902000Y-11348143D01*
X5887714Y-11405286D01*
X5887714Y-11519571D01*
X5902000Y-11548143D01*
X5916286Y-11562429D01*
X5944857Y-11576714D01*
X6002000Y-11576714D01*
X6030571Y-11562429D01*
X6044857Y-11548143D01*
X6059143Y-11519571D01*
X6059143Y-11448143D01*
X6044857Y-11419571D01*
X6030571Y-11405286D01*
X6002000Y-11391000D01*
X5944857Y-11391000D01*
X5916286Y-11405286D01*
X5902000Y-11419571D01*
X5887714Y-11448143D01*
X6244857Y-11276714D02*
X6273428Y-11276714D01*
X6302000Y-11291000D01*
X6316286Y-11305286D01*
X6330571Y-11333857D01*
X6344857Y-11391000D01*
X6344857Y-11462429D01*
X6330571Y-11519571D01*
X6316286Y-11548143D01*
X6302000Y-11562429D01*
X6273428Y-11576714D01*
X6244857Y-11576714D01*
X6216286Y-11562429D01*
X6202000Y-11548143D01*
X6187714Y-11519571D01*
X6173428Y-11462429D01*
X6173428Y-11391000D01*
X6187714Y-11333857D01*
X6202000Y-11305286D01*
X6216286Y-11291000D01*
X6244857Y-11276714D01*
X6473428Y-11576714D02*
X6473428Y-11376714D01*
X6473428Y-11405286D02*
X6487714Y-11391000D01*
X6516286Y-11376714D01*
X6559143Y-11376714D01*
X6587714Y-11391000D01*
X6602000Y-11419571D01*
X6602000Y-11576714D01*
X6602000Y-11419571D02*
X6616286Y-11391000D01*
X6644857Y-11376714D01*
X6687714Y-11376714D01*
X6716286Y-11391000D01*
X6730571Y-11419571D01*
X6730571Y-11576714D01*
X6873428Y-11576714D02*
X6873428Y-11376714D01*
X6873428Y-11405286D02*
X6887714Y-11391000D01*
X6916286Y-11376714D01*
X6959143Y-11376714D01*
X6987714Y-11391000D01*
X7002000Y-11419571D01*
X7002000Y-11576714D01*
X7002000Y-11419571D02*
X7016286Y-11391000D01*
X7044857Y-11376714D01*
X7087714Y-11376714D01*
X7116286Y-11391000D01*
X7130571Y-11419571D01*
X7130571Y-11576714D01*
X7716286Y-11262429D02*
X7459143Y-11648143D01*
X8102000Y-11276714D02*
X8130571Y-11276714D01*
X8159143Y-11291000D01*
X8173428Y-11305286D01*
X8187714Y-11333857D01*
X8202000Y-11391000D01*
X8202000Y-11462429D01*
X8187714Y-11519571D01*
X8173428Y-11548143D01*
X8159143Y-11562429D01*
X8130571Y-11576714D01*
X8102000Y-11576714D01*
X8073428Y-11562429D01*
X8059143Y-11548143D01*
X8044857Y-11519571D01*
X8030571Y-11462429D01*
X8030571Y-11391000D01*
X8044857Y-11333857D01*
X8059143Y-11305286D01*
X8073428Y-11291000D01*
X8102000Y-11276714D01*
X8330571Y-11548143D02*
X8344857Y-11562429D01*
X8330571Y-11576714D01*
X8316286Y-11562429D01*
X8330571Y-11548143D01*
X8330571Y-11576714D01*
X8530571Y-11276714D02*
X8559143Y-11276714D01*
X8587714Y-11291000D01*
X8602000Y-11305286D01*
X8616286Y-11333857D01*
X8630571Y-11391000D01*
X8630571Y-11462429D01*
X8616286Y-11519571D01*
X8602000Y-11548143D01*
X8587714Y-11562429D01*
X8559143Y-11576714D01*
X8530571Y-11576714D01*
X8502000Y-11562429D01*
X8487714Y-11548143D01*
X8473428Y-11519571D01*
X8459143Y-11462429D01*
X8459143Y-11391000D01*
X8473428Y-11333857D01*
X8487714Y-11305286D01*
X8502000Y-11291000D01*
X8530571Y-11276714D01*
X8744857Y-11305286D02*
X8759143Y-11291000D01*
X8787714Y-11276714D01*
X8859143Y-11276714D01*
X8887714Y-11291000D01*
X8902000Y-11305286D01*
X8916286Y-11333857D01*
X8916286Y-11362429D01*
X8902000Y-11405286D01*
X8730571Y-11576714D01*
X8916286Y-11576714D01*
X9173428Y-11376714D02*
X9173428Y-11576714D01*
X9102000Y-11262429D02*
X9030571Y-11476714D01*
X9216286Y-11476714D01*
X9316286Y-11276714D02*
X9316286Y-11333857D01*
X9430571Y-11276714D02*
X9430571Y-11333857D01*
X9873428Y-11691000D02*
X9859143Y-11676714D01*
X9830571Y-11633857D01*
X9816286Y-11605286D01*
X9802000Y-11562429D01*
X9787714Y-11491000D01*
X9787714Y-11433857D01*
X9802000Y-11362429D01*
X9816286Y-11319571D01*
X9830571Y-11291000D01*
X9859143Y-11248143D01*
X9873428Y-11233857D01*
X10144857Y-11576714D02*
X9973428Y-11576714D01*
X10059143Y-11576714D02*
X10059143Y-11276714D01*
X10030571Y-11319571D01*
X10002000Y-11348143D01*
X9973428Y-11362429D01*
X10330571Y-11276714D02*
X10359143Y-11276714D01*
X10387714Y-11291000D01*
X10402000Y-11305286D01*
X10416286Y-11333857D01*
X10430571Y-11391000D01*
X10430571Y-11462429D01*
X10416286Y-11519571D01*
X10402000Y-11548143D01*
X10387714Y-11562429D01*
X10359143Y-11576714D01*
X10330571Y-11576714D01*
X10302000Y-11562429D01*
X10287714Y-11548143D01*
X10273428Y-11519571D01*
X10259143Y-11462429D01*
X10259143Y-11391000D01*
X10273428Y-11333857D01*
X10287714Y-11305286D01*
X10302000Y-11291000D01*
X10330571Y-11276714D01*
X10787714Y-11576714D02*
X10787714Y-11276714D01*
X10916286Y-11576714D02*
X10916286Y-11419571D01*
X10902000Y-11391000D01*
X10873428Y-11376714D01*
X10830571Y-11376714D01*
X10802000Y-11391000D01*
X10787714Y-11405286D01*
X11102000Y-11576714D02*
X11073428Y-11562429D01*
X11059143Y-11548143D01*
X11044857Y-11519571D01*
X11044857Y-11433857D01*
X11059143Y-11405286D01*
X11073428Y-11391000D01*
X11102000Y-11376714D01*
X11144857Y-11376714D01*
X11173428Y-11391000D01*
X11187714Y-11405286D01*
X11202000Y-11433857D01*
X11202000Y-11519571D01*
X11187714Y-11548143D01*
X11173428Y-11562429D01*
X11144857Y-11576714D01*
X11102000Y-11576714D01*
X11373428Y-11576714D02*
X11344857Y-11562429D01*
X11330571Y-11533857D01*
X11330571Y-11276714D01*
X11602000Y-11562429D02*
X11573428Y-11576714D01*
X11516286Y-11576714D01*
X11487714Y-11562429D01*
X11473428Y-11533857D01*
X11473428Y-11419571D01*
X11487714Y-11391000D01*
X11516286Y-11376714D01*
X11573428Y-11376714D01*
X11602000Y-11391000D01*
X11616286Y-11419571D01*
X11616286Y-11448143D01*
X11473428Y-11476714D01*
X11730571Y-11562429D02*
X11759143Y-11576714D01*
X11816286Y-11576714D01*
X11844857Y-11562429D01*
X11859143Y-11533857D01*
X11859143Y-11519571D01*
X11844857Y-11491000D01*
X11816286Y-11476714D01*
X11773428Y-11476714D01*
X11744857Y-11462429D01*
X11730571Y-11433857D01*
X11730571Y-11419571D01*
X11744857Y-11391000D01*
X11773428Y-11376714D01*
X11816286Y-11376714D01*
X11844857Y-11391000D01*
X11959143Y-11691000D02*
X11973428Y-11676714D01*
X12002000Y-11633857D01*
X12016286Y-11605286D01*
X12030571Y-11562429D01*
X12044857Y-11491000D01*
X12044857Y-11433857D01*
X12030571Y-11362429D01*
X12016286Y-11319571D01*
X12002000Y-11291000D01*
X11973428Y-11248143D01*
X11959143Y-11233857D01*
X5202000Y-11837000D02*
G75*
G03X5202000Y-11837000I-45000J0D01*
G01*
X5530571Y-11672714D02*
X5559143Y-11672714D01*
X5587714Y-11687000D01*
X5602000Y-11701286D01*
X5616286Y-11729857D01*
X5630571Y-11787000D01*
X5630571Y-11858429D01*
X5616286Y-11915571D01*
X5602000Y-11944143D01*
X5587714Y-11958429D01*
X5559143Y-11972714D01*
X5530571Y-11972714D01*
X5502000Y-11958429D01*
X5487714Y-11944143D01*
X5473429Y-11915571D01*
X5459143Y-11858429D01*
X5459143Y-11787000D01*
X5473429Y-11729857D01*
X5487714Y-11701286D01*
X5502000Y-11687000D01*
X5530571Y-11672714D01*
X5759143Y-11944143D02*
X5773428Y-11958429D01*
X5759143Y-11972714D01*
X5744857Y-11958429D01*
X5759143Y-11944143D01*
X5759143Y-11972714D01*
X5916286Y-11972714D02*
X5973428Y-11972714D01*
X6002000Y-11958429D01*
X6016286Y-11944143D01*
X6044857Y-11901286D01*
X6059143Y-11844143D01*
X6059143Y-11729857D01*
X6044857Y-11701286D01*
X6030571Y-11687000D01*
X6002000Y-11672714D01*
X5944857Y-11672714D01*
X5916286Y-11687000D01*
X5902000Y-11701286D01*
X5887714Y-11729857D01*
X5887714Y-11801286D01*
X5902000Y-11829857D01*
X5916286Y-11844143D01*
X5944857Y-11858429D01*
X6002000Y-11858429D01*
X6030571Y-11844143D01*
X6044857Y-11829857D01*
X6059143Y-11801286D01*
X6244857Y-11672714D02*
X6273428Y-11672714D01*
X6302000Y-11687000D01*
X6316286Y-11701286D01*
X6330571Y-11729857D01*
X6344857Y-11787000D01*
X6344857Y-11858429D01*
X6330571Y-11915571D01*
X6316286Y-11944143D01*
X6302000Y-11958429D01*
X6273428Y-11972714D01*
X6244857Y-11972714D01*
X6216286Y-11958429D01*
X6202000Y-11944143D01*
X6187714Y-11915571D01*
X6173428Y-11858429D01*
X6173428Y-11787000D01*
X6187714Y-11729857D01*
X6202000Y-11701286D01*
X6216286Y-11687000D01*
X6244857Y-11672714D01*
X6473428Y-11972714D02*
X6473428Y-11772714D01*
X6473428Y-11801286D02*
X6487714Y-11787000D01*
X6516286Y-11772714D01*
X6559143Y-11772714D01*
X6587714Y-11787000D01*
X6602000Y-11815571D01*
X6602000Y-11972714D01*
X6602000Y-11815571D02*
X6616286Y-11787000D01*
X6644857Y-11772714D01*
X6687714Y-11772714D01*
X6716286Y-11787000D01*
X6730571Y-11815571D01*
X6730571Y-11972714D01*
X6873428Y-11972714D02*
X6873428Y-11772714D01*
X6873428Y-11801286D02*
X6887714Y-11787000D01*
X6916286Y-11772714D01*
X6959143Y-11772714D01*
X6987714Y-11787000D01*
X7002000Y-11815571D01*
X7002000Y-11972714D01*
X7002000Y-11815571D02*
X7016286Y-11787000D01*
X7044857Y-11772714D01*
X7087714Y-11772714D01*
X7116286Y-11787000D01*
X7130571Y-11815571D01*
X7130571Y-11972714D01*
X7716286Y-11658429D02*
X7459143Y-12044143D01*
X8102000Y-11672714D02*
X8130571Y-11672714D01*
X8159143Y-11687000D01*
X8173428Y-11701286D01*
X8187714Y-11729857D01*
X8202000Y-11787000D01*
X8202000Y-11858429D01*
X8187714Y-11915571D01*
X8173428Y-11944143D01*
X8159143Y-11958429D01*
X8130571Y-11972714D01*
X8102000Y-11972714D01*
X8073428Y-11958429D01*
X8059143Y-11944143D01*
X8044857Y-11915571D01*
X8030571Y-11858429D01*
X8030571Y-11787000D01*
X8044857Y-11729857D01*
X8059143Y-11701286D01*
X8073428Y-11687000D01*
X8102000Y-11672714D01*
X8330571Y-11944143D02*
X8344857Y-11958429D01*
X8330571Y-11972714D01*
X8316286Y-11958429D01*
X8330571Y-11944143D01*
X8330571Y-11972714D01*
X8530571Y-11672714D02*
X8559143Y-11672714D01*
X8587714Y-11687000D01*
X8602000Y-11701286D01*
X8616286Y-11729857D01*
X8630571Y-11787000D01*
X8630571Y-11858429D01*
X8616286Y-11915571D01*
X8602000Y-11944143D01*
X8587714Y-11958429D01*
X8559143Y-11972714D01*
X8530571Y-11972714D01*
X8502000Y-11958429D01*
X8487714Y-11944143D01*
X8473428Y-11915571D01*
X8459143Y-11858429D01*
X8459143Y-11787000D01*
X8473428Y-11729857D01*
X8487714Y-11701286D01*
X8502000Y-11687000D01*
X8530571Y-11672714D01*
X8730571Y-11672714D02*
X8916286Y-11672714D01*
X8816286Y-11787000D01*
X8859143Y-11787000D01*
X8887714Y-11801286D01*
X8902000Y-11815571D01*
X8916286Y-11844143D01*
X8916286Y-11915571D01*
X8902000Y-11944143D01*
X8887714Y-11958429D01*
X8859143Y-11972714D01*
X8773428Y-11972714D01*
X8744857Y-11958429D01*
X8730571Y-11944143D01*
X9187714Y-11672714D02*
X9044857Y-11672714D01*
X9030571Y-11815571D01*
X9044857Y-11801286D01*
X9073428Y-11787000D01*
X9144857Y-11787000D01*
X9173428Y-11801286D01*
X9187714Y-11815571D01*
X9202000Y-11844143D01*
X9202000Y-11915571D01*
X9187714Y-11944143D01*
X9173428Y-11958429D01*
X9144857Y-11972714D01*
X9073428Y-11972714D01*
X9044857Y-11958429D01*
X9030571Y-11944143D01*
X9316286Y-11672714D02*
X9316286Y-11729857D01*
X9430571Y-11672714D02*
X9430571Y-11729857D01*
X9873428Y-12087000D02*
X9859143Y-12072714D01*
X9830571Y-12029857D01*
X9816286Y-12001286D01*
X9802000Y-11958429D01*
X9787714Y-11887000D01*
X9787714Y-11829857D01*
X9802000Y-11758429D01*
X9816286Y-11715571D01*
X9830571Y-11687000D01*
X9859143Y-11644143D01*
X9873428Y-11629857D01*
X10116286Y-11772714D02*
X10116286Y-11972714D01*
X10044857Y-11658429D02*
X9973428Y-11872714D01*
X10159143Y-11872714D01*
X10330571Y-11672714D02*
X10359143Y-11672714D01*
X10387714Y-11687000D01*
X10402000Y-11701286D01*
X10416286Y-11729857D01*
X10430571Y-11787000D01*
X10430571Y-11858429D01*
X10416286Y-11915571D01*
X10402000Y-11944143D01*
X10387714Y-11958429D01*
X10359143Y-11972714D01*
X10330571Y-11972714D01*
X10302000Y-11958429D01*
X10287714Y-11944143D01*
X10273428Y-11915571D01*
X10259143Y-11858429D01*
X10259143Y-11787000D01*
X10273428Y-11729857D01*
X10287714Y-11701286D01*
X10302000Y-11687000D01*
X10330571Y-11672714D01*
X10787714Y-11972714D02*
X10787714Y-11672714D01*
X10916286Y-11972714D02*
X10916286Y-11815571D01*
X10902000Y-11787000D01*
X10873428Y-11772714D01*
X10830571Y-11772714D01*
X10802000Y-11787000D01*
X10787714Y-11801286D01*
X11102000Y-11972714D02*
X11073428Y-11958429D01*
X11059143Y-11944143D01*
X11044857Y-11915571D01*
X11044857Y-11829857D01*
X11059143Y-11801286D01*
X11073428Y-11787000D01*
X11102000Y-11772714D01*
X11144857Y-11772714D01*
X11173428Y-11787000D01*
X11187714Y-11801286D01*
X11202000Y-11829857D01*
X11202000Y-11915571D01*
X11187714Y-11944143D01*
X11173428Y-11958429D01*
X11144857Y-11972714D01*
X11102000Y-11972714D01*
X11373428Y-11972714D02*
X11344857Y-11958429D01*
X11330571Y-11929857D01*
X11330571Y-11672714D01*
X11602000Y-11958429D02*
X11573428Y-11972714D01*
X11516286Y-11972714D01*
X11487714Y-11958429D01*
X11473428Y-11929857D01*
X11473428Y-11815571D01*
X11487714Y-11787000D01*
X11516286Y-11772714D01*
X11573428Y-11772714D01*
X11602000Y-11787000D01*
X11616286Y-11815571D01*
X11616286Y-11844143D01*
X11473428Y-11872714D01*
X11730571Y-11958429D02*
X11759143Y-11972714D01*
X11816286Y-11972714D01*
X11844857Y-11958429D01*
X11859143Y-11929857D01*
X11859143Y-11915571D01*
X11844857Y-11887000D01*
X11816286Y-11872714D01*
X11773428Y-11872714D01*
X11744857Y-11858429D01*
X11730571Y-11829857D01*
X11730571Y-11815571D01*
X11744857Y-11787000D01*
X11773428Y-11772714D01*
X11816286Y-11772714D01*
X11844857Y-11787000D01*
X12216286Y-11858429D02*
X12444857Y-11858429D01*
X12330571Y-11972714D02*
X12330571Y-11744143D01*
X12973428Y-11972714D02*
X12802000Y-11972714D01*
X12887714Y-11972714D02*
X12887714Y-11672714D01*
X12859143Y-11715571D01*
X12830571Y-11744143D01*
X12802000Y-11758429D01*
X13230571Y-11672714D02*
X13173428Y-11672714D01*
X13144857Y-11687000D01*
X13130571Y-11701286D01*
X13102000Y-11744143D01*
X13087714Y-11801286D01*
X13087714Y-11915571D01*
X13102000Y-11944143D01*
X13116286Y-11958429D01*
X13144857Y-11972714D01*
X13202000Y-11972714D01*
X13230571Y-11958429D01*
X13244857Y-11944143D01*
X13259143Y-11915571D01*
X13259143Y-11844143D01*
X13244857Y-11815571D01*
X13230571Y-11801286D01*
X13202000Y-11787000D01*
X13144857Y-11787000D01*
X13116286Y-11801286D01*
X13102000Y-11815571D01*
X13087714Y-11844143D01*
X13602000Y-11958429D02*
X13630571Y-11972714D01*
X13687714Y-11972714D01*
X13716286Y-11958429D01*
X13730571Y-11929857D01*
X13730571Y-11915571D01*
X13716286Y-11887000D01*
X13687714Y-11872714D01*
X13644857Y-11872714D01*
X13616286Y-11858429D01*
X13602000Y-11829857D01*
X13602000Y-11815571D01*
X13616286Y-11787000D01*
X13644857Y-11772714D01*
X13687714Y-11772714D01*
X13716286Y-11787000D01*
X13902000Y-11972714D02*
X13873428Y-11958429D01*
X13859143Y-11929857D01*
X13859143Y-11672714D01*
X14059143Y-11972714D02*
X14030571Y-11958429D01*
X14016286Y-11944143D01*
X14002000Y-11915571D01*
X14002000Y-11829857D01*
X14016286Y-11801286D01*
X14030571Y-11787000D01*
X14059143Y-11772714D01*
X14102000Y-11772714D01*
X14130571Y-11787000D01*
X14144857Y-11801286D01*
X14159143Y-11829857D01*
X14159143Y-11915571D01*
X14144857Y-11944143D01*
X14130571Y-11958429D01*
X14102000Y-11972714D01*
X14059143Y-11972714D01*
X14244857Y-11772714D02*
X14359143Y-11772714D01*
X14287714Y-11672714D02*
X14287714Y-11929857D01*
X14302000Y-11958429D01*
X14330571Y-11972714D01*
X14359143Y-11972714D01*
X14444857Y-11958429D02*
X14473428Y-11972714D01*
X14530571Y-11972714D01*
X14559143Y-11958429D01*
X14573428Y-11929857D01*
X14573428Y-11915571D01*
X14559143Y-11887000D01*
X14530571Y-11872714D01*
X14487714Y-11872714D01*
X14459143Y-11858429D01*
X14444857Y-11829857D01*
X14444857Y-11815571D01*
X14459143Y-11787000D01*
X14487714Y-11772714D01*
X14530571Y-11772714D01*
X14559143Y-11787000D01*
X14673428Y-12087000D02*
X14687714Y-12072714D01*
X14716286Y-12029857D01*
X14730571Y-12001286D01*
X14744857Y-11958429D01*
X14759143Y-11887000D01*
X14759143Y-11829857D01*
X14744857Y-11758429D01*
X14730571Y-11715571D01*
X14716286Y-11687000D01*
X14687714Y-11644143D01*
X14673428Y-11629857D01*
X5067000Y-12098000D02*
X5067000Y-12368000D01*
X4932000Y-12233000D02*
X5202000Y-12233000D01*
X5459143Y-12097286D02*
X5473429Y-12083000D01*
X5502000Y-12068714D01*
X5573429Y-12068714D01*
X5602000Y-12083000D01*
X5616286Y-12097286D01*
X5630571Y-12125857D01*
X5630571Y-12154429D01*
X5616286Y-12197286D01*
X5444857Y-12368714D01*
X5630571Y-12368714D01*
X5759143Y-12340143D02*
X5773428Y-12354429D01*
X5759143Y-12368714D01*
X5744857Y-12354429D01*
X5759143Y-12340143D01*
X5759143Y-12368714D01*
X5873428Y-12068714D02*
X6073428Y-12068714D01*
X5944857Y-12368714D01*
X6244857Y-12068714D02*
X6273428Y-12068714D01*
X6302000Y-12083000D01*
X6316286Y-12097286D01*
X6330571Y-12125857D01*
X6344857Y-12183000D01*
X6344857Y-12254429D01*
X6330571Y-12311571D01*
X6316286Y-12340143D01*
X6302000Y-12354429D01*
X6273428Y-12368714D01*
X6244857Y-12368714D01*
X6216286Y-12354429D01*
X6202000Y-12340143D01*
X6187714Y-12311571D01*
X6173428Y-12254429D01*
X6173428Y-12183000D01*
X6187714Y-12125857D01*
X6202000Y-12097286D01*
X6216286Y-12083000D01*
X6244857Y-12068714D01*
X6473428Y-12368714D02*
X6473428Y-12168714D01*
X6473428Y-12197286D02*
X6487714Y-12183000D01*
X6516286Y-12168714D01*
X6559143Y-12168714D01*
X6587714Y-12183000D01*
X6602000Y-12211571D01*
X6602000Y-12368714D01*
X6602000Y-12211571D02*
X6616286Y-12183000D01*
X6644857Y-12168714D01*
X6687714Y-12168714D01*
X6716286Y-12183000D01*
X6730571Y-12211571D01*
X6730571Y-12368714D01*
X6873428Y-12368714D02*
X6873428Y-12168714D01*
X6873428Y-12197286D02*
X6887714Y-12183000D01*
X6916286Y-12168714D01*
X6959143Y-12168714D01*
X6987714Y-12183000D01*
X7002000Y-12211571D01*
X7002000Y-12368714D01*
X7002000Y-12211571D02*
X7016286Y-12183000D01*
X7044857Y-12168714D01*
X7087714Y-12168714D01*
X7116286Y-12183000D01*
X7130571Y-12211571D01*
X7130571Y-12368714D01*
X7716286Y-12054429D02*
X7459143Y-12440143D01*
X8102000Y-12068714D02*
X8130571Y-12068714D01*
X8159143Y-12083000D01*
X8173428Y-12097286D01*
X8187714Y-12125857D01*
X8202000Y-12183000D01*
X8202000Y-12254429D01*
X8187714Y-12311571D01*
X8173428Y-12340143D01*
X8159143Y-12354429D01*
X8130571Y-12368714D01*
X8102000Y-12368714D01*
X8073428Y-12354429D01*
X8059143Y-12340143D01*
X8044857Y-12311571D01*
X8030571Y-12254429D01*
X8030571Y-12183000D01*
X8044857Y-12125857D01*
X8059143Y-12097286D01*
X8073428Y-12083000D01*
X8102000Y-12068714D01*
X8330571Y-12340143D02*
X8344857Y-12354429D01*
X8330571Y-12368714D01*
X8316286Y-12354429D01*
X8330571Y-12340143D01*
X8330571Y-12368714D01*
X8630571Y-12368714D02*
X8459143Y-12368714D01*
X8544857Y-12368714D02*
X8544857Y-12068714D01*
X8516286Y-12111571D01*
X8487714Y-12140143D01*
X8459143Y-12154429D01*
X8816286Y-12068714D02*
X8844857Y-12068714D01*
X8873428Y-12083000D01*
X8887714Y-12097286D01*
X8902000Y-12125857D01*
X8916286Y-12183000D01*
X8916286Y-12254429D01*
X8902000Y-12311571D01*
X8887714Y-12340143D01*
X8873428Y-12354429D01*
X8844857Y-12368714D01*
X8816286Y-12368714D01*
X8787714Y-12354429D01*
X8773428Y-12340143D01*
X8759143Y-12311571D01*
X8744857Y-12254429D01*
X8744857Y-12183000D01*
X8759143Y-12125857D01*
X8773428Y-12097286D01*
X8787714Y-12083000D01*
X8816286Y-12068714D01*
X9173428Y-12068714D02*
X9116286Y-12068714D01*
X9087714Y-12083000D01*
X9073428Y-12097286D01*
X9044857Y-12140143D01*
X9030571Y-12197286D01*
X9030571Y-12311571D01*
X9044857Y-12340143D01*
X9059143Y-12354429D01*
X9087714Y-12368714D01*
X9144857Y-12368714D01*
X9173428Y-12354429D01*
X9187714Y-12340143D01*
X9202000Y-12311571D01*
X9202000Y-12240143D01*
X9187714Y-12211571D01*
X9173428Y-12197286D01*
X9144857Y-12183000D01*
X9087714Y-12183000D01*
X9059143Y-12197286D01*
X9044857Y-12211571D01*
X9030571Y-12240143D01*
X9316286Y-12068714D02*
X9316286Y-12125857D01*
X9430571Y-12068714D02*
X9430571Y-12125857D01*
X9873428Y-12483000D02*
X9859143Y-12468714D01*
X9830571Y-12425857D01*
X9816286Y-12397286D01*
X9802000Y-12354429D01*
X9787714Y-12283000D01*
X9787714Y-12225857D01*
X9802000Y-12154429D01*
X9816286Y-12111571D01*
X9830571Y-12083000D01*
X9859143Y-12040143D01*
X9873428Y-12025857D01*
X10116286Y-12168714D02*
X10116286Y-12368714D01*
X10044857Y-12054429D02*
X9973428Y-12268714D01*
X10159143Y-12268714D01*
X10502000Y-12368714D02*
X10502000Y-12068714D01*
X10630571Y-12368714D02*
X10630571Y-12211571D01*
X10616286Y-12183000D01*
X10587714Y-12168714D01*
X10544857Y-12168714D01*
X10516286Y-12183000D01*
X10502000Y-12197286D01*
X10816286Y-12368714D02*
X10787714Y-12354429D01*
X10773428Y-12340143D01*
X10759143Y-12311571D01*
X10759143Y-12225857D01*
X10773428Y-12197286D01*
X10787714Y-12183000D01*
X10816286Y-12168714D01*
X10859143Y-12168714D01*
X10887714Y-12183000D01*
X10902000Y-12197286D01*
X10916286Y-12225857D01*
X10916286Y-12311571D01*
X10902000Y-12340143D01*
X10887714Y-12354429D01*
X10859143Y-12368714D01*
X10816286Y-12368714D01*
X11087714Y-12368714D02*
X11059143Y-12354429D01*
X11044857Y-12325857D01*
X11044857Y-12068714D01*
X11316286Y-12354429D02*
X11287714Y-12368714D01*
X11230571Y-12368714D01*
X11202000Y-12354429D01*
X11187714Y-12325857D01*
X11187714Y-12211571D01*
X11202000Y-12183000D01*
X11230571Y-12168714D01*
X11287714Y-12168714D01*
X11316286Y-12183000D01*
X11330571Y-12211571D01*
X11330571Y-12240143D01*
X11187714Y-12268714D01*
X11444857Y-12354429D02*
X11473428Y-12368714D01*
X11530571Y-12368714D01*
X11559143Y-12354429D01*
X11573428Y-12325857D01*
X11573428Y-12311571D01*
X11559143Y-12283000D01*
X11530571Y-12268714D01*
X11487714Y-12268714D01*
X11459143Y-12254429D01*
X11444857Y-12225857D01*
X11444857Y-12211571D01*
X11459143Y-12183000D01*
X11487714Y-12168714D01*
X11530571Y-12168714D01*
X11559143Y-12183000D01*
X11673428Y-12483000D02*
X11687714Y-12468714D01*
X11716286Y-12425857D01*
X11730571Y-12397286D01*
X11744857Y-12354429D01*
X11759143Y-12283000D01*
X11759143Y-12225857D01*
X11744857Y-12154429D01*
X11730571Y-12111571D01*
X11716286Y-12083000D01*
X11687714Y-12040143D01*
X11673428Y-12025857D01*
M02*
