%TF.GenerationSoftware,KiCad,Pcbnew,4.0.7*%
%TF.CreationDate,2018-01-22T14:26:12+01:00*%
%TF.ProjectId,RPi_Hat,5250695F4861742E6B696361645F7063,rev?*%
%TF.FileFunction,Legend,Bot*%
%FSLAX46Y46*%
G04 Gerber Fmt 4.6, Leading zero omitted, Abs format (unit mm)*
G04 Created by KiCad (PCBNEW 4.0.7) date 01/22/18 14:26:12*
%MOMM*%
%LPD*%
G01*
G04 APERTURE LIST*
%ADD10C,0.050000*%
%ADD11C,0.100000*%
%ADD12C,0.300000*%
%ADD13C,0.250000*%
%ADD14C,0.120000*%
%ADD15C,0.010000*%
G04 APERTURE END LIST*
D10*
D11*
X55070000Y-48260000D02*
X114070000Y-48260000D01*
X117070000Y-51260000D02*
G75*
G03X114070000Y-48260000I-3000000J0D01*
G01*
X55070000Y-48260000D02*
G75*
G03X52070000Y-51260000I0J-3000000D01*
G01*
X117070000Y-51260000D02*
X117070000Y-101760000D01*
D12*
X115379583Y-86087783D02*
X115451011Y-86302069D01*
X115451011Y-86659212D01*
X115379583Y-86802069D01*
X115308154Y-86873498D01*
X115165297Y-86944926D01*
X115022440Y-86944926D01*
X114879583Y-86873498D01*
X114808154Y-86802069D01*
X114736726Y-86659212D01*
X114665297Y-86373498D01*
X114593869Y-86230640D01*
X114522440Y-86159212D01*
X114379583Y-86087783D01*
X114236726Y-86087783D01*
X114093869Y-86159212D01*
X114022440Y-86230640D01*
X113951011Y-86373498D01*
X113951011Y-86730640D01*
X114022440Y-86944926D01*
X114665297Y-88087783D02*
X114736726Y-88302069D01*
X114808154Y-88373497D01*
X114951011Y-88444926D01*
X115165297Y-88444926D01*
X115308154Y-88373497D01*
X115379583Y-88302069D01*
X115451011Y-88159211D01*
X115451011Y-87587783D01*
X113951011Y-87587783D01*
X113951011Y-88087783D01*
X114022440Y-88230640D01*
X114093869Y-88302069D01*
X114236726Y-88373497D01*
X114379583Y-88373497D01*
X114522440Y-88302069D01*
X114593869Y-88230640D01*
X114665297Y-88087783D01*
X114665297Y-87587783D01*
X115451011Y-89087783D02*
X113951011Y-89087783D01*
X114665297Y-89087783D02*
X114665297Y-89944926D01*
X115451011Y-89944926D02*
X113951011Y-89944926D01*
X115308154Y-91516355D02*
X115379583Y-91444926D01*
X115451011Y-91230640D01*
X115451011Y-91087783D01*
X115379583Y-90873498D01*
X115236726Y-90730640D01*
X115093869Y-90659212D01*
X114808154Y-90587783D01*
X114593869Y-90587783D01*
X114308154Y-90659212D01*
X114165297Y-90730640D01*
X114022440Y-90873498D01*
X113951011Y-91087783D01*
X113951011Y-91230640D01*
X114022440Y-91444926D01*
X114093869Y-91516355D01*
X114665297Y-92659212D02*
X114736726Y-92873498D01*
X114808154Y-92944926D01*
X114951011Y-93016355D01*
X115165297Y-93016355D01*
X115308154Y-92944926D01*
X115379583Y-92873498D01*
X115451011Y-92730640D01*
X115451011Y-92159212D01*
X113951011Y-92159212D01*
X113951011Y-92659212D01*
X114022440Y-92802069D01*
X114093869Y-92873498D01*
X114236726Y-92944926D01*
X114379583Y-92944926D01*
X114522440Y-92873498D01*
X114593869Y-92802069D01*
X114665297Y-92659212D01*
X114665297Y-92159212D01*
X115593869Y-93302069D02*
X115593869Y-94444926D01*
X113951011Y-94587783D02*
X115451011Y-95087783D01*
X113951011Y-95587783D01*
X114093869Y-96016354D02*
X114022440Y-96087783D01*
X113951011Y-96230640D01*
X113951011Y-96587783D01*
X114022440Y-96730640D01*
X114093869Y-96802069D01*
X114236726Y-96873497D01*
X114379583Y-96873497D01*
X114593869Y-96802069D01*
X115451011Y-95944926D01*
X115451011Y-96873497D01*
D13*
X53269583Y-95580380D02*
X54469583Y-95580380D01*
X53269583Y-95066094D02*
X53898154Y-95066094D01*
X54012440Y-95123237D01*
X54069583Y-95237523D01*
X54069583Y-95408951D01*
X54012440Y-95523237D01*
X53955297Y-95580380D01*
X54069583Y-94666094D02*
X54069583Y-94208951D01*
X54469583Y-94494666D02*
X53441011Y-94494666D01*
X53326726Y-94437523D01*
X53269583Y-94323237D01*
X53269583Y-94208951D01*
X54069583Y-93980380D02*
X54069583Y-93523237D01*
X54469583Y-93808952D02*
X53441011Y-93808952D01*
X53326726Y-93751809D01*
X53269583Y-93637523D01*
X53269583Y-93523237D01*
X54069583Y-93123238D02*
X52869583Y-93123238D01*
X54012440Y-93123238D02*
X54069583Y-93008952D01*
X54069583Y-92780381D01*
X54012440Y-92666095D01*
X53955297Y-92608952D01*
X53841011Y-92551809D01*
X53498154Y-92551809D01*
X53383869Y-92608952D01*
X53326726Y-92666095D01*
X53269583Y-92780381D01*
X53269583Y-93008952D01*
X53326726Y-93123238D01*
X53326726Y-92094667D02*
X53269583Y-91980381D01*
X53269583Y-91751809D01*
X53326726Y-91637524D01*
X53441011Y-91580381D01*
X53498154Y-91580381D01*
X53612440Y-91637524D01*
X53669583Y-91751809D01*
X53669583Y-91923238D01*
X53726726Y-92037524D01*
X53841011Y-92094667D01*
X53898154Y-92094667D01*
X54012440Y-92037524D01*
X54069583Y-91923238D01*
X54069583Y-91751809D01*
X54012440Y-91637524D01*
X53383869Y-91066095D02*
X53326726Y-91008952D01*
X53269583Y-91066095D01*
X53326726Y-91123238D01*
X53383869Y-91066095D01*
X53269583Y-91066095D01*
X54012440Y-91066095D02*
X53955297Y-91008952D01*
X53898154Y-91066095D01*
X53955297Y-91123238D01*
X54012440Y-91066095D01*
X53898154Y-91066095D01*
X54526726Y-89637523D02*
X52983869Y-90666094D01*
X54526726Y-88380380D02*
X52983869Y-89408951D01*
X54069583Y-87466094D02*
X53098154Y-87466094D01*
X52983869Y-87523237D01*
X52926726Y-87580380D01*
X52869583Y-87694665D01*
X52869583Y-87866094D01*
X52926726Y-87980380D01*
X53326726Y-87466094D02*
X53269583Y-87580380D01*
X53269583Y-87808951D01*
X53326726Y-87923237D01*
X53383869Y-87980380D01*
X53498154Y-88037523D01*
X53841011Y-88037523D01*
X53955297Y-87980380D01*
X54012440Y-87923237D01*
X54069583Y-87808951D01*
X54069583Y-87580380D01*
X54012440Y-87466094D01*
X53269583Y-86894666D02*
X54069583Y-86894666D01*
X54469583Y-86894666D02*
X54412440Y-86951809D01*
X54355297Y-86894666D01*
X54412440Y-86837523D01*
X54469583Y-86894666D01*
X54355297Y-86894666D01*
X54069583Y-86494665D02*
X54069583Y-86037522D01*
X54469583Y-86323237D02*
X53441011Y-86323237D01*
X53326726Y-86266094D01*
X53269583Y-86151808D01*
X53269583Y-86037522D01*
X53269583Y-85637523D02*
X54469583Y-85637523D01*
X53269583Y-85123237D02*
X53898154Y-85123237D01*
X54012440Y-85180380D01*
X54069583Y-85294666D01*
X54069583Y-85466094D01*
X54012440Y-85580380D01*
X53955297Y-85637523D01*
X54069583Y-84037523D02*
X53269583Y-84037523D01*
X54069583Y-84551809D02*
X53441011Y-84551809D01*
X53326726Y-84494666D01*
X53269583Y-84380380D01*
X53269583Y-84208952D01*
X53326726Y-84094666D01*
X53383869Y-84037523D01*
X53269583Y-83466095D02*
X54469583Y-83466095D01*
X54012440Y-83466095D02*
X54069583Y-83351809D01*
X54069583Y-83123238D01*
X54012440Y-83008952D01*
X53955297Y-82951809D01*
X53841011Y-82894666D01*
X53498154Y-82894666D01*
X53383869Y-82951809D01*
X53326726Y-83008952D01*
X53269583Y-83123238D01*
X53269583Y-83351809D01*
X53326726Y-83466095D01*
X53383869Y-82380381D02*
X53326726Y-82323238D01*
X53269583Y-82380381D01*
X53326726Y-82437524D01*
X53383869Y-82380381D01*
X53269583Y-82380381D01*
X53326726Y-81294666D02*
X53269583Y-81408952D01*
X53269583Y-81637523D01*
X53326726Y-81751809D01*
X53383869Y-81808952D01*
X53498154Y-81866095D01*
X53841011Y-81866095D01*
X53955297Y-81808952D01*
X54012440Y-81751809D01*
X54069583Y-81637523D01*
X54069583Y-81408952D01*
X54012440Y-81294666D01*
X53269583Y-80608952D02*
X53326726Y-80723238D01*
X53383869Y-80780381D01*
X53498154Y-80837524D01*
X53841011Y-80837524D01*
X53955297Y-80780381D01*
X54012440Y-80723238D01*
X54069583Y-80608952D01*
X54069583Y-80437524D01*
X54012440Y-80323238D01*
X53955297Y-80266095D01*
X53841011Y-80208952D01*
X53498154Y-80208952D01*
X53383869Y-80266095D01*
X53326726Y-80323238D01*
X53269583Y-80437524D01*
X53269583Y-80608952D01*
X53269583Y-79694667D02*
X54069583Y-79694667D01*
X53955297Y-79694667D02*
X54012440Y-79637524D01*
X54069583Y-79523238D01*
X54069583Y-79351810D01*
X54012440Y-79237524D01*
X53898154Y-79180381D01*
X53269583Y-79180381D01*
X53898154Y-79180381D02*
X54012440Y-79123238D01*
X54069583Y-79008952D01*
X54069583Y-78837524D01*
X54012440Y-78723238D01*
X53898154Y-78666095D01*
X53269583Y-78666095D01*
X54526726Y-77237524D02*
X52983869Y-78266095D01*
X54069583Y-77008952D02*
X54069583Y-76551809D01*
X53269583Y-76837524D02*
X54298154Y-76837524D01*
X54412440Y-76780381D01*
X54469583Y-76666095D01*
X54469583Y-76551809D01*
X53269583Y-76151810D02*
X54069583Y-76151810D01*
X54469583Y-76151810D02*
X54412440Y-76208953D01*
X54355297Y-76151810D01*
X54412440Y-76094667D01*
X54469583Y-76151810D01*
X54355297Y-76151810D01*
X53269583Y-75408952D02*
X53326726Y-75523238D01*
X53441011Y-75580381D01*
X54469583Y-75580381D01*
X53269583Y-74951810D02*
X54069583Y-74951810D01*
X54469583Y-74951810D02*
X54412440Y-75008953D01*
X54355297Y-74951810D01*
X54412440Y-74894667D01*
X54469583Y-74951810D01*
X54355297Y-74951810D01*
X54069583Y-74380381D02*
X52869583Y-74380381D01*
X54012440Y-74380381D02*
X54069583Y-74266095D01*
X54069583Y-74037524D01*
X54012440Y-73923238D01*
X53955297Y-73866095D01*
X53841011Y-73808952D01*
X53498154Y-73808952D01*
X53383869Y-73866095D01*
X53326726Y-73923238D01*
X53269583Y-74037524D01*
X53269583Y-74266095D01*
X53326726Y-74380381D01*
X53269583Y-72780381D02*
X53898154Y-72780381D01*
X54012440Y-72837524D01*
X54069583Y-72951810D01*
X54069583Y-73180381D01*
X54012440Y-73294667D01*
X53326726Y-72780381D02*
X53269583Y-72894667D01*
X53269583Y-73180381D01*
X53326726Y-73294667D01*
X53441011Y-73351810D01*
X53555297Y-73351810D01*
X53669583Y-73294667D01*
X53726726Y-73180381D01*
X53726726Y-72894667D01*
X53783869Y-72780381D01*
X53269583Y-72208953D02*
X54069583Y-72208953D01*
X53841011Y-72208953D02*
X53955297Y-72151810D01*
X54012440Y-72094667D01*
X54069583Y-71980381D01*
X54069583Y-71866096D01*
X53269583Y-70951810D02*
X53898154Y-70951810D01*
X54012440Y-71008953D01*
X54069583Y-71123239D01*
X54069583Y-71351810D01*
X54012440Y-71466096D01*
X53326726Y-70951810D02*
X53269583Y-71066096D01*
X53269583Y-71351810D01*
X53326726Y-71466096D01*
X53441011Y-71523239D01*
X53555297Y-71523239D01*
X53669583Y-71466096D01*
X53726726Y-71351810D01*
X53726726Y-71066096D01*
X53783869Y-70951810D01*
X54069583Y-69866096D02*
X53098154Y-69866096D01*
X52983869Y-69923239D01*
X52926726Y-69980382D01*
X52869583Y-70094667D01*
X52869583Y-70266096D01*
X52926726Y-70380382D01*
X53326726Y-69866096D02*
X53269583Y-69980382D01*
X53269583Y-70208953D01*
X53326726Y-70323239D01*
X53383869Y-70380382D01*
X53498154Y-70437525D01*
X53841011Y-70437525D01*
X53955297Y-70380382D01*
X54012440Y-70323239D01*
X54069583Y-70208953D01*
X54069583Y-69980382D01*
X54012440Y-69866096D01*
X54526726Y-68437525D02*
X52983869Y-69466096D01*
X53326726Y-68094668D02*
X53269583Y-67980382D01*
X53269583Y-67751810D01*
X53326726Y-67637525D01*
X53441011Y-67580382D01*
X53498154Y-67580382D01*
X53612440Y-67637525D01*
X53669583Y-67751810D01*
X53669583Y-67923239D01*
X53726726Y-68037525D01*
X53841011Y-68094668D01*
X53898154Y-68094668D01*
X54012440Y-68037525D01*
X54069583Y-67923239D01*
X54069583Y-67751810D01*
X54012440Y-67637525D01*
X53326726Y-66551810D02*
X53269583Y-66666096D01*
X53269583Y-66894667D01*
X53326726Y-67008953D01*
X53383869Y-67066096D01*
X53498154Y-67123239D01*
X53841011Y-67123239D01*
X53955297Y-67066096D01*
X54012440Y-67008953D01*
X54069583Y-66894667D01*
X54069583Y-66666096D01*
X54012440Y-66551810D01*
X53269583Y-66037525D02*
X54469583Y-66037525D01*
X53269583Y-65523239D02*
X53898154Y-65523239D01*
X54012440Y-65580382D01*
X54069583Y-65694668D01*
X54069583Y-65866096D01*
X54012440Y-65980382D01*
X53955297Y-66037525D01*
X53269583Y-64780382D02*
X53326726Y-64894668D01*
X53383869Y-64951811D01*
X53498154Y-65008954D01*
X53841011Y-65008954D01*
X53955297Y-64951811D01*
X54012440Y-64894668D01*
X54069583Y-64780382D01*
X54069583Y-64608954D01*
X54012440Y-64494668D01*
X53955297Y-64437525D01*
X53841011Y-64380382D01*
X53498154Y-64380382D01*
X53383869Y-64437525D01*
X53326726Y-64494668D01*
X53269583Y-64608954D01*
X53269583Y-64780382D01*
X53269583Y-63694668D02*
X53326726Y-63808954D01*
X53383869Y-63866097D01*
X53498154Y-63923240D01*
X53841011Y-63923240D01*
X53955297Y-63866097D01*
X54012440Y-63808954D01*
X54069583Y-63694668D01*
X54069583Y-63523240D01*
X54012440Y-63408954D01*
X53955297Y-63351811D01*
X53841011Y-63294668D01*
X53498154Y-63294668D01*
X53383869Y-63351811D01*
X53326726Y-63408954D01*
X53269583Y-63523240D01*
X53269583Y-63694668D01*
X53269583Y-62608954D02*
X53326726Y-62723240D01*
X53441011Y-62780383D01*
X54469583Y-62780383D01*
X53726726Y-62151812D02*
X53726726Y-61237526D01*
X53269583Y-60666098D02*
X54469583Y-60666098D01*
X54012440Y-60666098D02*
X54069583Y-60551812D01*
X54069583Y-60323241D01*
X54012440Y-60208955D01*
X53955297Y-60151812D01*
X53841011Y-60094669D01*
X53498154Y-60094669D01*
X53383869Y-60151812D01*
X53326726Y-60208955D01*
X53269583Y-60323241D01*
X53269583Y-60551812D01*
X53326726Y-60666098D01*
X53326726Y-59123241D02*
X53269583Y-59237527D01*
X53269583Y-59466098D01*
X53326726Y-59580384D01*
X53441011Y-59637527D01*
X53898154Y-59637527D01*
X54012440Y-59580384D01*
X54069583Y-59466098D01*
X54069583Y-59237527D01*
X54012440Y-59123241D01*
X53898154Y-59066098D01*
X53783869Y-59066098D01*
X53669583Y-59637527D01*
X53269583Y-58380384D02*
X53326726Y-58494670D01*
X53441011Y-58551813D01*
X54469583Y-58551813D01*
X53269583Y-57751813D02*
X53326726Y-57866099D01*
X53441011Y-57923242D01*
X54469583Y-57923242D01*
D12*
X56657703Y-95100147D02*
X56657703Y-95600147D01*
X55871989Y-95600147D02*
X57371989Y-95600147D01*
X57371989Y-94885861D01*
X55871989Y-94314433D02*
X56871989Y-94314433D01*
X57371989Y-94314433D02*
X57300560Y-94385862D01*
X57229131Y-94314433D01*
X57300560Y-94243005D01*
X57371989Y-94314433D01*
X57229131Y-94314433D01*
X55871989Y-93385861D02*
X55943417Y-93528719D01*
X56086274Y-93600147D01*
X57371989Y-93600147D01*
X55871989Y-92814433D02*
X56871989Y-92814433D01*
X57371989Y-92814433D02*
X57300560Y-92885862D01*
X57229131Y-92814433D01*
X57300560Y-92743005D01*
X57371989Y-92814433D01*
X57229131Y-92814433D01*
X56871989Y-92100147D02*
X55371989Y-92100147D01*
X56800560Y-92100147D02*
X56871989Y-91957290D01*
X56871989Y-91671576D01*
X56800560Y-91528719D01*
X56729131Y-91457290D01*
X56586274Y-91385861D01*
X56157703Y-91385861D01*
X56014846Y-91457290D01*
X55943417Y-91528719D01*
X55871989Y-91671576D01*
X55871989Y-91957290D01*
X55943417Y-92100147D01*
X55871989Y-89600147D02*
X57371989Y-89600147D01*
X57371989Y-89028719D01*
X57300560Y-88885861D01*
X57229131Y-88814433D01*
X57086274Y-88743004D01*
X56871989Y-88743004D01*
X56729131Y-88814433D01*
X56657703Y-88885861D01*
X56586274Y-89028719D01*
X56586274Y-89600147D01*
X55871989Y-87457290D02*
X56657703Y-87457290D01*
X56800560Y-87528719D01*
X56871989Y-87671576D01*
X56871989Y-87957290D01*
X56800560Y-88100147D01*
X55943417Y-87457290D02*
X55871989Y-87600147D01*
X55871989Y-87957290D01*
X55943417Y-88100147D01*
X56086274Y-88171576D01*
X56229131Y-88171576D01*
X56371989Y-88100147D01*
X56443417Y-87957290D01*
X56443417Y-87600147D01*
X56514846Y-87457290D01*
X55871989Y-86743004D02*
X56871989Y-86743004D01*
X56586274Y-86743004D02*
X56729131Y-86671576D01*
X56800560Y-86600147D01*
X56871989Y-86457290D01*
X56871989Y-86314433D01*
X55871989Y-85171576D02*
X56657703Y-85171576D01*
X56800560Y-85243005D01*
X56871989Y-85385862D01*
X56871989Y-85671576D01*
X56800560Y-85814433D01*
X55943417Y-85171576D02*
X55871989Y-85314433D01*
X55871989Y-85671576D01*
X55943417Y-85814433D01*
X56086274Y-85885862D01*
X56229131Y-85885862D01*
X56371989Y-85814433D01*
X56443417Y-85671576D01*
X56443417Y-85314433D01*
X56514846Y-85171576D01*
X56871989Y-83814433D02*
X55657703Y-83814433D01*
X55514846Y-83885862D01*
X55443417Y-83957290D01*
X55371989Y-84100147D01*
X55371989Y-84314433D01*
X55443417Y-84457290D01*
X55943417Y-83814433D02*
X55871989Y-83957290D01*
X55871989Y-84243004D01*
X55943417Y-84385862D01*
X56014846Y-84457290D01*
X56157703Y-84528719D01*
X56586274Y-84528719D01*
X56729131Y-84457290D01*
X56800560Y-84385862D01*
X56871989Y-84243004D01*
X56871989Y-83957290D01*
X56800560Y-83814433D01*
X57229131Y-82028719D02*
X57300560Y-81957290D01*
X57371989Y-81814433D01*
X57371989Y-81457290D01*
X57300560Y-81314433D01*
X57229131Y-81243004D01*
X57086274Y-81171576D01*
X56943417Y-81171576D01*
X56729131Y-81243004D01*
X55871989Y-82100147D01*
X55871989Y-81171576D01*
X57371989Y-80243005D02*
X57371989Y-80100148D01*
X57300560Y-79957291D01*
X57229131Y-79885862D01*
X57086274Y-79814433D01*
X56800560Y-79743005D01*
X56443417Y-79743005D01*
X56157703Y-79814433D01*
X56014846Y-79885862D01*
X55943417Y-79957291D01*
X55871989Y-80100148D01*
X55871989Y-80243005D01*
X55943417Y-80385862D01*
X56014846Y-80457291D01*
X56157703Y-80528719D01*
X56443417Y-80600148D01*
X56800560Y-80600148D01*
X57086274Y-80528719D01*
X57229131Y-80457291D01*
X57300560Y-80385862D01*
X57371989Y-80243005D01*
X55871989Y-78314434D02*
X55871989Y-79171577D01*
X55871989Y-78743005D02*
X57371989Y-78743005D01*
X57157703Y-78885862D01*
X57014846Y-79028720D01*
X56943417Y-79171577D01*
X56729131Y-77457291D02*
X56800560Y-77600149D01*
X56871989Y-77671577D01*
X57014846Y-77743006D01*
X57086274Y-77743006D01*
X57229131Y-77671577D01*
X57300560Y-77600149D01*
X57371989Y-77457291D01*
X57371989Y-77171577D01*
X57300560Y-77028720D01*
X57229131Y-76957291D01*
X57086274Y-76885863D01*
X57014846Y-76885863D01*
X56871989Y-76957291D01*
X56800560Y-77028720D01*
X56729131Y-77171577D01*
X56729131Y-77457291D01*
X56657703Y-77600149D01*
X56586274Y-77671577D01*
X56443417Y-77743006D01*
X56157703Y-77743006D01*
X56014846Y-77671577D01*
X55943417Y-77600149D01*
X55871989Y-77457291D01*
X55871989Y-77171577D01*
X55943417Y-77028720D01*
X56014846Y-76957291D01*
X56157703Y-76885863D01*
X56443417Y-76885863D01*
X56586274Y-76957291D01*
X56657703Y-77028720D01*
X56729131Y-77171577D01*
D11*
X52070000Y-93980000D02*
X52070000Y-63500000D01*
X114070000Y-104760000D02*
G75*
G03X117070000Y-101760000I0J3000000D01*
G01*
X52070000Y-101760000D02*
G75*
G03X55070000Y-104760000I3000000J0D01*
G01*
X52070000Y-86260000D02*
X52070000Y-101760000D01*
X52070000Y-51260000D02*
X52070000Y-67260000D01*
X55070000Y-104760000D02*
X114070000Y-104760000D01*
D14*
X106090000Y-91230000D02*
X102190000Y-91230000D01*
X102190000Y-94190000D02*
X106090000Y-94190000D01*
X92120000Y-91230000D02*
X88220000Y-91230000D01*
X88220000Y-94190000D02*
X92120000Y-94190000D01*
X79420000Y-91230000D02*
X75520000Y-91230000D01*
X75520000Y-94190000D02*
X79420000Y-94190000D01*
X66720000Y-91230000D02*
X62820000Y-91230000D01*
X62820000Y-94190000D02*
X66720000Y-94190000D01*
X81960000Y-56940000D02*
X78060000Y-56940000D01*
X78060000Y-59900000D02*
X81960000Y-59900000D01*
D15*
G36*
X64139016Y-65027759D02*
X64125918Y-65001247D01*
X64103094Y-64968553D01*
X64078204Y-64944725D01*
X64046951Y-64928406D01*
X64005034Y-64918240D01*
X63948156Y-64912872D01*
X63872016Y-64910944D01*
X63839283Y-64910831D01*
X63767544Y-64911161D01*
X63716273Y-64912527D01*
X63680796Y-64915500D01*
X63656437Y-64920649D01*
X63638520Y-64928543D01*
X63626298Y-64936757D01*
X63574295Y-64989187D01*
X63543016Y-65050930D01*
X63533608Y-65117536D01*
X63547220Y-65184558D01*
X63556846Y-65205792D01*
X63583341Y-65256624D01*
X63168148Y-65256624D01*
X63187332Y-65219525D01*
X63202175Y-65170643D01*
X63205978Y-65110561D01*
X63198957Y-65050564D01*
X63183187Y-65005256D01*
X63153153Y-64967675D01*
X63110176Y-64935564D01*
X63105764Y-64933150D01*
X63084979Y-64922967D01*
X63064030Y-64915530D01*
X63038652Y-64910411D01*
X63004582Y-64907181D01*
X62957559Y-64905413D01*
X62893318Y-64904677D01*
X62821024Y-64904544D01*
X62590378Y-64904544D01*
X62590378Y-65042861D01*
X63015667Y-65042861D01*
X63048221Y-65081549D01*
X63074260Y-65121738D01*
X63078995Y-65159797D01*
X63066811Y-65198066D01*
X63054880Y-65218462D01*
X63037887Y-65233642D01*
X63012205Y-65244438D01*
X62974209Y-65251683D01*
X62920274Y-65256208D01*
X62846775Y-65258844D01*
X62797853Y-65259772D01*
X62596665Y-65262911D01*
X62592864Y-65328926D01*
X62589064Y-65394940D01*
X63837550Y-65394940D01*
X63837550Y-65256624D01*
X63767946Y-65253097D01*
X63719631Y-65241215D01*
X63689569Y-65219020D01*
X63674729Y-65184559D01*
X63671764Y-65149742D01*
X63675172Y-65110329D01*
X63688583Y-65084171D01*
X63706304Y-65067814D01*
X63725365Y-65054937D01*
X63746599Y-65047272D01*
X63776351Y-65043861D01*
X63820964Y-65043749D01*
X63858320Y-65044897D01*
X63914596Y-65047532D01*
X63951542Y-65051456D01*
X63974977Y-65058063D01*
X63990720Y-65068749D01*
X63999820Y-65078833D01*
X64019663Y-65120970D01*
X64022868Y-65170840D01*
X64016032Y-65199476D01*
X63991736Y-65227828D01*
X63944472Y-65246609D01*
X63874576Y-65255712D01*
X63837550Y-65256624D01*
X63837550Y-65394940D01*
X64149586Y-65394940D01*
X64149586Y-65325782D01*
X64147944Y-65284260D01*
X64142113Y-65262838D01*
X64130739Y-65256626D01*
X64130402Y-65256624D01*
X64119262Y-65253742D01*
X64120527Y-65241030D01*
X64132767Y-65215757D01*
X64151493Y-65156869D01*
X64153461Y-65090615D01*
X64139016Y-65027759D01*
X64139016Y-65027759D01*
G37*
X64139016Y-65027759D02*
X64125918Y-65001247D01*
X64103094Y-64968553D01*
X64078204Y-64944725D01*
X64046951Y-64928406D01*
X64005034Y-64918240D01*
X63948156Y-64912872D01*
X63872016Y-64910944D01*
X63839283Y-64910831D01*
X63767544Y-64911161D01*
X63716273Y-64912527D01*
X63680796Y-64915500D01*
X63656437Y-64920649D01*
X63638520Y-64928543D01*
X63626298Y-64936757D01*
X63574295Y-64989187D01*
X63543016Y-65050930D01*
X63533608Y-65117536D01*
X63547220Y-65184558D01*
X63556846Y-65205792D01*
X63583341Y-65256624D01*
X63168148Y-65256624D01*
X63187332Y-65219525D01*
X63202175Y-65170643D01*
X63205978Y-65110561D01*
X63198957Y-65050564D01*
X63183187Y-65005256D01*
X63153153Y-64967675D01*
X63110176Y-64935564D01*
X63105764Y-64933150D01*
X63084979Y-64922967D01*
X63064030Y-64915530D01*
X63038652Y-64910411D01*
X63004582Y-64907181D01*
X62957559Y-64905413D01*
X62893318Y-64904677D01*
X62821024Y-64904544D01*
X62590378Y-64904544D01*
X62590378Y-65042861D01*
X63015667Y-65042861D01*
X63048221Y-65081549D01*
X63074260Y-65121738D01*
X63078995Y-65159797D01*
X63066811Y-65198066D01*
X63054880Y-65218462D01*
X63037887Y-65233642D01*
X63012205Y-65244438D01*
X62974209Y-65251683D01*
X62920274Y-65256208D01*
X62846775Y-65258844D01*
X62797853Y-65259772D01*
X62596665Y-65262911D01*
X62592864Y-65328926D01*
X62589064Y-65394940D01*
X63837550Y-65394940D01*
X63837550Y-65256624D01*
X63767946Y-65253097D01*
X63719631Y-65241215D01*
X63689569Y-65219020D01*
X63674729Y-65184559D01*
X63671764Y-65149742D01*
X63675172Y-65110329D01*
X63688583Y-65084171D01*
X63706304Y-65067814D01*
X63725365Y-65054937D01*
X63746599Y-65047272D01*
X63776351Y-65043861D01*
X63820964Y-65043749D01*
X63858320Y-65044897D01*
X63914596Y-65047532D01*
X63951542Y-65051456D01*
X63974977Y-65058063D01*
X63990720Y-65068749D01*
X63999820Y-65078833D01*
X64019663Y-65120970D01*
X64022868Y-65170840D01*
X64016032Y-65199476D01*
X63991736Y-65227828D01*
X63944472Y-65246609D01*
X63874576Y-65255712D01*
X63837550Y-65256624D01*
X63837550Y-65394940D01*
X64149586Y-65394940D01*
X64149586Y-65325782D01*
X64147944Y-65284260D01*
X64142113Y-65262838D01*
X64130739Y-65256626D01*
X64130402Y-65256624D01*
X64119262Y-65253742D01*
X64120527Y-65241030D01*
X64132767Y-65215757D01*
X64151493Y-65156869D01*
X64153461Y-65090615D01*
X64139016Y-65027759D01*
G36*
X63201645Y-64503210D02*
X63185861Y-64444055D01*
X63157252Y-64399023D01*
X63119781Y-64367246D01*
X63103789Y-64357366D01*
X63087037Y-64350073D01*
X63065608Y-64344974D01*
X63035584Y-64341679D01*
X62993046Y-64339797D01*
X62934078Y-64338937D01*
X62854760Y-64338707D01*
X62833716Y-64338703D01*
X62590378Y-64338703D01*
X62590378Y-64399059D01*
X62593074Y-64437557D01*
X62599905Y-64466023D01*
X62604117Y-64473155D01*
X62611387Y-64492652D01*
X62604117Y-64512566D01*
X62595040Y-64545353D01*
X62591387Y-64592978D01*
X62592972Y-64645764D01*
X62599611Y-64694036D01*
X62608128Y-64722218D01*
X62643137Y-64776753D01*
X62691721Y-64810835D01*
X62756318Y-64826157D01*
X62757977Y-64826299D01*
X62786634Y-64824955D01*
X62786634Y-64703356D01*
X62754039Y-64692726D01*
X62735695Y-64675410D01*
X62721821Y-64640652D01*
X62716283Y-64594773D01*
X62719009Y-64547988D01*
X62729926Y-64510514D01*
X62736931Y-64500015D01*
X62769296Y-64481668D01*
X62806089Y-64477020D01*
X62854437Y-64477020D01*
X62854437Y-64546582D01*
X62849350Y-64612667D01*
X62834937Y-64662764D01*
X62812471Y-64693929D01*
X62786634Y-64703356D01*
X62786634Y-64824955D01*
X62828553Y-64822987D01*
X62884355Y-64799710D01*
X62926553Y-64755948D01*
X62930392Y-64749899D01*
X62942891Y-64723907D01*
X62950460Y-64691735D01*
X62954139Y-64646760D01*
X62954984Y-64593331D01*
X62955031Y-64477020D01*
X63003789Y-64477020D01*
X63041619Y-64481953D01*
X63066964Y-64494543D01*
X63068313Y-64496017D01*
X63079400Y-64524034D01*
X63083697Y-64566326D01*
X63081585Y-64613064D01*
X63073444Y-64654418D01*
X63061235Y-64678957D01*
X63051454Y-64692253D01*
X63049587Y-64706294D01*
X63057600Y-64725671D01*
X63077461Y-64754976D01*
X63111137Y-64798803D01*
X63114291Y-64802825D01*
X63125964Y-64800764D01*
X63145378Y-64783568D01*
X63166952Y-64757433D01*
X63185104Y-64728552D01*
X63189391Y-64719478D01*
X63197944Y-64686380D01*
X63204045Y-64637880D01*
X63206492Y-64583695D01*
X63206497Y-64581161D01*
X63201645Y-64503210D01*
X63201645Y-64503210D01*
G37*
X63201645Y-64503210D02*
X63185861Y-64444055D01*
X63157252Y-64399023D01*
X63119781Y-64367246D01*
X63103789Y-64357366D01*
X63087037Y-64350073D01*
X63065608Y-64344974D01*
X63035584Y-64341679D01*
X62993046Y-64339797D01*
X62934078Y-64338937D01*
X62854760Y-64338707D01*
X62833716Y-64338703D01*
X62590378Y-64338703D01*
X62590378Y-64399059D01*
X62593074Y-64437557D01*
X62599905Y-64466023D01*
X62604117Y-64473155D01*
X62611387Y-64492652D01*
X62604117Y-64512566D01*
X62595040Y-64545353D01*
X62591387Y-64592978D01*
X62592972Y-64645764D01*
X62599611Y-64694036D01*
X62608128Y-64722218D01*
X62643137Y-64776753D01*
X62691721Y-64810835D01*
X62756318Y-64826157D01*
X62757977Y-64826299D01*
X62786634Y-64824955D01*
X62786634Y-64703356D01*
X62754039Y-64692726D01*
X62735695Y-64675410D01*
X62721821Y-64640652D01*
X62716283Y-64594773D01*
X62719009Y-64547988D01*
X62729926Y-64510514D01*
X62736931Y-64500015D01*
X62769296Y-64481668D01*
X62806089Y-64477020D01*
X62854437Y-64477020D01*
X62854437Y-64546582D01*
X62849350Y-64612667D01*
X62834937Y-64662764D01*
X62812471Y-64693929D01*
X62786634Y-64703356D01*
X62786634Y-64824955D01*
X62828553Y-64822987D01*
X62884355Y-64799710D01*
X62926553Y-64755948D01*
X62930392Y-64749899D01*
X62942891Y-64723907D01*
X62950460Y-64691735D01*
X62954139Y-64646760D01*
X62954984Y-64593331D01*
X62955031Y-64477020D01*
X63003789Y-64477020D01*
X63041619Y-64481953D01*
X63066964Y-64494543D01*
X63068313Y-64496017D01*
X63079400Y-64524034D01*
X63083697Y-64566326D01*
X63081585Y-64613064D01*
X63073444Y-64654418D01*
X63061235Y-64678957D01*
X63051454Y-64692253D01*
X63049587Y-64706294D01*
X63057600Y-64725671D01*
X63077461Y-64754976D01*
X63111137Y-64798803D01*
X63114291Y-64802825D01*
X63125964Y-64800764D01*
X63145378Y-64783568D01*
X63166952Y-64757433D01*
X63185104Y-64728552D01*
X63189391Y-64719478D01*
X63197944Y-64686380D01*
X63204045Y-64637880D01*
X63206492Y-64583695D01*
X63206497Y-64581161D01*
X63201645Y-64503210D01*
G36*
X63205180Y-64112356D02*
X63199540Y-64093539D01*
X63187147Y-64087473D01*
X63181553Y-64087218D01*
X63165970Y-64086129D01*
X63163524Y-64078632D01*
X63174207Y-64058381D01*
X63181506Y-64046351D01*
X63197137Y-64008400D01*
X63204866Y-63963072D01*
X63205460Y-63915544D01*
X63199687Y-63870995D01*
X63188316Y-63834602D01*
X63172112Y-63811543D01*
X63151845Y-63806996D01*
X63146357Y-63809291D01*
X63123574Y-63826020D01*
X63095553Y-63851963D01*
X63091023Y-63856655D01*
X63070195Y-63881383D01*
X63063465Y-63902718D01*
X63068162Y-63932555D01*
X63071283Y-63944508D01*
X63078779Y-63981705D01*
X63075408Y-64007859D01*
X63063519Y-64029946D01*
X63047565Y-64050178D01*
X63027500Y-64065079D01*
X62999498Y-64075434D01*
X62959733Y-64082029D01*
X62904377Y-64085649D01*
X62829606Y-64087078D01*
X62784460Y-64087218D01*
X62590378Y-64087218D01*
X62590378Y-64212960D01*
X63206517Y-64212960D01*
X63206517Y-64150089D01*
X63205180Y-64112356D01*
X63205180Y-64112356D01*
G37*
X63205180Y-64112356D02*
X63199540Y-64093539D01*
X63187147Y-64087473D01*
X63181553Y-64087218D01*
X63165970Y-64086129D01*
X63163524Y-64078632D01*
X63174207Y-64058381D01*
X63181506Y-64046351D01*
X63197137Y-64008400D01*
X63204866Y-63963072D01*
X63205460Y-63915544D01*
X63199687Y-63870995D01*
X63188316Y-63834602D01*
X63172112Y-63811543D01*
X63151845Y-63806996D01*
X63146357Y-63809291D01*
X63123574Y-63826020D01*
X63095553Y-63851963D01*
X63091023Y-63856655D01*
X63070195Y-63881383D01*
X63063465Y-63902718D01*
X63068162Y-63932555D01*
X63071283Y-63944508D01*
X63078779Y-63981705D01*
X63075408Y-64007859D01*
X63063519Y-64029946D01*
X63047565Y-64050178D01*
X63027500Y-64065079D01*
X62999498Y-64075434D01*
X62959733Y-64082029D01*
X62904377Y-64085649D01*
X62829606Y-64087078D01*
X62784460Y-64087218D01*
X62590378Y-64087218D01*
X62590378Y-64212960D01*
X63206517Y-64212960D01*
X63206517Y-64150089D01*
X63205180Y-64112356D01*
G36*
X62590378Y-63320188D02*
X62590378Y-63389346D01*
X62591555Y-63429488D01*
X62596428Y-63450394D01*
X62607014Y-63457922D01*
X62614171Y-63458505D01*
X62628524Y-63459774D01*
X62631277Y-63467779D01*
X62622429Y-63488815D01*
X62614171Y-63505173D01*
X62594603Y-63567977D01*
X62593471Y-63636248D01*
X62608065Y-63691752D01*
X62643323Y-63743438D01*
X62695365Y-63782838D01*
X62756750Y-63804413D01*
X62760182Y-63804962D01*
X62797629Y-63808167D01*
X62851387Y-63809761D01*
X62892045Y-63809633D01*
X62892045Y-63672279D01*
X62838006Y-63669097D01*
X62793465Y-63661859D01*
X62768312Y-63652060D01*
X62733940Y-63614989D01*
X62721618Y-63570974D01*
X62731582Y-63525584D01*
X62761305Y-63486797D01*
X62781295Y-63472108D01*
X62805150Y-63463519D01*
X62839970Y-63459496D01*
X62892270Y-63458505D01*
X62944061Y-63460278D01*
X62989566Y-63464963D01*
X63020019Y-63471603D01*
X63022748Y-63472710D01*
X63055200Y-63499491D01*
X63073017Y-63538579D01*
X63075894Y-63582315D01*
X63063526Y-63623038D01*
X63035607Y-63653087D01*
X63030052Y-63656204D01*
X62996178Y-63665961D01*
X62947472Y-63671277D01*
X62892045Y-63672279D01*
X62892045Y-63809633D01*
X62912660Y-63809568D01*
X62945637Y-63808664D01*
X63027219Y-63802514D01*
X63088470Y-63789733D01*
X63133751Y-63768471D01*
X63167421Y-63736878D01*
X63187186Y-63706207D01*
X63201080Y-63663354D01*
X63205846Y-63610056D01*
X63201964Y-63555480D01*
X63189918Y-63508792D01*
X63175507Y-63484124D01*
X63152322Y-63458505D01*
X63445427Y-63458505D01*
X63445427Y-63320188D01*
X62590378Y-63320188D01*
X62590378Y-63320188D01*
G37*
X62590378Y-63320188D02*
X62590378Y-63389346D01*
X62591555Y-63429488D01*
X62596428Y-63450394D01*
X62607014Y-63457922D01*
X62614171Y-63458505D01*
X62628524Y-63459774D01*
X62631277Y-63467779D01*
X62622429Y-63488815D01*
X62614171Y-63505173D01*
X62594603Y-63567977D01*
X62593471Y-63636248D01*
X62608065Y-63691752D01*
X62643323Y-63743438D01*
X62695365Y-63782838D01*
X62756750Y-63804413D01*
X62760182Y-63804962D01*
X62797629Y-63808167D01*
X62851387Y-63809761D01*
X62892045Y-63809633D01*
X62892045Y-63672279D01*
X62838006Y-63669097D01*
X62793465Y-63661859D01*
X62768312Y-63652060D01*
X62733940Y-63614989D01*
X62721618Y-63570974D01*
X62731582Y-63525584D01*
X62761305Y-63486797D01*
X62781295Y-63472108D01*
X62805150Y-63463519D01*
X62839970Y-63459496D01*
X62892270Y-63458505D01*
X62944061Y-63460278D01*
X62989566Y-63464963D01*
X63020019Y-63471603D01*
X63022748Y-63472710D01*
X63055200Y-63499491D01*
X63073017Y-63538579D01*
X63075894Y-63582315D01*
X63063526Y-63623038D01*
X63035607Y-63653087D01*
X63030052Y-63656204D01*
X62996178Y-63665961D01*
X62947472Y-63671277D01*
X62892045Y-63672279D01*
X62892045Y-63809633D01*
X62912660Y-63809568D01*
X62945637Y-63808664D01*
X63027219Y-63802514D01*
X63088470Y-63789733D01*
X63133751Y-63768471D01*
X63167421Y-63736878D01*
X63187186Y-63706207D01*
X63201080Y-63663354D01*
X63205846Y-63610056D01*
X63201964Y-63555480D01*
X63189918Y-63508792D01*
X63175507Y-63484124D01*
X63152322Y-63458505D01*
X63445427Y-63458505D01*
X63445427Y-63320188D01*
X62590378Y-63320188D01*
G36*
X63203963Y-62837476D02*
X63200229Y-62787745D01*
X62810427Y-62657709D01*
X62879586Y-62637322D01*
X62922326Y-62625054D01*
X62980085Y-62608915D01*
X63043575Y-62591488D01*
X63077630Y-62582274D01*
X63206517Y-62547612D01*
X63206517Y-62404609D01*
X63071343Y-62447354D01*
X63004858Y-62468404D01*
X62924661Y-62493833D01*
X62841007Y-62520390D01*
X62766418Y-62544098D01*
X62596665Y-62598098D01*
X62592872Y-62656402D01*
X62589078Y-62714705D01*
X62693466Y-62746321D01*
X62758311Y-62765818D01*
X62829800Y-62787096D01*
X62892937Y-62805692D01*
X62895450Y-62806426D01*
X62938231Y-62820316D01*
X62967421Y-62832571D01*
X62978459Y-62841154D01*
X62977182Y-62842918D01*
X62960070Y-62849109D01*
X62923413Y-62860872D01*
X62871822Y-62876775D01*
X62809906Y-62895386D01*
X62775848Y-62905457D01*
X62590378Y-62959993D01*
X62590378Y-63075736D01*
X62882729Y-63168263D01*
X62964738Y-63194256D01*
X63039213Y-63217934D01*
X63102656Y-63238180D01*
X63151568Y-63253874D01*
X63182451Y-63263898D01*
X63191474Y-63266945D01*
X63200713Y-63264533D01*
X63204759Y-63245592D01*
X63204354Y-63206177D01*
X63204048Y-63200007D01*
X63200229Y-63126914D01*
X63024190Y-63079043D01*
X62959989Y-63061447D01*
X62903551Y-63045723D01*
X62859778Y-63033254D01*
X62833570Y-63025426D01*
X62829297Y-63023980D01*
X62834210Y-63017986D01*
X62859668Y-63005899D01*
X62902203Y-62989107D01*
X62958350Y-62968997D01*
X63009070Y-62951997D01*
X63207696Y-62887206D01*
X63203963Y-62837476D01*
X63203963Y-62837476D01*
G37*
X63203963Y-62837476D02*
X63200229Y-62787745D01*
X62810427Y-62657709D01*
X62879586Y-62637322D01*
X62922326Y-62625054D01*
X62980085Y-62608915D01*
X63043575Y-62591488D01*
X63077630Y-62582274D01*
X63206517Y-62547612D01*
X63206517Y-62404609D01*
X63071343Y-62447354D01*
X63004858Y-62468404D01*
X62924661Y-62493833D01*
X62841007Y-62520390D01*
X62766418Y-62544098D01*
X62596665Y-62598098D01*
X62592872Y-62656402D01*
X62589078Y-62714705D01*
X62693466Y-62746321D01*
X62758311Y-62765818D01*
X62829800Y-62787096D01*
X62892937Y-62805692D01*
X62895450Y-62806426D01*
X62938231Y-62820316D01*
X62967421Y-62832571D01*
X62978459Y-62841154D01*
X62977182Y-62842918D01*
X62960070Y-62849109D01*
X62923413Y-62860872D01*
X62871822Y-62876775D01*
X62809906Y-62895386D01*
X62775848Y-62905457D01*
X62590378Y-62959993D01*
X62590378Y-63075736D01*
X62882729Y-63168263D01*
X62964738Y-63194256D01*
X63039213Y-63217934D01*
X63102656Y-63238180D01*
X63151568Y-63253874D01*
X63182451Y-63263898D01*
X63191474Y-63266945D01*
X63200713Y-63264533D01*
X63204759Y-63245592D01*
X63204354Y-63206177D01*
X63204048Y-63200007D01*
X63200229Y-63126914D01*
X63024190Y-63079043D01*
X62959989Y-63061447D01*
X62903551Y-63045723D01*
X62859778Y-63033254D01*
X62833570Y-63025426D01*
X62829297Y-63023980D01*
X62834210Y-63017986D01*
X62859668Y-63005899D01*
X62902203Y-62989107D01*
X62958350Y-62968997D01*
X63009070Y-62951997D01*
X63207696Y-62887206D01*
X63203963Y-62837476D01*
G36*
X63202783Y-62080589D02*
X63189910Y-62027589D01*
X63183090Y-62012269D01*
X63165226Y-61982572D01*
X63145107Y-61959780D01*
X63119238Y-61942917D01*
X63084127Y-61931002D01*
X63036280Y-61923058D01*
X62972204Y-61918106D01*
X62888406Y-61915169D01*
X62832432Y-61914053D01*
X62590378Y-61909948D01*
X62590378Y-61980068D01*
X62592162Y-62022607D01*
X62598258Y-62044524D01*
X62608494Y-62050188D01*
X62619563Y-62053179D01*
X62617446Y-62066549D01*
X62608571Y-62084767D01*
X62594967Y-62130376D01*
X62591301Y-62188993D01*
X62597297Y-62250646D01*
X62612679Y-62305362D01*
X62614814Y-62310270D01*
X62649945Y-62360277D01*
X62698781Y-62393244D01*
X62755867Y-62408413D01*
X62776376Y-62407254D01*
X62776376Y-62283492D01*
X62748775Y-62272587D01*
X62728996Y-62240255D01*
X62718381Y-62188090D01*
X62716972Y-62160213D01*
X62720580Y-62113753D01*
X62734603Y-62082871D01*
X62741269Y-62075336D01*
X62777534Y-62054924D01*
X62810427Y-62050188D01*
X62854437Y-62050188D01*
X62854437Y-62111487D01*
X62850805Y-62182744D01*
X62839382Y-62232724D01*
X62819376Y-62264304D01*
X62810457Y-62271374D01*
X62776376Y-62283492D01*
X62776376Y-62407254D01*
X62815744Y-62405029D01*
X62872956Y-62382337D01*
X62911620Y-62351376D01*
X62928336Y-62332624D01*
X62939322Y-62314267D01*
X62946020Y-62290381D01*
X62949874Y-62255043D01*
X62952327Y-62202331D01*
X62953032Y-62181423D01*
X62957321Y-62050188D01*
X62997042Y-62050380D01*
X63038795Y-62055463D01*
X63064042Y-62073838D01*
X63080170Y-62110961D01*
X63080458Y-62111957D01*
X63086800Y-62164590D01*
X63078516Y-62216094D01*
X63058373Y-62254370D01*
X63048427Y-62269728D01*
X63049803Y-62286270D01*
X63064213Y-62311725D01*
X63074383Y-62326672D01*
X63096112Y-62355909D01*
X63112400Y-62374020D01*
X63117063Y-62376926D01*
X63141195Y-62364960D01*
X63170015Y-62329604D01*
X63179739Y-62314247D01*
X63196486Y-62270099D01*
X63205973Y-62210602D01*
X63208105Y-62144513D01*
X63202783Y-62080589D01*
X63202783Y-62080589D01*
G37*
X63202783Y-62080589D02*
X63189910Y-62027589D01*
X63183090Y-62012269D01*
X63165226Y-61982572D01*
X63145107Y-61959780D01*
X63119238Y-61942917D01*
X63084127Y-61931002D01*
X63036280Y-61923058D01*
X62972204Y-61918106D01*
X62888406Y-61915169D01*
X62832432Y-61914053D01*
X62590378Y-61909948D01*
X62590378Y-61980068D01*
X62592162Y-62022607D01*
X62598258Y-62044524D01*
X62608494Y-62050188D01*
X62619563Y-62053179D01*
X62617446Y-62066549D01*
X62608571Y-62084767D01*
X62594967Y-62130376D01*
X62591301Y-62188993D01*
X62597297Y-62250646D01*
X62612679Y-62305362D01*
X62614814Y-62310270D01*
X62649945Y-62360277D01*
X62698781Y-62393244D01*
X62755867Y-62408413D01*
X62776376Y-62407254D01*
X62776376Y-62283492D01*
X62748775Y-62272587D01*
X62728996Y-62240255D01*
X62718381Y-62188090D01*
X62716972Y-62160213D01*
X62720580Y-62113753D01*
X62734603Y-62082871D01*
X62741269Y-62075336D01*
X62777534Y-62054924D01*
X62810427Y-62050188D01*
X62854437Y-62050188D01*
X62854437Y-62111487D01*
X62850805Y-62182744D01*
X62839382Y-62232724D01*
X62819376Y-62264304D01*
X62810457Y-62271374D01*
X62776376Y-62283492D01*
X62776376Y-62407254D01*
X62815744Y-62405029D01*
X62872956Y-62382337D01*
X62911620Y-62351376D01*
X62928336Y-62332624D01*
X62939322Y-62314267D01*
X62946020Y-62290381D01*
X62949874Y-62255043D01*
X62952327Y-62202331D01*
X62953032Y-62181423D01*
X62957321Y-62050188D01*
X62997042Y-62050380D01*
X63038795Y-62055463D01*
X63064042Y-62073838D01*
X63080170Y-62110961D01*
X63080458Y-62111957D01*
X63086800Y-62164590D01*
X63078516Y-62216094D01*
X63058373Y-62254370D01*
X63048427Y-62269728D01*
X63049803Y-62286270D01*
X63064213Y-62311725D01*
X63074383Y-62326672D01*
X63096112Y-62355909D01*
X63112400Y-62374020D01*
X63117063Y-62376926D01*
X63141195Y-62364960D01*
X63170015Y-62329604D01*
X63179739Y-62314247D01*
X63196486Y-62270099D01*
X63205973Y-62210602D01*
X63208105Y-62144513D01*
X63202783Y-62080589D01*
G36*
X63206714Y-61483745D02*
X63197185Y-61435405D01*
X63183075Y-61407886D01*
X63159632Y-61378936D01*
X63107629Y-61420124D01*
X63076136Y-61445518D01*
X63060772Y-61462762D01*
X63058424Y-61479898D01*
X63065983Y-61504973D01*
X63070259Y-61516743D01*
X63076569Y-61564730D01*
X63063044Y-61608676D01*
X63032490Y-61640940D01*
X63022748Y-61646181D01*
X62996942Y-61651888D01*
X62949383Y-61656294D01*
X62883442Y-61659189D01*
X62802490Y-61660369D01*
X62790974Y-61660386D01*
X62590378Y-61660386D01*
X62590378Y-61798703D01*
X63206517Y-61798703D01*
X63206517Y-61729544D01*
X63205475Y-61689667D01*
X63200842Y-61668893D01*
X63190351Y-61661211D01*
X63180455Y-61660386D01*
X63154394Y-61660386D01*
X63180455Y-61627255D01*
X63198235Y-61589265D01*
X63207026Y-61538230D01*
X63206714Y-61483745D01*
X63206714Y-61483745D01*
G37*
X63206714Y-61483745D02*
X63197185Y-61435405D01*
X63183075Y-61407886D01*
X63159632Y-61378936D01*
X63107629Y-61420124D01*
X63076136Y-61445518D01*
X63060772Y-61462762D01*
X63058424Y-61479898D01*
X63065983Y-61504973D01*
X63070259Y-61516743D01*
X63076569Y-61564730D01*
X63063044Y-61608676D01*
X63032490Y-61640940D01*
X63022748Y-61646181D01*
X62996942Y-61651888D01*
X62949383Y-61656294D01*
X62883442Y-61659189D01*
X62802490Y-61660369D01*
X62790974Y-61660386D01*
X62590378Y-61660386D01*
X62590378Y-61798703D01*
X63206517Y-61798703D01*
X63206517Y-61729544D01*
X63205475Y-61689667D01*
X63200842Y-61668893D01*
X63190351Y-61661211D01*
X63180455Y-61660386D01*
X63154394Y-61660386D01*
X63180455Y-61627255D01*
X63198235Y-61589265D01*
X63207026Y-61538230D01*
X63206714Y-61483745D01*
G36*
X63203230Y-61086419D02*
X63187603Y-61026315D01*
X63155352Y-60975979D01*
X63131260Y-60951607D01*
X63074305Y-60911655D01*
X63008235Y-60888758D01*
X62927018Y-60880892D01*
X62920452Y-60880852D01*
X62854437Y-60880782D01*
X62854437Y-61260736D01*
X62819858Y-61252637D01*
X62788541Y-61238013D01*
X62755909Y-61212419D01*
X62750700Y-61207065D01*
X62722506Y-61161057D01*
X62717725Y-61108590D01*
X62736274Y-61048197D01*
X62741269Y-61037960D01*
X62756455Y-61006561D01*
X62765106Y-60985530D01*
X62765907Y-60981861D01*
X62758137Y-60969052D01*
X62739128Y-60944622D01*
X62728740Y-60932221D01*
X62704879Y-60906524D01*
X62689123Y-60898085D01*
X62674629Y-60903942D01*
X62670666Y-60907072D01*
X62653321Y-60928275D01*
X62632241Y-60963262D01*
X62619935Y-60987663D01*
X62598254Y-61056928D01*
X62591229Y-61133612D01*
X62599553Y-61206235D01*
X62605514Y-61226574D01*
X62639248Y-61289524D01*
X62691155Y-61336185D01*
X62761741Y-61366827D01*
X62851508Y-61381718D01*
X62898447Y-61383353D01*
X62966787Y-61378579D01*
X62966787Y-61258010D01*
X62961735Y-61246348D01*
X62957771Y-61215002D01*
X62955432Y-61169429D01*
X62955031Y-61138554D01*
X62955417Y-61083019D01*
X62957225Y-61047967D01*
X62961427Y-61028738D01*
X62968997Y-61020670D01*
X62979982Y-61019099D01*
X63013819Y-61029879D01*
X63047260Y-61057020D01*
X63072928Y-61092723D01*
X63083428Y-61128440D01*
X63074114Y-61176952D01*
X63047187Y-61218947D01*
X63008373Y-61248064D01*
X62966787Y-61258010D01*
X62966787Y-61378579D01*
X62997964Y-61376401D01*
X63077251Y-61354945D01*
X63136937Y-61318530D01*
X63177651Y-61266703D01*
X63200021Y-61199010D01*
X63204329Y-61162338D01*
X63203230Y-61086419D01*
X63203230Y-61086419D01*
G37*
X63203230Y-61086419D02*
X63187603Y-61026315D01*
X63155352Y-60975979D01*
X63131260Y-60951607D01*
X63074305Y-60911655D01*
X63008235Y-60888758D01*
X62927018Y-60880892D01*
X62920452Y-60880852D01*
X62854437Y-60880782D01*
X62854437Y-61260736D01*
X62819858Y-61252637D01*
X62788541Y-61238013D01*
X62755909Y-61212419D01*
X62750700Y-61207065D01*
X62722506Y-61161057D01*
X62717725Y-61108590D01*
X62736274Y-61048197D01*
X62741269Y-61037960D01*
X62756455Y-61006561D01*
X62765106Y-60985530D01*
X62765907Y-60981861D01*
X62758137Y-60969052D01*
X62739128Y-60944622D01*
X62728740Y-60932221D01*
X62704879Y-60906524D01*
X62689123Y-60898085D01*
X62674629Y-60903942D01*
X62670666Y-60907072D01*
X62653321Y-60928275D01*
X62632241Y-60963262D01*
X62619935Y-60987663D01*
X62598254Y-61056928D01*
X62591229Y-61133612D01*
X62599553Y-61206235D01*
X62605514Y-61226574D01*
X62639248Y-61289524D01*
X62691155Y-61336185D01*
X62761741Y-61366827D01*
X62851508Y-61381718D01*
X62898447Y-61383353D01*
X62966787Y-61378579D01*
X62966787Y-61258010D01*
X62961735Y-61246348D01*
X62957771Y-61215002D01*
X62955432Y-61169429D01*
X62955031Y-61138554D01*
X62955417Y-61083019D01*
X62957225Y-61047967D01*
X62961427Y-61028738D01*
X62968997Y-61020670D01*
X62979982Y-61019099D01*
X63013819Y-61029879D01*
X63047260Y-61057020D01*
X63072928Y-61092723D01*
X63083428Y-61128440D01*
X63074114Y-61176952D01*
X63047187Y-61218947D01*
X63008373Y-61248064D01*
X62966787Y-61258010D01*
X62966787Y-61378579D01*
X62997964Y-61376401D01*
X63077251Y-61354945D01*
X63136937Y-61318530D01*
X63177651Y-61266703D01*
X63200021Y-61199010D01*
X63204329Y-61162338D01*
X63203230Y-61086419D01*
G36*
X64143052Y-65657261D02*
X64113969Y-65591479D01*
X64065407Y-65541540D01*
X63997292Y-65507374D01*
X63909549Y-65488907D01*
X63895849Y-65487583D01*
X63799261Y-65486546D01*
X63714598Y-65499993D01*
X63645979Y-65527108D01*
X63623906Y-65541627D01*
X63577189Y-65592201D01*
X63546932Y-65656609D01*
X63534376Y-65728666D01*
X63540761Y-65802185D01*
X63560428Y-65858072D01*
X63593571Y-65906132D01*
X63637025Y-65945412D01*
X63638042Y-65946092D01*
X63664862Y-65962044D01*
X63691832Y-65972410D01*
X63725868Y-65978688D01*
X63773890Y-65982373D01*
X63813269Y-65983997D01*
X63848981Y-65984672D01*
X63848981Y-65858955D01*
X63813430Y-65857726D01*
X63766106Y-65853266D01*
X63735735Y-65845397D01*
X63714128Y-65831207D01*
X63701506Y-65817917D01*
X63675078Y-65770802D01*
X63671547Y-65721505D01*
X63690561Y-65675593D01*
X63711869Y-65652638D01*
X63733341Y-65636096D01*
X63753887Y-65626421D01*
X63780626Y-65622174D01*
X63820677Y-65621920D01*
X63857562Y-65623228D01*
X63910253Y-65626043D01*
X63944428Y-65630505D01*
X63966720Y-65638548D01*
X63983758Y-65652103D01*
X63993497Y-65662845D01*
X64019077Y-65707777D01*
X64020353Y-65756249D01*
X64005201Y-65796894D01*
X63973558Y-65831567D01*
X63921580Y-65852224D01*
X63848981Y-65858955D01*
X63848981Y-65984672D01*
X63891579Y-65985479D01*
X63950144Y-65982948D01*
X63994193Y-65975362D01*
X64028952Y-65961681D01*
X64059649Y-65940865D01*
X64068764Y-65933147D01*
X64114179Y-65884889D01*
X64140707Y-65833128D01*
X64151821Y-65769828D01*
X64152729Y-65738961D01*
X64143052Y-65657261D01*
X64143052Y-65657261D01*
G37*
X64143052Y-65657261D02*
X64113969Y-65591479D01*
X64065407Y-65541540D01*
X63997292Y-65507374D01*
X63909549Y-65488907D01*
X63895849Y-65487583D01*
X63799261Y-65486546D01*
X63714598Y-65499993D01*
X63645979Y-65527108D01*
X63623906Y-65541627D01*
X63577189Y-65592201D01*
X63546932Y-65656609D01*
X63534376Y-65728666D01*
X63540761Y-65802185D01*
X63560428Y-65858072D01*
X63593571Y-65906132D01*
X63637025Y-65945412D01*
X63638042Y-65946092D01*
X63664862Y-65962044D01*
X63691832Y-65972410D01*
X63725868Y-65978688D01*
X63773890Y-65982373D01*
X63813269Y-65983997D01*
X63848981Y-65984672D01*
X63848981Y-65858955D01*
X63813430Y-65857726D01*
X63766106Y-65853266D01*
X63735735Y-65845397D01*
X63714128Y-65831207D01*
X63701506Y-65817917D01*
X63675078Y-65770802D01*
X63671547Y-65721505D01*
X63690561Y-65675593D01*
X63711869Y-65652638D01*
X63733341Y-65636096D01*
X63753887Y-65626421D01*
X63780626Y-65622174D01*
X63820677Y-65621920D01*
X63857562Y-65623228D01*
X63910253Y-65626043D01*
X63944428Y-65630505D01*
X63966720Y-65638548D01*
X63983758Y-65652103D01*
X63993497Y-65662845D01*
X64019077Y-65707777D01*
X64020353Y-65756249D01*
X64005201Y-65796894D01*
X63973558Y-65831567D01*
X63921580Y-65852224D01*
X63848981Y-65858955D01*
X63848981Y-65984672D01*
X63891579Y-65985479D01*
X63950144Y-65982948D01*
X63994193Y-65975362D01*
X64028952Y-65961681D01*
X64059649Y-65940865D01*
X64068764Y-65933147D01*
X64114179Y-65884889D01*
X64140707Y-65833128D01*
X64151821Y-65769828D01*
X64152729Y-65738961D01*
X64143052Y-65657261D01*
G36*
X64135586Y-64475699D02*
X64129686Y-64463168D01*
X64097917Y-64419799D01*
X64051554Y-64378790D01*
X64000504Y-64348168D01*
X63977034Y-64339459D01*
X63935109Y-64331512D01*
X63884443Y-64326774D01*
X63863521Y-64326199D01*
X63797507Y-64326129D01*
X63797507Y-64706083D01*
X63762927Y-64697983D01*
X63722030Y-64678104D01*
X63686686Y-64643347D01*
X63663918Y-64601998D01*
X63659190Y-64575649D01*
X63664927Y-64539916D01*
X63679318Y-64497282D01*
X63685938Y-64482799D01*
X63712687Y-64429240D01*
X63677824Y-64383533D01*
X63654245Y-64357158D01*
X63634783Y-64343124D01*
X63629071Y-64342414D01*
X63615227Y-64354951D01*
X63594188Y-64382428D01*
X63577775Y-64407366D01*
X63548270Y-64474664D01*
X63534916Y-64550110D01*
X63538388Y-64624888D01*
X63556537Y-64684495D01*
X63595416Y-64745941D01*
X63646605Y-64789608D01*
X63712833Y-64816926D01*
X63796829Y-64829322D01*
X63835264Y-64830421D01*
X63923339Y-64826022D01*
X63925901Y-64825482D01*
X63925901Y-64699582D01*
X63917642Y-64696115D01*
X63913087Y-64681863D01*
X63911135Y-64652470D01*
X63910683Y-64603575D01*
X63910675Y-64584748D01*
X63911357Y-64527467D01*
X63913836Y-64491141D01*
X63918757Y-64471604D01*
X63926766Y-64464690D01*
X63929338Y-64464445D01*
X63949777Y-64472336D01*
X63978411Y-64492085D01*
X63988437Y-64500575D01*
X64016792Y-64532094D01*
X64027941Y-64564949D01*
X64028873Y-64582651D01*
X64017219Y-64630539D01*
X63985915Y-64670699D01*
X63940448Y-64696173D01*
X63938967Y-64696625D01*
X63925901Y-64699582D01*
X63925901Y-64825482D01*
X63992690Y-64811392D01*
X64048175Y-64785038D01*
X64087561Y-64752807D01*
X64130269Y-64693217D01*
X64153091Y-64623168D01*
X64155154Y-64548661D01*
X64135586Y-64475699D01*
X64135586Y-64475699D01*
G37*
X64135586Y-64475699D02*
X64129686Y-64463168D01*
X64097917Y-64419799D01*
X64051554Y-64378790D01*
X64000504Y-64348168D01*
X63977034Y-64339459D01*
X63935109Y-64331512D01*
X63884443Y-64326774D01*
X63863521Y-64326199D01*
X63797507Y-64326129D01*
X63797507Y-64706083D01*
X63762927Y-64697983D01*
X63722030Y-64678104D01*
X63686686Y-64643347D01*
X63663918Y-64601998D01*
X63659190Y-64575649D01*
X63664927Y-64539916D01*
X63679318Y-64497282D01*
X63685938Y-64482799D01*
X63712687Y-64429240D01*
X63677824Y-64383533D01*
X63654245Y-64357158D01*
X63634783Y-64343124D01*
X63629071Y-64342414D01*
X63615227Y-64354951D01*
X63594188Y-64382428D01*
X63577775Y-64407366D01*
X63548270Y-64474664D01*
X63534916Y-64550110D01*
X63538388Y-64624888D01*
X63556537Y-64684495D01*
X63595416Y-64745941D01*
X63646605Y-64789608D01*
X63712833Y-64816926D01*
X63796829Y-64829322D01*
X63835264Y-64830421D01*
X63923339Y-64826022D01*
X63925901Y-64825482D01*
X63925901Y-64699582D01*
X63917642Y-64696115D01*
X63913087Y-64681863D01*
X63911135Y-64652470D01*
X63910683Y-64603575D01*
X63910675Y-64584748D01*
X63911357Y-64527467D01*
X63913836Y-64491141D01*
X63918757Y-64471604D01*
X63926766Y-64464690D01*
X63929338Y-64464445D01*
X63949777Y-64472336D01*
X63978411Y-64492085D01*
X63988437Y-64500575D01*
X64016792Y-64532094D01*
X64027941Y-64564949D01*
X64028873Y-64582651D01*
X64017219Y-64630539D01*
X63985915Y-64670699D01*
X63940448Y-64696173D01*
X63938967Y-64696625D01*
X63925901Y-64699582D01*
X63925901Y-64825482D01*
X63992690Y-64811392D01*
X64048175Y-64785038D01*
X64087561Y-64752807D01*
X64130269Y-64693217D01*
X64153091Y-64623168D01*
X64155154Y-64548661D01*
X64135586Y-64475699D01*
G36*
X64151748Y-63104983D02*
X64142718Y-63057366D01*
X64123830Y-63007966D01*
X64121423Y-63002688D01*
X64101724Y-62965226D01*
X64083419Y-62939283D01*
X64071692Y-62930897D01*
X64052568Y-62938883D01*
X64024350Y-62958280D01*
X64013816Y-62966890D01*
X63972353Y-63002372D01*
X63999342Y-63048115D01*
X64017322Y-63091650D01*
X64026933Y-63141950D01*
X64027540Y-63190188D01*
X64018509Y-63227533D01*
X64012873Y-63236495D01*
X63987029Y-63253563D01*
X63957259Y-63255637D01*
X63934003Y-63242866D01*
X63929492Y-63235312D01*
X63923891Y-63212675D01*
X63917308Y-63172885D01*
X63911017Y-63123834D01*
X63910030Y-63114785D01*
X63896402Y-63036004D01*
X63873254Y-62978864D01*
X63838448Y-62940970D01*
X63789846Y-62919921D01*
X63730482Y-62913365D01*
X63663002Y-62922423D01*
X63610012Y-62951836D01*
X63571417Y-63001722D01*
X63547119Y-63072200D01*
X63537533Y-63150435D01*
X63537648Y-63214234D01*
X63546355Y-63265984D01*
X63558375Y-63301327D01*
X63579320Y-63345983D01*
X63603626Y-63387253D01*
X63614324Y-63401921D01*
X63645116Y-63439643D01*
X63691151Y-63394148D01*
X63737187Y-63348653D01*
X63702957Y-63296928D01*
X63677248Y-63245048D01*
X63663801Y-63189649D01*
X63662382Y-63136395D01*
X63672757Y-63090951D01*
X63694693Y-63058984D01*
X63713202Y-63048662D01*
X63742886Y-63050211D01*
X63765585Y-63075860D01*
X63781260Y-63125540D01*
X63788505Y-63179969D01*
X63802327Y-63263736D01*
X63828404Y-63325967D01*
X63867501Y-63367493D01*
X63920380Y-63389147D01*
X63983074Y-63392147D01*
X64048558Y-63377329D01*
X64098056Y-63343546D01*
X64131792Y-63290495D01*
X64149993Y-63217874D01*
X64153561Y-63164072D01*
X64151748Y-63104983D01*
X64151748Y-63104983D01*
G37*
X64151748Y-63104983D02*
X64142718Y-63057366D01*
X64123830Y-63007966D01*
X64121423Y-63002688D01*
X64101724Y-62965226D01*
X64083419Y-62939283D01*
X64071692Y-62930897D01*
X64052568Y-62938883D01*
X64024350Y-62958280D01*
X64013816Y-62966890D01*
X63972353Y-63002372D01*
X63999342Y-63048115D01*
X64017322Y-63091650D01*
X64026933Y-63141950D01*
X64027540Y-63190188D01*
X64018509Y-63227533D01*
X64012873Y-63236495D01*
X63987029Y-63253563D01*
X63957259Y-63255637D01*
X63934003Y-63242866D01*
X63929492Y-63235312D01*
X63923891Y-63212675D01*
X63917308Y-63172885D01*
X63911017Y-63123834D01*
X63910030Y-63114785D01*
X63896402Y-63036004D01*
X63873254Y-62978864D01*
X63838448Y-62940970D01*
X63789846Y-62919921D01*
X63730482Y-62913365D01*
X63663002Y-62922423D01*
X63610012Y-62951836D01*
X63571417Y-63001722D01*
X63547119Y-63072200D01*
X63537533Y-63150435D01*
X63537648Y-63214234D01*
X63546355Y-63265984D01*
X63558375Y-63301327D01*
X63579320Y-63345983D01*
X63603626Y-63387253D01*
X63614324Y-63401921D01*
X63645116Y-63439643D01*
X63691151Y-63394148D01*
X63737187Y-63348653D01*
X63702957Y-63296928D01*
X63677248Y-63245048D01*
X63663801Y-63189649D01*
X63662382Y-63136395D01*
X63672757Y-63090951D01*
X63694693Y-63058984D01*
X63713202Y-63048662D01*
X63742886Y-63050211D01*
X63765585Y-63075860D01*
X63781260Y-63125540D01*
X63788505Y-63179969D01*
X63802327Y-63263736D01*
X63828404Y-63325967D01*
X63867501Y-63367493D01*
X63920380Y-63389147D01*
X63983074Y-63392147D01*
X64048558Y-63377329D01*
X64098056Y-63343546D01*
X64131792Y-63290495D01*
X64149993Y-63217874D01*
X64153561Y-63164072D01*
X64151748Y-63104983D01*
G36*
X64142145Y-62508238D02*
X64107508Y-62444637D01*
X64052828Y-62394877D01*
X64008358Y-62371432D01*
X63969079Y-62361366D01*
X63913084Y-62354844D01*
X63848579Y-62352049D01*
X63783771Y-62353164D01*
X63726866Y-62358374D01*
X63696473Y-62364459D01*
X63654894Y-62384986D01*
X63610732Y-62420537D01*
X63572113Y-62463381D01*
X63547166Y-62505789D01*
X63546770Y-62506823D01*
X63535869Y-62559447D01*
X63535599Y-62621812D01*
X63545524Y-62681076D01*
X63553478Y-62703960D01*
X63586900Y-62762898D01*
X63630689Y-62805110D01*
X63688662Y-62832844D01*
X63764635Y-62848349D01*
X63804429Y-62851857D01*
X63854434Y-62851410D01*
X63854434Y-62716624D01*
X63781468Y-62712083D01*
X63725866Y-62699014D01*
X63690339Y-62678244D01*
X63680180Y-62663448D01*
X63673096Y-62625536D01*
X63675193Y-62580473D01*
X63685388Y-62541513D01*
X63690996Y-62531296D01*
X63723662Y-62504341D01*
X63773655Y-62486549D01*
X63834495Y-62478976D01*
X63899703Y-62482675D01*
X63938947Y-62490943D01*
X63984395Y-62514680D01*
X64012804Y-62552151D01*
X64022627Y-62597280D01*
X64012313Y-62643989D01*
X63987088Y-62679868D01*
X63966275Y-62698723D01*
X63945761Y-62709728D01*
X63917997Y-62714974D01*
X63875438Y-62716551D01*
X63854434Y-62716624D01*
X63854434Y-62851410D01*
X63910620Y-62850906D01*
X63997699Y-62833612D01*
X64065670Y-62799971D01*
X64114536Y-62749982D01*
X64144301Y-62683644D01*
X64147752Y-62669399D01*
X64155855Y-62583790D01*
X64142145Y-62508238D01*
X64142145Y-62508238D01*
G37*
X64142145Y-62508238D02*
X64107508Y-62444637D01*
X64052828Y-62394877D01*
X64008358Y-62371432D01*
X63969079Y-62361366D01*
X63913084Y-62354844D01*
X63848579Y-62352049D01*
X63783771Y-62353164D01*
X63726866Y-62358374D01*
X63696473Y-62364459D01*
X63654894Y-62384986D01*
X63610732Y-62420537D01*
X63572113Y-62463381D01*
X63547166Y-62505789D01*
X63546770Y-62506823D01*
X63535869Y-62559447D01*
X63535599Y-62621812D01*
X63545524Y-62681076D01*
X63553478Y-62703960D01*
X63586900Y-62762898D01*
X63630689Y-62805110D01*
X63688662Y-62832844D01*
X63764635Y-62848349D01*
X63804429Y-62851857D01*
X63854434Y-62851410D01*
X63854434Y-62716624D01*
X63781468Y-62712083D01*
X63725866Y-62699014D01*
X63690339Y-62678244D01*
X63680180Y-62663448D01*
X63673096Y-62625536D01*
X63675193Y-62580473D01*
X63685388Y-62541513D01*
X63690996Y-62531296D01*
X63723662Y-62504341D01*
X63773655Y-62486549D01*
X63834495Y-62478976D01*
X63899703Y-62482675D01*
X63938947Y-62490943D01*
X63984395Y-62514680D01*
X64012804Y-62552151D01*
X64022627Y-62597280D01*
X64012313Y-62643989D01*
X63987088Y-62679868D01*
X63966275Y-62698723D01*
X63945761Y-62709728D01*
X63917997Y-62714974D01*
X63875438Y-62716551D01*
X63854434Y-62716624D01*
X63854434Y-62851410D01*
X63910620Y-62850906D01*
X63997699Y-62833612D01*
X64065670Y-62799971D01*
X64114536Y-62749982D01*
X64144301Y-62683644D01*
X64147752Y-62669399D01*
X64155855Y-62583790D01*
X64142145Y-62508238D01*
G36*
X63953858Y-62125633D02*
X63861637Y-62124445D01*
X63791590Y-62120103D01*
X63740819Y-62111442D01*
X63706428Y-62097296D01*
X63685521Y-62076500D01*
X63675200Y-62047890D01*
X63672564Y-62012465D01*
X63675518Y-61975364D01*
X63686311Y-61947182D01*
X63707840Y-61926757D01*
X63743001Y-61912921D01*
X63794690Y-61904509D01*
X63865806Y-61900357D01*
X63953858Y-61899297D01*
X64149586Y-61899297D01*
X64149586Y-61760980D01*
X63546021Y-61760980D01*
X63546021Y-61830138D01*
X63547711Y-61871830D01*
X63553644Y-61893299D01*
X63564907Y-61899297D01*
X63574939Y-61902909D01*
X63572817Y-61917286D01*
X63558620Y-61946264D01*
X63536720Y-62012681D01*
X63538272Y-62083125D01*
X63562053Y-62150623D01*
X63580838Y-62182767D01*
X63601178Y-62207285D01*
X63626627Y-62225196D01*
X63660742Y-62237521D01*
X63707079Y-62245277D01*
X63769193Y-62249484D01*
X63850639Y-62251160D01*
X63913622Y-62251376D01*
X64149586Y-62251376D01*
X64149586Y-62125633D01*
X63953858Y-62125633D01*
X63953858Y-62125633D01*
G37*
X63953858Y-62125633D02*
X63861637Y-62124445D01*
X63791590Y-62120103D01*
X63740819Y-62111442D01*
X63706428Y-62097296D01*
X63685521Y-62076500D01*
X63675200Y-62047890D01*
X63672564Y-62012465D01*
X63675518Y-61975364D01*
X63686311Y-61947182D01*
X63707840Y-61926757D01*
X63743001Y-61912921D01*
X63794690Y-61904509D01*
X63865806Y-61900357D01*
X63953858Y-61899297D01*
X64149586Y-61899297D01*
X64149586Y-61760980D01*
X63546021Y-61760980D01*
X63546021Y-61830138D01*
X63547711Y-61871830D01*
X63553644Y-61893299D01*
X63564907Y-61899297D01*
X63574939Y-61902909D01*
X63572817Y-61917286D01*
X63558620Y-61946264D01*
X63536720Y-62012681D01*
X63538272Y-62083125D01*
X63562053Y-62150623D01*
X63580838Y-62182767D01*
X63601178Y-62207285D01*
X63626627Y-62225196D01*
X63660742Y-62237521D01*
X63707079Y-62245277D01*
X63769193Y-62249484D01*
X63850639Y-62251160D01*
X63913622Y-62251376D01*
X64149586Y-62251376D01*
X64149586Y-62125633D01*
X63953858Y-62125633D01*
G36*
X64144320Y-60901774D02*
X64113370Y-60828920D01*
X64098305Y-60805973D01*
X64075152Y-60776646D01*
X64056947Y-60758236D01*
X64051017Y-60755039D01*
X64037860Y-60764065D01*
X64015533Y-60787163D01*
X63999950Y-60805656D01*
X63959274Y-60856272D01*
X63992905Y-60896240D01*
X64014616Y-60927126D01*
X64022110Y-60957241D01*
X64020280Y-60991708D01*
X64006672Y-61046439D01*
X63978428Y-61084114D01*
X63932767Y-61107009D01*
X63866911Y-61117403D01*
X63866869Y-61117405D01*
X63793261Y-61116506D01*
X63739254Y-61102537D01*
X63702484Y-61074672D01*
X63690032Y-61055675D01*
X63674527Y-61005224D01*
X63674517Y-60951337D01*
X63689562Y-60904454D01*
X63696913Y-60893356D01*
X63715689Y-60865524D01*
X63718766Y-60843764D01*
X63704791Y-60820296D01*
X63679690Y-60794351D01*
X63637320Y-60753284D01*
X63599736Y-60798879D01*
X63557318Y-60869326D01*
X63536415Y-60948767D01*
X63537928Y-61031785D01*
X63551789Y-61086306D01*
X63586065Y-61150030D01*
X63639988Y-61200995D01*
X63678051Y-61224149D01*
X63732664Y-61242901D01*
X63801831Y-61252285D01*
X63876793Y-61252357D01*
X63948791Y-61243176D01*
X64009063Y-61224801D01*
X64015242Y-61221907D01*
X64075849Y-61179048D01*
X64119976Y-61121021D01*
X64146707Y-61052409D01*
X64155127Y-60977799D01*
X64144320Y-60901774D01*
X64144320Y-60901774D01*
G37*
X64144320Y-60901774D02*
X64113370Y-60828920D01*
X64098305Y-60805973D01*
X64075152Y-60776646D01*
X64056947Y-60758236D01*
X64051017Y-60755039D01*
X64037860Y-60764065D01*
X64015533Y-60787163D01*
X63999950Y-60805656D01*
X63959274Y-60856272D01*
X63992905Y-60896240D01*
X64014616Y-60927126D01*
X64022110Y-60957241D01*
X64020280Y-60991708D01*
X64006672Y-61046439D01*
X63978428Y-61084114D01*
X63932767Y-61107009D01*
X63866911Y-61117403D01*
X63866869Y-61117405D01*
X63793261Y-61116506D01*
X63739254Y-61102537D01*
X63702484Y-61074672D01*
X63690032Y-61055675D01*
X63674527Y-61005224D01*
X63674517Y-60951337D01*
X63689562Y-60904454D01*
X63696913Y-60893356D01*
X63715689Y-60865524D01*
X63718766Y-60843764D01*
X63704791Y-60820296D01*
X63679690Y-60794351D01*
X63637320Y-60753284D01*
X63599736Y-60798879D01*
X63557318Y-60869326D01*
X63536415Y-60948767D01*
X63537928Y-61031785D01*
X63551789Y-61086306D01*
X63586065Y-61150030D01*
X63639988Y-61200995D01*
X63678051Y-61224149D01*
X63732664Y-61242901D01*
X63801831Y-61252285D01*
X63876793Y-61252357D01*
X63948791Y-61243176D01*
X64009063Y-61224801D01*
X64015242Y-61221907D01*
X64075849Y-61179048D01*
X64119976Y-61121021D01*
X64146707Y-61052409D01*
X64155127Y-60977799D01*
X64144320Y-60901774D01*
G36*
X64151743Y-60441102D02*
X64143921Y-60408904D01*
X64115279Y-60347175D01*
X64071533Y-60294390D01*
X64019083Y-60257859D01*
X64007307Y-60252840D01*
X63976460Y-60245955D01*
X63930829Y-60241136D01*
X63884708Y-60239495D01*
X63797507Y-60239495D01*
X63797507Y-60421822D01*
X63797222Y-60497021D01*
X63795496Y-60549997D01*
X63791019Y-60583675D01*
X63782480Y-60600980D01*
X63768570Y-60604837D01*
X63747978Y-60598171D01*
X63723885Y-60586230D01*
X63683675Y-60552920D01*
X63663642Y-60506632D01*
X63664295Y-60450056D01*
X63686099Y-60385969D01*
X63713007Y-60330583D01*
X63676668Y-60284625D01*
X63640328Y-60238667D01*
X63600381Y-60281904D01*
X63562637Y-60339626D01*
X63539880Y-60410614D01*
X63533512Y-60486971D01*
X63544932Y-60560801D01*
X63548807Y-60572713D01*
X63582694Y-60637601D01*
X63633214Y-60685870D01*
X63701875Y-60718535D01*
X63790186Y-60736615D01*
X63792079Y-60736825D01*
X63888322Y-60738444D01*
X63922658Y-60731900D01*
X63922658Y-60604148D01*
X63917378Y-60592416D01*
X63913333Y-60560562D01*
X63911024Y-60513603D01*
X63910675Y-60483846D01*
X63910894Y-60428352D01*
X63912284Y-60393654D01*
X63915949Y-60375399D01*
X63922990Y-60369234D01*
X63934510Y-60370805D01*
X63938967Y-60372122D01*
X63980845Y-60394618D01*
X64014596Y-60429997D01*
X64029427Y-60461220D01*
X64028532Y-60502699D01*
X64010036Y-60544731D01*
X63979414Y-60579988D01*
X63942138Y-60601146D01*
X63922658Y-60604148D01*
X63922658Y-60731900D01*
X63972971Y-60722310D01*
X64044009Y-60690302D01*
X64099421Y-60644299D01*
X64137191Y-60586179D01*
X64155304Y-60517820D01*
X64151743Y-60441102D01*
X64151743Y-60441102D01*
G37*
X64151743Y-60441102D02*
X64143921Y-60408904D01*
X64115279Y-60347175D01*
X64071533Y-60294390D01*
X64019083Y-60257859D01*
X64007307Y-60252840D01*
X63976460Y-60245955D01*
X63930829Y-60241136D01*
X63884708Y-60239495D01*
X63797507Y-60239495D01*
X63797507Y-60421822D01*
X63797222Y-60497021D01*
X63795496Y-60549997D01*
X63791019Y-60583675D01*
X63782480Y-60600980D01*
X63768570Y-60604837D01*
X63747978Y-60598171D01*
X63723885Y-60586230D01*
X63683675Y-60552920D01*
X63663642Y-60506632D01*
X63664295Y-60450056D01*
X63686099Y-60385969D01*
X63713007Y-60330583D01*
X63676668Y-60284625D01*
X63640328Y-60238667D01*
X63600381Y-60281904D01*
X63562637Y-60339626D01*
X63539880Y-60410614D01*
X63533512Y-60486971D01*
X63544932Y-60560801D01*
X63548807Y-60572713D01*
X63582694Y-60637601D01*
X63633214Y-60685870D01*
X63701875Y-60718535D01*
X63790186Y-60736615D01*
X63792079Y-60736825D01*
X63888322Y-60738444D01*
X63922658Y-60731900D01*
X63922658Y-60604148D01*
X63917378Y-60592416D01*
X63913333Y-60560562D01*
X63911024Y-60513603D01*
X63910675Y-60483846D01*
X63910894Y-60428352D01*
X63912284Y-60393654D01*
X63915949Y-60375399D01*
X63922990Y-60369234D01*
X63934510Y-60370805D01*
X63938967Y-60372122D01*
X63980845Y-60394618D01*
X64014596Y-60429997D01*
X64029427Y-60461220D01*
X64028532Y-60502699D01*
X64010036Y-60544731D01*
X63979414Y-60579988D01*
X63942138Y-60601146D01*
X63922658Y-60604148D01*
X63922658Y-60731900D01*
X63972971Y-60722310D01*
X64044009Y-60690302D01*
X64099421Y-60644299D01*
X64137191Y-60586179D01*
X64155304Y-60517820D01*
X64151743Y-60441102D01*
G36*
X64139198Y-63873012D02*
X64124250Y-63841717D01*
X64102659Y-63811409D01*
X64077809Y-63788318D01*
X64046113Y-63771500D01*
X64003986Y-63760006D01*
X63947842Y-63752891D01*
X63874094Y-63749207D01*
X63779156Y-63748008D01*
X63769215Y-63747989D01*
X63546021Y-63747713D01*
X63546021Y-63886030D01*
X63751782Y-63886030D01*
X63828011Y-63886128D01*
X63883261Y-63886809D01*
X63921699Y-63888651D01*
X63947494Y-63892233D01*
X63964816Y-63898132D01*
X63977832Y-63906927D01*
X63990693Y-63919180D01*
X64018327Y-63962047D01*
X64023455Y-64008843D01*
X64005983Y-64053424D01*
X63992979Y-64068928D01*
X63980753Y-64080310D01*
X63967660Y-64088481D01*
X63949585Y-64093974D01*
X63922413Y-64097320D01*
X63882030Y-64099051D01*
X63824321Y-64099697D01*
X63754068Y-64099792D01*
X63546021Y-64099792D01*
X63546021Y-64238109D01*
X64149586Y-64238109D01*
X64149586Y-64168950D01*
X64147944Y-64127428D01*
X64142113Y-64106006D01*
X64130739Y-64099795D01*
X64130402Y-64099792D01*
X64119262Y-64096910D01*
X64120526Y-64084199D01*
X64132766Y-64058926D01*
X64150776Y-64001605D01*
X64152779Y-63936037D01*
X64139198Y-63873012D01*
X64139198Y-63873012D01*
G37*
X64139198Y-63873012D02*
X64124250Y-63841717D01*
X64102659Y-63811409D01*
X64077809Y-63788318D01*
X64046113Y-63771500D01*
X64003986Y-63760006D01*
X63947842Y-63752891D01*
X63874094Y-63749207D01*
X63779156Y-63748008D01*
X63769215Y-63747989D01*
X63546021Y-63747713D01*
X63546021Y-63886030D01*
X63751782Y-63886030D01*
X63828011Y-63886128D01*
X63883261Y-63886809D01*
X63921699Y-63888651D01*
X63947494Y-63892233D01*
X63964816Y-63898132D01*
X63977832Y-63906927D01*
X63990693Y-63919180D01*
X64018327Y-63962047D01*
X64023455Y-64008843D01*
X64005983Y-64053424D01*
X63992979Y-64068928D01*
X63980753Y-64080310D01*
X63967660Y-64088481D01*
X63949585Y-64093974D01*
X63922413Y-64097320D01*
X63882030Y-64099051D01*
X63824321Y-64099697D01*
X63754068Y-64099792D01*
X63546021Y-64099792D01*
X63546021Y-64238109D01*
X64149586Y-64238109D01*
X64149586Y-64168950D01*
X64147944Y-64127428D01*
X64142113Y-64106006D01*
X64130739Y-64099795D01*
X64130402Y-64099792D01*
X64119262Y-64096910D01*
X64120526Y-64084199D01*
X64132766Y-64058926D01*
X64150776Y-64001605D01*
X64152779Y-63936037D01*
X64139198Y-63873012D01*
G36*
X64150170Y-61319540D02*
X64136955Y-61276289D01*
X64120259Y-61248442D01*
X64107055Y-61239371D01*
X64091403Y-61241868D01*
X64066815Y-61258069D01*
X64049400Y-61271768D01*
X64017917Y-61300008D01*
X64004671Y-61321225D01*
X64005536Y-61339312D01*
X64019190Y-61392965D01*
X64018570Y-61432370D01*
X64003096Y-61464368D01*
X63994039Y-61475110D01*
X63962173Y-61509495D01*
X63546021Y-61509495D01*
X63546021Y-61647812D01*
X64149586Y-61647812D01*
X64149586Y-61578653D01*
X64147944Y-61537131D01*
X64142113Y-61515709D01*
X64130739Y-61509498D01*
X64130402Y-61509495D01*
X64118487Y-61506561D01*
X64120041Y-61493296D01*
X64128637Y-61474916D01*
X64144632Y-61436954D01*
X64154255Y-61406128D01*
X64156722Y-61366464D01*
X64150170Y-61319540D01*
X64150170Y-61319540D01*
G37*
X64150170Y-61319540D02*
X64136955Y-61276289D01*
X64120259Y-61248442D01*
X64107055Y-61239371D01*
X64091403Y-61241868D01*
X64066815Y-61258069D01*
X64049400Y-61271768D01*
X64017917Y-61300008D01*
X64004671Y-61321225D01*
X64005536Y-61339312D01*
X64019190Y-61392965D01*
X64018570Y-61432370D01*
X64003096Y-61464368D01*
X63994039Y-61475110D01*
X63962173Y-61509495D01*
X63546021Y-61509495D01*
X63546021Y-61647812D01*
X64149586Y-61647812D01*
X64149586Y-61578653D01*
X64147944Y-61537131D01*
X64142113Y-61515709D01*
X64130739Y-61509498D01*
X64130402Y-61509495D01*
X64118487Y-61506561D01*
X64120041Y-61493296D01*
X64128637Y-61474916D01*
X64144632Y-61436954D01*
X64154255Y-61406128D01*
X64156722Y-61366464D01*
X64150170Y-61319540D01*
G36*
X68318182Y-62742036D02*
X68016630Y-62685188D01*
X67843688Y-62265662D01*
X68014805Y-62014016D01*
X68062450Y-61943542D01*
X68104990Y-61879837D01*
X68140485Y-61825874D01*
X68166990Y-61784627D01*
X68182564Y-61759066D01*
X68185922Y-61752105D01*
X68177286Y-61739565D01*
X68153408Y-61712769D01*
X68117341Y-61674720D01*
X68072133Y-61628421D01*
X68020836Y-61576877D01*
X67966499Y-61523091D01*
X67912172Y-61470065D01*
X67860905Y-61420805D01*
X67815749Y-61378313D01*
X67779754Y-61345593D01*
X67755970Y-61325649D01*
X67748010Y-61320881D01*
X67733335Y-61327743D01*
X67701186Y-61346980D01*
X67654708Y-61376570D01*
X67597044Y-61414490D01*
X67531340Y-61458718D01*
X67493864Y-61484346D01*
X67425432Y-61531059D01*
X67363680Y-61572568D01*
X67311681Y-61606860D01*
X67272508Y-61631920D01*
X67249235Y-61645736D01*
X67244345Y-61647812D01*
X67230445Y-61643105D01*
X67198050Y-61630277D01*
X67151715Y-61611262D01*
X67095994Y-61587997D01*
X67035442Y-61562416D01*
X66974614Y-61536455D01*
X66918064Y-61512050D01*
X66870348Y-61491137D01*
X66836019Y-61475651D01*
X66819632Y-61467528D01*
X66818988Y-61467048D01*
X66815859Y-61454293D01*
X66808879Y-61420323D01*
X66798733Y-61368660D01*
X66786108Y-61302824D01*
X66771691Y-61226336D01*
X66763377Y-61181710D01*
X66747816Y-61099979D01*
X66733008Y-61026157D01*
X66719764Y-60963979D01*
X66708895Y-60917178D01*
X66701211Y-60889491D01*
X66698773Y-60883926D01*
X66682270Y-60878474D01*
X66645000Y-60874076D01*
X66591320Y-60870728D01*
X66525588Y-60868426D01*
X66452163Y-60867168D01*
X66375404Y-60866952D01*
X66299668Y-60867773D01*
X66229314Y-60869629D01*
X66168700Y-60872518D01*
X66122184Y-60876435D01*
X66094125Y-60881378D01*
X66088284Y-60884343D01*
X66081283Y-60902066D01*
X66071273Y-60939619D01*
X66059431Y-60992036D01*
X66046933Y-61054348D01*
X66042890Y-61076100D01*
X66023680Y-61180976D01*
X66008209Y-61263820D01*
X65995863Y-61327370D01*
X65986027Y-61374363D01*
X65978086Y-61407537D01*
X65971424Y-61429629D01*
X65965427Y-61443376D01*
X65959481Y-61451516D01*
X65958306Y-61452655D01*
X65939374Y-61464023D01*
X65902531Y-61481365D01*
X65852287Y-61502950D01*
X65793154Y-61527046D01*
X65729644Y-61551921D01*
X65666268Y-61575843D01*
X65607538Y-61597081D01*
X65557965Y-61613903D01*
X65522061Y-61624578D01*
X65504338Y-61627373D01*
X65503717Y-61627140D01*
X65489230Y-61617669D01*
X65457356Y-61596182D01*
X65411411Y-61564937D01*
X65354715Y-61526193D01*
X65290583Y-61482207D01*
X65272358Y-61469681D01*
X65206286Y-61425016D01*
X65146000Y-61385712D01*
X65094965Y-61353912D01*
X65056640Y-61331755D01*
X65034489Y-61321383D01*
X65031768Y-61320881D01*
X65017464Y-61329595D01*
X64989128Y-61353675D01*
X64949804Y-61390024D01*
X64902539Y-61435547D01*
X64850377Y-61487148D01*
X64796365Y-61541733D01*
X64743547Y-61596206D01*
X64694969Y-61647471D01*
X64653677Y-61692433D01*
X64622715Y-61727996D01*
X64605130Y-61751065D01*
X64602259Y-61757446D01*
X64609022Y-61772301D01*
X64627261Y-61802714D01*
X64653903Y-61843732D01*
X64675348Y-61875291D01*
X64714697Y-61932475D01*
X64761029Y-62000194D01*
X64807287Y-62068120D01*
X64832045Y-62104639D01*
X64915653Y-62228248D01*
X64859550Y-62332009D01*
X64834972Y-62379280D01*
X64815869Y-62419477D01*
X64804973Y-62446674D01*
X64803457Y-62453598D01*
X64814651Y-62461923D01*
X64846283Y-62478346D01*
X64895435Y-62501643D01*
X64959190Y-62530586D01*
X65034629Y-62563950D01*
X65118836Y-62600509D01*
X65208892Y-62639036D01*
X65301879Y-62678306D01*
X65394880Y-62717092D01*
X65484977Y-62754170D01*
X65569252Y-62788311D01*
X65644787Y-62818292D01*
X65708666Y-62842884D01*
X65757969Y-62860864D01*
X65789779Y-62871003D01*
X65800704Y-62872634D01*
X65814639Y-62859709D01*
X65837260Y-62831411D01*
X65863867Y-62793654D01*
X65865972Y-62790485D01*
X65944086Y-62692900D01*
X66035218Y-62614214D01*
X66136455Y-62555109D01*
X66244882Y-62516268D01*
X66357586Y-62498372D01*
X66471652Y-62502103D01*
X66584166Y-62528143D01*
X66692215Y-62577175D01*
X66715855Y-62591600D01*
X66811313Y-62666631D01*
X66887968Y-62755270D01*
X66945420Y-62854451D01*
X66983271Y-62961105D01*
X67001122Y-63072164D01*
X66998575Y-63184561D01*
X66975230Y-63295227D01*
X66930690Y-63401094D01*
X66864555Y-63499095D01*
X66837713Y-63529410D01*
X66753688Y-63606562D01*
X66665234Y-63662782D01*
X66566085Y-63701347D01*
X66467897Y-63722826D01*
X66357503Y-63728128D01*
X66246560Y-63710448D01*
X66138819Y-63671581D01*
X66038031Y-63613323D01*
X65947944Y-63537469D01*
X65872308Y-63445817D01*
X65864336Y-63433772D01*
X65838226Y-63395611D01*
X65815605Y-63366601D01*
X65801161Y-63352732D01*
X65800704Y-63352531D01*
X65785079Y-63355508D01*
X65749618Y-63367311D01*
X65697238Y-63386714D01*
X65630855Y-63412488D01*
X65553386Y-63443409D01*
X65467750Y-63478249D01*
X65376863Y-63515783D01*
X65283641Y-63554783D01*
X65191003Y-63594023D01*
X65101865Y-63632276D01*
X65019145Y-63668317D01*
X64945759Y-63700917D01*
X64884625Y-63728852D01*
X64838659Y-63750895D01*
X64810779Y-63765818D01*
X64803457Y-63771828D01*
X64809159Y-63790191D01*
X64824451Y-63824552D01*
X64846601Y-63868984D01*
X64859550Y-63893417D01*
X64915653Y-63997178D01*
X64832045Y-64120787D01*
X64789213Y-64183886D01*
X64742078Y-64252970D01*
X64697697Y-64317707D01*
X64675348Y-64350134D01*
X64644723Y-64395741D01*
X64620453Y-64434360D01*
X64605613Y-64460952D01*
X64602476Y-64469590D01*
X64610939Y-64482161D01*
X64634564Y-64509984D01*
X64670898Y-64550361D01*
X64717489Y-64600595D01*
X64771883Y-64657988D01*
X64806808Y-64694286D01*
X64869204Y-64757790D01*
X64925012Y-64812673D01*
X64971846Y-64856714D01*
X65007318Y-64887695D01*
X65029039Y-64903398D01*
X65033448Y-64904905D01*
X65050215Y-64897914D01*
X65084118Y-64878594D01*
X65131724Y-64849091D01*
X65189601Y-64811545D01*
X65254316Y-64768100D01*
X65272358Y-64755745D01*
X65337933Y-64710727D01*
X65396972Y-64670340D01*
X65446158Y-64636840D01*
X65482172Y-64612486D01*
X65501698Y-64599536D01*
X65503717Y-64598285D01*
X65519278Y-64600156D01*
X65553491Y-64610087D01*
X65601845Y-64626347D01*
X65659829Y-64647205D01*
X65722930Y-64670927D01*
X65786637Y-64695784D01*
X65846439Y-64720042D01*
X65897824Y-64741971D01*
X65936281Y-64759838D01*
X65957298Y-64771913D01*
X65958306Y-64772771D01*
X65964312Y-64780154D01*
X65970252Y-64792625D01*
X65976740Y-64812920D01*
X65984391Y-64843778D01*
X65993820Y-64887934D01*
X66005641Y-64948126D01*
X66020471Y-65027093D01*
X66038923Y-65127570D01*
X66042890Y-65149325D01*
X66055347Y-65213802D01*
X66067534Y-65270011D01*
X66078274Y-65312987D01*
X66086391Y-65337760D01*
X66088284Y-65341082D01*
X66105062Y-65346556D01*
X66142555Y-65351006D01*
X66196406Y-65354428D01*
X66262256Y-65356819D01*
X66335747Y-65358177D01*
X66412520Y-65358499D01*
X66488217Y-65357781D01*
X66558480Y-65356021D01*
X66618950Y-65353216D01*
X66665270Y-65349362D01*
X66693081Y-65344457D01*
X66698773Y-65341500D01*
X66704514Y-65325037D01*
X66713855Y-65287551D01*
X66725985Y-65232775D01*
X66740093Y-65164445D01*
X66755370Y-65086294D01*
X66763377Y-65043716D01*
X66778479Y-64962929D01*
X66792160Y-64890887D01*
X66803733Y-64831111D01*
X66812513Y-64787121D01*
X66817813Y-64762439D01*
X66818988Y-64758377D01*
X66832235Y-64751511D01*
X66864143Y-64736998D01*
X66910153Y-64716771D01*
X66965708Y-64692766D01*
X67026247Y-64666918D01*
X67087214Y-64641160D01*
X67144049Y-64617427D01*
X67192194Y-64597654D01*
X67227090Y-64583776D01*
X67244179Y-64577726D01*
X67244926Y-64577614D01*
X67258407Y-64584472D01*
X67289430Y-64603698D01*
X67334911Y-64633272D01*
X67391768Y-64671173D01*
X67456917Y-64715380D01*
X67494338Y-64741079D01*
X67562953Y-64787907D01*
X67625248Y-64829499D01*
X67678071Y-64863825D01*
X67718273Y-64888857D01*
X67742700Y-64902565D01*
X67748176Y-64904544D01*
X67760922Y-64896034D01*
X67788137Y-64872507D01*
X67826772Y-64836968D01*
X67873777Y-64792423D01*
X67926105Y-64741877D01*
X67980705Y-64688336D01*
X68034530Y-64634805D01*
X68084530Y-64584289D01*
X68127657Y-64539794D01*
X68160861Y-64504325D01*
X68181094Y-64480887D01*
X68185922Y-64473046D01*
X68179133Y-64460280D01*
X68160058Y-64429744D01*
X68130639Y-64384410D01*
X68092819Y-64327244D01*
X68048539Y-64261216D01*
X68014805Y-64211410D01*
X67843688Y-63959764D01*
X67930159Y-63750001D01*
X68016630Y-63540237D01*
X68318182Y-63483389D01*
X68619734Y-63426540D01*
X68619734Y-62798885D01*
X68318182Y-62742036D01*
X68318182Y-62742036D01*
G37*
X68318182Y-62742036D02*
X68016630Y-62685188D01*
X67843688Y-62265662D01*
X68014805Y-62014016D01*
X68062450Y-61943542D01*
X68104990Y-61879837D01*
X68140485Y-61825874D01*
X68166990Y-61784627D01*
X68182564Y-61759066D01*
X68185922Y-61752105D01*
X68177286Y-61739565D01*
X68153408Y-61712769D01*
X68117341Y-61674720D01*
X68072133Y-61628421D01*
X68020836Y-61576877D01*
X67966499Y-61523091D01*
X67912172Y-61470065D01*
X67860905Y-61420805D01*
X67815749Y-61378313D01*
X67779754Y-61345593D01*
X67755970Y-61325649D01*
X67748010Y-61320881D01*
X67733335Y-61327743D01*
X67701186Y-61346980D01*
X67654708Y-61376570D01*
X67597044Y-61414490D01*
X67531340Y-61458718D01*
X67493864Y-61484346D01*
X67425432Y-61531059D01*
X67363680Y-61572568D01*
X67311681Y-61606860D01*
X67272508Y-61631920D01*
X67249235Y-61645736D01*
X67244345Y-61647812D01*
X67230445Y-61643105D01*
X67198050Y-61630277D01*
X67151715Y-61611262D01*
X67095994Y-61587997D01*
X67035442Y-61562416D01*
X66974614Y-61536455D01*
X66918064Y-61512050D01*
X66870348Y-61491137D01*
X66836019Y-61475651D01*
X66819632Y-61467528D01*
X66818988Y-61467048D01*
X66815859Y-61454293D01*
X66808879Y-61420323D01*
X66798733Y-61368660D01*
X66786108Y-61302824D01*
X66771691Y-61226336D01*
X66763377Y-61181710D01*
X66747816Y-61099979D01*
X66733008Y-61026157D01*
X66719764Y-60963979D01*
X66708895Y-60917178D01*
X66701211Y-60889491D01*
X66698773Y-60883926D01*
X66682270Y-60878474D01*
X66645000Y-60874076D01*
X66591320Y-60870728D01*
X66525588Y-60868426D01*
X66452163Y-60867168D01*
X66375404Y-60866952D01*
X66299668Y-60867773D01*
X66229314Y-60869629D01*
X66168700Y-60872518D01*
X66122184Y-60876435D01*
X66094125Y-60881378D01*
X66088284Y-60884343D01*
X66081283Y-60902066D01*
X66071273Y-60939619D01*
X66059431Y-60992036D01*
X66046933Y-61054348D01*
X66042890Y-61076100D01*
X66023680Y-61180976D01*
X66008209Y-61263820D01*
X65995863Y-61327370D01*
X65986027Y-61374363D01*
X65978086Y-61407537D01*
X65971424Y-61429629D01*
X65965427Y-61443376D01*
X65959481Y-61451516D01*
X65958306Y-61452655D01*
X65939374Y-61464023D01*
X65902531Y-61481365D01*
X65852287Y-61502950D01*
X65793154Y-61527046D01*
X65729644Y-61551921D01*
X65666268Y-61575843D01*
X65607538Y-61597081D01*
X65557965Y-61613903D01*
X65522061Y-61624578D01*
X65504338Y-61627373D01*
X65503717Y-61627140D01*
X65489230Y-61617669D01*
X65457356Y-61596182D01*
X65411411Y-61564937D01*
X65354715Y-61526193D01*
X65290583Y-61482207D01*
X65272358Y-61469681D01*
X65206286Y-61425016D01*
X65146000Y-61385712D01*
X65094965Y-61353912D01*
X65056640Y-61331755D01*
X65034489Y-61321383D01*
X65031768Y-61320881D01*
X65017464Y-61329595D01*
X64989128Y-61353675D01*
X64949804Y-61390024D01*
X64902539Y-61435547D01*
X64850377Y-61487148D01*
X64796365Y-61541733D01*
X64743547Y-61596206D01*
X64694969Y-61647471D01*
X64653677Y-61692433D01*
X64622715Y-61727996D01*
X64605130Y-61751065D01*
X64602259Y-61757446D01*
X64609022Y-61772301D01*
X64627261Y-61802714D01*
X64653903Y-61843732D01*
X64675348Y-61875291D01*
X64714697Y-61932475D01*
X64761029Y-62000194D01*
X64807287Y-62068120D01*
X64832045Y-62104639D01*
X64915653Y-62228248D01*
X64859550Y-62332009D01*
X64834972Y-62379280D01*
X64815869Y-62419477D01*
X64804973Y-62446674D01*
X64803457Y-62453598D01*
X64814651Y-62461923D01*
X64846283Y-62478346D01*
X64895435Y-62501643D01*
X64959190Y-62530586D01*
X65034629Y-62563950D01*
X65118836Y-62600509D01*
X65208892Y-62639036D01*
X65301879Y-62678306D01*
X65394880Y-62717092D01*
X65484977Y-62754170D01*
X65569252Y-62788311D01*
X65644787Y-62818292D01*
X65708666Y-62842884D01*
X65757969Y-62860864D01*
X65789779Y-62871003D01*
X65800704Y-62872634D01*
X65814639Y-62859709D01*
X65837260Y-62831411D01*
X65863867Y-62793654D01*
X65865972Y-62790485D01*
X65944086Y-62692900D01*
X66035218Y-62614214D01*
X66136455Y-62555109D01*
X66244882Y-62516268D01*
X66357586Y-62498372D01*
X66471652Y-62502103D01*
X66584166Y-62528143D01*
X66692215Y-62577175D01*
X66715855Y-62591600D01*
X66811313Y-62666631D01*
X66887968Y-62755270D01*
X66945420Y-62854451D01*
X66983271Y-62961105D01*
X67001122Y-63072164D01*
X66998575Y-63184561D01*
X66975230Y-63295227D01*
X66930690Y-63401094D01*
X66864555Y-63499095D01*
X66837713Y-63529410D01*
X66753688Y-63606562D01*
X66665234Y-63662782D01*
X66566085Y-63701347D01*
X66467897Y-63722826D01*
X66357503Y-63728128D01*
X66246560Y-63710448D01*
X66138819Y-63671581D01*
X66038031Y-63613323D01*
X65947944Y-63537469D01*
X65872308Y-63445817D01*
X65864336Y-63433772D01*
X65838226Y-63395611D01*
X65815605Y-63366601D01*
X65801161Y-63352732D01*
X65800704Y-63352531D01*
X65785079Y-63355508D01*
X65749618Y-63367311D01*
X65697238Y-63386714D01*
X65630855Y-63412488D01*
X65553386Y-63443409D01*
X65467750Y-63478249D01*
X65376863Y-63515783D01*
X65283641Y-63554783D01*
X65191003Y-63594023D01*
X65101865Y-63632276D01*
X65019145Y-63668317D01*
X64945759Y-63700917D01*
X64884625Y-63728852D01*
X64838659Y-63750895D01*
X64810779Y-63765818D01*
X64803457Y-63771828D01*
X64809159Y-63790191D01*
X64824451Y-63824552D01*
X64846601Y-63868984D01*
X64859550Y-63893417D01*
X64915653Y-63997178D01*
X64832045Y-64120787D01*
X64789213Y-64183886D01*
X64742078Y-64252970D01*
X64697697Y-64317707D01*
X64675348Y-64350134D01*
X64644723Y-64395741D01*
X64620453Y-64434360D01*
X64605613Y-64460952D01*
X64602476Y-64469590D01*
X64610939Y-64482161D01*
X64634564Y-64509984D01*
X64670898Y-64550361D01*
X64717489Y-64600595D01*
X64771883Y-64657988D01*
X64806808Y-64694286D01*
X64869204Y-64757790D01*
X64925012Y-64812673D01*
X64971846Y-64856714D01*
X65007318Y-64887695D01*
X65029039Y-64903398D01*
X65033448Y-64904905D01*
X65050215Y-64897914D01*
X65084118Y-64878594D01*
X65131724Y-64849091D01*
X65189601Y-64811545D01*
X65254316Y-64768100D01*
X65272358Y-64755745D01*
X65337933Y-64710727D01*
X65396972Y-64670340D01*
X65446158Y-64636840D01*
X65482172Y-64612486D01*
X65501698Y-64599536D01*
X65503717Y-64598285D01*
X65519278Y-64600156D01*
X65553491Y-64610087D01*
X65601845Y-64626347D01*
X65659829Y-64647205D01*
X65722930Y-64670927D01*
X65786637Y-64695784D01*
X65846439Y-64720042D01*
X65897824Y-64741971D01*
X65936281Y-64759838D01*
X65957298Y-64771913D01*
X65958306Y-64772771D01*
X65964312Y-64780154D01*
X65970252Y-64792625D01*
X65976740Y-64812920D01*
X65984391Y-64843778D01*
X65993820Y-64887934D01*
X66005641Y-64948126D01*
X66020471Y-65027093D01*
X66038923Y-65127570D01*
X66042890Y-65149325D01*
X66055347Y-65213802D01*
X66067534Y-65270011D01*
X66078274Y-65312987D01*
X66086391Y-65337760D01*
X66088284Y-65341082D01*
X66105062Y-65346556D01*
X66142555Y-65351006D01*
X66196406Y-65354428D01*
X66262256Y-65356819D01*
X66335747Y-65358177D01*
X66412520Y-65358499D01*
X66488217Y-65357781D01*
X66558480Y-65356021D01*
X66618950Y-65353216D01*
X66665270Y-65349362D01*
X66693081Y-65344457D01*
X66698773Y-65341500D01*
X66704514Y-65325037D01*
X66713855Y-65287551D01*
X66725985Y-65232775D01*
X66740093Y-65164445D01*
X66755370Y-65086294D01*
X66763377Y-65043716D01*
X66778479Y-64962929D01*
X66792160Y-64890887D01*
X66803733Y-64831111D01*
X66812513Y-64787121D01*
X66817813Y-64762439D01*
X66818988Y-64758377D01*
X66832235Y-64751511D01*
X66864143Y-64736998D01*
X66910153Y-64716771D01*
X66965708Y-64692766D01*
X67026247Y-64666918D01*
X67087214Y-64641160D01*
X67144049Y-64617427D01*
X67192194Y-64597654D01*
X67227090Y-64583776D01*
X67244179Y-64577726D01*
X67244926Y-64577614D01*
X67258407Y-64584472D01*
X67289430Y-64603698D01*
X67334911Y-64633272D01*
X67391768Y-64671173D01*
X67456917Y-64715380D01*
X67494338Y-64741079D01*
X67562953Y-64787907D01*
X67625248Y-64829499D01*
X67678071Y-64863825D01*
X67718273Y-64888857D01*
X67742700Y-64902565D01*
X67748176Y-64904544D01*
X67760922Y-64896034D01*
X67788137Y-64872507D01*
X67826772Y-64836968D01*
X67873777Y-64792423D01*
X67926105Y-64741877D01*
X67980705Y-64688336D01*
X68034530Y-64634805D01*
X68084530Y-64584289D01*
X68127657Y-64539794D01*
X68160861Y-64504325D01*
X68181094Y-64480887D01*
X68185922Y-64473046D01*
X68179133Y-64460280D01*
X68160058Y-64429744D01*
X68130639Y-64384410D01*
X68092819Y-64327244D01*
X68048539Y-64261216D01*
X68014805Y-64211410D01*
X67843688Y-63959764D01*
X67930159Y-63750001D01*
X68016630Y-63540237D01*
X68318182Y-63483389D01*
X68619734Y-63426540D01*
X68619734Y-62798885D01*
X68318182Y-62742036D01*
G36*
X62148418Y-67507818D02*
X62148418Y-71028611D01*
X63016042Y-71028611D01*
X63016042Y-67507818D01*
X62148418Y-67507818D01*
X62148418Y-67507818D01*
G37*
X62148418Y-67507818D02*
X62148418Y-71028611D01*
X63016042Y-71028611D01*
X63016042Y-67507818D01*
X62148418Y-67507818D01*
G36*
X68101392Y-67131210D02*
X68014309Y-67131829D01*
X67555349Y-67583554D01*
X67096388Y-68035279D01*
X66885769Y-68035608D01*
X66675151Y-68035937D01*
X66675151Y-68311030D01*
X66621710Y-68318118D01*
X66597352Y-68320802D01*
X66551481Y-68325327D01*
X66486835Y-68331449D01*
X66406149Y-68338928D01*
X66312159Y-68347521D01*
X66207603Y-68356986D01*
X66095215Y-68367082D01*
X65977733Y-68377566D01*
X65857892Y-68388196D01*
X65738429Y-68398731D01*
X65622081Y-68408927D01*
X65511583Y-68418545D01*
X65409671Y-68427340D01*
X65319082Y-68435072D01*
X65242553Y-68441498D01*
X65182819Y-68446377D01*
X65142616Y-68449465D01*
X65124681Y-68450523D01*
X65124596Y-68450522D01*
X65110205Y-68442813D01*
X65080492Y-68419659D01*
X65035109Y-68380745D01*
X64973711Y-68325756D01*
X64895952Y-68254376D01*
X64801486Y-68166291D01*
X64689968Y-68061186D01*
X64561052Y-67938745D01*
X64524953Y-67904330D01*
X63952824Y-67358503D01*
X63864804Y-67446759D01*
X63942482Y-67518155D01*
X63970554Y-67544274D01*
X64013966Y-67585074D01*
X64069874Y-67637863D01*
X64135432Y-67699949D01*
X64207799Y-67768640D01*
X64284128Y-67841244D01*
X64329716Y-67884680D01*
X64415121Y-67966224D01*
X64483530Y-68032136D01*
X64536187Y-68084096D01*
X64574335Y-68123785D01*
X64599220Y-68152883D01*
X64612084Y-68173071D01*
X64614172Y-68186030D01*
X64606727Y-68193440D01*
X64590994Y-68196982D01*
X64568217Y-68198337D01*
X64562001Y-68198519D01*
X64519179Y-68207937D01*
X64467421Y-68231143D01*
X64414912Y-68263504D01*
X64369837Y-68300388D01*
X64355912Y-68315147D01*
X64307193Y-68390873D01*
X64279934Y-68479332D01*
X64273467Y-68557540D01*
X64285664Y-68646172D01*
X64321427Y-68728028D01*
X64379518Y-68800476D01*
X64393978Y-68813843D01*
X64449507Y-68862722D01*
X64449507Y-69708314D01*
X64273467Y-69708314D01*
X64273467Y-69934650D01*
X64355709Y-69934650D01*
X64411854Y-69937490D01*
X64450824Y-69947033D01*
X64472021Y-69958631D01*
X64487188Y-69966917D01*
X64509178Y-69974013D01*
X64541253Y-69980388D01*
X64586671Y-69986512D01*
X64648692Y-69992856D01*
X64730578Y-69999890D01*
X64791494Y-70004706D01*
X65076897Y-70026801D01*
X64527435Y-70569205D01*
X64428012Y-70667277D01*
X64332425Y-70761424D01*
X64242430Y-70849925D01*
X64159783Y-70931060D01*
X64086239Y-71003109D01*
X64023556Y-71064352D01*
X63973488Y-71113067D01*
X63937792Y-71147536D01*
X63918245Y-71166019D01*
X63887296Y-71196383D01*
X63865710Y-71221711D01*
X63858517Y-71235335D01*
X63866943Y-71252735D01*
X63887995Y-71278100D01*
X63896569Y-71286698D01*
X63934620Y-71323154D01*
X64138582Y-71122442D01*
X64190541Y-71071236D01*
X64257420Y-71005209D01*
X64336290Y-70927258D01*
X64424226Y-70840278D01*
X64518299Y-70747166D01*
X64615582Y-70650819D01*
X64713147Y-70554132D01*
X64783095Y-70484774D01*
X64889690Y-70379343D01*
X64979933Y-70290769D01*
X65055048Y-70217921D01*
X65116254Y-70159663D01*
X65164774Y-70114865D01*
X65190111Y-70092661D01*
X65190111Y-69914364D01*
X64904685Y-69892041D01*
X64821021Y-69885309D01*
X64744513Y-69878797D01*
X64679159Y-69872874D01*
X64628959Y-69867908D01*
X64597911Y-69864269D01*
X64590967Y-69863098D01*
X64562675Y-69856478D01*
X64562675Y-68907004D01*
X64641634Y-68900666D01*
X64734925Y-68881530D01*
X64817449Y-68841486D01*
X64886202Y-68783058D01*
X64938177Y-68708769D01*
X64969377Y-68625388D01*
X64984012Y-68598338D01*
X65015421Y-68584796D01*
X65016806Y-68584512D01*
X65030066Y-68582887D01*
X65043645Y-68584896D01*
X65060059Y-68592498D01*
X65081829Y-68607656D01*
X65111473Y-68632328D01*
X65151508Y-68668476D01*
X65204455Y-68718060D01*
X65272831Y-68783041D01*
X65277235Y-68787239D01*
X65350629Y-68857133D01*
X65428803Y-68931440D01*
X65506376Y-69005054D01*
X65577965Y-69072869D01*
X65638189Y-69129780D01*
X65651653Y-69142472D01*
X65702420Y-69191127D01*
X65745865Y-69234349D01*
X65778999Y-69269035D01*
X65798835Y-69292084D01*
X65803194Y-69299822D01*
X65794070Y-69311362D01*
X65769040Y-69338350D01*
X65730188Y-69378661D01*
X65679597Y-69430169D01*
X65619352Y-69490749D01*
X65551536Y-69558276D01*
X65495675Y-69613466D01*
X65190111Y-69914364D01*
X65190111Y-70092661D01*
X65201829Y-70082391D01*
X65228641Y-70061111D01*
X65246432Y-70049891D01*
X65254670Y-70047394D01*
X65272650Y-70048340D01*
X65313348Y-70051213D01*
X65374421Y-70055827D01*
X65453527Y-70061998D01*
X65548326Y-70069538D01*
X65656473Y-70078261D01*
X65775628Y-70087983D01*
X65903449Y-70098516D01*
X66005605Y-70107005D01*
X66581566Y-70155036D01*
X66581566Y-70031445D01*
X66569136Y-70030913D01*
X66534130Y-70028409D01*
X66479025Y-70024136D01*
X66406297Y-70018293D01*
X66318426Y-70011083D01*
X66217889Y-70002706D01*
X66107163Y-69993363D01*
X66002035Y-69984398D01*
X65882757Y-69974242D01*
X65770160Y-69964782D01*
X65666935Y-69956236D01*
X65575767Y-69948819D01*
X65499345Y-69942748D01*
X65440357Y-69938241D01*
X65401491Y-69935513D01*
X65386396Y-69934756D01*
X65377002Y-69933575D01*
X65373274Y-69928896D01*
X65376769Y-69918916D01*
X65389041Y-69901830D01*
X65411646Y-69875836D01*
X65446140Y-69839130D01*
X65494078Y-69789907D01*
X65557016Y-69726366D01*
X65624272Y-69658945D01*
X65899763Y-69383241D01*
X65901834Y-69385173D01*
X65901834Y-69202930D01*
X65890460Y-69194624D01*
X65863677Y-69171373D01*
X65823948Y-69135505D01*
X65773733Y-69089353D01*
X65715494Y-69035246D01*
X65651693Y-68975514D01*
X65584791Y-68912488D01*
X65517250Y-68848498D01*
X65451530Y-68785876D01*
X65390094Y-68726950D01*
X65335403Y-68674052D01*
X65289918Y-68629512D01*
X65256102Y-68595660D01*
X65236414Y-68574828D01*
X65232403Y-68569146D01*
X65245349Y-68567274D01*
X65281106Y-68563386D01*
X65337436Y-68557697D01*
X65412100Y-68550421D01*
X65502860Y-68541771D01*
X65607478Y-68531962D01*
X65723714Y-68521206D01*
X65849332Y-68509719D01*
X65950622Y-68500547D01*
X66081961Y-68488814D01*
X66205688Y-68477975D01*
X66319559Y-68468210D01*
X66421329Y-68459703D01*
X66508753Y-68452635D01*
X66579587Y-68447189D01*
X66631587Y-68443548D01*
X66662508Y-68441893D01*
X66670537Y-68442082D01*
X66663386Y-68451974D01*
X66640399Y-68477164D01*
X66603801Y-68515450D01*
X66555818Y-68564629D01*
X66498674Y-68622501D01*
X66434593Y-68686862D01*
X66365802Y-68755511D01*
X66294524Y-68826245D01*
X66222985Y-68896862D01*
X66153410Y-68965160D01*
X66088023Y-69028936D01*
X66029049Y-69085990D01*
X65978713Y-69134118D01*
X65939241Y-69171118D01*
X65912857Y-69194788D01*
X65901834Y-69202930D01*
X65901834Y-69385173D01*
X66009945Y-69486049D01*
X66065863Y-69538408D01*
X66128292Y-69597175D01*
X66194797Y-69660025D01*
X66262942Y-69724635D01*
X66330292Y-69788682D01*
X66394412Y-69849843D01*
X66452868Y-69905793D01*
X66503222Y-69954210D01*
X66543042Y-69992770D01*
X66569890Y-70019149D01*
X66581332Y-70031024D01*
X66581566Y-70031445D01*
X66581566Y-70155036D01*
X66725514Y-70167041D01*
X67357082Y-70767578D01*
X67988651Y-71368115D01*
X68076925Y-71367674D01*
X68165200Y-71367232D01*
X68061574Y-71270223D01*
X68003777Y-71215931D01*
X67935872Y-71151832D01*
X67859668Y-71079656D01*
X67776971Y-71001132D01*
X67689587Y-70917989D01*
X67599325Y-70831959D01*
X67507990Y-70744770D01*
X67417391Y-70658153D01*
X67329333Y-70573837D01*
X67245625Y-70493552D01*
X67168073Y-70419027D01*
X67098483Y-70351994D01*
X67038664Y-70294181D01*
X66990422Y-70247319D01*
X66955564Y-70213136D01*
X66935897Y-70193364D01*
X66932124Y-70189030D01*
X66945248Y-70188732D01*
X66978851Y-70190371D01*
X67028360Y-70193663D01*
X67089203Y-70198322D01*
X67113508Y-70200322D01*
X67291289Y-70215217D01*
X67291289Y-70098595D01*
X67262997Y-70092574D01*
X67240622Y-70089503D01*
X67198523Y-70085188D01*
X67142062Y-70080128D01*
X67076605Y-70074821D01*
X67052378Y-70072984D01*
X66982819Y-70067567D01*
X66918222Y-70062099D01*
X66864692Y-70057128D01*
X66828330Y-70053201D01*
X66821731Y-70052315D01*
X66808184Y-70048974D01*
X66792326Y-70041741D01*
X66772379Y-70029080D01*
X66746567Y-70009451D01*
X66713111Y-69981318D01*
X66670233Y-69943142D01*
X66616157Y-69893386D01*
X66549104Y-69830511D01*
X66467297Y-69752981D01*
X66384290Y-69673891D01*
X66302146Y-69595204D01*
X66226071Y-69521752D01*
X66157915Y-69455364D01*
X66099528Y-69397867D01*
X66052759Y-69351091D01*
X66019458Y-69316864D01*
X66001473Y-69297013D01*
X65998798Y-69292780D01*
X66008499Y-69281643D01*
X66033799Y-69255611D01*
X66072158Y-69217210D01*
X66121040Y-69168968D01*
X66177906Y-69113410D01*
X66219334Y-69073232D01*
X66436240Y-68863471D01*
X66436240Y-69481977D01*
X66675151Y-69481977D01*
X66675151Y-68727521D01*
X66568698Y-68727521D01*
X66706586Y-68589205D01*
X66804400Y-68491087D01*
X66804400Y-68299997D01*
X66788970Y-68298169D01*
X66780373Y-68288917D01*
X66776627Y-68266590D01*
X66775751Y-68225535D01*
X66775745Y-68218264D01*
X66775745Y-68136531D01*
X66995068Y-68136531D01*
X66914061Y-68218264D01*
X66864812Y-68264370D01*
X66827081Y-68291946D01*
X66804400Y-68299997D01*
X66804400Y-68491087D01*
X66844474Y-68450888D01*
X66967288Y-68450888D01*
X67023790Y-68450503D01*
X67059735Y-68448740D01*
X67079710Y-68444690D01*
X67088303Y-68437441D01*
X67090101Y-68426510D01*
X67092742Y-68414352D01*
X67103328Y-68405367D01*
X67125859Y-68398466D01*
X67164331Y-68392564D01*
X67222742Y-68386575D01*
X67244136Y-68384653D01*
X67291289Y-68380492D01*
X67291289Y-70098595D01*
X67291289Y-70215217D01*
X67291289Y-70374749D01*
X67404458Y-70374749D01*
X67404458Y-70306954D01*
X67405544Y-70267302D01*
X67410786Y-70245756D01*
X67413906Y-70243120D01*
X67413906Y-70104256D01*
X67406778Y-70096948D01*
X67404578Y-70071633D01*
X67404458Y-70054548D01*
X67404458Y-69997521D01*
X67404458Y-69784861D01*
X67404458Y-68370338D01*
X67453454Y-68418182D01*
X67513916Y-68492490D01*
X67560549Y-68584456D01*
X67593991Y-68695638D01*
X67612487Y-68806111D01*
X67621118Y-68878413D01*
X67530200Y-68878413D01*
X67530200Y-69456828D01*
X67633347Y-69456828D01*
X67624744Y-69541705D01*
X67617484Y-69601008D01*
X67607861Y-69664191D01*
X67600988Y-69702026D01*
X67585833Y-69777472D01*
X67495145Y-69781166D01*
X67404458Y-69784861D01*
X67404458Y-69997521D01*
X67454755Y-69997521D01*
X67486264Y-69999184D01*
X67503777Y-70003337D01*
X67505052Y-70005011D01*
X67496986Y-70023627D01*
X67477420Y-70050823D01*
X67453296Y-70078088D01*
X67431558Y-70096907D01*
X67428732Y-70098583D01*
X67413906Y-70104256D01*
X67413906Y-70243120D01*
X67423159Y-70235302D01*
X67436636Y-70231082D01*
X67471613Y-70213859D01*
X67513661Y-70180778D01*
X67556884Y-70137533D01*
X67595386Y-70089814D01*
X67615439Y-70058470D01*
X67637389Y-70022763D01*
X67655829Y-70004459D01*
X67677572Y-69998028D01*
X67690522Y-69997534D01*
X67693665Y-69997534D01*
X67693665Y-69356234D01*
X67630794Y-69356234D01*
X67630794Y-68979007D01*
X67693665Y-68979007D01*
X67693665Y-69356234D01*
X67693665Y-69997534D01*
X67731388Y-69997521D01*
X67731388Y-69891688D01*
X67730211Y-69842995D01*
X67727075Y-69805045D01*
X67722569Y-69783948D01*
X67720745Y-69781663D01*
X67717945Y-69768281D01*
X67719092Y-69735714D01*
X67723847Y-69689556D01*
X67728237Y-69658016D01*
X67736862Y-69600828D01*
X67744649Y-69548526D01*
X67750393Y-69509222D01*
X67752025Y-69497695D01*
X67761352Y-69467577D01*
X67775968Y-69456828D01*
X67781920Y-69453560D01*
X67786462Y-69441870D01*
X67789770Y-69418928D01*
X67792025Y-69381905D01*
X67793406Y-69327972D01*
X67794090Y-69254300D01*
X67794260Y-69167620D01*
X67794163Y-69075111D01*
X67793710Y-69004734D01*
X67792650Y-68953476D01*
X67790737Y-68918320D01*
X67787721Y-68896251D01*
X67783355Y-68884255D01*
X67777391Y-68879316D01*
X67770456Y-68878413D01*
X67748445Y-68870719D01*
X67735919Y-68845519D01*
X67731452Y-68799631D01*
X67731388Y-68791376D01*
X67723372Y-68713667D01*
X67701304Y-68625407D01*
X67668156Y-68534555D01*
X67626901Y-68449070D01*
X67580509Y-68376914D01*
X67573158Y-68367568D01*
X67549242Y-68337107D01*
X67539664Y-68319068D01*
X67542760Y-68306471D01*
X67555536Y-68293540D01*
X67580562Y-68255347D01*
X67590169Y-68205642D01*
X67585173Y-68152116D01*
X67566389Y-68102462D01*
X67534634Y-68064373D01*
X67530943Y-68061615D01*
X67471665Y-68033114D01*
X67410306Y-68027812D01*
X67351813Y-68045122D01*
X67301136Y-68084460D01*
X67296951Y-68089270D01*
X67277073Y-68117200D01*
X67268319Y-68145538D01*
X67267687Y-68185377D01*
X67268248Y-68195329D01*
X67269678Y-68234308D01*
X67266401Y-68254386D01*
X67256512Y-68261655D01*
X67247279Y-68262400D01*
X67220496Y-68263924D01*
X67180215Y-68267705D01*
X67156116Y-68270422D01*
X67117839Y-68274363D01*
X67098244Y-68272724D01*
X67091082Y-68263219D01*
X67090101Y-68246289D01*
X67093339Y-68236248D01*
X67103820Y-68220050D01*
X67122692Y-68196495D01*
X67151105Y-68164383D01*
X67190205Y-68122512D01*
X67241143Y-68069683D01*
X67305067Y-68004695D01*
X67383126Y-67926349D01*
X67476468Y-67833443D01*
X67586242Y-67724777D01*
X67639288Y-67672409D01*
X68188473Y-67130591D01*
X68101392Y-67131210D01*
X68101392Y-67131210D01*
G37*
X68101392Y-67131210D02*
X68014309Y-67131829D01*
X67555349Y-67583554D01*
X67096388Y-68035279D01*
X66885769Y-68035608D01*
X66675151Y-68035937D01*
X66675151Y-68311030D01*
X66621710Y-68318118D01*
X66597352Y-68320802D01*
X66551481Y-68325327D01*
X66486835Y-68331449D01*
X66406149Y-68338928D01*
X66312159Y-68347521D01*
X66207603Y-68356986D01*
X66095215Y-68367082D01*
X65977733Y-68377566D01*
X65857892Y-68388196D01*
X65738429Y-68398731D01*
X65622081Y-68408927D01*
X65511583Y-68418545D01*
X65409671Y-68427340D01*
X65319082Y-68435072D01*
X65242553Y-68441498D01*
X65182819Y-68446377D01*
X65142616Y-68449465D01*
X65124681Y-68450523D01*
X65124596Y-68450522D01*
X65110205Y-68442813D01*
X65080492Y-68419659D01*
X65035109Y-68380745D01*
X64973711Y-68325756D01*
X64895952Y-68254376D01*
X64801486Y-68166291D01*
X64689968Y-68061186D01*
X64561052Y-67938745D01*
X64524953Y-67904330D01*
X63952824Y-67358503D01*
X63864804Y-67446759D01*
X63942482Y-67518155D01*
X63970554Y-67544274D01*
X64013966Y-67585074D01*
X64069874Y-67637863D01*
X64135432Y-67699949D01*
X64207799Y-67768640D01*
X64284128Y-67841244D01*
X64329716Y-67884680D01*
X64415121Y-67966224D01*
X64483530Y-68032136D01*
X64536187Y-68084096D01*
X64574335Y-68123785D01*
X64599220Y-68152883D01*
X64612084Y-68173071D01*
X64614172Y-68186030D01*
X64606727Y-68193440D01*
X64590994Y-68196982D01*
X64568217Y-68198337D01*
X64562001Y-68198519D01*
X64519179Y-68207937D01*
X64467421Y-68231143D01*
X64414912Y-68263504D01*
X64369837Y-68300388D01*
X64355912Y-68315147D01*
X64307193Y-68390873D01*
X64279934Y-68479332D01*
X64273467Y-68557540D01*
X64285664Y-68646172D01*
X64321427Y-68728028D01*
X64379518Y-68800476D01*
X64393978Y-68813843D01*
X64449507Y-68862722D01*
X64449507Y-69708314D01*
X64273467Y-69708314D01*
X64273467Y-69934650D01*
X64355709Y-69934650D01*
X64411854Y-69937490D01*
X64450824Y-69947033D01*
X64472021Y-69958631D01*
X64487188Y-69966917D01*
X64509178Y-69974013D01*
X64541253Y-69980388D01*
X64586671Y-69986512D01*
X64648692Y-69992856D01*
X64730578Y-69999890D01*
X64791494Y-70004706D01*
X65076897Y-70026801D01*
X64527435Y-70569205D01*
X64428012Y-70667277D01*
X64332425Y-70761424D01*
X64242430Y-70849925D01*
X64159783Y-70931060D01*
X64086239Y-71003109D01*
X64023556Y-71064352D01*
X63973488Y-71113067D01*
X63937792Y-71147536D01*
X63918245Y-71166019D01*
X63887296Y-71196383D01*
X63865710Y-71221711D01*
X63858517Y-71235335D01*
X63866943Y-71252735D01*
X63887995Y-71278100D01*
X63896569Y-71286698D01*
X63934620Y-71323154D01*
X64138582Y-71122442D01*
X64190541Y-71071236D01*
X64257420Y-71005209D01*
X64336290Y-70927258D01*
X64424226Y-70840278D01*
X64518299Y-70747166D01*
X64615582Y-70650819D01*
X64713147Y-70554132D01*
X64783095Y-70484774D01*
X64889690Y-70379343D01*
X64979933Y-70290769D01*
X65055048Y-70217921D01*
X65116254Y-70159663D01*
X65164774Y-70114865D01*
X65190111Y-70092661D01*
X65190111Y-69914364D01*
X64904685Y-69892041D01*
X64821021Y-69885309D01*
X64744513Y-69878797D01*
X64679159Y-69872874D01*
X64628959Y-69867908D01*
X64597911Y-69864269D01*
X64590967Y-69863098D01*
X64562675Y-69856478D01*
X64562675Y-68907004D01*
X64641634Y-68900666D01*
X64734925Y-68881530D01*
X64817449Y-68841486D01*
X64886202Y-68783058D01*
X64938177Y-68708769D01*
X64969377Y-68625388D01*
X64984012Y-68598338D01*
X65015421Y-68584796D01*
X65016806Y-68584512D01*
X65030066Y-68582887D01*
X65043645Y-68584896D01*
X65060059Y-68592498D01*
X65081829Y-68607656D01*
X65111473Y-68632328D01*
X65151508Y-68668476D01*
X65204455Y-68718060D01*
X65272831Y-68783041D01*
X65277235Y-68787239D01*
X65350629Y-68857133D01*
X65428803Y-68931440D01*
X65506376Y-69005054D01*
X65577965Y-69072869D01*
X65638189Y-69129780D01*
X65651653Y-69142472D01*
X65702420Y-69191127D01*
X65745865Y-69234349D01*
X65778999Y-69269035D01*
X65798835Y-69292084D01*
X65803194Y-69299822D01*
X65794070Y-69311362D01*
X65769040Y-69338350D01*
X65730188Y-69378661D01*
X65679597Y-69430169D01*
X65619352Y-69490749D01*
X65551536Y-69558276D01*
X65495675Y-69613466D01*
X65190111Y-69914364D01*
X65190111Y-70092661D01*
X65201829Y-70082391D01*
X65228641Y-70061111D01*
X65246432Y-70049891D01*
X65254670Y-70047394D01*
X65272650Y-70048340D01*
X65313348Y-70051213D01*
X65374421Y-70055827D01*
X65453527Y-70061998D01*
X65548326Y-70069538D01*
X65656473Y-70078261D01*
X65775628Y-70087983D01*
X65903449Y-70098516D01*
X66005605Y-70107005D01*
X66581566Y-70155036D01*
X66581566Y-70031445D01*
X66569136Y-70030913D01*
X66534130Y-70028409D01*
X66479025Y-70024136D01*
X66406297Y-70018293D01*
X66318426Y-70011083D01*
X66217889Y-70002706D01*
X66107163Y-69993363D01*
X66002035Y-69984398D01*
X65882757Y-69974242D01*
X65770160Y-69964782D01*
X65666935Y-69956236D01*
X65575767Y-69948819D01*
X65499345Y-69942748D01*
X65440357Y-69938241D01*
X65401491Y-69935513D01*
X65386396Y-69934756D01*
X65377002Y-69933575D01*
X65373274Y-69928896D01*
X65376769Y-69918916D01*
X65389041Y-69901830D01*
X65411646Y-69875836D01*
X65446140Y-69839130D01*
X65494078Y-69789907D01*
X65557016Y-69726366D01*
X65624272Y-69658945D01*
X65899763Y-69383241D01*
X65901834Y-69385173D01*
X65901834Y-69202930D01*
X65890460Y-69194624D01*
X65863677Y-69171373D01*
X65823948Y-69135505D01*
X65773733Y-69089353D01*
X65715494Y-69035246D01*
X65651693Y-68975514D01*
X65584791Y-68912488D01*
X65517250Y-68848498D01*
X65451530Y-68785876D01*
X65390094Y-68726950D01*
X65335403Y-68674052D01*
X65289918Y-68629512D01*
X65256102Y-68595660D01*
X65236414Y-68574828D01*
X65232403Y-68569146D01*
X65245349Y-68567274D01*
X65281106Y-68563386D01*
X65337436Y-68557697D01*
X65412100Y-68550421D01*
X65502860Y-68541771D01*
X65607478Y-68531962D01*
X65723714Y-68521206D01*
X65849332Y-68509719D01*
X65950622Y-68500547D01*
X66081961Y-68488814D01*
X66205688Y-68477975D01*
X66319559Y-68468210D01*
X66421329Y-68459703D01*
X66508753Y-68452635D01*
X66579587Y-68447189D01*
X66631587Y-68443548D01*
X66662508Y-68441893D01*
X66670537Y-68442082D01*
X66663386Y-68451974D01*
X66640399Y-68477164D01*
X66603801Y-68515450D01*
X66555818Y-68564629D01*
X66498674Y-68622501D01*
X66434593Y-68686862D01*
X66365802Y-68755511D01*
X66294524Y-68826245D01*
X66222985Y-68896862D01*
X66153410Y-68965160D01*
X66088023Y-69028936D01*
X66029049Y-69085990D01*
X65978713Y-69134118D01*
X65939241Y-69171118D01*
X65912857Y-69194788D01*
X65901834Y-69202930D01*
X65901834Y-69385173D01*
X66009945Y-69486049D01*
X66065863Y-69538408D01*
X66128292Y-69597175D01*
X66194797Y-69660025D01*
X66262942Y-69724635D01*
X66330292Y-69788682D01*
X66394412Y-69849843D01*
X66452868Y-69905793D01*
X66503222Y-69954210D01*
X66543042Y-69992770D01*
X66569890Y-70019149D01*
X66581332Y-70031024D01*
X66581566Y-70031445D01*
X66581566Y-70155036D01*
X66725514Y-70167041D01*
X67357082Y-70767578D01*
X67988651Y-71368115D01*
X68076925Y-71367674D01*
X68165200Y-71367232D01*
X68061574Y-71270223D01*
X68003777Y-71215931D01*
X67935872Y-71151832D01*
X67859668Y-71079656D01*
X67776971Y-71001132D01*
X67689587Y-70917989D01*
X67599325Y-70831959D01*
X67507990Y-70744770D01*
X67417391Y-70658153D01*
X67329333Y-70573837D01*
X67245625Y-70493552D01*
X67168073Y-70419027D01*
X67098483Y-70351994D01*
X67038664Y-70294181D01*
X66990422Y-70247319D01*
X66955564Y-70213136D01*
X66935897Y-70193364D01*
X66932124Y-70189030D01*
X66945248Y-70188732D01*
X66978851Y-70190371D01*
X67028360Y-70193663D01*
X67089203Y-70198322D01*
X67113508Y-70200322D01*
X67291289Y-70215217D01*
X67291289Y-70098595D01*
X67262997Y-70092574D01*
X67240622Y-70089503D01*
X67198523Y-70085188D01*
X67142062Y-70080128D01*
X67076605Y-70074821D01*
X67052378Y-70072984D01*
X66982819Y-70067567D01*
X66918222Y-70062099D01*
X66864692Y-70057128D01*
X66828330Y-70053201D01*
X66821731Y-70052315D01*
X66808184Y-70048974D01*
X66792326Y-70041741D01*
X66772379Y-70029080D01*
X66746567Y-70009451D01*
X66713111Y-69981318D01*
X66670233Y-69943142D01*
X66616157Y-69893386D01*
X66549104Y-69830511D01*
X66467297Y-69752981D01*
X66384290Y-69673891D01*
X66302146Y-69595204D01*
X66226071Y-69521752D01*
X66157915Y-69455364D01*
X66099528Y-69397867D01*
X66052759Y-69351091D01*
X66019458Y-69316864D01*
X66001473Y-69297013D01*
X65998798Y-69292780D01*
X66008499Y-69281643D01*
X66033799Y-69255611D01*
X66072158Y-69217210D01*
X66121040Y-69168968D01*
X66177906Y-69113410D01*
X66219334Y-69073232D01*
X66436240Y-68863471D01*
X66436240Y-69481977D01*
X66675151Y-69481977D01*
X66675151Y-68727521D01*
X66568698Y-68727521D01*
X66706586Y-68589205D01*
X66804400Y-68491087D01*
X66804400Y-68299997D01*
X66788970Y-68298169D01*
X66780373Y-68288917D01*
X66776627Y-68266590D01*
X66775751Y-68225535D01*
X66775745Y-68218264D01*
X66775745Y-68136531D01*
X66995068Y-68136531D01*
X66914061Y-68218264D01*
X66864812Y-68264370D01*
X66827081Y-68291946D01*
X66804400Y-68299997D01*
X66804400Y-68491087D01*
X66844474Y-68450888D01*
X66967288Y-68450888D01*
X67023790Y-68450503D01*
X67059735Y-68448740D01*
X67079710Y-68444690D01*
X67088303Y-68437441D01*
X67090101Y-68426510D01*
X67092742Y-68414352D01*
X67103328Y-68405367D01*
X67125859Y-68398466D01*
X67164331Y-68392564D01*
X67222742Y-68386575D01*
X67244136Y-68384653D01*
X67291289Y-68380492D01*
X67291289Y-70098595D01*
X67291289Y-70215217D01*
X67291289Y-70374749D01*
X67404458Y-70374749D01*
X67404458Y-70306954D01*
X67405544Y-70267302D01*
X67410786Y-70245756D01*
X67413906Y-70243120D01*
X67413906Y-70104256D01*
X67406778Y-70096948D01*
X67404578Y-70071633D01*
X67404458Y-70054548D01*
X67404458Y-69997521D01*
X67404458Y-69784861D01*
X67404458Y-68370338D01*
X67453454Y-68418182D01*
X67513916Y-68492490D01*
X67560549Y-68584456D01*
X67593991Y-68695638D01*
X67612487Y-68806111D01*
X67621118Y-68878413D01*
X67530200Y-68878413D01*
X67530200Y-69456828D01*
X67633347Y-69456828D01*
X67624744Y-69541705D01*
X67617484Y-69601008D01*
X67607861Y-69664191D01*
X67600988Y-69702026D01*
X67585833Y-69777472D01*
X67495145Y-69781166D01*
X67404458Y-69784861D01*
X67404458Y-69997521D01*
X67454755Y-69997521D01*
X67486264Y-69999184D01*
X67503777Y-70003337D01*
X67505052Y-70005011D01*
X67496986Y-70023627D01*
X67477420Y-70050823D01*
X67453296Y-70078088D01*
X67431558Y-70096907D01*
X67428732Y-70098583D01*
X67413906Y-70104256D01*
X67413906Y-70243120D01*
X67423159Y-70235302D01*
X67436636Y-70231082D01*
X67471613Y-70213859D01*
X67513661Y-70180778D01*
X67556884Y-70137533D01*
X67595386Y-70089814D01*
X67615439Y-70058470D01*
X67637389Y-70022763D01*
X67655829Y-70004459D01*
X67677572Y-69998028D01*
X67690522Y-69997534D01*
X67693665Y-69997534D01*
X67693665Y-69356234D01*
X67630794Y-69356234D01*
X67630794Y-68979007D01*
X67693665Y-68979007D01*
X67693665Y-69356234D01*
X67693665Y-69997534D01*
X67731388Y-69997521D01*
X67731388Y-69891688D01*
X67730211Y-69842995D01*
X67727075Y-69805045D01*
X67722569Y-69783948D01*
X67720745Y-69781663D01*
X67717945Y-69768281D01*
X67719092Y-69735714D01*
X67723847Y-69689556D01*
X67728237Y-69658016D01*
X67736862Y-69600828D01*
X67744649Y-69548526D01*
X67750393Y-69509222D01*
X67752025Y-69497695D01*
X67761352Y-69467577D01*
X67775968Y-69456828D01*
X67781920Y-69453560D01*
X67786462Y-69441870D01*
X67789770Y-69418928D01*
X67792025Y-69381905D01*
X67793406Y-69327972D01*
X67794090Y-69254300D01*
X67794260Y-69167620D01*
X67794163Y-69075111D01*
X67793710Y-69004734D01*
X67792650Y-68953476D01*
X67790737Y-68918320D01*
X67787721Y-68896251D01*
X67783355Y-68884255D01*
X67777391Y-68879316D01*
X67770456Y-68878413D01*
X67748445Y-68870719D01*
X67735919Y-68845519D01*
X67731452Y-68799631D01*
X67731388Y-68791376D01*
X67723372Y-68713667D01*
X67701304Y-68625407D01*
X67668156Y-68534555D01*
X67626901Y-68449070D01*
X67580509Y-68376914D01*
X67573158Y-68367568D01*
X67549242Y-68337107D01*
X67539664Y-68319068D01*
X67542760Y-68306471D01*
X67555536Y-68293540D01*
X67580562Y-68255347D01*
X67590169Y-68205642D01*
X67585173Y-68152116D01*
X67566389Y-68102462D01*
X67534634Y-68064373D01*
X67530943Y-68061615D01*
X67471665Y-68033114D01*
X67410306Y-68027812D01*
X67351813Y-68045122D01*
X67301136Y-68084460D01*
X67296951Y-68089270D01*
X67277073Y-68117200D01*
X67268319Y-68145538D01*
X67267687Y-68185377D01*
X67268248Y-68195329D01*
X67269678Y-68234308D01*
X67266401Y-68254386D01*
X67256512Y-68261655D01*
X67247279Y-68262400D01*
X67220496Y-68263924D01*
X67180215Y-68267705D01*
X67156116Y-68270422D01*
X67117839Y-68274363D01*
X67098244Y-68272724D01*
X67091082Y-68263219D01*
X67090101Y-68246289D01*
X67093339Y-68236248D01*
X67103820Y-68220050D01*
X67122692Y-68196495D01*
X67151105Y-68164383D01*
X67190205Y-68122512D01*
X67241143Y-68069683D01*
X67305067Y-68004695D01*
X67383126Y-67926349D01*
X67476468Y-67833443D01*
X67586242Y-67724777D01*
X67639288Y-67672409D01*
X68188473Y-67130591D01*
X68101392Y-67131210D01*
M02*
