%TF.GenerationSoftware,KiCad,Pcbnew,4.0.7*%
%TF.CreationDate,2018-01-22T14:26:12+01:00*%
%TF.ProjectId,RPi_Hat,5250695F4861742E6B696361645F7063,rev?*%
%TF.FileFunction,Copper,L1,Top,Signal*%
%FSLAX46Y46*%
G04 Gerber Fmt 4.6, Leading zero omitted, Abs format (unit mm)*
G04 Created by KiCad (PCBNEW 4.0.7) date 01/22/18 14:26:12*
%MOMM*%
%LPD*%
G01*
G04 APERTURE LIST*
%ADD10C,0.050000*%
%ADD11C,0.100000*%
%ADD12C,5.400000*%
%ADD13O,2.000000X2.000000*%
%ADD14R,1.800000X1.800000*%
%ADD15R,2.500000X2.400000*%
%ADD16O,2.500000X3.000000*%
%ADD17C,1.000000*%
G04 APERTURE END LIST*
D10*
D11*
X55070000Y-48260000D02*
X114070000Y-48260000D01*
X117070000Y-51260000D02*
G75*
G03X114070000Y-48260000I-3000000J0D01*
G01*
X55070000Y-48260000D02*
G75*
G03X52070000Y-51260000I0J-3000000D01*
G01*
X117070000Y-51260000D02*
X117070000Y-101760000D01*
X52070000Y-93980000D02*
X52070000Y-63500000D01*
X114070000Y-104760000D02*
G75*
G03X117070000Y-101760000I0J3000000D01*
G01*
X52070000Y-101760000D02*
G75*
G03X55070000Y-104760000I3000000J0D01*
G01*
X52070000Y-86260000D02*
X52070000Y-101760000D01*
X52070000Y-51260000D02*
X52070000Y-67260000D01*
X55070000Y-104760000D02*
X114070000Y-104760000D01*
D12*
X113570000Y-52260000D03*
X113570000Y-101260000D03*
X55570000Y-101260000D03*
X55570000Y-52260000D03*
D13*
X60440000Y-53530000D03*
X60440000Y-50990000D03*
X62980000Y-53530000D03*
X62980000Y-50990000D03*
X65520000Y-53530000D03*
X65520000Y-50990000D03*
X68060000Y-53530000D03*
X68060000Y-50990000D03*
X70600000Y-53530000D03*
X70600000Y-50990000D03*
X73140000Y-53530000D03*
X73140000Y-50990000D03*
X75680000Y-53530000D03*
X75680000Y-50990000D03*
X78220000Y-53530000D03*
X78220000Y-50990000D03*
X80760000Y-53530000D03*
X80760000Y-50990000D03*
X83300000Y-53530000D03*
X83300000Y-50990000D03*
X85840000Y-53530000D03*
X85840000Y-50990000D03*
X88380000Y-53530000D03*
X88380000Y-50990000D03*
X90920000Y-53530000D03*
X90920000Y-50990000D03*
X93460000Y-53530000D03*
X93460000Y-50990000D03*
X96000000Y-53530000D03*
X96000000Y-50990000D03*
X98540000Y-53530000D03*
X98540000Y-50990000D03*
X101080000Y-53530000D03*
X101080000Y-50990000D03*
X103620000Y-53530000D03*
X103620000Y-50990000D03*
X106160000Y-53530000D03*
X106160000Y-50990000D03*
X108700000Y-53530000D03*
X108700000Y-50990000D03*
D14*
X104140000Y-64770000D03*
X104140000Y-62230000D03*
X91440000Y-64770000D03*
X91440000Y-62230000D03*
X104140000Y-78740000D03*
X104140000Y-76200000D03*
X91440000Y-78740000D03*
X91440000Y-76200000D03*
X78740000Y-78740000D03*
X78740000Y-76200000D03*
D15*
X109220000Y-59080000D03*
X109220000Y-65380000D03*
X96520000Y-59080000D03*
X96520000Y-65380000D03*
X109220000Y-81890000D03*
X109220000Y-75590000D03*
X96520000Y-81890000D03*
X96520000Y-75590000D03*
X83820000Y-81890000D03*
X83820000Y-75590000D03*
D16*
X101600000Y-86560000D03*
X106600000Y-86560000D03*
X101600000Y-99060000D03*
X106600000Y-99060000D03*
X87630000Y-86560000D03*
X92630000Y-86560000D03*
X87630000Y-99060000D03*
X92630000Y-99060000D03*
X74930000Y-86560000D03*
X79930000Y-86560000D03*
X74930000Y-99060000D03*
X79930000Y-99060000D03*
X62230000Y-86560000D03*
X67230000Y-86560000D03*
X62230000Y-99060000D03*
X67230000Y-99060000D03*
D17*
X104140000Y-64770000D02*
X108610000Y-64770000D01*
X108610000Y-64770000D02*
X109220000Y-65380000D01*
X78220000Y-53530000D02*
X78220000Y-66790000D01*
X101600000Y-62230000D02*
X100330000Y-63500000D01*
X100330000Y-63500000D02*
X100330000Y-67310000D01*
X100330000Y-67310000D02*
X99060000Y-68580000D01*
X99060000Y-68580000D02*
X87630000Y-68580000D01*
X101600000Y-62230000D02*
X104140000Y-62230000D01*
X80010000Y-68580000D02*
X87630000Y-68580000D01*
X78220000Y-66790000D02*
X80010000Y-68580000D01*
X91440000Y-64770000D02*
X95910000Y-64770000D01*
X95910000Y-64770000D02*
X96520000Y-65380000D01*
X96000000Y-53530000D02*
X96000000Y-55765000D01*
X91440000Y-57150000D02*
X91440000Y-62230000D01*
X92075000Y-56515000D02*
X91440000Y-57150000D01*
X95250000Y-56515000D02*
X92075000Y-56515000D01*
X96000000Y-55765000D02*
X95250000Y-56515000D01*
X104140000Y-78740000D02*
X106070000Y-78740000D01*
X106070000Y-78740000D02*
X109220000Y-75590000D01*
X75680000Y-53530000D02*
X75680000Y-68060000D01*
X98425000Y-70485000D02*
X104140000Y-76200000D01*
X78105000Y-70485000D02*
X98425000Y-70485000D01*
X75680000Y-68060000D02*
X78105000Y-70485000D01*
X91440000Y-78740000D02*
X93370000Y-78740000D01*
X93370000Y-78740000D02*
X96520000Y-75590000D01*
X73140000Y-53530000D02*
X73140000Y-69330000D01*
X91440000Y-73660000D02*
X91440000Y-76200000D01*
X90170000Y-72390000D02*
X91440000Y-73660000D01*
X76200000Y-72390000D02*
X90170000Y-72390000D01*
X73140000Y-69330000D02*
X76200000Y-72390000D01*
X78740000Y-78740000D02*
X80670000Y-78740000D01*
X80670000Y-78740000D02*
X83820000Y-75590000D01*
X74930000Y-74930000D02*
X77470000Y-74930000D01*
X70485000Y-70485000D02*
X74930000Y-74930000D01*
X68060000Y-53530000D02*
X68060000Y-55995000D01*
X69850000Y-56515000D02*
X70485000Y-57150000D01*
X68580000Y-56515000D02*
X69850000Y-56515000D01*
X68060000Y-55995000D02*
X68580000Y-56515000D01*
X70485000Y-57150000D02*
X70485000Y-70485000D01*
X77470000Y-74930000D02*
X78740000Y-76200000D01*
X107937500Y-83172500D02*
X107937500Y-81890000D01*
X82537500Y-83172500D02*
X82537500Y-81890000D01*
X94920000Y-83490000D02*
X94920000Y-81890000D01*
X67230000Y-86560000D02*
X67230000Y-85805000D01*
X67230000Y-85805000D02*
X71145000Y-81890000D01*
X83820000Y-81890000D02*
X82537500Y-81890000D01*
X82537500Y-81890000D02*
X71145000Y-81890000D01*
X71145000Y-81890000D02*
X71120000Y-81915000D01*
X79930000Y-86560000D02*
X79930000Y-85780000D01*
X79930000Y-85780000D02*
X82537500Y-83172500D01*
X82537500Y-83172500D02*
X83820000Y-81890000D01*
X92630000Y-86560000D02*
X92630000Y-85780000D01*
X92630000Y-85780000D02*
X94920000Y-83490000D01*
X94920000Y-83490000D02*
X96520000Y-81890000D01*
X106600000Y-86560000D02*
X106600000Y-84510000D01*
X106600000Y-84510000D02*
X107937500Y-83172500D01*
X107937500Y-83172500D02*
X109220000Y-81890000D01*
X109220000Y-81890000D02*
X107937500Y-81890000D01*
X107937500Y-81890000D02*
X94920000Y-81890000D01*
X94920000Y-81890000D02*
X83820000Y-81890000D01*
X109220000Y-57150000D02*
X111150000Y-59080000D01*
X109220000Y-57150000D02*
X107290000Y-59080000D01*
X72390000Y-102870000D02*
X101600000Y-102870000D01*
X108700000Y-53530000D02*
X108700000Y-55995000D01*
X109220000Y-56515000D02*
X109220000Y-57150000D01*
X109220000Y-57150000D02*
X109220000Y-59080000D01*
X108700000Y-55995000D02*
X109220000Y-56515000D01*
X96520000Y-59080000D02*
X107290000Y-59080000D01*
X107290000Y-59080000D02*
X109220000Y-59080000D01*
X106600000Y-86560000D02*
X106600000Y-99060000D01*
X109220000Y-81890000D02*
X111150000Y-81890000D01*
X111150000Y-81890000D02*
X113030000Y-80010000D01*
X113030000Y-80010000D02*
X113030000Y-60960000D01*
X113030000Y-60960000D02*
X111150000Y-59080000D01*
X111150000Y-59080000D02*
X109220000Y-59080000D01*
X96520000Y-81890000D02*
X95910000Y-81890000D01*
X108610000Y-81890000D02*
X109220000Y-81890000D01*
X96520000Y-59080000D02*
X97130000Y-59080000D01*
X92710000Y-101600000D02*
X93980000Y-102870000D01*
X93980000Y-102870000D02*
X101600000Y-102870000D01*
X106680000Y-101600000D02*
X106680000Y-99140000D01*
X101600000Y-102870000D02*
X105410000Y-102870000D01*
X105410000Y-102870000D02*
X106680000Y-101600000D01*
X106680000Y-99140000D02*
X106600000Y-99060000D01*
X80010000Y-101600000D02*
X81280000Y-102870000D01*
X92710000Y-101600000D02*
X92710000Y-99140000D01*
X91440000Y-102870000D02*
X92710000Y-101600000D01*
X81280000Y-102870000D02*
X91440000Y-102870000D01*
X92710000Y-99140000D02*
X92630000Y-99060000D01*
X67230000Y-99060000D02*
X67230000Y-101520000D01*
X80010000Y-101600000D02*
X80010000Y-99140000D01*
X78740000Y-102870000D02*
X80010000Y-101600000D01*
X68580000Y-102870000D02*
X72390000Y-102870000D01*
X72390000Y-102870000D02*
X78740000Y-102870000D01*
X67230000Y-101520000D02*
X68580000Y-102870000D01*
X80010000Y-99140000D02*
X79930000Y-99060000D01*
M02*
