%TF.GenerationSoftware,KiCad,Pcbnew,4.0.7*%
%TF.CreationDate,2018-01-22T14:26:12+01:00*%
%TF.ProjectId,RPi_Hat,5250695F4861742E6B696361645F7063,rev?*%
%TF.FileFunction,Soldermask,Bot*%
%FSLAX46Y46*%
G04 Gerber Fmt 4.6, Leading zero omitted, Abs format (unit mm)*
G04 Created by KiCad (PCBNEW 4.0.7) date 01/22/18 14:26:12*
%MOMM*%
%LPD*%
G01*
G04 APERTURE LIST*
%ADD10C,0.050000*%
%ADD11C,0.100000*%
%ADD12C,5.400000*%
%ADD13O,2.000000X2.000000*%
%ADD14R,1.800000X1.800000*%
%ADD15R,2.400000X2.500000*%
%ADD16O,2.500000X3.000000*%
G04 APERTURE END LIST*
D10*
D11*
X55070000Y-48260000D02*
X114070000Y-48260000D01*
X117070000Y-51260000D02*
G75*
G03X114070000Y-48260000I-3000000J0D01*
G01*
X55070000Y-48260000D02*
G75*
G03X52070000Y-51260000I0J-3000000D01*
G01*
X117070000Y-51260000D02*
X117070000Y-101760000D01*
X52070000Y-93980000D02*
X52070000Y-63500000D01*
X114070000Y-104760000D02*
G75*
G03X117070000Y-101760000I0J3000000D01*
G01*
X52070000Y-101760000D02*
G75*
G03X55070000Y-104760000I3000000J0D01*
G01*
X52070000Y-86260000D02*
X52070000Y-101760000D01*
X52070000Y-51260000D02*
X52070000Y-67260000D01*
X55070000Y-104760000D02*
X114070000Y-104760000D01*
D12*
X113570000Y-52260000D03*
X113570000Y-101260000D03*
X55570000Y-101260000D03*
X55570000Y-52260000D03*
D13*
X60440000Y-53530000D03*
X60440000Y-50990000D03*
X62980000Y-53530000D03*
X62980000Y-50990000D03*
X65520000Y-53530000D03*
X65520000Y-50990000D03*
X68060000Y-53530000D03*
X68060000Y-50990000D03*
X70600000Y-53530000D03*
X70600000Y-50990000D03*
X73140000Y-53530000D03*
X73140000Y-50990000D03*
X75680000Y-53530000D03*
X75680000Y-50990000D03*
X78220000Y-53530000D03*
X78220000Y-50990000D03*
X80760000Y-53530000D03*
X80760000Y-50990000D03*
X83300000Y-53530000D03*
X83300000Y-50990000D03*
X85840000Y-53530000D03*
X85840000Y-50990000D03*
X88380000Y-53530000D03*
X88380000Y-50990000D03*
X90920000Y-53530000D03*
X90920000Y-50990000D03*
X93460000Y-53530000D03*
X93460000Y-50990000D03*
X96000000Y-53530000D03*
X96000000Y-50990000D03*
X98540000Y-53530000D03*
X98540000Y-50990000D03*
X101080000Y-53530000D03*
X101080000Y-50990000D03*
X103620000Y-53530000D03*
X103620000Y-50990000D03*
X106160000Y-53530000D03*
X106160000Y-50990000D03*
X108700000Y-53530000D03*
X108700000Y-50990000D03*
D14*
X104140000Y-64770000D03*
X104140000Y-62230000D03*
X91440000Y-64770000D03*
X91440000Y-62230000D03*
X104140000Y-78740000D03*
X104140000Y-76200000D03*
X91440000Y-78740000D03*
X91440000Y-76200000D03*
X78740000Y-78740000D03*
X78740000Y-76200000D03*
D15*
X100990000Y-92710000D03*
X107290000Y-92710000D03*
X87020000Y-92710000D03*
X93320000Y-92710000D03*
X74320000Y-92710000D03*
X80620000Y-92710000D03*
X61620000Y-92710000D03*
X67920000Y-92710000D03*
X76860000Y-58420000D03*
X83160000Y-58420000D03*
D16*
X101600000Y-86560000D03*
X106600000Y-86560000D03*
X101600000Y-99060000D03*
X106600000Y-99060000D03*
X87630000Y-86560000D03*
X92630000Y-86560000D03*
X87630000Y-99060000D03*
X92630000Y-99060000D03*
X74930000Y-86560000D03*
X79930000Y-86560000D03*
X74930000Y-99060000D03*
X79930000Y-99060000D03*
X62230000Y-86560000D03*
X67230000Y-86560000D03*
X62230000Y-99060000D03*
X67230000Y-99060000D03*
M02*
